M48
; DRILL file {KiCad (6.0.10)} date Tue Apr  4 14:21:15 2023
; FORMAT={-:-/ absolute / inch / decimal}
; #@! TF.CreationDate,2023-04-04T14:21:15-05:00
; #@! TF.GenerationSoftware,Kicad,Pcbnew,(6.0.10)
; #@! TF.FileFunction,Plated,1,2,PTH
FMAT,2
INCH
; #@! TA.AperFunction,Plated,PTH,ViaDrill
T1C0.0157
; #@! TA.AperFunction,Plated,PTH,ComponentDrill
T2C0.0394
; #@! TA.AperFunction,Plated,PTH,ComponentDrill
T3C0.0433
; #@! TA.AperFunction,Plated,PTH,ComponentDrill
T4C0.0472
; #@! TA.AperFunction,Plated,PTH,ComponentDrill
T5C0.0551
%
G90
G05
T1
X4.915Y-2.5001
X5.05Y-2.5066
X5.58Y-4.845
X5.93Y-4.845
T2
X6.43Y-5.04
X6.53Y-5.04
T3
X5.445Y-2.715
X5.445Y-2.815
X5.445Y-2.915
X5.445Y-3.015
X5.445Y-3.115
X5.445Y-3.215
X5.445Y-3.315
X5.445Y-3.415
X5.445Y-3.515
X5.445Y-3.615
X5.445Y-3.715
X5.445Y-3.815
X5.445Y-3.915
X5.445Y-4.015
X5.445Y-4.115
X5.445Y-4.215
X5.445Y-4.315
X5.445Y-4.415
X5.445Y-4.515
X5.445Y-4.615
X5.445Y-4.715
X5.445Y-4.815
X5.445Y-4.915
X5.445Y-5.015
X6.045Y-2.715
X6.045Y-2.815
X6.045Y-2.915
X6.045Y-3.015
X6.045Y-3.115
X6.045Y-3.215
X6.045Y-3.315
X6.045Y-3.415
X6.045Y-3.515
X6.045Y-3.615
X6.045Y-3.715
X6.045Y-3.815
X6.045Y-3.915
X6.045Y-4.015
X6.045Y-4.115
X6.045Y-4.215
X6.045Y-4.315
X6.045Y-4.415
X6.045Y-4.515
X6.045Y-4.615
X6.045Y-4.715
X6.045Y-4.815
X6.045Y-4.915
X6.045Y-5.015
T4
X5.177Y-2.7771
X5.177Y-2.9149
X5.177Y-3.0527
X5.177Y-3.1905
X5.177Y-3.3283
X5.177Y-3.4661
X5.177Y-3.6039
X5.177Y-3.7417
X5.177Y-3.8795
X5.177Y-4.0173
X5.177Y-4.1551
X5.177Y-4.2929
X5.9313Y-2.24
X5.9313Y-2.34
X5.9313Y-2.44
X6.315Y-2.7571
X6.315Y-2.8949
X6.315Y-3.0327
X6.315Y-3.1705
X6.315Y-3.3083
X6.315Y-3.4461
X6.315Y-3.5839
X6.315Y-3.7217
X6.315Y-3.8595
X6.315Y-3.9973
X6.315Y-4.1351
X6.315Y-4.2729
T5
X6.2508Y-2.2316
X6.2508Y-2.4284
X6.3208Y-4.5966
X6.3208Y-4.7934
T0
M30
