%TF.GenerationSoftware,KiCad,Pcbnew,(6.0.10)*%
%TF.CreationDate,2023-04-10T11:13:22-05:00*%
%TF.ProjectId,lowerArm,6c6f7765-7241-4726-9d2e-6b696361645f,rev?*%
%TF.SameCoordinates,Original*%
%TF.FileFunction,Soldermask,Bot*%
%TF.FilePolarity,Negative*%
%FSLAX46Y46*%
G04 Gerber Fmt 4.6, Leading zero omitted, Abs format (unit mm)*
G04 Created by KiCad (PCBNEW (6.0.10)) date 2023-04-10 11:13:22*
%MOMM*%
%LPD*%
G01*
G04 APERTURE LIST*
%ADD10R,1.600000X1.600000*%
%ADD11C,1.600000*%
%ADD12O,3.500000X3.500000*%
%ADD13R,2.000000X1.905000*%
%ADD14O,2.000000X1.905000*%
%ADD15R,2.400000X2.400000*%
%ADD16C,2.400000*%
%ADD17R,1.700000X1.700000*%
%ADD18O,1.700000X1.700000*%
%ADD19R,2.800000X2.800000*%
%ADD20C,2.800000*%
G04 APERTURE END LIST*
D10*
%TO.C,U3*%
X138303000Y-68961000D03*
D11*
X138303000Y-71501000D03*
X138303000Y-74041000D03*
X138303000Y-76581000D03*
X138303000Y-79121000D03*
X138303000Y-81661000D03*
X138303000Y-84201000D03*
X138303000Y-86741000D03*
X138303000Y-89281000D03*
X138303000Y-91821000D03*
X138303000Y-94361000D03*
X138303000Y-96901000D03*
X138303000Y-99441000D03*
X138303000Y-101981000D03*
X138303000Y-104521000D03*
X138303000Y-107061000D03*
X138303000Y-109601000D03*
X138303000Y-112141000D03*
X138303000Y-114681000D03*
X138303000Y-117221000D03*
X138303000Y-119761000D03*
X138303000Y-122301000D03*
X138303000Y-124841000D03*
X138303000Y-127381000D03*
X153543000Y-127381000D03*
X153543000Y-124841000D03*
X153543000Y-122301000D03*
X153543000Y-119761000D03*
X153543000Y-117221000D03*
X153543000Y-114681000D03*
X153543000Y-112141000D03*
X153543000Y-109601000D03*
X153543000Y-107061000D03*
X153543000Y-104521000D03*
X153543000Y-101981000D03*
X153543000Y-99441000D03*
X153543000Y-96901000D03*
X153543000Y-94361000D03*
X153543000Y-91821000D03*
X153543000Y-89281000D03*
X153543000Y-86741000D03*
X153543000Y-84201000D03*
X153543000Y-81661000D03*
X153543000Y-79121000D03*
X153543000Y-76581000D03*
X153543000Y-74041000D03*
X153543000Y-71501000D03*
X153543000Y-68961000D03*
%TD*%
D12*
%TO.C,U1*%
X134855000Y-59436000D03*
D13*
X150655000Y-61976000D03*
D14*
X150655000Y-59436000D03*
X150655000Y-56896000D03*
%TD*%
D15*
%TO.C,J1*%
X131495000Y-70539000D03*
D16*
X131495000Y-74039000D03*
X131495000Y-77539000D03*
X131495000Y-81039000D03*
X131495000Y-84539000D03*
X131495000Y-88039000D03*
X131495000Y-91539000D03*
X131495000Y-95039000D03*
X131495000Y-98539000D03*
X131495000Y-102039000D03*
X131495000Y-105539000D03*
X131495000Y-109039000D03*
%TD*%
D15*
%TO.C,J2*%
X160400988Y-70030996D03*
D16*
X160400988Y-73530996D03*
X160400988Y-77030996D03*
X160400988Y-80530996D03*
X160400988Y-84030996D03*
X160400988Y-87530996D03*
X160400988Y-91030996D03*
X160400988Y-94530996D03*
X160400988Y-98030996D03*
X160400988Y-101530996D03*
X160400988Y-105030996D03*
X160400988Y-108530996D03*
%TD*%
D17*
%TO.C,REF\u002A\u002A*%
X165862000Y-128016000D03*
D18*
X163322000Y-128016000D03*
%TD*%
D19*
%TO.C,J3*%
X158770000Y-56682000D03*
D20*
X158770000Y-61682000D03*
%TD*%
D19*
%TO.C,J3*%
X160548000Y-116753000D03*
D20*
X160548000Y-121753000D03*
%TD*%
M02*
