%TF.GenerationSoftware,KiCad,Pcbnew,(6.0.10)*%
%TF.CreationDate,2023-04-10T11:13:22-05:00*%
%TF.ProjectId,lowerArm,6c6f7765-7241-4726-9d2e-6b696361645f,rev?*%
%TF.SameCoordinates,Original*%
%TF.FileFunction,Soldermask,Top*%
%TF.FilePolarity,Negative*%
%FSLAX46Y46*%
G04 Gerber Fmt 4.6, Leading zero omitted, Abs format (unit mm)*
G04 Created by KiCad (PCBNEW (6.0.10)) date 2023-04-10 11:13:22*
%MOMM*%
%LPD*%
G01*
G04 APERTURE LIST*
G04 Aperture macros list*
%AMRoundRect*
0 Rectangle with rounded corners*
0 $1 Rounding radius*
0 $2 $3 $4 $5 $6 $7 $8 $9 X,Y pos of 4 corners*
0 Add a 4 corners polygon primitive as box body*
4,1,4,$2,$3,$4,$5,$6,$7,$8,$9,$2,$3,0*
0 Add four circle primitives for the rounded corners*
1,1,$1+$1,$2,$3*
1,1,$1+$1,$4,$5*
1,1,$1+$1,$6,$7*
1,1,$1+$1,$8,$9*
0 Add four rect primitives between the rounded corners*
20,1,$1+$1,$2,$3,$4,$5,0*
20,1,$1+$1,$4,$5,$6,$7,0*
20,1,$1+$1,$6,$7,$8,$9,0*
20,1,$1+$1,$8,$9,$2,$3,0*%
G04 Aperture macros list end*
%ADD10R,1.525000X0.650000*%
%ADD11RoundRect,0.243750X0.456250X-0.243750X0.456250X0.243750X-0.456250X0.243750X-0.456250X-0.243750X0*%
%ADD12R,1.600000X1.600000*%
%ADD13C,1.600000*%
%ADD14O,3.500000X3.500000*%
%ADD15R,2.000000X1.905000*%
%ADD16O,2.000000X1.905000*%
%ADD17R,2.400000X2.400000*%
%ADD18C,2.400000*%
%ADD19RoundRect,0.250000X-0.450000X0.262500X-0.450000X-0.262500X0.450000X-0.262500X0.450000X0.262500X0*%
%ADD20R,1.700000X1.700000*%
%ADD21O,1.700000X1.700000*%
%ADD22RoundRect,0.250000X-0.262500X-0.450000X0.262500X-0.450000X0.262500X0.450000X-0.262500X0.450000X0*%
%ADD23R,2.800000X2.800000*%
%ADD24C,2.800000*%
G04 APERTURE END LIST*
D10*
%TO.C,U2*%
X143338000Y-120523000D03*
X143338000Y-121793000D03*
X143338000Y-123063000D03*
X143338000Y-124333000D03*
X148762000Y-124333000D03*
X148762000Y-123063000D03*
X148762000Y-121793000D03*
X148762000Y-120523000D03*
%TD*%
D11*
%TO.C,CAN*%
X128270000Y-57570500D03*
X128270000Y-55695500D03*
%TD*%
D12*
%TO.C,U3*%
X138303000Y-68961000D03*
D13*
X138303000Y-71501000D03*
X138303000Y-74041000D03*
X138303000Y-76581000D03*
X138303000Y-79121000D03*
X138303000Y-81661000D03*
X138303000Y-84201000D03*
X138303000Y-86741000D03*
X138303000Y-89281000D03*
X138303000Y-91821000D03*
X138303000Y-94361000D03*
X138303000Y-96901000D03*
X138303000Y-99441000D03*
X138303000Y-101981000D03*
X138303000Y-104521000D03*
X138303000Y-107061000D03*
X138303000Y-109601000D03*
X138303000Y-112141000D03*
X138303000Y-114681000D03*
X138303000Y-117221000D03*
X138303000Y-119761000D03*
X138303000Y-122301000D03*
X138303000Y-124841000D03*
X138303000Y-127381000D03*
X153543000Y-127381000D03*
X153543000Y-124841000D03*
X153543000Y-122301000D03*
X153543000Y-119761000D03*
X153543000Y-117221000D03*
X153543000Y-114681000D03*
X153543000Y-112141000D03*
X153543000Y-109601000D03*
X153543000Y-107061000D03*
X153543000Y-104521000D03*
X153543000Y-101981000D03*
X153543000Y-99441000D03*
X153543000Y-96901000D03*
X153543000Y-94361000D03*
X153543000Y-91821000D03*
X153543000Y-89281000D03*
X153543000Y-86741000D03*
X153543000Y-84201000D03*
X153543000Y-81661000D03*
X153543000Y-79121000D03*
X153543000Y-76581000D03*
X153543000Y-74041000D03*
X153543000Y-71501000D03*
X153543000Y-68961000D03*
%TD*%
D14*
%TO.C,U1*%
X134855000Y-59436000D03*
D15*
X150655000Y-61976000D03*
D16*
X150655000Y-59436000D03*
X150655000Y-56896000D03*
%TD*%
D17*
%TO.C,J1*%
X131495000Y-70539000D03*
D18*
X131495000Y-74039000D03*
X131495000Y-77539000D03*
X131495000Y-81039000D03*
X131495000Y-84539000D03*
X131495000Y-88039000D03*
X131495000Y-91539000D03*
X131495000Y-95039000D03*
X131495000Y-98539000D03*
X131495000Y-102039000D03*
X131495000Y-105539000D03*
X131495000Y-109039000D03*
%TD*%
D19*
%TO.C,R3*%
X124968000Y-60154500D03*
X124968000Y-61979500D03*
%TD*%
D17*
%TO.C,J2*%
X160400988Y-70030996D03*
D18*
X160400988Y-73530996D03*
X160400988Y-77030996D03*
X160400988Y-80530996D03*
X160400988Y-84030996D03*
X160400988Y-87530996D03*
X160400988Y-91030996D03*
X160400988Y-94530996D03*
X160400988Y-98030996D03*
X160400988Y-101530996D03*
X160400988Y-105030996D03*
X160400988Y-108530996D03*
%TD*%
D20*
%TO.C,REF\u002A\u002A*%
X165862000Y-128016000D03*
D21*
X163322000Y-128016000D03*
%TD*%
D22*
%TO.C,R3*%
X157964500Y-127508000D03*
X159789500Y-127508000D03*
%TD*%
D19*
%TO.C,R3*%
X128270000Y-60292500D03*
X128270000Y-62117500D03*
%TD*%
D23*
%TO.C,J3*%
X158770000Y-56682000D03*
D24*
X158770000Y-61682000D03*
%TD*%
D23*
%TO.C,J3*%
X160548000Y-116753000D03*
D24*
X160548000Y-121753000D03*
%TD*%
D11*
%TO.C,REF\u002A\u002A*%
X124968000Y-57432500D03*
X124968000Y-55557500D03*
%TD*%
M02*
