%TF.GenerationSoftware,KiCad,Pcbnew,(6.0.10)*%
%TF.CreationDate,2023-04-10T11:13:22-05:00*%
%TF.ProjectId,lowerArm,6c6f7765-7241-4726-9d2e-6b696361645f,rev?*%
%TF.SameCoordinates,Original*%
%TF.FileFunction,Legend,Top*%
%TF.FilePolarity,Positive*%
%FSLAX46Y46*%
G04 Gerber Fmt 4.6, Leading zero omitted, Abs format (unit mm)*
G04 Created by KiCad (PCBNEW (6.0.10)) date 2023-04-10 11:13:22*
%MOMM*%
%LPD*%
G01*
G04 APERTURE LIST*
%ADD10C,0.150000*%
%ADD11C,0.750000*%
%ADD12C,0.300000*%
%ADD13C,0.254000*%
%ADD14C,0.200000*%
%ADD15C,0.120000*%
G04 APERTURE END LIST*
D10*
X166179666Y-55967380D02*
X166513000Y-56967380D01*
X166846333Y-55967380D01*
X167751095Y-56872142D02*
X167703476Y-56919761D01*
X167560619Y-56967380D01*
X167465380Y-56967380D01*
X167322523Y-56919761D01*
X167227285Y-56824523D01*
X167179666Y-56729285D01*
X167132047Y-56538809D01*
X167132047Y-56395952D01*
X167179666Y-56205476D01*
X167227285Y-56110238D01*
X167322523Y-56015000D01*
X167465380Y-55967380D01*
X167560619Y-55967380D01*
X167703476Y-56015000D01*
X167751095Y-56062619D01*
X168751095Y-56872142D02*
X168703476Y-56919761D01*
X168560619Y-56967380D01*
X168465380Y-56967380D01*
X168322523Y-56919761D01*
X168227285Y-56824523D01*
X168179666Y-56729285D01*
X168132047Y-56538809D01*
X168132047Y-56395952D01*
X168179666Y-56205476D01*
X168227285Y-56110238D01*
X168322523Y-56015000D01*
X168465380Y-55967380D01*
X168560619Y-55967380D01*
X168703476Y-56015000D01*
X168751095Y-56062619D01*
X166033476Y-69197619D02*
X165509666Y-69197619D01*
X165457285Y-69721428D01*
X165509666Y-69669047D01*
X165614428Y-69616666D01*
X165876333Y-69616666D01*
X165981095Y-69669047D01*
X166033476Y-69721428D01*
X166085857Y-69826190D01*
X166085857Y-70088095D01*
X166033476Y-70192857D01*
X165981095Y-70245238D01*
X165876333Y-70297619D01*
X165614428Y-70297619D01*
X165509666Y-70245238D01*
X165457285Y-70192857D01*
X166400142Y-69197619D02*
X166766809Y-70297619D01*
X167133476Y-69197619D01*
X165404904Y-72792000D02*
X165300142Y-72739619D01*
X165143000Y-72739619D01*
X164985857Y-72792000D01*
X164881095Y-72896761D01*
X164828714Y-73001523D01*
X164776333Y-73211047D01*
X164776333Y-73368190D01*
X164828714Y-73577714D01*
X164881095Y-73682476D01*
X164985857Y-73787238D01*
X165143000Y-73839619D01*
X165247761Y-73839619D01*
X165404904Y-73787238D01*
X165457285Y-73734857D01*
X165457285Y-73368190D01*
X165247761Y-73368190D01*
X165928714Y-73839619D02*
X165928714Y-72739619D01*
X166557285Y-73839619D01*
X166557285Y-72739619D01*
X167081095Y-73839619D02*
X167081095Y-72739619D01*
X167343000Y-72739619D01*
X167500142Y-72792000D01*
X167604904Y-72896761D01*
X167657285Y-73001523D01*
X167709666Y-73211047D01*
X167709666Y-73368190D01*
X167657285Y-73577714D01*
X167604904Y-73682476D01*
X167500142Y-73787238D01*
X167343000Y-73839619D01*
X167081095Y-73839619D01*
X165404904Y-76386380D02*
X165457285Y-76334000D01*
X165562047Y-76281619D01*
X165823952Y-76281619D01*
X165928714Y-76334000D01*
X165981095Y-76386380D01*
X166033476Y-76491142D01*
X166033476Y-76595904D01*
X165981095Y-76753047D01*
X165352523Y-77381619D01*
X166033476Y-77381619D01*
X167081095Y-77381619D02*
X166452523Y-77381619D01*
X166766809Y-77381619D02*
X166766809Y-76281619D01*
X166662047Y-76438761D01*
X166557285Y-76543523D01*
X166452523Y-76595904D01*
X165404904Y-79928380D02*
X165457285Y-79876000D01*
X165562047Y-79823619D01*
X165823952Y-79823619D01*
X165928714Y-79876000D01*
X165981095Y-79928380D01*
X166033476Y-80033142D01*
X166033476Y-80137904D01*
X165981095Y-80295047D01*
X165352523Y-80923619D01*
X166033476Y-80923619D01*
X166714428Y-79823619D02*
X166819190Y-79823619D01*
X166923952Y-79876000D01*
X166976333Y-79928380D01*
X167028714Y-80033142D01*
X167081095Y-80242666D01*
X167081095Y-80504571D01*
X167028714Y-80714095D01*
X166976333Y-80818857D01*
X166923952Y-80871238D01*
X166819190Y-80923619D01*
X166714428Y-80923619D01*
X166609666Y-80871238D01*
X166557285Y-80818857D01*
X166504904Y-80714095D01*
X166452523Y-80504571D01*
X166452523Y-80242666D01*
X166504904Y-80033142D01*
X166557285Y-79928380D01*
X166609666Y-79876000D01*
X166714428Y-79823619D01*
X166033476Y-84465619D02*
X165404904Y-84465619D01*
X165719190Y-84465619D02*
X165719190Y-83365619D01*
X165614428Y-83522761D01*
X165509666Y-83627523D01*
X165404904Y-83679904D01*
X166557285Y-84465619D02*
X166766809Y-84465619D01*
X166871571Y-84413238D01*
X166923952Y-84360857D01*
X167028714Y-84203714D01*
X167081095Y-83994190D01*
X167081095Y-83575142D01*
X167028714Y-83470380D01*
X166976333Y-83418000D01*
X166871571Y-83365619D01*
X166662047Y-83365619D01*
X166557285Y-83418000D01*
X166504904Y-83470380D01*
X166452523Y-83575142D01*
X166452523Y-83837047D01*
X166504904Y-83941809D01*
X166557285Y-83994190D01*
X166662047Y-84046571D01*
X166871571Y-84046571D01*
X166976333Y-83994190D01*
X167028714Y-83941809D01*
X167081095Y-83837047D01*
X166033476Y-88007619D02*
X165404904Y-88007619D01*
X165719190Y-88007619D02*
X165719190Y-86907619D01*
X165614428Y-87064761D01*
X165509666Y-87169523D01*
X165404904Y-87221904D01*
X166662047Y-87379047D02*
X166557285Y-87326666D01*
X166504904Y-87274285D01*
X166452523Y-87169523D01*
X166452523Y-87117142D01*
X166504904Y-87012380D01*
X166557285Y-86960000D01*
X166662047Y-86907619D01*
X166871571Y-86907619D01*
X166976333Y-86960000D01*
X167028714Y-87012380D01*
X167081095Y-87117142D01*
X167081095Y-87169523D01*
X167028714Y-87274285D01*
X166976333Y-87326666D01*
X166871571Y-87379047D01*
X166662047Y-87379047D01*
X166557285Y-87431428D01*
X166504904Y-87483809D01*
X166452523Y-87588571D01*
X166452523Y-87798095D01*
X166504904Y-87902857D01*
X166557285Y-87955238D01*
X166662047Y-88007619D01*
X166871571Y-88007619D01*
X166976333Y-87955238D01*
X167028714Y-87902857D01*
X167081095Y-87798095D01*
X167081095Y-87588571D01*
X167028714Y-87483809D01*
X166976333Y-87431428D01*
X166871571Y-87379047D01*
X166033476Y-91549619D02*
X165404904Y-91549619D01*
X165719190Y-91549619D02*
X165719190Y-90449619D01*
X165614428Y-90606761D01*
X165509666Y-90711523D01*
X165404904Y-90763904D01*
X166400142Y-90449619D02*
X167133476Y-90449619D01*
X166662047Y-91549619D01*
X166033476Y-95091619D02*
X165404904Y-95091619D01*
X165719190Y-95091619D02*
X165719190Y-93991619D01*
X165614428Y-94148761D01*
X165509666Y-94253523D01*
X165404904Y-94305904D01*
X166976333Y-93991619D02*
X166766809Y-93991619D01*
X166662047Y-94044000D01*
X166609666Y-94096380D01*
X166504904Y-94253523D01*
X166452523Y-94463047D01*
X166452523Y-94882095D01*
X166504904Y-94986857D01*
X166557285Y-95039238D01*
X166662047Y-95091619D01*
X166871571Y-95091619D01*
X166976333Y-95039238D01*
X167028714Y-94986857D01*
X167081095Y-94882095D01*
X167081095Y-94620190D01*
X167028714Y-94515428D01*
X166976333Y-94463047D01*
X166871571Y-94410666D01*
X166662047Y-94410666D01*
X166557285Y-94463047D01*
X166504904Y-94515428D01*
X166452523Y-94620190D01*
X166033476Y-98633619D02*
X165404904Y-98633619D01*
X165719190Y-98633619D02*
X165719190Y-97533619D01*
X165614428Y-97690761D01*
X165509666Y-97795523D01*
X165404904Y-97847904D01*
X167028714Y-97533619D02*
X166504904Y-97533619D01*
X166452523Y-98057428D01*
X166504904Y-98005047D01*
X166609666Y-97952666D01*
X166871571Y-97952666D01*
X166976333Y-98005047D01*
X167028714Y-98057428D01*
X167081095Y-98162190D01*
X167081095Y-98424095D01*
X167028714Y-98528857D01*
X166976333Y-98581238D01*
X166871571Y-98633619D01*
X166609666Y-98633619D01*
X166504904Y-98581238D01*
X166452523Y-98528857D01*
X166033476Y-102175619D02*
X165404904Y-102175619D01*
X165719190Y-102175619D02*
X165719190Y-101075619D01*
X165614428Y-101232761D01*
X165509666Y-101337523D01*
X165404904Y-101389904D01*
X166976333Y-101442285D02*
X166976333Y-102175619D01*
X166714428Y-101023238D02*
X166452523Y-101808952D01*
X167133476Y-101808952D01*
X166033476Y-105717619D02*
X165404904Y-105717619D01*
X165719190Y-105717619D02*
X165719190Y-104617619D01*
X165614428Y-104774761D01*
X165509666Y-104879523D01*
X165404904Y-104931904D01*
X166400142Y-104617619D02*
X167081095Y-104617619D01*
X166714428Y-105036666D01*
X166871571Y-105036666D01*
X166976333Y-105089047D01*
X167028714Y-105141428D01*
X167081095Y-105246190D01*
X167081095Y-105508095D01*
X167028714Y-105612857D01*
X166976333Y-105665238D01*
X166871571Y-105717619D01*
X166557285Y-105717619D01*
X166452523Y-105665238D01*
X166400142Y-105612857D01*
X165404904Y-108212000D02*
X165300142Y-108159619D01*
X165143000Y-108159619D01*
X164985857Y-108212000D01*
X164881095Y-108316761D01*
X164828714Y-108421523D01*
X164776333Y-108631047D01*
X164776333Y-108788190D01*
X164828714Y-108997714D01*
X164881095Y-109102476D01*
X164985857Y-109207238D01*
X165143000Y-109259619D01*
X165247761Y-109259619D01*
X165404904Y-109207238D01*
X165457285Y-109154857D01*
X165457285Y-108788190D01*
X165247761Y-108788190D01*
X165928714Y-109259619D02*
X165928714Y-108159619D01*
X166557285Y-109259619D01*
X166557285Y-108159619D01*
X167081095Y-109259619D02*
X167081095Y-108159619D01*
X167343000Y-108159619D01*
X167500142Y-108212000D01*
X167604904Y-108316761D01*
X167657285Y-108421523D01*
X167709666Y-108631047D01*
X167709666Y-108788190D01*
X167657285Y-108997714D01*
X167604904Y-109102476D01*
X167500142Y-109207238D01*
X167343000Y-109259619D01*
X167081095Y-109259619D01*
D11*
X125611571Y-119705285D02*
X126040142Y-119848142D01*
X126754428Y-119848142D01*
X127040142Y-119705285D01*
X127183000Y-119562428D01*
X127325857Y-119276714D01*
X127325857Y-118991000D01*
X127183000Y-118705285D01*
X127040142Y-118562428D01*
X126754428Y-118419571D01*
X126183000Y-118276714D01*
X125897285Y-118133857D01*
X125754428Y-117991000D01*
X125611571Y-117705285D01*
X125611571Y-117419571D01*
X125754428Y-117133857D01*
X125897285Y-116991000D01*
X126183000Y-116848142D01*
X126897285Y-116848142D01*
X127325857Y-116991000D01*
X129040142Y-119848142D02*
X128754428Y-119705285D01*
X128611571Y-119562428D01*
X128468714Y-119276714D01*
X128468714Y-118419571D01*
X128611571Y-118133857D01*
X128754428Y-117991000D01*
X129040142Y-117848142D01*
X129468714Y-117848142D01*
X129754428Y-117991000D01*
X129897285Y-118133857D01*
X130040142Y-118419571D01*
X130040142Y-119276714D01*
X129897285Y-119562428D01*
X129754428Y-119705285D01*
X129468714Y-119848142D01*
X129040142Y-119848142D01*
X133040142Y-119848142D02*
X132040142Y-118419571D01*
X131325857Y-119848142D02*
X131325857Y-116848142D01*
X132468714Y-116848142D01*
X132754428Y-116991000D01*
X132897285Y-117133857D01*
X133040142Y-117419571D01*
X133040142Y-117848142D01*
X132897285Y-118133857D01*
X132754428Y-118276714D01*
X132468714Y-118419571D01*
X131325857Y-118419571D01*
X134754428Y-119848142D02*
X134468714Y-119705285D01*
X134325857Y-119562428D01*
X134183000Y-119276714D01*
X134183000Y-118419571D01*
X134325857Y-118133857D01*
X134468714Y-117991000D01*
X134754428Y-117848142D01*
X135183000Y-117848142D01*
X135468714Y-117991000D01*
X135611571Y-118133857D01*
X135754428Y-118419571D01*
X135754428Y-119276714D01*
X135611571Y-119562428D01*
X135468714Y-119705285D01*
X135183000Y-119848142D01*
X134754428Y-119848142D01*
D10*
X125889333Y-124420380D02*
X125889333Y-125134666D01*
X125841714Y-125277523D01*
X125746476Y-125372761D01*
X125603619Y-125420380D01*
X125508380Y-125420380D01*
X126794095Y-125420380D02*
X126794095Y-124896571D01*
X126746476Y-124801333D01*
X126651238Y-124753714D01*
X126460761Y-124753714D01*
X126365523Y-124801333D01*
X126794095Y-125372761D02*
X126698857Y-125420380D01*
X126460761Y-125420380D01*
X126365523Y-125372761D01*
X126317904Y-125277523D01*
X126317904Y-125182285D01*
X126365523Y-125087047D01*
X126460761Y-125039428D01*
X126698857Y-125039428D01*
X126794095Y-124991809D01*
X127698857Y-125372761D02*
X127603619Y-125420380D01*
X127413142Y-125420380D01*
X127317904Y-125372761D01*
X127270285Y-125325142D01*
X127222666Y-125229904D01*
X127222666Y-124944190D01*
X127270285Y-124848952D01*
X127317904Y-124801333D01*
X127413142Y-124753714D01*
X127603619Y-124753714D01*
X127698857Y-124801333D01*
X128127428Y-125420380D02*
X128127428Y-124420380D01*
X128222666Y-125039428D02*
X128508380Y-125420380D01*
X128508380Y-124753714D02*
X128127428Y-125134666D01*
X130270285Y-125325142D02*
X130222666Y-125372761D01*
X130079809Y-125420380D01*
X129984571Y-125420380D01*
X129841714Y-125372761D01*
X129746476Y-125277523D01*
X129698857Y-125182285D01*
X129651238Y-124991809D01*
X129651238Y-124848952D01*
X129698857Y-124658476D01*
X129746476Y-124563238D01*
X129841714Y-124468000D01*
X129984571Y-124420380D01*
X130079809Y-124420380D01*
X130222666Y-124468000D01*
X130270285Y-124515619D01*
X130841714Y-125420380D02*
X130746476Y-125372761D01*
X130698857Y-125325142D01*
X130651238Y-125229904D01*
X130651238Y-124944190D01*
X130698857Y-124848952D01*
X130746476Y-124801333D01*
X130841714Y-124753714D01*
X130984571Y-124753714D01*
X131079809Y-124801333D01*
X131127428Y-124848952D01*
X131175047Y-124944190D01*
X131175047Y-125229904D01*
X131127428Y-125325142D01*
X131079809Y-125372761D01*
X130984571Y-125420380D01*
X130841714Y-125420380D01*
X131603619Y-125420380D02*
X131603619Y-124753714D01*
X131603619Y-124944190D02*
X131651238Y-124848952D01*
X131698857Y-124801333D01*
X131794095Y-124753714D01*
X131889333Y-124753714D01*
X132222666Y-124753714D02*
X132222666Y-125420380D01*
X132222666Y-124848952D02*
X132270285Y-124801333D01*
X132365523Y-124753714D01*
X132508380Y-124753714D01*
X132603619Y-124801333D01*
X132651238Y-124896571D01*
X132651238Y-125420380D01*
X133508380Y-125372761D02*
X133413142Y-125420380D01*
X133222666Y-125420380D01*
X133127428Y-125372761D01*
X133079809Y-125277523D01*
X133079809Y-124896571D01*
X133127428Y-124801333D01*
X133222666Y-124753714D01*
X133413142Y-124753714D01*
X133508380Y-124801333D01*
X133556000Y-124896571D01*
X133556000Y-124991809D01*
X133079809Y-125087047D01*
X133841714Y-124753714D02*
X134222666Y-124753714D01*
X133984571Y-124420380D02*
X133984571Y-125277523D01*
X134032190Y-125372761D01*
X134127428Y-125420380D01*
X134222666Y-125420380D01*
X134413142Y-124753714D02*
X134794095Y-124753714D01*
X134556000Y-124420380D02*
X134556000Y-125277523D01*
X134603619Y-125372761D01*
X134698857Y-125420380D01*
X134794095Y-125420380D01*
X135508380Y-125372761D02*
X135413142Y-125420380D01*
X135222666Y-125420380D01*
X135127428Y-125372761D01*
X135079809Y-125277523D01*
X135079809Y-124896571D01*
X135127428Y-124801333D01*
X135222666Y-124753714D01*
X135413142Y-124753714D01*
X135508380Y-124801333D01*
X135556000Y-124896571D01*
X135556000Y-124991809D01*
X135079809Y-125087047D01*
X166624095Y-61349000D02*
X166528857Y-61301380D01*
X166386000Y-61301380D01*
X166243142Y-61349000D01*
X166147904Y-61444238D01*
X166100285Y-61539476D01*
X166052666Y-61729952D01*
X166052666Y-61872809D01*
X166100285Y-62063285D01*
X166147904Y-62158523D01*
X166243142Y-62253761D01*
X166386000Y-62301380D01*
X166481238Y-62301380D01*
X166624095Y-62253761D01*
X166671714Y-62206142D01*
X166671714Y-61872809D01*
X166481238Y-61872809D01*
X167100285Y-62301380D02*
X167100285Y-61301380D01*
X167671714Y-62301380D01*
X167671714Y-61301380D01*
X168147904Y-62301380D02*
X168147904Y-61301380D01*
X168386000Y-61301380D01*
X168528857Y-61349000D01*
X168624095Y-61444238D01*
X168671714Y-61539476D01*
X168719333Y-61729952D01*
X168719333Y-61872809D01*
X168671714Y-62063285D01*
X168624095Y-62158523D01*
X168528857Y-62253761D01*
X168386000Y-62301380D01*
X168147904Y-62301380D01*
X125266476Y-69578619D02*
X124742666Y-69578619D01*
X124690285Y-70102428D01*
X124742666Y-70050047D01*
X124847428Y-69997666D01*
X125109333Y-69997666D01*
X125214095Y-70050047D01*
X125266476Y-70102428D01*
X125318857Y-70207190D01*
X125318857Y-70469095D01*
X125266476Y-70573857D01*
X125214095Y-70626238D01*
X125109333Y-70678619D01*
X124847428Y-70678619D01*
X124742666Y-70626238D01*
X124690285Y-70573857D01*
X125633142Y-69578619D02*
X125999809Y-70678619D01*
X126366476Y-69578619D01*
X124637904Y-73173000D02*
X124533142Y-73120619D01*
X124376000Y-73120619D01*
X124218857Y-73173000D01*
X124114095Y-73277761D01*
X124061714Y-73382523D01*
X124009333Y-73592047D01*
X124009333Y-73749190D01*
X124061714Y-73958714D01*
X124114095Y-74063476D01*
X124218857Y-74168238D01*
X124376000Y-74220619D01*
X124480761Y-74220619D01*
X124637904Y-74168238D01*
X124690285Y-74115857D01*
X124690285Y-73749190D01*
X124480761Y-73749190D01*
X125161714Y-74220619D02*
X125161714Y-73120619D01*
X125790285Y-74220619D01*
X125790285Y-73120619D01*
X126314095Y-74220619D02*
X126314095Y-73120619D01*
X126576000Y-73120619D01*
X126733142Y-73173000D01*
X126837904Y-73277761D01*
X126890285Y-73382523D01*
X126942666Y-73592047D01*
X126942666Y-73749190D01*
X126890285Y-73958714D01*
X126837904Y-74063476D01*
X126733142Y-74168238D01*
X126576000Y-74220619D01*
X126314095Y-74220619D01*
X125109333Y-76662619D02*
X125790285Y-76662619D01*
X125423619Y-77081666D01*
X125580761Y-77081666D01*
X125685523Y-77134047D01*
X125737904Y-77186428D01*
X125790285Y-77291190D01*
X125790285Y-77553095D01*
X125737904Y-77657857D01*
X125685523Y-77710238D01*
X125580761Y-77762619D01*
X125266476Y-77762619D01*
X125161714Y-77710238D01*
X125109333Y-77657857D01*
X125685523Y-80571285D02*
X125685523Y-81304619D01*
X125423619Y-80152238D02*
X125161714Y-80937952D01*
X125842666Y-80937952D01*
X125737904Y-83746619D02*
X125214095Y-83746619D01*
X125161714Y-84270428D01*
X125214095Y-84218047D01*
X125318857Y-84165666D01*
X125580761Y-84165666D01*
X125685523Y-84218047D01*
X125737904Y-84270428D01*
X125790285Y-84375190D01*
X125790285Y-84637095D01*
X125737904Y-84741857D01*
X125685523Y-84794238D01*
X125580761Y-84846619D01*
X125318857Y-84846619D01*
X125214095Y-84794238D01*
X125161714Y-84741857D01*
X125685523Y-87288619D02*
X125476000Y-87288619D01*
X125371238Y-87341000D01*
X125318857Y-87393380D01*
X125214095Y-87550523D01*
X125161714Y-87760047D01*
X125161714Y-88179095D01*
X125214095Y-88283857D01*
X125266476Y-88336238D01*
X125371238Y-88388619D01*
X125580761Y-88388619D01*
X125685523Y-88336238D01*
X125737904Y-88283857D01*
X125790285Y-88179095D01*
X125790285Y-87917190D01*
X125737904Y-87812428D01*
X125685523Y-87760047D01*
X125580761Y-87707666D01*
X125371238Y-87707666D01*
X125266476Y-87760047D01*
X125214095Y-87812428D01*
X125161714Y-87917190D01*
X125109333Y-90830619D02*
X125842666Y-90830619D01*
X125371238Y-91930619D01*
X125371238Y-94844047D02*
X125266476Y-94791666D01*
X125214095Y-94739285D01*
X125161714Y-94634523D01*
X125161714Y-94582142D01*
X125214095Y-94477380D01*
X125266476Y-94425000D01*
X125371238Y-94372619D01*
X125580761Y-94372619D01*
X125685523Y-94425000D01*
X125737904Y-94477380D01*
X125790285Y-94582142D01*
X125790285Y-94634523D01*
X125737904Y-94739285D01*
X125685523Y-94791666D01*
X125580761Y-94844047D01*
X125371238Y-94844047D01*
X125266476Y-94896428D01*
X125214095Y-94948809D01*
X125161714Y-95053571D01*
X125161714Y-95263095D01*
X125214095Y-95367857D01*
X125266476Y-95420238D01*
X125371238Y-95472619D01*
X125580761Y-95472619D01*
X125685523Y-95420238D01*
X125737904Y-95367857D01*
X125790285Y-95263095D01*
X125790285Y-95053571D01*
X125737904Y-94948809D01*
X125685523Y-94896428D01*
X125580761Y-94844047D01*
X125266476Y-99014619D02*
X125476000Y-99014619D01*
X125580761Y-98962238D01*
X125633142Y-98909857D01*
X125737904Y-98752714D01*
X125790285Y-98543190D01*
X125790285Y-98124142D01*
X125737904Y-98019380D01*
X125685523Y-97967000D01*
X125580761Y-97914619D01*
X125371238Y-97914619D01*
X125266476Y-97967000D01*
X125214095Y-98019380D01*
X125161714Y-98124142D01*
X125161714Y-98386047D01*
X125214095Y-98490809D01*
X125266476Y-98543190D01*
X125371238Y-98595571D01*
X125580761Y-98595571D01*
X125685523Y-98543190D01*
X125737904Y-98490809D01*
X125790285Y-98386047D01*
X125266476Y-102556619D02*
X124637904Y-102556619D01*
X124952190Y-102556619D02*
X124952190Y-101456619D01*
X124847428Y-101613761D01*
X124742666Y-101718523D01*
X124637904Y-101770904D01*
X125947428Y-101456619D02*
X126052190Y-101456619D01*
X126156952Y-101509000D01*
X126209333Y-101561380D01*
X126261714Y-101666142D01*
X126314095Y-101875666D01*
X126314095Y-102137571D01*
X126261714Y-102347095D01*
X126209333Y-102451857D01*
X126156952Y-102504238D01*
X126052190Y-102556619D01*
X125947428Y-102556619D01*
X125842666Y-102504238D01*
X125790285Y-102451857D01*
X125737904Y-102347095D01*
X125685523Y-102137571D01*
X125685523Y-101875666D01*
X125737904Y-101666142D01*
X125790285Y-101561380D01*
X125842666Y-101509000D01*
X125947428Y-101456619D01*
X125266476Y-106098619D02*
X124637904Y-106098619D01*
X124952190Y-106098619D02*
X124952190Y-104998619D01*
X124847428Y-105155761D01*
X124742666Y-105260523D01*
X124637904Y-105312904D01*
X126314095Y-106098619D02*
X125685523Y-106098619D01*
X125999809Y-106098619D02*
X125999809Y-104998619D01*
X125895047Y-105155761D01*
X125790285Y-105260523D01*
X125685523Y-105312904D01*
X125266476Y-109640619D02*
X124637904Y-109640619D01*
X124952190Y-109640619D02*
X124952190Y-108540619D01*
X124847428Y-108697761D01*
X124742666Y-108802523D01*
X124637904Y-108854904D01*
X125685523Y-108645380D02*
X125737904Y-108593000D01*
X125842666Y-108540619D01*
X126104571Y-108540619D01*
X126209333Y-108593000D01*
X126261714Y-108645380D01*
X126314095Y-108750142D01*
X126314095Y-108854904D01*
X126261714Y-109012047D01*
X125633142Y-109640619D01*
X126314095Y-109640619D01*
X126206809Y-121773761D02*
X126349666Y-121821380D01*
X126587761Y-121821380D01*
X126683000Y-121773761D01*
X126730619Y-121726142D01*
X126778238Y-121630904D01*
X126778238Y-121535666D01*
X126730619Y-121440428D01*
X126683000Y-121392809D01*
X126587761Y-121345190D01*
X126397285Y-121297571D01*
X126302047Y-121249952D01*
X126254428Y-121202333D01*
X126206809Y-121107095D01*
X126206809Y-121011857D01*
X126254428Y-120916619D01*
X126302047Y-120869000D01*
X126397285Y-120821380D01*
X126635380Y-120821380D01*
X126778238Y-120869000D01*
X127206809Y-121154714D02*
X127206809Y-122154714D01*
X127206809Y-121202333D02*
X127302047Y-121154714D01*
X127492523Y-121154714D01*
X127587761Y-121202333D01*
X127635380Y-121249952D01*
X127683000Y-121345190D01*
X127683000Y-121630904D01*
X127635380Y-121726142D01*
X127587761Y-121773761D01*
X127492523Y-121821380D01*
X127302047Y-121821380D01*
X127206809Y-121773761D01*
X128111571Y-121821380D02*
X128111571Y-121154714D01*
X128111571Y-121345190D02*
X128159190Y-121249952D01*
X128206809Y-121202333D01*
X128302047Y-121154714D01*
X128397285Y-121154714D01*
X128730619Y-121821380D02*
X128730619Y-121154714D01*
X128730619Y-120821380D02*
X128683000Y-120869000D01*
X128730619Y-120916619D01*
X128778238Y-120869000D01*
X128730619Y-120821380D01*
X128730619Y-120916619D01*
X129206809Y-121154714D02*
X129206809Y-121821380D01*
X129206809Y-121249952D02*
X129254428Y-121202333D01*
X129349666Y-121154714D01*
X129492523Y-121154714D01*
X129587761Y-121202333D01*
X129635380Y-121297571D01*
X129635380Y-121821380D01*
X130540142Y-121154714D02*
X130540142Y-121964238D01*
X130492523Y-122059476D01*
X130444904Y-122107095D01*
X130349666Y-122154714D01*
X130206809Y-122154714D01*
X130111571Y-122107095D01*
X130540142Y-121773761D02*
X130444904Y-121821380D01*
X130254428Y-121821380D01*
X130159190Y-121773761D01*
X130111571Y-121726142D01*
X130063952Y-121630904D01*
X130063952Y-121345190D01*
X130111571Y-121249952D01*
X130159190Y-121202333D01*
X130254428Y-121154714D01*
X130444904Y-121154714D01*
X130540142Y-121202333D01*
X131730619Y-120916619D02*
X131778238Y-120869000D01*
X131873476Y-120821380D01*
X132111571Y-120821380D01*
X132206809Y-120869000D01*
X132254428Y-120916619D01*
X132302047Y-121011857D01*
X132302047Y-121107095D01*
X132254428Y-121249952D01*
X131683000Y-121821380D01*
X132302047Y-121821380D01*
X132921095Y-120821380D02*
X133016333Y-120821380D01*
X133111571Y-120869000D01*
X133159190Y-120916619D01*
X133206809Y-121011857D01*
X133254428Y-121202333D01*
X133254428Y-121440428D01*
X133206809Y-121630904D01*
X133159190Y-121726142D01*
X133111571Y-121773761D01*
X133016333Y-121821380D01*
X132921095Y-121821380D01*
X132825857Y-121773761D01*
X132778238Y-121726142D01*
X132730619Y-121630904D01*
X132683000Y-121440428D01*
X132683000Y-121202333D01*
X132730619Y-121011857D01*
X132778238Y-120916619D01*
X132825857Y-120869000D01*
X132921095Y-120821380D01*
X133635380Y-120916619D02*
X133683000Y-120869000D01*
X133778238Y-120821380D01*
X134016333Y-120821380D01*
X134111571Y-120869000D01*
X134159190Y-120916619D01*
X134206809Y-121011857D01*
X134206809Y-121107095D01*
X134159190Y-121249952D01*
X133587761Y-121821380D01*
X134206809Y-121821380D01*
X134540142Y-120821380D02*
X135159190Y-120821380D01*
X134825857Y-121202333D01*
X134968714Y-121202333D01*
X135063952Y-121249952D01*
X135111571Y-121297571D01*
X135159190Y-121392809D01*
X135159190Y-121630904D01*
X135111571Y-121726142D01*
X135063952Y-121773761D01*
X134968714Y-121821380D01*
X134683000Y-121821380D01*
X134587761Y-121773761D01*
X134540142Y-121726142D01*
X128063952Y-123336142D02*
X128016333Y-123383761D01*
X127873476Y-123431380D01*
X127778238Y-123431380D01*
X127635380Y-123383761D01*
X127540142Y-123288523D01*
X127492523Y-123193285D01*
X127444904Y-123002809D01*
X127444904Y-122859952D01*
X127492523Y-122669476D01*
X127540142Y-122574238D01*
X127635380Y-122479000D01*
X127778238Y-122431380D01*
X127873476Y-122431380D01*
X128016333Y-122479000D01*
X128063952Y-122526619D01*
X128921095Y-123431380D02*
X128921095Y-122907571D01*
X128873476Y-122812333D01*
X128778238Y-122764714D01*
X128587761Y-122764714D01*
X128492523Y-122812333D01*
X128921095Y-123383761D02*
X128825857Y-123431380D01*
X128587761Y-123431380D01*
X128492523Y-123383761D01*
X128444904Y-123288523D01*
X128444904Y-123193285D01*
X128492523Y-123098047D01*
X128587761Y-123050428D01*
X128825857Y-123050428D01*
X128921095Y-123002809D01*
X129397285Y-122764714D02*
X129397285Y-123764714D01*
X129397285Y-122812333D02*
X129492523Y-122764714D01*
X129683000Y-122764714D01*
X129778238Y-122812333D01*
X129825857Y-122859952D01*
X129873476Y-122955190D01*
X129873476Y-123240904D01*
X129825857Y-123336142D01*
X129778238Y-123383761D01*
X129683000Y-123431380D01*
X129492523Y-123431380D01*
X129397285Y-123383761D01*
X130254428Y-123383761D02*
X130349666Y-123431380D01*
X130540142Y-123431380D01*
X130635380Y-123383761D01*
X130683000Y-123288523D01*
X130683000Y-123240904D01*
X130635380Y-123145666D01*
X130540142Y-123098047D01*
X130397285Y-123098047D01*
X130302047Y-123050428D01*
X130254428Y-122955190D01*
X130254428Y-122907571D01*
X130302047Y-122812333D01*
X130397285Y-122764714D01*
X130540142Y-122764714D01*
X130635380Y-122812333D01*
X130968714Y-122764714D02*
X131349666Y-122764714D01*
X131111571Y-122431380D02*
X131111571Y-123288523D01*
X131159190Y-123383761D01*
X131254428Y-123431380D01*
X131349666Y-123431380D01*
X131825857Y-123431380D02*
X131730619Y-123383761D01*
X131683000Y-123336142D01*
X131635380Y-123240904D01*
X131635380Y-122955190D01*
X131683000Y-122859952D01*
X131730619Y-122812333D01*
X131825857Y-122764714D01*
X131968714Y-122764714D01*
X132063952Y-122812333D01*
X132111571Y-122859952D01*
X132159190Y-122955190D01*
X132159190Y-123240904D01*
X132111571Y-123336142D01*
X132063952Y-123383761D01*
X131968714Y-123431380D01*
X131825857Y-123431380D01*
X132587761Y-122764714D02*
X132587761Y-123431380D01*
X132587761Y-122859952D02*
X132635380Y-122812333D01*
X132730619Y-122764714D01*
X132873476Y-122764714D01*
X132968714Y-122812333D01*
X133016333Y-122907571D01*
X133016333Y-123431380D01*
X133873476Y-123383761D02*
X133778238Y-123431380D01*
X133587761Y-123431380D01*
X133492523Y-123383761D01*
X133444904Y-123288523D01*
X133444904Y-122907571D01*
X133492523Y-122812333D01*
X133587761Y-122764714D01*
X133778238Y-122764714D01*
X133873476Y-122812333D01*
X133921095Y-122907571D01*
X133921095Y-123002809D01*
X133444904Y-123098047D01*
D12*
X167592428Y-118026571D02*
X167592428Y-116526571D01*
X167592428Y-117240857D02*
X168449571Y-117240857D01*
X168449571Y-118026571D02*
X168449571Y-116526571D01*
X168358285Y-121709571D02*
X167644000Y-121709571D01*
X167644000Y-120209571D01*
D13*
%TO.C,U2*%
X145082380Y-121732523D02*
X145082380Y-122760619D01*
X145142857Y-122881571D01*
X145203333Y-122942047D01*
X145324285Y-123002523D01*
X145566190Y-123002523D01*
X145687142Y-122942047D01*
X145747619Y-122881571D01*
X145808095Y-122760619D01*
X145808095Y-121732523D01*
X146352380Y-121853476D02*
X146412857Y-121793000D01*
X146533809Y-121732523D01*
X146836190Y-121732523D01*
X146957142Y-121793000D01*
X147017619Y-121853476D01*
X147078095Y-121974428D01*
X147078095Y-122095380D01*
X147017619Y-122276809D01*
X146291904Y-123002523D01*
X147078095Y-123002523D01*
D10*
%TO.C,CAN*%
X130659142Y-57379357D02*
X130706761Y-57426976D01*
X130754380Y-57569833D01*
X130754380Y-57665071D01*
X130706761Y-57807928D01*
X130611523Y-57903166D01*
X130516285Y-57950785D01*
X130325809Y-57998404D01*
X130182952Y-57998404D01*
X129992476Y-57950785D01*
X129897238Y-57903166D01*
X129802000Y-57807928D01*
X129754380Y-57665071D01*
X129754380Y-57569833D01*
X129802000Y-57426976D01*
X129849619Y-57379357D01*
X130468666Y-56998404D02*
X130468666Y-56522214D01*
X130754380Y-57093642D02*
X129754380Y-56760309D01*
X130754380Y-56426976D01*
X130754380Y-56093642D02*
X129754380Y-56093642D01*
X130754380Y-55522214D01*
X129754380Y-55522214D01*
D14*
%TO.C,U2*%
X147650000Y-124878000D02*
X144450000Y-124878000D01*
X144450000Y-124878000D02*
X144450000Y-119978000D01*
X144450000Y-119978000D02*
X147650000Y-119978000D01*
X142575000Y-119848000D02*
X144100000Y-119848000D01*
X147650000Y-119978000D02*
X147650000Y-124878000D01*
D15*
%TO.C,CAN*%
X129230000Y-58318000D02*
X129230000Y-55633000D01*
X127310000Y-55633000D02*
X127310000Y-58318000D01*
X127310000Y-58318000D02*
X129230000Y-58318000D01*
D10*
%TO.C,U3*%
X149733000Y-72771000D02*
X149733000Y-67691000D01*
X146024600Y-80921000D02*
X146024600Y-84921000D01*
X140843000Y-127381000D02*
X140843000Y-128651000D01*
X137033000Y-67691000D02*
X154813000Y-67691000D01*
X140083800Y-86690200D02*
X140083800Y-73990200D01*
X154813000Y-67691000D02*
X154813000Y-128651000D01*
X142113000Y-72771000D02*
X142113000Y-67691000D01*
X152274600Y-84921000D02*
X152274600Y-80921000D01*
X152273000Y-90551000D02*
X139573000Y-90551000D01*
X142113000Y-66421000D02*
X149733000Y-66421000D01*
X151003000Y-128651000D02*
X151003000Y-127381000D01*
X139573000Y-90551000D02*
X139573000Y-103251000D01*
X140083800Y-73990200D02*
X142623800Y-73990200D01*
X154813000Y-128651000D02*
X137033000Y-128651000D01*
X142623800Y-76530200D02*
X140083800Y-76530200D01*
X144653000Y-108331000D02*
X147193000Y-108331000D01*
X146024600Y-84921000D02*
X152274600Y-84921000D01*
X142623800Y-73990200D02*
X142623800Y-76530200D01*
X142113000Y-72771000D02*
X149733000Y-72771000D01*
X152273000Y-128651000D02*
X152273000Y-115951000D01*
X152024600Y-80921000D02*
X146024600Y-80921000D01*
X139573000Y-103251000D02*
X152273000Y-103251000D01*
X137033000Y-128651000D02*
X137033000Y-67691000D01*
X152274600Y-80921000D02*
X152024600Y-80921000D01*
X149733000Y-66421000D02*
X149733000Y-67691000D01*
X147193000Y-108331000D02*
X147193000Y-112141000D01*
X144653000Y-112141000D02*
X144653000Y-108331000D01*
X152273000Y-115951000D02*
X139573000Y-115951000D01*
X139573000Y-115951000D02*
X139573000Y-128651000D01*
X152273000Y-103251000D02*
X152273000Y-90551000D01*
X151003000Y-127381000D02*
X140843000Y-127381000D01*
X147193000Y-112141000D02*
X144653000Y-112141000D01*
X142113000Y-67691000D02*
X142113000Y-66421000D01*
X142623800Y-86690200D02*
X140083800Y-86690200D01*
X142623800Y-73990200D02*
X142623800Y-86690200D01*
X146821026Y-110236000D02*
G75*
G03*
X146821026Y-110236000I-898026J0D01*
G01*
D15*
%TO.C,U1*%
X147545000Y-59436000D02*
X149505000Y-59436000D01*
X131435000Y-64686000D02*
X147545000Y-64686000D01*
X147545000Y-56896000D02*
X149505000Y-56896000D01*
X131435000Y-54186000D02*
X147545000Y-54186000D01*
X131435000Y-64686000D02*
X131435000Y-54186000D01*
X147545000Y-61976000D02*
X149505000Y-61976000D01*
X147545000Y-64686000D02*
X147545000Y-54186000D01*
%TO.C,J1*%
X129395000Y-68379000D02*
X129395000Y-111199000D01*
X134955000Y-68379000D02*
X134955000Y-111199000D01*
X129335000Y-68139000D02*
X127595000Y-68139000D01*
X127595000Y-68139000D02*
X127595000Y-69639000D01*
X134955000Y-111199000D02*
X127835000Y-111199000D01*
X134955000Y-68379000D02*
X127835000Y-68379000D01*
X127835000Y-68379000D02*
X127835000Y-111199000D01*
X130063000Y-69931000D02*
G75*
G03*
X129939507Y-70566011I1431988J-607998D01*
G01*
X132927000Y-71147000D02*
G75*
G03*
X132927109Y-69931258I-1432000J608000D01*
G01*
X130887000Y-71971000D02*
G75*
G03*
X132102742Y-71971109I607999J1432003D01*
G01*
X132103000Y-69107000D02*
G75*
G03*
X130887258Y-69106891I-608000J-1432000D01*
G01*
X129940000Y-70539000D02*
G75*
G03*
X130063615Y-71146587I1555000J0D01*
G01*
X133050000Y-77539000D02*
G75*
G03*
X133050000Y-77539000I-1555000J0D01*
G01*
X133050000Y-98539000D02*
G75*
G03*
X133050000Y-98539000I-1555000J0D01*
G01*
X133050000Y-109039000D02*
G75*
G03*
X133050000Y-109039000I-1555000J0D01*
G01*
X133050000Y-81039000D02*
G75*
G03*
X133050000Y-81039000I-1555000J0D01*
G01*
X133050000Y-105539000D02*
G75*
G03*
X133050000Y-105539000I-1555000J0D01*
G01*
X133050000Y-102039000D02*
G75*
G03*
X133050000Y-102039000I-1555000J0D01*
G01*
X133050000Y-88039000D02*
G75*
G03*
X133050000Y-88039000I-1555000J0D01*
G01*
X133050000Y-84539000D02*
G75*
G03*
X133050000Y-84539000I-1555000J0D01*
G01*
X133050000Y-91539000D02*
G75*
G03*
X133050000Y-91539000I-1555000J0D01*
G01*
X133050000Y-74039000D02*
G75*
G03*
X133050000Y-74039000I-1555000J0D01*
G01*
X133050000Y-95039000D02*
G75*
G03*
X133050000Y-95039000I-1555000J0D01*
G01*
%TO.C,R3*%
X124233000Y-60839936D02*
X124233000Y-61294064D01*
X125703000Y-60839936D02*
X125703000Y-61294064D01*
%TO.C,J2*%
X163860988Y-67870996D02*
X163860988Y-110690996D01*
X163860988Y-110690996D02*
X156740988Y-110690996D01*
X156500988Y-67630996D02*
X156500988Y-69130996D01*
X158240988Y-67630996D02*
X156500988Y-67630996D01*
X156740988Y-67870996D02*
X156740988Y-110690996D01*
X163860988Y-67870996D02*
X156740988Y-67870996D01*
X158300988Y-67870996D02*
X158300988Y-110690996D01*
X161832988Y-70638996D02*
G75*
G03*
X161833097Y-69423254I-1432000J608000D01*
G01*
X158968988Y-69422996D02*
G75*
G03*
X158845495Y-70058007I1431988J-607998D01*
G01*
X161008988Y-68598996D02*
G75*
G03*
X159793246Y-68598887I-608000J-1432000D01*
G01*
X158845988Y-70030996D02*
G75*
G03*
X158969603Y-70638583I1555000J0D01*
G01*
X159792988Y-71462996D02*
G75*
G03*
X161008730Y-71463105I607999J1432003D01*
G01*
X161955988Y-108530996D02*
G75*
G03*
X161955988Y-108530996I-1555000J0D01*
G01*
X161955988Y-105030996D02*
G75*
G03*
X161955988Y-105030996I-1555000J0D01*
G01*
X161955988Y-91030996D02*
G75*
G03*
X161955988Y-91030996I-1555000J0D01*
G01*
X161955988Y-101530996D02*
G75*
G03*
X161955988Y-101530996I-1555000J0D01*
G01*
X161955988Y-80530996D02*
G75*
G03*
X161955988Y-80530996I-1555000J0D01*
G01*
X161955988Y-87530996D02*
G75*
G03*
X161955988Y-87530996I-1555000J0D01*
G01*
X161955988Y-84030996D02*
G75*
G03*
X161955988Y-84030996I-1555000J0D01*
G01*
X161955988Y-94530996D02*
G75*
G03*
X161955988Y-94530996I-1555000J0D01*
G01*
X161955988Y-98030996D02*
G75*
G03*
X161955988Y-98030996I-1555000J0D01*
G01*
X161955988Y-73530996D02*
G75*
G03*
X161955988Y-73530996I-1555000J0D01*
G01*
X161955988Y-77030996D02*
G75*
G03*
X161955988Y-77030996I-1555000J0D01*
G01*
%TO.C,REF\u002A\u002A*%
X164592000Y-126686000D02*
X161992000Y-126686000D01*
X161992000Y-126686000D02*
X161992000Y-129346000D01*
X167192000Y-128016000D02*
X167192000Y-129346000D01*
X164592000Y-126686000D02*
X164592000Y-129346000D01*
X164592000Y-129346000D02*
X161992000Y-129346000D01*
X167192000Y-129346000D02*
X165862000Y-129346000D01*
%TO.C,R3*%
X158649936Y-126773000D02*
X159104064Y-126773000D01*
X158649936Y-128243000D02*
X159104064Y-128243000D01*
X127535000Y-60977936D02*
X127535000Y-61432064D01*
X129005000Y-60977936D02*
X129005000Y-61432064D01*
%TO.C,J3*%
X154470000Y-53882000D02*
X154470000Y-55882000D01*
X165330000Y-64242000D02*
X154710000Y-64242000D01*
X157687000Y-60382000D02*
X157637000Y-60332000D01*
X160120000Y-62815000D02*
X160096000Y-62790000D01*
X156710000Y-53882000D02*
X154470000Y-53882000D01*
X156770000Y-54122000D02*
X156770000Y-64242000D01*
X165330000Y-54122000D02*
X165330000Y-64242000D01*
X154710000Y-54122000D02*
X154710000Y-64242000D01*
X157445000Y-60574000D02*
X157420000Y-60550000D01*
X161770000Y-54122000D02*
X161770000Y-64242000D01*
X165330000Y-54122000D02*
X154710000Y-54122000D01*
X159903000Y-63032000D02*
X159853000Y-62983000D01*
X160770000Y-54122000D02*
X160770000Y-64242000D01*
X158074000Y-58321001D02*
G75*
G03*
X159465516Y-58321206I696000J1639001D01*
G01*
X160409000Y-57378000D02*
G75*
G03*
X160409206Y-55986484I-1638995J696001D01*
G01*
X156990000Y-56682000D02*
G75*
G03*
X157131501Y-57377501I1780002J0D01*
G01*
X159466000Y-55043000D02*
G75*
G03*
X158074484Y-55042794I-696001J-1638995D01*
G01*
X157131000Y-55986000D02*
G75*
G03*
X156989610Y-56712814I1638986J-695998D01*
G01*
X160550000Y-61682000D02*
G75*
G03*
X160550000Y-61682000I-1780000J0D01*
G01*
X161681000Y-123103000D02*
X161631000Y-123054000D01*
X167108000Y-124313000D02*
X156488000Y-124313000D01*
X156488000Y-114193000D02*
X156488000Y-124313000D01*
X167108000Y-114193000D02*
X167108000Y-124313000D01*
X159465000Y-120453000D02*
X159415000Y-120403000D01*
X159223000Y-120645000D02*
X159198000Y-120621000D01*
X167108000Y-114193000D02*
X156488000Y-114193000D01*
X158488000Y-113953000D02*
X156248000Y-113953000D01*
X162548000Y-114193000D02*
X162548000Y-124313000D01*
X161898000Y-122886000D02*
X161874000Y-122861000D01*
X156248000Y-113953000D02*
X156248000Y-115953000D01*
X158548000Y-114193000D02*
X158548000Y-124313000D01*
X163548000Y-114193000D02*
X163548000Y-124313000D01*
X162187000Y-117449000D02*
G75*
G03*
X162187206Y-116057484I-1638995J696001D01*
G01*
X161244000Y-115114000D02*
G75*
G03*
X159852484Y-115113794I-696001J-1638995D01*
G01*
X158768000Y-116753000D02*
G75*
G03*
X158909501Y-117448501I1780002J0D01*
G01*
X159852000Y-118392001D02*
G75*
G03*
X161243516Y-118392206I696000J1639001D01*
G01*
X158909000Y-116057000D02*
G75*
G03*
X158767610Y-116783814I1638986J-695998D01*
G01*
X162328000Y-121753000D02*
G75*
G03*
X162328000Y-121753000I-1780000J0D01*
G01*
%TO.C,REF\u002A\u002A*%
X125928000Y-58180000D02*
X125928000Y-55495000D01*
X124008000Y-55495000D02*
X124008000Y-58180000D01*
X124008000Y-58180000D02*
X125928000Y-58180000D01*
%TD*%
M02*
