%TF.GenerationSoftware,KiCad,Pcbnew,(6.0.7)*%
%TF.CreationDate,2022-11-28T13:53:11-06:00*%
%TF.ProjectId,Ebox,45626f78-2e6b-4696-9361-645f70636258,rev?*%
%TF.SameCoordinates,Original*%
%TF.FileFunction,Soldermask,Top*%
%TF.FilePolarity,Negative*%
%FSLAX46Y46*%
G04 Gerber Fmt 4.6, Leading zero omitted, Abs format (unit mm)*
G04 Created by KiCad (PCBNEW (6.0.7)) date 2022-11-28 13:53:11*
%MOMM*%
%LPD*%
G01*
G04 APERTURE LIST*
%ADD10O,1.727200X1.727200*%
%ADD11R,2.400000X2.400000*%
%ADD12C,2.400000*%
G04 APERTURE END LIST*
D10*
%TO.C,XA1*%
X94575500Y-105322500D03*
X97115500Y-105322500D03*
X109815500Y-105322500D03*
X112355500Y-105322500D03*
X114895500Y-105322500D03*
X117435500Y-105322500D03*
X119975500Y-105322500D03*
X122515500Y-105322500D03*
X82891500Y-57062500D03*
X122515500Y-57062500D03*
X119975500Y-57062500D03*
X117435500Y-57062500D03*
X114895500Y-57062500D03*
X112355500Y-57062500D03*
X109815500Y-57062500D03*
X107275500Y-57062500D03*
X104735500Y-57062500D03*
X100671500Y-57062500D03*
X98131500Y-57062500D03*
X95591500Y-57062500D03*
X93051500Y-57062500D03*
X90511500Y-57062500D03*
X87971500Y-57062500D03*
X85431500Y-57062500D03*
X99655500Y-105322500D03*
X102195500Y-105322500D03*
X92035500Y-105322500D03*
X104735500Y-105322500D03*
%TD*%
D11*
%TO.C,J2*%
X125320400Y-98245600D03*
D12*
X121820400Y-98245600D03*
X118320400Y-98245600D03*
X114820400Y-98245600D03*
X111320400Y-98245600D03*
X107820400Y-98245600D03*
X104320400Y-98245600D03*
X100820400Y-98245600D03*
X97320400Y-98245600D03*
X93820400Y-98245600D03*
X90320400Y-98245600D03*
X86820400Y-98245600D03*
%TD*%
D11*
%TO.C,J1*%
X126234800Y-64209600D03*
D12*
X122734800Y-64209600D03*
X119234800Y-64209600D03*
X115734800Y-64209600D03*
X112234800Y-64209600D03*
X108734800Y-64209600D03*
X105234800Y-64209600D03*
X101734800Y-64209600D03*
X98234800Y-64209600D03*
X94734800Y-64209600D03*
X91234800Y-64209600D03*
X87734800Y-64209600D03*
%TD*%
M02*
