%TF.GenerationSoftware,KiCad,Pcbnew,(6.0.7)*%
%TF.CreationDate,2022-11-28T13:53:11-06:00*%
%TF.ProjectId,Ebox,45626f78-2e6b-4696-9361-645f70636258,rev?*%
%TF.SameCoordinates,Original*%
%TF.FileFunction,Copper,L2,Bot*%
%TF.FilePolarity,Positive*%
%FSLAX46Y46*%
G04 Gerber Fmt 4.6, Leading zero omitted, Abs format (unit mm)*
G04 Created by KiCad (PCBNEW (6.0.7)) date 2022-11-28 13:53:11*
%MOMM*%
%LPD*%
G01*
G04 APERTURE LIST*
%TA.AperFunction,ComponentPad*%
%ADD10O,1.727200X1.727200*%
%TD*%
%TA.AperFunction,ComponentPad*%
%ADD11R,2.400000X2.400000*%
%TD*%
%TA.AperFunction,ComponentPad*%
%ADD12C,2.400000*%
%TD*%
G04 APERTURE END LIST*
D10*
%TO.P,XA1,3V3,3.3V*%
%TO.N,Net-(XA1-Pad3V3)*%
X94575500Y-105322500D03*
%TO.P,XA1,5V1,5V*%
%TO.N,Net-(XA1-Pad5V1)*%
X97115500Y-105322500D03*
%TO.P,XA1,A0,A0*%
%TO.N,Net-(XA1-PadA0)*%
X109815500Y-105322500D03*
%TO.P,XA1,A1,A1*%
%TO.N,Net-(XA1-PadA1)*%
X112355500Y-105322500D03*
%TO.P,XA1,A2,A2*%
%TO.N,Net-(XA1-PadA2)*%
X114895500Y-105322500D03*
%TO.P,XA1,A3,A3*%
%TO.N,Net-(XA1-PadA3)*%
X117435500Y-105322500D03*
%TO.P,XA1,A4,A4*%
%TO.N,Net-(XA1-PadA4)*%
X119975500Y-105322500D03*
%TO.P,XA1,A5,A5*%
%TO.N,Net-(XA1-PadA5)*%
X122515500Y-105322500D03*
%TO.P,XA1,AREF,AREF*%
%TO.N,unconnected-(XA1-PadAREF)*%
X82891500Y-57062500D03*
%TO.P,XA1,D0,D0_RX0*%
%TO.N,unconnected-(XA1-PadD0)*%
X122515500Y-57062500D03*
%TO.P,XA1,D1,D1_TX0*%
%TO.N,unconnected-(XA1-PadD1)*%
X119975500Y-57062500D03*
%TO.P,XA1,D2,D2_INT0*%
%TO.N,Net-(XA1-PadD2)*%
X117435500Y-57062500D03*
%TO.P,XA1,D3,D3_INT1*%
%TO.N,Net-(XA1-PadD3)*%
X114895500Y-57062500D03*
%TO.P,XA1,D4,D4*%
%TO.N,Net-(XA1-PadD4)*%
X112355500Y-57062500D03*
%TO.P,XA1,D5,D5*%
%TO.N,Net-(XA1-PadD5)*%
X109815500Y-57062500D03*
%TO.P,XA1,D6,D6*%
%TO.N,Net-(J1-Pad5)*%
X107275500Y-57062500D03*
%TO.P,XA1,D7,D7*%
%TO.N,Net-(J1-Pad6)*%
X104735500Y-57062500D03*
%TO.P,XA1,D8,D8*%
%TO.N,Net-(J1-Pad7)*%
X100671500Y-57062500D03*
%TO.P,XA1,D9,D9*%
%TO.N,Net-(J1-Pad8)*%
X98131500Y-57062500D03*
%TO.P,XA1,D10,D10*%
%TO.N,Net-(J1-Pad9)*%
X95591500Y-57062500D03*
%TO.P,XA1,D11,D11*%
%TO.N,Net-(J1-Pad10)*%
X93051500Y-57062500D03*
%TO.P,XA1,D12,D12*%
%TO.N,Net-(J1-Pad11)*%
X90511500Y-57062500D03*
%TO.P,XA1,D13,D13*%
%TO.N,Net-(J1-Pad12)*%
X87971500Y-57062500D03*
%TO.P,XA1,GND1,GND*%
%TO.N,unconnected-(XA1-PadGND1)*%
X85431500Y-57062500D03*
%TO.P,XA1,GND2,GND*%
%TO.N,Net-(XA1-PadGND2)*%
X99655500Y-105322500D03*
%TO.P,XA1,GND3,GND*%
%TO.N,Net-(XA1-PadGND3)*%
X102195500Y-105322500D03*
%TO.P,XA1,RST1,RESET*%
%TO.N,Net-(XA1-PadRST1)*%
X92035500Y-105322500D03*
%TO.P,XA1,VIN,VIN*%
%TO.N,Net-(XA1-PadVIN)*%
X104735500Y-105322500D03*
%TD*%
D11*
%TO.P,J2,1,Pin_1*%
%TO.N,Net-(XA1-PadA5)*%
X125320400Y-98245600D03*
D12*
%TO.P,J2,2,Pin_2*%
%TO.N,Net-(XA1-PadA4)*%
X121820400Y-98245600D03*
%TO.P,J2,3,Pin_3*%
%TO.N,Net-(XA1-PadA3)*%
X118320400Y-98245600D03*
%TO.P,J2,4,Pin_4*%
%TO.N,Net-(XA1-PadA2)*%
X114820400Y-98245600D03*
%TO.P,J2,5,Pin_5*%
%TO.N,Net-(XA1-PadA1)*%
X111320400Y-98245600D03*
%TO.P,J2,6,Pin_6*%
%TO.N,Net-(XA1-PadA0)*%
X107820400Y-98245600D03*
%TO.P,J2,7,Pin_7*%
%TO.N,Net-(XA1-PadVIN)*%
X104320400Y-98245600D03*
%TO.P,J2,8,Pin_8*%
%TO.N,Net-(XA1-PadGND3)*%
X100820400Y-98245600D03*
%TO.P,J2,9,Pin_9*%
%TO.N,Net-(XA1-PadGND2)*%
X97320400Y-98245600D03*
%TO.P,J2,10,Pin_10*%
%TO.N,Net-(XA1-Pad5V1)*%
X93820400Y-98245600D03*
%TO.P,J2,11,Pin_11*%
%TO.N,Net-(XA1-Pad3V3)*%
X90320400Y-98245600D03*
%TO.P,J2,12,Pin_12*%
%TO.N,Net-(XA1-PadRST1)*%
X86820400Y-98245600D03*
%TD*%
D11*
%TO.P,J1,1,Pin_1*%
%TO.N,Net-(XA1-PadD2)*%
X126234800Y-64209600D03*
D12*
%TO.P,J1,2,Pin_2*%
%TO.N,Net-(XA1-PadD3)*%
X122734800Y-64209600D03*
%TO.P,J1,3,Pin_3*%
%TO.N,Net-(XA1-PadD4)*%
X119234800Y-64209600D03*
%TO.P,J1,4,Pin_4*%
%TO.N,Net-(XA1-PadD5)*%
X115734800Y-64209600D03*
%TO.P,J1,5,Pin_5*%
%TO.N,Net-(J1-Pad5)*%
X112234800Y-64209600D03*
%TO.P,J1,6,Pin_6*%
%TO.N,Net-(J1-Pad6)*%
X108734800Y-64209600D03*
%TO.P,J1,7,Pin_7*%
%TO.N,Net-(J1-Pad7)*%
X105234800Y-64209600D03*
%TO.P,J1,8,Pin_8*%
%TO.N,Net-(J1-Pad8)*%
X101734800Y-64209600D03*
%TO.P,J1,9,Pin_9*%
%TO.N,Net-(J1-Pad9)*%
X98234800Y-64209600D03*
%TO.P,J1,10,Pin_10*%
%TO.N,Net-(J1-Pad10)*%
X94734800Y-64209600D03*
%TO.P,J1,11,Pin_11*%
%TO.N,Net-(J1-Pad11)*%
X91234800Y-64209600D03*
%TO.P,J1,12,Pin_12*%
%TO.N,Net-(J1-Pad12)*%
X87734800Y-64209600D03*
%TD*%
M02*
