M48
; DRILL file {KiCad (6.0.7)} date Mon Nov 28 13:53:06 2022
; FORMAT={-:-/ absolute / metric / decimal}
; #@! TF.CreationDate,2022-11-28T13:53:06-06:00
; #@! TF.GenerationSoftware,Kicad,Pcbnew,(6.0.7)
; #@! TF.FileFunction,Plated,1,2,PTH
FMAT,2
METRIC
; #@! TA.AperFunction,Plated,PTH,ComponentDrill
T1C1.016
; #@! TA.AperFunction,Plated,PTH,ComponentDrill
T2C1.200
%
G90
G05
T1
X82.891Y-57.062
X85.431Y-57.062
X87.971Y-57.062
X90.511Y-57.062
X92.035Y-105.322
X93.051Y-57.062
X94.575Y-105.322
X95.591Y-57.062
X97.115Y-105.322
X98.132Y-57.062
X99.655Y-105.322
X100.671Y-57.062
X102.195Y-105.322
X104.736Y-57.062
X104.736Y-105.322
X107.275Y-57.062
X109.816Y-57.062
X109.816Y-105.322
X112.355Y-57.062
X112.355Y-105.322
X114.895Y-57.062
X114.895Y-105.322
X117.435Y-57.062
X117.435Y-105.322
X119.975Y-57.062
X119.975Y-105.322
X122.515Y-57.062
X122.515Y-105.322
T2
X86.82Y-98.246
X87.735Y-64.21
X90.32Y-98.246
X91.235Y-64.21
X93.82Y-98.246
X94.735Y-64.21
X97.32Y-98.246
X98.235Y-64.21
X100.82Y-98.246
X101.735Y-64.21
X104.32Y-98.246
X105.235Y-64.21
X107.82Y-98.246
X108.735Y-64.21
X111.32Y-98.246
X112.235Y-64.21
X114.82Y-98.246
X115.735Y-64.21
X118.32Y-98.246
X119.235Y-64.21
X121.82Y-98.246
X122.735Y-64.21
X125.32Y-98.246
X126.235Y-64.21
T0
M30
