M48
; DRILL file {KiCad (6.0.7)} date Mon Nov 28 13:46:14 2022
; FORMAT={-:-/ absolute / metric / decimal}
; #@! TF.CreationDate,2022-11-28T13:46:14-06:00
; #@! TF.GenerationSoftware,Kicad,Pcbnew,(6.0.7)
; #@! TF.FileFunction,Plated,1,2,PTH
FMAT,2
METRIC
; #@! TA.AperFunction,Plated,PTH,ComponentDrill
T1C1.000
; #@! TA.AperFunction,Plated,PTH,ComponentDrill
T2C1.200
; #@! TA.AperFunction,Plated,PTH,ComponentDrill
T3C2.100
%
G90
G05
T1
X124.155Y-78.74
X124.155Y-81.28
X124.155Y-83.82
X124.155Y-86.36
X124.155Y-88.9
X124.155Y-91.44
X124.155Y-93.98
X124.155Y-96.52
X124.155Y-99.06
X124.155Y-101.6
X124.155Y-104.14
X124.155Y-106.68
X124.155Y-109.22
X124.155Y-111.76
X124.155Y-114.3
X139.395Y-78.74
X139.395Y-81.28
X139.395Y-83.82
X139.395Y-86.36
X139.395Y-88.9
X139.395Y-91.44
X139.395Y-93.98
X139.395Y-96.52
X139.395Y-99.06
X139.395Y-101.6
X139.395Y-104.14
X139.395Y-106.68
X139.395Y-109.22
X139.395Y-111.76
X139.395Y-114.3
T2
X111.608Y-79.758
X111.608Y-83.258
X111.608Y-86.758
X111.608Y-90.258
X111.608Y-93.758
X111.608Y-97.258
X111.608Y-100.758
X111.608Y-104.258
X111.608Y-107.758
X111.608Y-111.258
X111.608Y-114.758
X111.608Y-118.258
X128.93Y-62.746
X128.93Y-65.286
X128.93Y-67.826
X150.928Y-80.064
X150.928Y-83.564
X150.928Y-87.064
X150.928Y-90.564
X150.928Y-94.064
X150.928Y-97.564
X150.928Y-101.064
X150.928Y-104.564
X150.928Y-108.064
X150.928Y-111.564
X150.928Y-115.064
X150.928Y-118.564
T3
X140.462Y-62.377
X140.462Y-68.377
T0
M30
