%TF.GenerationSoftware,KiCad,Pcbnew,(6.0.7)*%
%TF.CreationDate,2022-11-28T13:46:24-06:00*%
%TF.ProjectId,Science,53636965-6e63-4652-9e6b-696361645f70,rev?*%
%TF.SameCoordinates,Original*%
%TF.FileFunction,Soldermask,Bot*%
%TF.FilePolarity,Negative*%
%FSLAX46Y46*%
G04 Gerber Fmt 4.6, Leading zero omitted, Abs format (unit mm)*
G04 Created by KiCad (PCBNEW (6.0.7)) date 2022-11-28 13:46:24*
%MOMM*%
%LPD*%
G01*
G04 APERTURE LIST*
G04 Aperture macros list*
%AMRoundRect*
0 Rectangle with rounded corners*
0 $1 Rounding radius*
0 $2 $3 $4 $5 $6 $7 $8 $9 X,Y pos of 4 corners*
0 Add a 4 corners polygon primitive as box body*
4,1,4,$2,$3,$4,$5,$6,$7,$8,$9,$2,$3,0*
0 Add four circle primitives for the rounded corners*
1,1,$1+$1,$2,$3*
1,1,$1+$1,$4,$5*
1,1,$1+$1,$6,$7*
1,1,$1+$1,$8,$9*
0 Add four rect primitives between the rounded corners*
20,1,$1+$1,$2,$3,$4,$5,0*
20,1,$1+$1,$4,$5,$6,$7,0*
20,1,$1+$1,$6,$7,$8,$9,0*
20,1,$1+$1,$8,$9,$2,$3,0*%
G04 Aperture macros list end*
%ADD10O,3.500000X3.500000*%
%ADD11R,2.000000X1.905000*%
%ADD12O,2.000000X1.905000*%
%ADD13R,2.400000X2.400000*%
%ADD14C,2.400000*%
%ADD15R,1.600000X1.600000*%
%ADD16O,1.600000X1.600000*%
%ADD17RoundRect,0.249999X1.300001X-1.300001X1.300001X1.300001X-1.300001X1.300001X-1.300001X-1.300001X0*%
%ADD18C,3.100000*%
G04 APERTURE END LIST*
D10*
%TO.C,U1*%
X113130400Y-65285600D03*
D11*
X128930400Y-67825600D03*
D12*
X128930400Y-65285600D03*
X128930400Y-62745600D03*
%TD*%
D13*
%TO.C,J1*%
X111607600Y-79757600D03*
D14*
X111607600Y-83257600D03*
X111607600Y-86757600D03*
X111607600Y-90257600D03*
X111607600Y-93757600D03*
X111607600Y-97257600D03*
X111607600Y-100757600D03*
X111607600Y-104257600D03*
X111607600Y-107757600D03*
X111607600Y-111257600D03*
X111607600Y-114757600D03*
X111607600Y-118257600D03*
%TD*%
D15*
%TO.C,A1*%
X124155200Y-78740000D03*
D16*
X124155200Y-81280000D03*
X124155200Y-83820000D03*
X124155200Y-86360000D03*
X124155200Y-88900000D03*
X124155200Y-91440000D03*
X124155200Y-93980000D03*
X124155200Y-96520000D03*
X124155200Y-99060000D03*
X124155200Y-101600000D03*
X124155200Y-104140000D03*
X124155200Y-106680000D03*
X124155200Y-109220000D03*
X124155200Y-111760000D03*
X124155200Y-114300000D03*
X139395200Y-114300000D03*
X139395200Y-111760000D03*
X139395200Y-109220000D03*
X139395200Y-106680000D03*
X139395200Y-104140000D03*
X139395200Y-101600000D03*
X139395200Y-99060000D03*
X139395200Y-96520000D03*
X139395200Y-93980000D03*
X139395200Y-91440000D03*
X139395200Y-88900000D03*
X139395200Y-86360000D03*
X139395200Y-83820000D03*
X139395200Y-81280000D03*
X139395200Y-78740000D03*
%TD*%
D13*
%TO.C,J2*%
X150928400Y-118564000D03*
D14*
X150928400Y-115064000D03*
X150928400Y-111564000D03*
X150928400Y-108064000D03*
X150928400Y-104564000D03*
X150928400Y-101064000D03*
X150928400Y-97564000D03*
X150928400Y-94064000D03*
X150928400Y-90564000D03*
X150928400Y-87064000D03*
X150928400Y-83564000D03*
X150928400Y-80064000D03*
%TD*%
D17*
%TO.C,REF\u002A\u002A*%
X140462000Y-68376800D03*
D18*
X140462000Y-62376800D03*
%TD*%
M02*
