%TF.GenerationSoftware,KiCad,Pcbnew,(6.0.10)*%
%TF.CreationDate,2023-02-10T12:49:52-06:00*%
%TF.ProjectId,lowerArm,6c6f7765-7241-4726-9d2e-6b696361645f,rev?*%
%TF.SameCoordinates,Original*%
%TF.FileFunction,Legend,Top*%
%TF.FilePolarity,Positive*%
%FSLAX46Y46*%
G04 Gerber Fmt 4.6, Leading zero omitted, Abs format (unit mm)*
G04 Created by KiCad (PCBNEW (6.0.10)) date 2023-02-10 12:49:52*
%MOMM*%
%LPD*%
G01*
G04 APERTURE LIST*
%ADD10C,0.150000*%
%ADD11C,0.750000*%
%ADD12C,0.300000*%
%ADD13C,0.120000*%
%ADD14C,0.200000*%
%ADD15C,0.100000*%
G04 APERTURE END LIST*
D10*
X170116666Y-54316380D02*
X170450000Y-55316380D01*
X170783333Y-54316380D01*
X171688095Y-55221142D02*
X171640476Y-55268761D01*
X171497619Y-55316380D01*
X171402380Y-55316380D01*
X171259523Y-55268761D01*
X171164285Y-55173523D01*
X171116666Y-55078285D01*
X171069047Y-54887809D01*
X171069047Y-54744952D01*
X171116666Y-54554476D01*
X171164285Y-54459238D01*
X171259523Y-54364000D01*
X171402380Y-54316380D01*
X171497619Y-54316380D01*
X171640476Y-54364000D01*
X171688095Y-54411619D01*
X172688095Y-55221142D02*
X172640476Y-55268761D01*
X172497619Y-55316380D01*
X172402380Y-55316380D01*
X172259523Y-55268761D01*
X172164285Y-55173523D01*
X172116666Y-55078285D01*
X172069047Y-54887809D01*
X172069047Y-54744952D01*
X172116666Y-54554476D01*
X172164285Y-54459238D01*
X172259523Y-54364000D01*
X172402380Y-54316380D01*
X172497619Y-54316380D01*
X172640476Y-54364000D01*
X172688095Y-54411619D01*
X170753238Y-66149619D02*
X171119904Y-67249619D01*
X171486571Y-66149619D01*
X171853238Y-67249619D02*
X171853238Y-66149619D01*
X172377047Y-67249619D02*
X172377047Y-66149619D01*
X173005619Y-67249619D01*
X173005619Y-66149619D01*
X171119904Y-69744000D02*
X171015142Y-69691619D01*
X170858000Y-69691619D01*
X170700857Y-69744000D01*
X170596095Y-69848761D01*
X170543714Y-69953523D01*
X170491333Y-70163047D01*
X170491333Y-70320190D01*
X170543714Y-70529714D01*
X170596095Y-70634476D01*
X170700857Y-70739238D01*
X170858000Y-70791619D01*
X170962761Y-70791619D01*
X171119904Y-70739238D01*
X171172285Y-70686857D01*
X171172285Y-70320190D01*
X170962761Y-70320190D01*
X171643714Y-70791619D02*
X171643714Y-69691619D01*
X172272285Y-70791619D01*
X172272285Y-69691619D01*
X172796095Y-70791619D02*
X172796095Y-69691619D01*
X173058000Y-69691619D01*
X173215142Y-69744000D01*
X173319904Y-69848761D01*
X173372285Y-69953523D01*
X173424666Y-70163047D01*
X173424666Y-70320190D01*
X173372285Y-70529714D01*
X173319904Y-70634476D01*
X173215142Y-70739238D01*
X173058000Y-70791619D01*
X172796095Y-70791619D01*
X171748476Y-73233619D02*
X171224666Y-73233619D01*
X171172285Y-73757428D01*
X171224666Y-73705047D01*
X171329428Y-73652666D01*
X171591333Y-73652666D01*
X171696095Y-73705047D01*
X171748476Y-73757428D01*
X171800857Y-73862190D01*
X171800857Y-74124095D01*
X171748476Y-74228857D01*
X171696095Y-74281238D01*
X171591333Y-74333619D01*
X171329428Y-74333619D01*
X171224666Y-74281238D01*
X171172285Y-74228857D01*
X172115142Y-73233619D02*
X172481809Y-74333619D01*
X172848476Y-73233619D01*
X171172285Y-77561333D02*
X171696095Y-77561333D01*
X171067523Y-77875619D02*
X171434190Y-76775619D01*
X171800857Y-77875619D01*
X172062761Y-76775619D02*
X172796095Y-76775619D01*
X172324666Y-77875619D01*
X171172285Y-81103333D02*
X171696095Y-81103333D01*
X171067523Y-81417619D02*
X171434190Y-80317619D01*
X171800857Y-81417619D01*
X172638952Y-80317619D02*
X172429428Y-80317619D01*
X172324666Y-80370000D01*
X172272285Y-80422380D01*
X172167523Y-80579523D01*
X172115142Y-80789047D01*
X172115142Y-81208095D01*
X172167523Y-81312857D01*
X172219904Y-81365238D01*
X172324666Y-81417619D01*
X172534190Y-81417619D01*
X172638952Y-81365238D01*
X172691333Y-81312857D01*
X172743714Y-81208095D01*
X172743714Y-80946190D01*
X172691333Y-80841428D01*
X172638952Y-80789047D01*
X172534190Y-80736666D01*
X172324666Y-80736666D01*
X172219904Y-80789047D01*
X172167523Y-80841428D01*
X172115142Y-80946190D01*
X171172285Y-84645333D02*
X171696095Y-84645333D01*
X171067523Y-84959619D02*
X171434190Y-83859619D01*
X171800857Y-84959619D01*
X172691333Y-83859619D02*
X172167523Y-83859619D01*
X172115142Y-84383428D01*
X172167523Y-84331047D01*
X172272285Y-84278666D01*
X172534190Y-84278666D01*
X172638952Y-84331047D01*
X172691333Y-84383428D01*
X172743714Y-84488190D01*
X172743714Y-84750095D01*
X172691333Y-84854857D01*
X172638952Y-84907238D01*
X172534190Y-84959619D01*
X172272285Y-84959619D01*
X172167523Y-84907238D01*
X172115142Y-84854857D01*
X171172285Y-88187333D02*
X171696095Y-88187333D01*
X171067523Y-88501619D02*
X171434190Y-87401619D01*
X171800857Y-88501619D01*
X172638952Y-87768285D02*
X172638952Y-88501619D01*
X172377047Y-87349238D02*
X172115142Y-88134952D01*
X172796095Y-88134952D01*
X171172285Y-91729333D02*
X171696095Y-91729333D01*
X171067523Y-92043619D02*
X171434190Y-90943619D01*
X171800857Y-92043619D01*
X172062761Y-90943619D02*
X172743714Y-90943619D01*
X172377047Y-91362666D01*
X172534190Y-91362666D01*
X172638952Y-91415047D01*
X172691333Y-91467428D01*
X172743714Y-91572190D01*
X172743714Y-91834095D01*
X172691333Y-91938857D01*
X172638952Y-91991238D01*
X172534190Y-92043619D01*
X172219904Y-92043619D01*
X172115142Y-91991238D01*
X172062761Y-91938857D01*
X171172285Y-95271333D02*
X171696095Y-95271333D01*
X171067523Y-95585619D02*
X171434190Y-94485619D01*
X171800857Y-95585619D01*
X172115142Y-94590380D02*
X172167523Y-94538000D01*
X172272285Y-94485619D01*
X172534190Y-94485619D01*
X172638952Y-94538000D01*
X172691333Y-94590380D01*
X172743714Y-94695142D01*
X172743714Y-94799904D01*
X172691333Y-94957047D01*
X172062761Y-95585619D01*
X172743714Y-95585619D01*
X171172285Y-98813333D02*
X171696095Y-98813333D01*
X171067523Y-99127619D02*
X171434190Y-98027619D01*
X171800857Y-99127619D01*
X172743714Y-99127619D02*
X172115142Y-99127619D01*
X172429428Y-99127619D02*
X172429428Y-98027619D01*
X172324666Y-98184761D01*
X172219904Y-98289523D01*
X172115142Y-98341904D01*
X171172285Y-102355333D02*
X171696095Y-102355333D01*
X171067523Y-102669619D02*
X171434190Y-101569619D01*
X171800857Y-102669619D01*
X172377047Y-101569619D02*
X172481809Y-101569619D01*
X172586571Y-101622000D01*
X172638952Y-101674380D01*
X172691333Y-101779142D01*
X172743714Y-101988666D01*
X172743714Y-102250571D01*
X172691333Y-102460095D01*
X172638952Y-102564857D01*
X172586571Y-102617238D01*
X172481809Y-102669619D01*
X172377047Y-102669619D01*
X172272285Y-102617238D01*
X172219904Y-102564857D01*
X172167523Y-102460095D01*
X172115142Y-102250571D01*
X172115142Y-101988666D01*
X172167523Y-101779142D01*
X172219904Y-101674380D01*
X172272285Y-101622000D01*
X172377047Y-101569619D01*
X171329428Y-106211619D02*
X170962761Y-105687809D01*
X170700857Y-106211619D02*
X170700857Y-105111619D01*
X171119904Y-105111619D01*
X171224666Y-105164000D01*
X171277047Y-105216380D01*
X171329428Y-105321142D01*
X171329428Y-105478285D01*
X171277047Y-105583047D01*
X171224666Y-105635428D01*
X171119904Y-105687809D01*
X170700857Y-105687809D01*
X171800857Y-105635428D02*
X172167523Y-105635428D01*
X172324666Y-106211619D02*
X171800857Y-106211619D01*
X171800857Y-105111619D01*
X172324666Y-105111619D01*
X173162761Y-105635428D02*
X172796095Y-105635428D01*
X172796095Y-106211619D02*
X172796095Y-105111619D01*
X173319904Y-105111619D01*
D11*
X141105571Y-78557285D02*
X141534142Y-78700142D01*
X142248428Y-78700142D01*
X142534142Y-78557285D01*
X142677000Y-78414428D01*
X142819857Y-78128714D01*
X142819857Y-77843000D01*
X142677000Y-77557285D01*
X142534142Y-77414428D01*
X142248428Y-77271571D01*
X141677000Y-77128714D01*
X141391285Y-76985857D01*
X141248428Y-76843000D01*
X141105571Y-76557285D01*
X141105571Y-76271571D01*
X141248428Y-75985857D01*
X141391285Y-75843000D01*
X141677000Y-75700142D01*
X142391285Y-75700142D01*
X142819857Y-75843000D01*
X144534142Y-78700142D02*
X144248428Y-78557285D01*
X144105571Y-78414428D01*
X143962714Y-78128714D01*
X143962714Y-77271571D01*
X144105571Y-76985857D01*
X144248428Y-76843000D01*
X144534142Y-76700142D01*
X144962714Y-76700142D01*
X145248428Y-76843000D01*
X145391285Y-76985857D01*
X145534142Y-77271571D01*
X145534142Y-78128714D01*
X145391285Y-78414428D01*
X145248428Y-78557285D01*
X144962714Y-78700142D01*
X144534142Y-78700142D01*
X148534142Y-78700142D02*
X147534142Y-77271571D01*
X146819857Y-78700142D02*
X146819857Y-75700142D01*
X147962714Y-75700142D01*
X148248428Y-75843000D01*
X148391285Y-75985857D01*
X148534142Y-76271571D01*
X148534142Y-76700142D01*
X148391285Y-76985857D01*
X148248428Y-77128714D01*
X147962714Y-77271571D01*
X146819857Y-77271571D01*
X150248428Y-78700142D02*
X149962714Y-78557285D01*
X149819857Y-78414428D01*
X149677000Y-78128714D01*
X149677000Y-77271571D01*
X149819857Y-76985857D01*
X149962714Y-76843000D01*
X150248428Y-76700142D01*
X150677000Y-76700142D01*
X150962714Y-76843000D01*
X151105571Y-76985857D01*
X151248428Y-77271571D01*
X151248428Y-78128714D01*
X151105571Y-78414428D01*
X150962714Y-78557285D01*
X150677000Y-78700142D01*
X150248428Y-78700142D01*
D10*
X141383333Y-83272380D02*
X141383333Y-83986666D01*
X141335714Y-84129523D01*
X141240476Y-84224761D01*
X141097619Y-84272380D01*
X141002380Y-84272380D01*
X142288095Y-84272380D02*
X142288095Y-83748571D01*
X142240476Y-83653333D01*
X142145238Y-83605714D01*
X141954761Y-83605714D01*
X141859523Y-83653333D01*
X142288095Y-84224761D02*
X142192857Y-84272380D01*
X141954761Y-84272380D01*
X141859523Y-84224761D01*
X141811904Y-84129523D01*
X141811904Y-84034285D01*
X141859523Y-83939047D01*
X141954761Y-83891428D01*
X142192857Y-83891428D01*
X142288095Y-83843809D01*
X143192857Y-84224761D02*
X143097619Y-84272380D01*
X142907142Y-84272380D01*
X142811904Y-84224761D01*
X142764285Y-84177142D01*
X142716666Y-84081904D01*
X142716666Y-83796190D01*
X142764285Y-83700952D01*
X142811904Y-83653333D01*
X142907142Y-83605714D01*
X143097619Y-83605714D01*
X143192857Y-83653333D01*
X143621428Y-84272380D02*
X143621428Y-83272380D01*
X143716666Y-83891428D02*
X144002380Y-84272380D01*
X144002380Y-83605714D02*
X143621428Y-83986666D01*
X145764285Y-84177142D02*
X145716666Y-84224761D01*
X145573809Y-84272380D01*
X145478571Y-84272380D01*
X145335714Y-84224761D01*
X145240476Y-84129523D01*
X145192857Y-84034285D01*
X145145238Y-83843809D01*
X145145238Y-83700952D01*
X145192857Y-83510476D01*
X145240476Y-83415238D01*
X145335714Y-83320000D01*
X145478571Y-83272380D01*
X145573809Y-83272380D01*
X145716666Y-83320000D01*
X145764285Y-83367619D01*
X146335714Y-84272380D02*
X146240476Y-84224761D01*
X146192857Y-84177142D01*
X146145238Y-84081904D01*
X146145238Y-83796190D01*
X146192857Y-83700952D01*
X146240476Y-83653333D01*
X146335714Y-83605714D01*
X146478571Y-83605714D01*
X146573809Y-83653333D01*
X146621428Y-83700952D01*
X146669047Y-83796190D01*
X146669047Y-84081904D01*
X146621428Y-84177142D01*
X146573809Y-84224761D01*
X146478571Y-84272380D01*
X146335714Y-84272380D01*
X147097619Y-84272380D02*
X147097619Y-83605714D01*
X147097619Y-83796190D02*
X147145238Y-83700952D01*
X147192857Y-83653333D01*
X147288095Y-83605714D01*
X147383333Y-83605714D01*
X147716666Y-83605714D02*
X147716666Y-84272380D01*
X147716666Y-83700952D02*
X147764285Y-83653333D01*
X147859523Y-83605714D01*
X148002380Y-83605714D01*
X148097619Y-83653333D01*
X148145238Y-83748571D01*
X148145238Y-84272380D01*
X149002380Y-84224761D02*
X148907142Y-84272380D01*
X148716666Y-84272380D01*
X148621428Y-84224761D01*
X148573809Y-84129523D01*
X148573809Y-83748571D01*
X148621428Y-83653333D01*
X148716666Y-83605714D01*
X148907142Y-83605714D01*
X149002380Y-83653333D01*
X149050000Y-83748571D01*
X149050000Y-83843809D01*
X148573809Y-83939047D01*
X149335714Y-83605714D02*
X149716666Y-83605714D01*
X149478571Y-83272380D02*
X149478571Y-84129523D01*
X149526190Y-84224761D01*
X149621428Y-84272380D01*
X149716666Y-84272380D01*
X149907142Y-83605714D02*
X150288095Y-83605714D01*
X150050000Y-83272380D02*
X150050000Y-84129523D01*
X150097619Y-84224761D01*
X150192857Y-84272380D01*
X150288095Y-84272380D01*
X151002380Y-84224761D02*
X150907142Y-84272380D01*
X150716666Y-84272380D01*
X150621428Y-84224761D01*
X150573809Y-84129523D01*
X150573809Y-83748571D01*
X150621428Y-83653333D01*
X150716666Y-83605714D01*
X150907142Y-83605714D01*
X151002380Y-83653333D01*
X151050000Y-83748571D01*
X151050000Y-83843809D01*
X150573809Y-83939047D01*
X170688095Y-58047000D02*
X170592857Y-57999380D01*
X170450000Y-57999380D01*
X170307142Y-58047000D01*
X170211904Y-58142238D01*
X170164285Y-58237476D01*
X170116666Y-58427952D01*
X170116666Y-58570809D01*
X170164285Y-58761285D01*
X170211904Y-58856523D01*
X170307142Y-58951761D01*
X170450000Y-58999380D01*
X170545238Y-58999380D01*
X170688095Y-58951761D01*
X170735714Y-58904142D01*
X170735714Y-58570809D01*
X170545238Y-58570809D01*
X171164285Y-58999380D02*
X171164285Y-57999380D01*
X171735714Y-58999380D01*
X171735714Y-57999380D01*
X172211904Y-58999380D02*
X172211904Y-57999380D01*
X172450000Y-57999380D01*
X172592857Y-58047000D01*
X172688095Y-58142238D01*
X172735714Y-58237476D01*
X172783333Y-58427952D01*
X172783333Y-58570809D01*
X172735714Y-58761285D01*
X172688095Y-58856523D01*
X172592857Y-58951761D01*
X172450000Y-58999380D01*
X172211904Y-58999380D01*
X120319904Y-66583000D02*
X120215142Y-66530619D01*
X120058000Y-66530619D01*
X119900857Y-66583000D01*
X119796095Y-66687761D01*
X119743714Y-66792523D01*
X119691333Y-67002047D01*
X119691333Y-67159190D01*
X119743714Y-67368714D01*
X119796095Y-67473476D01*
X119900857Y-67578238D01*
X120058000Y-67630619D01*
X120162761Y-67630619D01*
X120319904Y-67578238D01*
X120372285Y-67525857D01*
X120372285Y-67159190D01*
X120162761Y-67159190D01*
X120843714Y-67630619D02*
X120843714Y-66530619D01*
X121472285Y-67630619D01*
X121472285Y-66530619D01*
X121996095Y-67630619D02*
X121996095Y-66530619D01*
X122258000Y-66530619D01*
X122415142Y-66583000D01*
X122519904Y-66687761D01*
X122572285Y-66792523D01*
X122624666Y-67002047D01*
X122624666Y-67159190D01*
X122572285Y-67368714D01*
X122519904Y-67473476D01*
X122415142Y-67578238D01*
X122258000Y-67630619D01*
X121996095Y-67630619D01*
X120346095Y-71172619D02*
X120346095Y-70072619D01*
X120608000Y-70072619D01*
X120765142Y-70125000D01*
X120869904Y-70229761D01*
X120922285Y-70334523D01*
X120974666Y-70544047D01*
X120974666Y-70701190D01*
X120922285Y-70910714D01*
X120869904Y-71015476D01*
X120765142Y-71120238D01*
X120608000Y-71172619D01*
X120346095Y-71172619D01*
X121393714Y-70177380D02*
X121446095Y-70125000D01*
X121550857Y-70072619D01*
X121812761Y-70072619D01*
X121917523Y-70125000D01*
X121969904Y-70177380D01*
X122022285Y-70282142D01*
X122022285Y-70386904D01*
X121969904Y-70544047D01*
X121341333Y-71172619D01*
X122022285Y-71172619D01*
X120346095Y-74714619D02*
X120346095Y-73614619D01*
X120608000Y-73614619D01*
X120765142Y-73667000D01*
X120869904Y-73771761D01*
X120922285Y-73876523D01*
X120974666Y-74086047D01*
X120974666Y-74243190D01*
X120922285Y-74452714D01*
X120869904Y-74557476D01*
X120765142Y-74662238D01*
X120608000Y-74714619D01*
X120346095Y-74714619D01*
X121341333Y-73614619D02*
X122022285Y-73614619D01*
X121655619Y-74033666D01*
X121812761Y-74033666D01*
X121917523Y-74086047D01*
X121969904Y-74138428D01*
X122022285Y-74243190D01*
X122022285Y-74505095D01*
X121969904Y-74609857D01*
X121917523Y-74662238D01*
X121812761Y-74714619D01*
X121498476Y-74714619D01*
X121393714Y-74662238D01*
X121341333Y-74609857D01*
X120346095Y-78256619D02*
X120346095Y-77156619D01*
X120608000Y-77156619D01*
X120765142Y-77209000D01*
X120869904Y-77313761D01*
X120922285Y-77418523D01*
X120974666Y-77628047D01*
X120974666Y-77785190D01*
X120922285Y-77994714D01*
X120869904Y-78099476D01*
X120765142Y-78204238D01*
X120608000Y-78256619D01*
X120346095Y-78256619D01*
X121917523Y-77523285D02*
X121917523Y-78256619D01*
X121655619Y-77104238D02*
X121393714Y-77889952D01*
X122074666Y-77889952D01*
X120346095Y-81798619D02*
X120346095Y-80698619D01*
X120608000Y-80698619D01*
X120765142Y-80751000D01*
X120869904Y-80855761D01*
X120922285Y-80960523D01*
X120974666Y-81170047D01*
X120974666Y-81327190D01*
X120922285Y-81536714D01*
X120869904Y-81641476D01*
X120765142Y-81746238D01*
X120608000Y-81798619D01*
X120346095Y-81798619D01*
X121969904Y-80698619D02*
X121446095Y-80698619D01*
X121393714Y-81222428D01*
X121446095Y-81170047D01*
X121550857Y-81117666D01*
X121812761Y-81117666D01*
X121917523Y-81170047D01*
X121969904Y-81222428D01*
X122022285Y-81327190D01*
X122022285Y-81589095D01*
X121969904Y-81693857D01*
X121917523Y-81746238D01*
X121812761Y-81798619D01*
X121550857Y-81798619D01*
X121446095Y-81746238D01*
X121393714Y-81693857D01*
X120346095Y-85340619D02*
X120346095Y-84240619D01*
X120608000Y-84240619D01*
X120765142Y-84293000D01*
X120869904Y-84397761D01*
X120922285Y-84502523D01*
X120974666Y-84712047D01*
X120974666Y-84869190D01*
X120922285Y-85078714D01*
X120869904Y-85183476D01*
X120765142Y-85288238D01*
X120608000Y-85340619D01*
X120346095Y-85340619D01*
X121917523Y-84240619D02*
X121708000Y-84240619D01*
X121603238Y-84293000D01*
X121550857Y-84345380D01*
X121446095Y-84502523D01*
X121393714Y-84712047D01*
X121393714Y-85131095D01*
X121446095Y-85235857D01*
X121498476Y-85288238D01*
X121603238Y-85340619D01*
X121812761Y-85340619D01*
X121917523Y-85288238D01*
X121969904Y-85235857D01*
X122022285Y-85131095D01*
X122022285Y-84869190D01*
X121969904Y-84764428D01*
X121917523Y-84712047D01*
X121812761Y-84659666D01*
X121603238Y-84659666D01*
X121498476Y-84712047D01*
X121446095Y-84764428D01*
X121393714Y-84869190D01*
X120346095Y-88882619D02*
X120346095Y-87782619D01*
X120608000Y-87782619D01*
X120765142Y-87835000D01*
X120869904Y-87939761D01*
X120922285Y-88044523D01*
X120974666Y-88254047D01*
X120974666Y-88411190D01*
X120922285Y-88620714D01*
X120869904Y-88725476D01*
X120765142Y-88830238D01*
X120608000Y-88882619D01*
X120346095Y-88882619D01*
X121341333Y-87782619D02*
X122074666Y-87782619D01*
X121603238Y-88882619D01*
X120346095Y-92424619D02*
X120346095Y-91324619D01*
X120608000Y-91324619D01*
X120765142Y-91377000D01*
X120869904Y-91481761D01*
X120922285Y-91586523D01*
X120974666Y-91796047D01*
X120974666Y-91953190D01*
X120922285Y-92162714D01*
X120869904Y-92267476D01*
X120765142Y-92372238D01*
X120608000Y-92424619D01*
X120346095Y-92424619D01*
X121603238Y-91796047D02*
X121498476Y-91743666D01*
X121446095Y-91691285D01*
X121393714Y-91586523D01*
X121393714Y-91534142D01*
X121446095Y-91429380D01*
X121498476Y-91377000D01*
X121603238Y-91324619D01*
X121812761Y-91324619D01*
X121917523Y-91377000D01*
X121969904Y-91429380D01*
X122022285Y-91534142D01*
X122022285Y-91586523D01*
X121969904Y-91691285D01*
X121917523Y-91743666D01*
X121812761Y-91796047D01*
X121603238Y-91796047D01*
X121498476Y-91848428D01*
X121446095Y-91900809D01*
X121393714Y-92005571D01*
X121393714Y-92215095D01*
X121446095Y-92319857D01*
X121498476Y-92372238D01*
X121603238Y-92424619D01*
X121812761Y-92424619D01*
X121917523Y-92372238D01*
X121969904Y-92319857D01*
X122022285Y-92215095D01*
X122022285Y-92005571D01*
X121969904Y-91900809D01*
X121917523Y-91848428D01*
X121812761Y-91796047D01*
X120346095Y-95966619D02*
X120346095Y-94866619D01*
X120608000Y-94866619D01*
X120765142Y-94919000D01*
X120869904Y-95023761D01*
X120922285Y-95128523D01*
X120974666Y-95338047D01*
X120974666Y-95495190D01*
X120922285Y-95704714D01*
X120869904Y-95809476D01*
X120765142Y-95914238D01*
X120608000Y-95966619D01*
X120346095Y-95966619D01*
X121498476Y-95966619D02*
X121708000Y-95966619D01*
X121812761Y-95914238D01*
X121865142Y-95861857D01*
X121969904Y-95704714D01*
X122022285Y-95495190D01*
X122022285Y-95076142D01*
X121969904Y-94971380D01*
X121917523Y-94919000D01*
X121812761Y-94866619D01*
X121603238Y-94866619D01*
X121498476Y-94919000D01*
X121446095Y-94971380D01*
X121393714Y-95076142D01*
X121393714Y-95338047D01*
X121446095Y-95442809D01*
X121498476Y-95495190D01*
X121603238Y-95547571D01*
X121812761Y-95547571D01*
X121917523Y-95495190D01*
X121969904Y-95442809D01*
X122022285Y-95338047D01*
X119822285Y-99508619D02*
X119822285Y-98408619D01*
X120084190Y-98408619D01*
X120241333Y-98461000D01*
X120346095Y-98565761D01*
X120398476Y-98670523D01*
X120450857Y-98880047D01*
X120450857Y-99037190D01*
X120398476Y-99246714D01*
X120346095Y-99351476D01*
X120241333Y-99456238D01*
X120084190Y-99508619D01*
X119822285Y-99508619D01*
X121498476Y-99508619D02*
X120869904Y-99508619D01*
X121184190Y-99508619D02*
X121184190Y-98408619D01*
X121079428Y-98565761D01*
X120974666Y-98670523D01*
X120869904Y-98722904D01*
X122179428Y-98408619D02*
X122284190Y-98408619D01*
X122388952Y-98461000D01*
X122441333Y-98513380D01*
X122493714Y-98618142D01*
X122546095Y-98827666D01*
X122546095Y-99089571D01*
X122493714Y-99299095D01*
X122441333Y-99403857D01*
X122388952Y-99456238D01*
X122284190Y-99508619D01*
X122179428Y-99508619D01*
X122074666Y-99456238D01*
X122022285Y-99403857D01*
X121969904Y-99299095D01*
X121917523Y-99089571D01*
X121917523Y-98827666D01*
X121969904Y-98618142D01*
X122022285Y-98513380D01*
X122074666Y-98461000D01*
X122179428Y-98408619D01*
X119822285Y-103050619D02*
X119822285Y-101950619D01*
X120084190Y-101950619D01*
X120241333Y-102003000D01*
X120346095Y-102107761D01*
X120398476Y-102212523D01*
X120450857Y-102422047D01*
X120450857Y-102579190D01*
X120398476Y-102788714D01*
X120346095Y-102893476D01*
X120241333Y-102998238D01*
X120084190Y-103050619D01*
X119822285Y-103050619D01*
X121498476Y-103050619D02*
X120869904Y-103050619D01*
X121184190Y-103050619D02*
X121184190Y-101950619D01*
X121079428Y-102107761D01*
X120974666Y-102212523D01*
X120869904Y-102264904D01*
X122546095Y-103050619D02*
X121917523Y-103050619D01*
X122231809Y-103050619D02*
X122231809Y-101950619D01*
X122127047Y-102107761D01*
X122022285Y-102212523D01*
X121917523Y-102264904D01*
X119822285Y-106592619D02*
X119822285Y-105492619D01*
X120084190Y-105492619D01*
X120241333Y-105545000D01*
X120346095Y-105649761D01*
X120398476Y-105754523D01*
X120450857Y-105964047D01*
X120450857Y-106121190D01*
X120398476Y-106330714D01*
X120346095Y-106435476D01*
X120241333Y-106540238D01*
X120084190Y-106592619D01*
X119822285Y-106592619D01*
X121498476Y-106592619D02*
X120869904Y-106592619D01*
X121184190Y-106592619D02*
X121184190Y-105492619D01*
X121079428Y-105649761D01*
X120974666Y-105754523D01*
X120869904Y-105806904D01*
X121917523Y-105597380D02*
X121969904Y-105545000D01*
X122074666Y-105492619D01*
X122336571Y-105492619D01*
X122441333Y-105545000D01*
X122493714Y-105597380D01*
X122546095Y-105702142D01*
X122546095Y-105806904D01*
X122493714Y-105964047D01*
X121865142Y-106592619D01*
X122546095Y-106592619D01*
X141700809Y-80625761D02*
X141843666Y-80673380D01*
X142081761Y-80673380D01*
X142177000Y-80625761D01*
X142224619Y-80578142D01*
X142272238Y-80482904D01*
X142272238Y-80387666D01*
X142224619Y-80292428D01*
X142177000Y-80244809D01*
X142081761Y-80197190D01*
X141891285Y-80149571D01*
X141796047Y-80101952D01*
X141748428Y-80054333D01*
X141700809Y-79959095D01*
X141700809Y-79863857D01*
X141748428Y-79768619D01*
X141796047Y-79721000D01*
X141891285Y-79673380D01*
X142129380Y-79673380D01*
X142272238Y-79721000D01*
X142700809Y-80006714D02*
X142700809Y-81006714D01*
X142700809Y-80054333D02*
X142796047Y-80006714D01*
X142986523Y-80006714D01*
X143081761Y-80054333D01*
X143129380Y-80101952D01*
X143177000Y-80197190D01*
X143177000Y-80482904D01*
X143129380Y-80578142D01*
X143081761Y-80625761D01*
X142986523Y-80673380D01*
X142796047Y-80673380D01*
X142700809Y-80625761D01*
X143605571Y-80673380D02*
X143605571Y-80006714D01*
X143605571Y-80197190D02*
X143653190Y-80101952D01*
X143700809Y-80054333D01*
X143796047Y-80006714D01*
X143891285Y-80006714D01*
X144224619Y-80673380D02*
X144224619Y-80006714D01*
X144224619Y-79673380D02*
X144177000Y-79721000D01*
X144224619Y-79768619D01*
X144272238Y-79721000D01*
X144224619Y-79673380D01*
X144224619Y-79768619D01*
X144700809Y-80006714D02*
X144700809Y-80673380D01*
X144700809Y-80101952D02*
X144748428Y-80054333D01*
X144843666Y-80006714D01*
X144986523Y-80006714D01*
X145081761Y-80054333D01*
X145129380Y-80149571D01*
X145129380Y-80673380D01*
X146034142Y-80006714D02*
X146034142Y-80816238D01*
X145986523Y-80911476D01*
X145938904Y-80959095D01*
X145843666Y-81006714D01*
X145700809Y-81006714D01*
X145605571Y-80959095D01*
X146034142Y-80625761D02*
X145938904Y-80673380D01*
X145748428Y-80673380D01*
X145653190Y-80625761D01*
X145605571Y-80578142D01*
X145557952Y-80482904D01*
X145557952Y-80197190D01*
X145605571Y-80101952D01*
X145653190Y-80054333D01*
X145748428Y-80006714D01*
X145938904Y-80006714D01*
X146034142Y-80054333D01*
X147224619Y-79768619D02*
X147272238Y-79721000D01*
X147367476Y-79673380D01*
X147605571Y-79673380D01*
X147700809Y-79721000D01*
X147748428Y-79768619D01*
X147796047Y-79863857D01*
X147796047Y-79959095D01*
X147748428Y-80101952D01*
X147177000Y-80673380D01*
X147796047Y-80673380D01*
X148415095Y-79673380D02*
X148510333Y-79673380D01*
X148605571Y-79721000D01*
X148653190Y-79768619D01*
X148700809Y-79863857D01*
X148748428Y-80054333D01*
X148748428Y-80292428D01*
X148700809Y-80482904D01*
X148653190Y-80578142D01*
X148605571Y-80625761D01*
X148510333Y-80673380D01*
X148415095Y-80673380D01*
X148319857Y-80625761D01*
X148272238Y-80578142D01*
X148224619Y-80482904D01*
X148177000Y-80292428D01*
X148177000Y-80054333D01*
X148224619Y-79863857D01*
X148272238Y-79768619D01*
X148319857Y-79721000D01*
X148415095Y-79673380D01*
X149129380Y-79768619D02*
X149177000Y-79721000D01*
X149272238Y-79673380D01*
X149510333Y-79673380D01*
X149605571Y-79721000D01*
X149653190Y-79768619D01*
X149700809Y-79863857D01*
X149700809Y-79959095D01*
X149653190Y-80101952D01*
X149081761Y-80673380D01*
X149700809Y-80673380D01*
X150034142Y-79673380D02*
X150653190Y-79673380D01*
X150319857Y-80054333D01*
X150462714Y-80054333D01*
X150557952Y-80101952D01*
X150605571Y-80149571D01*
X150653190Y-80244809D01*
X150653190Y-80482904D01*
X150605571Y-80578142D01*
X150557952Y-80625761D01*
X150462714Y-80673380D01*
X150177000Y-80673380D01*
X150081761Y-80625761D01*
X150034142Y-80578142D01*
X143557952Y-82188142D02*
X143510333Y-82235761D01*
X143367476Y-82283380D01*
X143272238Y-82283380D01*
X143129380Y-82235761D01*
X143034142Y-82140523D01*
X142986523Y-82045285D01*
X142938904Y-81854809D01*
X142938904Y-81711952D01*
X142986523Y-81521476D01*
X143034142Y-81426238D01*
X143129380Y-81331000D01*
X143272238Y-81283380D01*
X143367476Y-81283380D01*
X143510333Y-81331000D01*
X143557952Y-81378619D01*
X144415095Y-82283380D02*
X144415095Y-81759571D01*
X144367476Y-81664333D01*
X144272238Y-81616714D01*
X144081761Y-81616714D01*
X143986523Y-81664333D01*
X144415095Y-82235761D02*
X144319857Y-82283380D01*
X144081761Y-82283380D01*
X143986523Y-82235761D01*
X143938904Y-82140523D01*
X143938904Y-82045285D01*
X143986523Y-81950047D01*
X144081761Y-81902428D01*
X144319857Y-81902428D01*
X144415095Y-81854809D01*
X144891285Y-81616714D02*
X144891285Y-82616714D01*
X144891285Y-81664333D02*
X144986523Y-81616714D01*
X145177000Y-81616714D01*
X145272238Y-81664333D01*
X145319857Y-81711952D01*
X145367476Y-81807190D01*
X145367476Y-82092904D01*
X145319857Y-82188142D01*
X145272238Y-82235761D01*
X145177000Y-82283380D01*
X144986523Y-82283380D01*
X144891285Y-82235761D01*
X145748428Y-82235761D02*
X145843666Y-82283380D01*
X146034142Y-82283380D01*
X146129380Y-82235761D01*
X146177000Y-82140523D01*
X146177000Y-82092904D01*
X146129380Y-81997666D01*
X146034142Y-81950047D01*
X145891285Y-81950047D01*
X145796047Y-81902428D01*
X145748428Y-81807190D01*
X145748428Y-81759571D01*
X145796047Y-81664333D01*
X145891285Y-81616714D01*
X146034142Y-81616714D01*
X146129380Y-81664333D01*
X146462714Y-81616714D02*
X146843666Y-81616714D01*
X146605571Y-81283380D02*
X146605571Y-82140523D01*
X146653190Y-82235761D01*
X146748428Y-82283380D01*
X146843666Y-82283380D01*
X147319857Y-82283380D02*
X147224619Y-82235761D01*
X147177000Y-82188142D01*
X147129380Y-82092904D01*
X147129380Y-81807190D01*
X147177000Y-81711952D01*
X147224619Y-81664333D01*
X147319857Y-81616714D01*
X147462714Y-81616714D01*
X147557952Y-81664333D01*
X147605571Y-81711952D01*
X147653190Y-81807190D01*
X147653190Y-82092904D01*
X147605571Y-82188142D01*
X147557952Y-82235761D01*
X147462714Y-82283380D01*
X147319857Y-82283380D01*
X148081761Y-81616714D02*
X148081761Y-82283380D01*
X148081761Y-81711952D02*
X148129380Y-81664333D01*
X148224619Y-81616714D01*
X148367476Y-81616714D01*
X148462714Y-81664333D01*
X148510333Y-81759571D01*
X148510333Y-82283380D01*
X149367476Y-82235761D02*
X149272238Y-82283380D01*
X149081761Y-82283380D01*
X148986523Y-82235761D01*
X148938904Y-82140523D01*
X148938904Y-81759571D01*
X148986523Y-81664333D01*
X149081761Y-81616714D01*
X149272238Y-81616714D01*
X149367476Y-81664333D01*
X149415095Y-81759571D01*
X149415095Y-81854809D01*
X148938904Y-81950047D01*
D12*
X170767428Y-116502571D02*
X170767428Y-115002571D01*
X170767428Y-115716857D02*
X171624571Y-115716857D01*
X171624571Y-116502571D02*
X171624571Y-115002571D01*
X171533285Y-120058571D02*
X170819000Y-120058571D01*
X170819000Y-118558571D01*
D10*
%TO.C,CAN*%
X123373142Y-55094142D02*
X123325523Y-55141761D01*
X123182666Y-55189380D01*
X123087428Y-55189380D01*
X122944571Y-55141761D01*
X122849333Y-55046523D01*
X122801714Y-54951285D01*
X122754095Y-54760809D01*
X122754095Y-54617952D01*
X122801714Y-54427476D01*
X122849333Y-54332238D01*
X122944571Y-54237000D01*
X123087428Y-54189380D01*
X123182666Y-54189380D01*
X123325523Y-54237000D01*
X123373142Y-54284619D01*
X123754095Y-54903666D02*
X124230285Y-54903666D01*
X123658857Y-55189380D02*
X123992190Y-54189380D01*
X124325523Y-55189380D01*
X124658857Y-55189380D02*
X124658857Y-54189380D01*
X125230285Y-55189380D01*
X125230285Y-54189380D01*
D13*
%TO.C,REF\u002A\u002A*%
X166858000Y-125643000D02*
X164258000Y-125643000D01*
X166858000Y-128303000D02*
X164258000Y-128303000D01*
X166858000Y-125643000D02*
X166858000Y-128303000D01*
X169458000Y-126973000D02*
X169458000Y-128303000D01*
X169458000Y-128303000D02*
X168128000Y-128303000D01*
X164258000Y-125643000D02*
X164258000Y-128303000D01*
%TO.C,CAN*%
X125597500Y-55555000D02*
X122912500Y-55555000D01*
X122912500Y-57475000D02*
X125597500Y-57475000D01*
X125597500Y-57475000D02*
X125597500Y-55555000D01*
%TO.C,U1*%
X150466000Y-51943000D02*
X152426000Y-51943000D01*
X134356000Y-57193000D02*
X150466000Y-57193000D01*
X150466000Y-49403000D02*
X152426000Y-49403000D01*
X134356000Y-46693000D02*
X150466000Y-46693000D01*
X134356000Y-57193000D02*
X134356000Y-46693000D01*
X150466000Y-54483000D02*
X152426000Y-54483000D01*
X150466000Y-57193000D02*
X150466000Y-46693000D01*
%TO.C,J1*%
X125662000Y-64896000D02*
X125662000Y-107716000D01*
X131222000Y-64896000D02*
X131222000Y-107716000D01*
X125602000Y-64656000D02*
X123862000Y-64656000D01*
X123862000Y-64656000D02*
X123862000Y-66156000D01*
X131222000Y-107716000D02*
X124102000Y-107716000D01*
X131222000Y-64896000D02*
X124102000Y-64896000D01*
X124102000Y-64896000D02*
X124102000Y-107716000D01*
X126330000Y-66448000D02*
G75*
G03*
X126206507Y-67083011I1431988J-607998D01*
G01*
X129194000Y-67664000D02*
G75*
G03*
X129194109Y-66448258I-1432000J608000D01*
G01*
X127154000Y-68488000D02*
G75*
G03*
X128369742Y-68488109I607999J1432003D01*
G01*
X128370000Y-65624000D02*
G75*
G03*
X127154258Y-65623891I-608000J-1432000D01*
G01*
X126207000Y-67056000D02*
G75*
G03*
X126330615Y-67663587I1555000J0D01*
G01*
X129317000Y-74056000D02*
G75*
G03*
X129317000Y-74056000I-1555000J0D01*
G01*
X129317000Y-95056000D02*
G75*
G03*
X129317000Y-95056000I-1555000J0D01*
G01*
X129317000Y-105556000D02*
G75*
G03*
X129317000Y-105556000I-1555000J0D01*
G01*
X129317000Y-77556000D02*
G75*
G03*
X129317000Y-77556000I-1555000J0D01*
G01*
X129317000Y-102056000D02*
G75*
G03*
X129317000Y-102056000I-1555000J0D01*
G01*
X129317000Y-98556000D02*
G75*
G03*
X129317000Y-98556000I-1555000J0D01*
G01*
X129317000Y-84556000D02*
G75*
G03*
X129317000Y-84556000I-1555000J0D01*
G01*
X129317000Y-81056000D02*
G75*
G03*
X129317000Y-81056000I-1555000J0D01*
G01*
X129317000Y-88056000D02*
G75*
G03*
X129317000Y-88056000I-1555000J0D01*
G01*
X129317000Y-70556000D02*
G75*
G03*
X129317000Y-70556000I-1555000J0D01*
G01*
X129317000Y-91556000D02*
G75*
G03*
X129317000Y-91556000I-1555000J0D01*
G01*
%TO.C,R3*%
X128257436Y-61822000D02*
X128711564Y-61822000D01*
X128257436Y-60352000D02*
X128711564Y-60352000D01*
%TO.C,C3*%
X157148196Y-113721458D02*
X157670700Y-113721458D01*
X157148196Y-115191458D02*
X157670700Y-115191458D01*
%TO.C,REF\u002A\u002A*%
X129234000Y-129595000D02*
X129234000Y-130245000D01*
X129234000Y-133295000D02*
X135434000Y-133295000D01*
X135434000Y-129595000D02*
X135434000Y-130245000D01*
X135434000Y-133295000D02*
X135434000Y-132645000D01*
X129234000Y-132645000D02*
X129234000Y-133295000D01*
X135434000Y-129595000D02*
X129234000Y-129595000D01*
%TO.C,A1*%
X137090800Y-69494400D02*
X137090800Y-107724400D01*
X155130800Y-64284400D02*
X137090800Y-64284400D01*
X139760800Y-69494400D02*
X139760800Y-105054400D01*
X155130800Y-107724400D02*
X155130800Y-64284400D01*
X139760800Y-66954400D02*
X137090800Y-66954400D01*
X139760800Y-105054400D02*
X137090800Y-105054400D01*
X137090800Y-64284400D02*
X137090800Y-66954400D01*
X139760800Y-69494400D02*
X139760800Y-66954400D01*
X152460800Y-105054400D02*
X155130800Y-105054400D01*
X137090800Y-107724400D02*
X155130800Y-107724400D01*
X139760800Y-69494400D02*
X137090800Y-69494400D01*
X152460800Y-66954400D02*
X152460800Y-105054400D01*
X152460800Y-66954400D02*
X155130800Y-66954400D01*
%TO.C,C2*%
X157198996Y-118699858D02*
X157721500Y-118699858D01*
X157198996Y-120169858D02*
X157721500Y-120169858D01*
%TO.C,J2*%
X162302000Y-107312800D02*
X162302000Y-64492800D01*
X162302000Y-64492800D02*
X169422000Y-64492800D01*
X169662000Y-107552800D02*
X169662000Y-106052800D01*
X167922000Y-107552800D02*
X169662000Y-107552800D01*
X169422000Y-107312800D02*
X169422000Y-64492800D01*
X162302000Y-107312800D02*
X169422000Y-107312800D01*
X167862000Y-107312800D02*
X167862000Y-64492800D01*
X164330000Y-104544800D02*
G75*
G03*
X164329891Y-105760542I1432000J-608000D01*
G01*
X167194000Y-105760800D02*
G75*
G03*
X167317493Y-105125789I-1431988J607998D01*
G01*
X165154000Y-106584800D02*
G75*
G03*
X166369742Y-106584909I608000J1432000D01*
G01*
X167317000Y-105152800D02*
G75*
G03*
X167193385Y-104545213I-1555000J0D01*
G01*
X166370000Y-103720800D02*
G75*
G03*
X165154258Y-103720691I-607999J-1432003D01*
G01*
X167317000Y-66652800D02*
G75*
G03*
X167317000Y-66652800I-1555000J0D01*
G01*
X167317000Y-70152800D02*
G75*
G03*
X167317000Y-70152800I-1555000J0D01*
G01*
X167317000Y-84152800D02*
G75*
G03*
X167317000Y-84152800I-1555000J0D01*
G01*
X167317000Y-73652800D02*
G75*
G03*
X167317000Y-73652800I-1555000J0D01*
G01*
X167317000Y-94652800D02*
G75*
G03*
X167317000Y-94652800I-1555000J0D01*
G01*
X167317000Y-87652800D02*
G75*
G03*
X167317000Y-87652800I-1555000J0D01*
G01*
X167317000Y-91152800D02*
G75*
G03*
X167317000Y-91152800I-1555000J0D01*
G01*
X167317000Y-80652800D02*
G75*
G03*
X167317000Y-80652800I-1555000J0D01*
G01*
X167317000Y-77152800D02*
G75*
G03*
X167317000Y-77152800I-1555000J0D01*
G01*
X167317000Y-101652800D02*
G75*
G03*
X167317000Y-101652800I-1555000J0D01*
G01*
X167317000Y-98152800D02*
G75*
G03*
X167317000Y-98152800I-1555000J0D01*
G01*
%TO.C,C1*%
X144177648Y-128470006D02*
X144177648Y-128992510D01*
X145647648Y-128470006D02*
X145647648Y-128992510D01*
D14*
%TO.C,U4*%
X149815048Y-131079658D02*
X149815048Y-126179658D01*
X147940048Y-126049658D02*
X149465048Y-126049658D01*
X149815048Y-126179658D02*
X153015048Y-126179658D01*
X153015048Y-126179658D02*
X153015048Y-131079658D01*
X153015048Y-131079658D02*
X149815048Y-131079658D01*
%TO.C,U2*%
X149860000Y-123580000D02*
X149860000Y-123580000D01*
X149860000Y-123480000D02*
X149860000Y-123480000D01*
D15*
X152210000Y-122465000D02*
X147510000Y-122465000D01*
X147510000Y-122465000D02*
X147510000Y-111415000D01*
D14*
X149860000Y-123580000D02*
X149860000Y-123580000D01*
D15*
X147510000Y-111415000D02*
X152210000Y-111415000D01*
X152210000Y-111415000D02*
X152210000Y-122465000D01*
D14*
X149860000Y-123580000D02*
G75*
G03*
X149860000Y-123480000I0J50000D01*
G01*
X149860000Y-123480000D02*
G75*
G03*
X149860000Y-123580000I0J-50000D01*
G01*
X149860000Y-123580000D02*
G75*
G03*
X149860000Y-123480000I0J50000D01*
G01*
D13*
%TO.C,R3*%
X161570936Y-126392000D02*
X162025064Y-126392000D01*
X161570936Y-127862000D02*
X162025064Y-127862000D01*
X128257436Y-57250000D02*
X128711564Y-57250000D01*
X128257436Y-55780000D02*
X128711564Y-55780000D01*
%TO.C,R2*%
X126465000Y-124613936D02*
X126465000Y-125068064D01*
X124995000Y-124613936D02*
X124995000Y-125068064D01*
D14*
%TO.C,U3*%
X131093000Y-125917000D02*
X131093000Y-114367000D01*
X137893000Y-114367000D02*
X137893000Y-125917000D01*
X137893000Y-125917000D02*
X131093000Y-125917000D01*
X140093000Y-125897000D02*
X138243000Y-125897000D01*
X131093000Y-114367000D02*
X137893000Y-114367000D01*
D13*
%TO.C,J3*%
X163829000Y-52485000D02*
X162089000Y-52485000D01*
X162089000Y-52485000D02*
X162089000Y-53985000D01*
X163889000Y-52725000D02*
X163889000Y-60545000D01*
X162329000Y-52725000D02*
X162329000Y-60545000D01*
X169449000Y-52725000D02*
X169449000Y-60545000D01*
X169449000Y-52725000D02*
X162329000Y-52725000D01*
X169449000Y-60545000D02*
X162329000Y-60545000D01*
X167421000Y-55493000D02*
G75*
G03*
X167421109Y-54277258I-1432000J608000D01*
G01*
X164434000Y-54885000D02*
G75*
G03*
X164557615Y-55492587I1555000J0D01*
G01*
X166597000Y-53453000D02*
G75*
G03*
X165381258Y-53452891I-608000J-1432000D01*
G01*
X165381000Y-56317000D02*
G75*
G03*
X166596742Y-56317109I607999J1432003D01*
G01*
X164557000Y-54277000D02*
G75*
G03*
X164433507Y-54912011I1431988J-607998D01*
G01*
X167544000Y-58385000D02*
G75*
G03*
X167544000Y-58385000I-1555000J0D01*
G01*
X169676000Y-113692000D02*
X169676000Y-121512000D01*
X164056000Y-113452000D02*
X162316000Y-113452000D01*
X164116000Y-113692000D02*
X164116000Y-121512000D01*
X169676000Y-121512000D02*
X162556000Y-121512000D01*
X169676000Y-113692000D02*
X162556000Y-113692000D01*
X162556000Y-113692000D02*
X162556000Y-121512000D01*
X162316000Y-113452000D02*
X162316000Y-114952000D01*
X167648000Y-116460000D02*
G75*
G03*
X167648109Y-115244258I-1432000J608000D01*
G01*
X164661000Y-115852000D02*
G75*
G03*
X164784615Y-116459587I1555000J0D01*
G01*
X166824000Y-114420000D02*
G75*
G03*
X165608258Y-114419891I-608000J-1432000D01*
G01*
X164784000Y-115244000D02*
G75*
G03*
X164660507Y-115879011I1431988J-607998D01*
G01*
X165608000Y-117284000D02*
G75*
G03*
X166823742Y-117284109I607999J1432003D01*
G01*
X167771000Y-119352000D02*
G75*
G03*
X167771000Y-119352000I-1555000J0D01*
G01*
%TO.C,REF\u002A\u002A*%
X125597500Y-60127000D02*
X122912500Y-60127000D01*
X122912500Y-62047000D02*
X125597500Y-62047000D01*
X125597500Y-62047000D02*
X125597500Y-60127000D01*
%TD*%
M02*
