%TF.GenerationSoftware,KiCad,Pcbnew,(6.0.10)*%
%TF.CreationDate,2023-02-10T12:49:53-06:00*%
%TF.ProjectId,lowerArm,6c6f7765-7241-4726-9d2e-6b696361645f,rev?*%
%TF.SameCoordinates,Original*%
%TF.FileFunction,Soldermask,Bot*%
%TF.FilePolarity,Negative*%
%FSLAX46Y46*%
G04 Gerber Fmt 4.6, Leading zero omitted, Abs format (unit mm)*
G04 Created by KiCad (PCBNEW (6.0.10)) date 2023-02-10 12:49:53*
%MOMM*%
%LPD*%
G01*
G04 APERTURE LIST*
%ADD10R,1.700000X1.700000*%
%ADD11O,1.700000X1.700000*%
%ADD12O,3.500000X3.500000*%
%ADD13R,2.000000X1.905000*%
%ADD14O,2.000000X1.905000*%
%ADD15R,2.400000X2.400000*%
%ADD16C,2.400000*%
%ADD17R,1.600000X1.600000*%
%ADD18O,1.600000X1.600000*%
%ADD19C,2.500000*%
%ADD20C,1.192000*%
G04 APERTURE END LIST*
D10*
%TO.C,REF\u002A\u002A*%
X168128000Y-126973000D03*
D11*
X165588000Y-126973000D03*
%TD*%
D12*
%TO.C,U1*%
X137776000Y-51943000D03*
D13*
X153576000Y-54483000D03*
D14*
X153576000Y-51943000D03*
X153576000Y-49403000D03*
%TD*%
D15*
%TO.C,J1*%
X127762000Y-67056000D03*
D16*
X127762000Y-70556000D03*
X127762000Y-74056000D03*
X127762000Y-77556000D03*
X127762000Y-81056000D03*
X127762000Y-84556000D03*
X127762000Y-88056000D03*
X127762000Y-91556000D03*
X127762000Y-95056000D03*
X127762000Y-98556000D03*
X127762000Y-102056000D03*
X127762000Y-105556000D03*
%TD*%
D17*
%TO.C,A1*%
X138490800Y-68224400D03*
D18*
X138490800Y-70764400D03*
X138490800Y-73304400D03*
X138490800Y-75844400D03*
X138490800Y-78384400D03*
X138490800Y-80924400D03*
X138490800Y-83464400D03*
X138490800Y-86004400D03*
X138490800Y-88544400D03*
X138490800Y-91084400D03*
X138490800Y-93624400D03*
X138490800Y-96164400D03*
X138490800Y-98704400D03*
X138490800Y-101244400D03*
X138490800Y-103784400D03*
X153730800Y-103784400D03*
X153730800Y-101244400D03*
X153730800Y-98704400D03*
X153730800Y-96164400D03*
X153730800Y-93624400D03*
X153730800Y-91084400D03*
X153730800Y-88544400D03*
X153730800Y-86004400D03*
X153730800Y-83464400D03*
X153730800Y-80924400D03*
X153730800Y-78384400D03*
X153730800Y-75844400D03*
X153730800Y-73304400D03*
X153730800Y-70764400D03*
X153730800Y-68224400D03*
%TD*%
D19*
%TO.C,REF\u002A\u002A*%
X171958000Y-48641000D03*
%TD*%
D15*
%TO.C,J2*%
X165762000Y-105152800D03*
D16*
X165762000Y-101652800D03*
X165762000Y-98152800D03*
X165762000Y-94652800D03*
X165762000Y-91152800D03*
X165762000Y-87652800D03*
X165762000Y-84152800D03*
X165762000Y-80652800D03*
X165762000Y-77152800D03*
X165762000Y-73652800D03*
X165762000Y-70152800D03*
X165762000Y-66652800D03*
%TD*%
D20*
%TO.C,U2*%
X149860000Y-119380000D03*
X149860000Y-114500000D03*
%TD*%
D19*
%TO.C,REF\u002A\u002A*%
X171323000Y-131826000D03*
%TD*%
%TO.C,REF\u002A\u002A*%
X121920000Y-48260000D03*
%TD*%
D15*
%TO.C,J3*%
X165989000Y-54885000D03*
D16*
X165989000Y-58385000D03*
%TD*%
D15*
%TO.C,J3*%
X166216000Y-115852000D03*
D16*
X166216000Y-119352000D03*
%TD*%
D19*
%TO.C,REF\u002A\u002A*%
X121920000Y-132080000D03*
%TD*%
M02*
