M48
; DRILL file {KiCad (6.0.10)} date Fri Feb 10 12:49:50 2023
; FORMAT={-:-/ absolute / inch / decimal}
; #@! TF.CreationDate,2023-02-10T12:49:50-06:00
; #@! TF.GenerationSoftware,Kicad,Pcbnew,(6.0.10)
; #@! TF.FileFunction,Plated,1,2,PTH
FMAT,2
INCH
; #@! TA.AperFunction,Plated,PTH,ViaDrill
T1C0.0157
; #@! TA.AperFunction,Plated,PTH,ComponentDrill
T2C0.0256
; #@! TA.AperFunction,Plated,PTH,ComponentDrill
T3C0.0394
; #@! TA.AperFunction,Plated,PTH,ComponentDrill
T4C0.0472
%
G90
G05
T1
X4.7584Y-2.225
X4.7584Y-2.405
X5.005Y-4.722
X5.107Y-5.012
X5.205Y-2.41
X5.215Y-2.225
X5.32Y-5.04
X5.375Y-2.59
X5.5859Y-4.53
X5.6086Y-5.0308
X5.8022Y-5.0892
X6.075Y-4.905
X6.2366Y-4.8236
T2
X5.9Y-4.5079
X5.9Y-4.7
T3
X5.4524Y-2.686
X5.4524Y-2.786
X5.4524Y-2.886
X5.4524Y-2.986
X5.4524Y-3.086
X5.4524Y-3.186
X5.4524Y-3.286
X5.4524Y-3.386
X5.4524Y-3.486
X5.4524Y-3.586
X5.4524Y-3.686
X5.4524Y-3.786
X5.4524Y-3.886
X5.4524Y-3.986
X5.4524Y-4.086
X6.0524Y-2.686
X6.0524Y-2.786
X6.0524Y-2.886
X6.0524Y-2.986
X6.0524Y-3.086
X6.0524Y-3.186
X6.0524Y-3.286
X6.0524Y-3.386
X6.0524Y-3.486
X6.0524Y-3.586
X6.0524Y-3.686
X6.0524Y-3.786
X6.0524Y-3.886
X6.0524Y-3.986
X6.0524Y-4.086
X6.5192Y-4.9989
X6.6192Y-4.9989
T4
X5.03Y-2.64
X5.03Y-2.7778
X5.03Y-2.9156
X5.03Y-3.0534
X5.03Y-3.1912
X5.03Y-3.329
X5.03Y-3.4668
X5.03Y-3.6046
X5.03Y-3.7424
X5.03Y-3.8802
X5.03Y-4.018
X5.03Y-4.1557
X6.0463Y-1.945
X6.0463Y-2.045
X6.0463Y-2.145
X6.5261Y-2.6241
X6.5261Y-2.7619
X6.5261Y-2.8997
X6.5261Y-3.0375
X6.5261Y-3.1753
X6.5261Y-3.3131
X6.5261Y-3.4509
X6.5261Y-3.5887
X6.5261Y-3.7265
X6.5261Y-3.8643
X6.5261Y-4.0021
X6.5261Y-4.1399
X6.535Y-2.1608
X6.535Y-2.2986
X6.5439Y-4.5611
X6.5439Y-4.6989
T0
M30
