%TF.GenerationSoftware,KiCad,Pcbnew,(6.0.10)*%
%TF.CreationDate,2023-02-10T12:49:52-06:00*%
%TF.ProjectId,lowerArm,6c6f7765-7241-4726-9d2e-6b696361645f,rev?*%
%TF.SameCoordinates,Original*%
%TF.FileFunction,Soldermask,Top*%
%TF.FilePolarity,Negative*%
%FSLAX46Y46*%
G04 Gerber Fmt 4.6, Leading zero omitted, Abs format (unit mm)*
G04 Created by KiCad (PCBNEW (6.0.10)) date 2023-02-10 12:49:52*
%MOMM*%
%LPD*%
G01*
G04 APERTURE LIST*
G04 Aperture macros list*
%AMRoundRect*
0 Rectangle with rounded corners*
0 $1 Rounding radius*
0 $2 $3 $4 $5 $6 $7 $8 $9 X,Y pos of 4 corners*
0 Add a 4 corners polygon primitive as box body*
4,1,4,$2,$3,$4,$5,$6,$7,$8,$9,$2,$3,0*
0 Add four circle primitives for the rounded corners*
1,1,$1+$1,$2,$3*
1,1,$1+$1,$4,$5*
1,1,$1+$1,$6,$7*
1,1,$1+$1,$8,$9*
0 Add four rect primitives between the rounded corners*
20,1,$1+$1,$2,$3,$4,$5,0*
20,1,$1+$1,$4,$5,$6,$7,0*
20,1,$1+$1,$6,$7,$8,$9,0*
20,1,$1+$1,$8,$9,$2,$3,0*%
G04 Aperture macros list end*
%ADD10R,1.700000X1.700000*%
%ADD11O,1.700000X1.700000*%
%ADD12RoundRect,0.243750X0.243750X0.456250X-0.243750X0.456250X-0.243750X-0.456250X0.243750X-0.456250X0*%
%ADD13O,3.500000X3.500000*%
%ADD14R,2.000000X1.905000*%
%ADD15O,2.000000X1.905000*%
%ADD16R,2.400000X2.400000*%
%ADD17C,2.400000*%
%ADD18RoundRect,0.250000X-0.262500X-0.450000X0.262500X-0.450000X0.262500X0.450000X-0.262500X0.450000X0*%
%ADD19RoundRect,0.250000X-0.250000X-0.475000X0.250000X-0.475000X0.250000X0.475000X-0.250000X0.475000X0*%
%ADD20R,2.000000X1.600000*%
%ADD21R,1.600000X1.600000*%
%ADD22O,1.600000X1.600000*%
%ADD23C,2.500000*%
%ADD24RoundRect,0.250000X-0.475000X0.250000X-0.475000X-0.250000X0.475000X-0.250000X0.475000X0.250000X0*%
%ADD25R,1.525000X0.650000*%
%ADD26C,1.192000*%
%ADD27RoundRect,0.250000X-0.450000X0.262500X-0.450000X-0.262500X0.450000X-0.262500X0.450000X0.262500X0*%
%ADD28R,1.850000X0.650000*%
G04 APERTURE END LIST*
D10*
%TO.C,REF\u002A\u002A*%
X168128000Y-126973000D03*
D11*
X165588000Y-126973000D03*
%TD*%
D12*
%TO.C,CAN*%
X124850000Y-56515000D03*
X122975000Y-56515000D03*
%TD*%
D13*
%TO.C,U1*%
X137776000Y-51943000D03*
D14*
X153576000Y-54483000D03*
D15*
X153576000Y-51943000D03*
X153576000Y-49403000D03*
%TD*%
D16*
%TO.C,J1*%
X127762000Y-67056000D03*
D17*
X127762000Y-70556000D03*
X127762000Y-74056000D03*
X127762000Y-77556000D03*
X127762000Y-81056000D03*
X127762000Y-84556000D03*
X127762000Y-88056000D03*
X127762000Y-91556000D03*
X127762000Y-95056000D03*
X127762000Y-98556000D03*
X127762000Y-102056000D03*
X127762000Y-105556000D03*
%TD*%
D18*
%TO.C,R3*%
X127572000Y-61087000D03*
X129397000Y-61087000D03*
%TD*%
D19*
%TO.C,C3*%
X156459448Y-114456458D03*
X158359448Y-114456458D03*
%TD*%
D20*
%TO.C,REF\u002A\u002A*%
X129634000Y-131445000D03*
X135034000Y-131445000D03*
%TD*%
D21*
%TO.C,A1*%
X138490800Y-68224400D03*
D22*
X138490800Y-70764400D03*
X138490800Y-73304400D03*
X138490800Y-75844400D03*
X138490800Y-78384400D03*
X138490800Y-80924400D03*
X138490800Y-83464400D03*
X138490800Y-86004400D03*
X138490800Y-88544400D03*
X138490800Y-91084400D03*
X138490800Y-93624400D03*
X138490800Y-96164400D03*
X138490800Y-98704400D03*
X138490800Y-101244400D03*
X138490800Y-103784400D03*
X153730800Y-103784400D03*
X153730800Y-101244400D03*
X153730800Y-98704400D03*
X153730800Y-96164400D03*
X153730800Y-93624400D03*
X153730800Y-91084400D03*
X153730800Y-88544400D03*
X153730800Y-86004400D03*
X153730800Y-83464400D03*
X153730800Y-80924400D03*
X153730800Y-78384400D03*
X153730800Y-75844400D03*
X153730800Y-73304400D03*
X153730800Y-70764400D03*
X153730800Y-68224400D03*
%TD*%
D19*
%TO.C,C2*%
X156510248Y-119434858D03*
X158410248Y-119434858D03*
%TD*%
D23*
%TO.C,REF\u002A\u002A*%
X171958000Y-48641000D03*
%TD*%
D16*
%TO.C,J2*%
X165762000Y-105152800D03*
D17*
X165762000Y-101652800D03*
X165762000Y-98152800D03*
X165762000Y-94652800D03*
X165762000Y-91152800D03*
X165762000Y-87652800D03*
X165762000Y-84152800D03*
X165762000Y-80652800D03*
X165762000Y-77152800D03*
X165762000Y-73652800D03*
X165762000Y-70152800D03*
X165762000Y-66652800D03*
%TD*%
D24*
%TO.C,C1*%
X144912648Y-127781258D03*
X144912648Y-129681258D03*
%TD*%
D25*
%TO.C,U4*%
X148703048Y-126724658D03*
X148703048Y-127994658D03*
X148703048Y-129264658D03*
X148703048Y-130534658D03*
X154127048Y-130534658D03*
X154127048Y-129264658D03*
X154127048Y-127994658D03*
X154127048Y-126724658D03*
%TD*%
D26*
%TO.C,U2*%
X149860000Y-119380000D03*
X149860000Y-114500000D03*
%TD*%
D23*
%TO.C,REF\u002A\u002A*%
X171323000Y-131826000D03*
%TD*%
D18*
%TO.C,R3*%
X160885500Y-127127000D03*
X162710500Y-127127000D03*
%TD*%
D23*
%TO.C,REF\u002A\u002A*%
X121920000Y-48260000D03*
%TD*%
D18*
%TO.C,R3*%
X127572000Y-56515000D03*
X129397000Y-56515000D03*
%TD*%
D27*
%TO.C,R2*%
X125730000Y-123928500D03*
X125730000Y-125753500D03*
%TD*%
D28*
%TO.C,U3*%
X139168000Y-125222000D03*
X139168000Y-123952000D03*
X139168000Y-122682000D03*
X139168000Y-121412000D03*
X139168000Y-120142000D03*
X139168000Y-118872000D03*
X139168000Y-117602000D03*
X139168000Y-116332000D03*
X139168000Y-115062000D03*
X129818000Y-115062000D03*
X129818000Y-116332000D03*
X129818000Y-117602000D03*
X129818000Y-118872000D03*
X129818000Y-120142000D03*
X129818000Y-121412000D03*
X129818000Y-122682000D03*
X129818000Y-123952000D03*
X129818000Y-125222000D03*
%TD*%
D16*
%TO.C,J3*%
X165989000Y-54885000D03*
D17*
X165989000Y-58385000D03*
%TD*%
D16*
%TO.C,J3*%
X166216000Y-115852000D03*
D17*
X166216000Y-119352000D03*
%TD*%
D12*
%TO.C,REF\u002A\u002A*%
X124850000Y-61087000D03*
X122975000Y-61087000D03*
%TD*%
D23*
%TO.C,REF\u002A\u002A*%
X121920000Y-132080000D03*
%TD*%
M02*
