%TF.GenerationSoftware,KiCad,Pcbnew,(6.0.10)*%
%TF.CreationDate,2023-02-10T12:49:52-06:00*%
%TF.ProjectId,lowerArm,6c6f7765-7241-4726-9d2e-6b696361645f,rev?*%
%TF.SameCoordinates,Original*%
%TF.FileFunction,Copper,L2,Bot*%
%TF.FilePolarity,Positive*%
%FSLAX46Y46*%
G04 Gerber Fmt 4.6, Leading zero omitted, Abs format (unit mm)*
G04 Created by KiCad (PCBNEW (6.0.10)) date 2023-02-10 12:49:52*
%MOMM*%
%LPD*%
G01*
G04 APERTURE LIST*
%TA.AperFunction,ComponentPad*%
%ADD10R,1.700000X1.700000*%
%TD*%
%TA.AperFunction,ComponentPad*%
%ADD11O,1.700000X1.700000*%
%TD*%
%TA.AperFunction,ComponentPad*%
%ADD12R,2.000000X1.905000*%
%TD*%
%TA.AperFunction,ComponentPad*%
%ADD13O,2.000000X1.905000*%
%TD*%
%TA.AperFunction,ComponentPad*%
%ADD14R,2.400000X2.400000*%
%TD*%
%TA.AperFunction,ComponentPad*%
%ADD15C,2.400000*%
%TD*%
%TA.AperFunction,ComponentPad*%
%ADD16R,1.600000X1.600000*%
%TD*%
%TA.AperFunction,ComponentPad*%
%ADD17O,1.600000X1.600000*%
%TD*%
%TA.AperFunction,ComponentPad*%
%ADD18C,1.192000*%
%TD*%
%TA.AperFunction,ViaPad*%
%ADD19C,0.800000*%
%TD*%
%TA.AperFunction,Conductor*%
%ADD20C,0.250000*%
%TD*%
G04 APERTURE END LIST*
D10*
%TO.P,REF\u002A\u002A,1*%
%TO.N,Net-(J3-Pad2)*%
X168128000Y-126973000D03*
D11*
%TO.P,REF\u002A\u002A,2*%
%TO.N,N/C*%
X165588000Y-126973000D03*
%TD*%
D12*
%TO.P,U1,1,GND*%
%TO.N,GND*%
X153576000Y-54483000D03*
D13*
%TO.P,U1,2,VO*%
%TO.N,Net-(A1-Pad30)*%
X153576000Y-51943000D03*
%TO.P,U1,3,VI*%
%TO.N,+BATT*%
X153576000Y-49403000D03*
%TD*%
D14*
%TO.P,J1,1,Pin_1*%
%TO.N,GND*%
X127762000Y-67056000D03*
D15*
%TO.P,J1,2,Pin_2*%
%TO.N,unconnected-(A1-Pad5)*%
X127762000Y-70556000D03*
%TO.P,J1,3,Pin_3*%
%TO.N,Net-(A1-Pad6)*%
X127762000Y-74056000D03*
%TO.P,J1,4,Pin_4*%
%TO.N,Net-(A1-Pad7)*%
X127762000Y-77556000D03*
%TO.P,J1,5,Pin_5*%
%TO.N,Net-(A1-Pad8)*%
X127762000Y-81056000D03*
%TO.P,J1,6,Pin_6*%
%TO.N,Net-(A1-Pad9)*%
X127762000Y-84556000D03*
%TO.P,J1,7,Pin_7*%
%TO.N,Net-(A1-Pad10)*%
X127762000Y-88056000D03*
%TO.P,J1,8,Pin_8*%
%TO.N,Net-(A1-Pad11)*%
X127762000Y-91556000D03*
%TO.P,J1,9,Pin_9*%
%TO.N,Net-(A1-Pad12)*%
X127762000Y-95056000D03*
%TO.P,J1,10,Pin_10*%
%TO.N,Net-(A1-Pad13)*%
X127762000Y-98556000D03*
%TO.P,J1,11,Pin_11*%
%TO.N,Net-(A1-Pad14)*%
X127762000Y-102056000D03*
%TO.P,J1,12,Pin_12*%
%TO.N,Net-(A1-Pad15)*%
X127762000Y-105556000D03*
%TD*%
D16*
%TO.P,A1,1,D1/TX*%
%TO.N,unconnected-(A1-Pad1)*%
X138490800Y-68224400D03*
D17*
%TO.P,A1,2,D0/RX*%
%TO.N,unconnected-(A1-Pad2)*%
X138490800Y-70764400D03*
%TO.P,A1,3,~{RESET}*%
%TO.N,unconnected-(A1-Pad3)*%
X138490800Y-73304400D03*
%TO.P,A1,4,GND*%
%TO.N,GND*%
X138490800Y-75844400D03*
%TO.P,A1,5,D2*%
%TO.N,unconnected-(A1-Pad5)*%
X138490800Y-78384400D03*
%TO.P,A1,6,D3*%
%TO.N,Net-(A1-Pad6)*%
X138490800Y-80924400D03*
%TO.P,A1,7,D4*%
%TO.N,Net-(A1-Pad7)*%
X138490800Y-83464400D03*
%TO.P,A1,8,D5*%
%TO.N,Net-(A1-Pad8)*%
X138490800Y-86004400D03*
%TO.P,A1,9,D6*%
%TO.N,Net-(A1-Pad9)*%
X138490800Y-88544400D03*
%TO.P,A1,10,D7*%
%TO.N,Net-(A1-Pad10)*%
X138490800Y-91084400D03*
%TO.P,A1,11,D8*%
%TO.N,Net-(A1-Pad11)*%
X138490800Y-93624400D03*
%TO.P,A1,12,D9*%
%TO.N,Net-(A1-Pad12)*%
X138490800Y-96164400D03*
%TO.P,A1,13,D10*%
%TO.N,Net-(A1-Pad13)*%
X138490800Y-98704400D03*
%TO.P,A1,14,D11*%
%TO.N,Net-(A1-Pad14)*%
X138490800Y-101244400D03*
%TO.P,A1,15,D12*%
%TO.N,Net-(A1-Pad15)*%
X138490800Y-103784400D03*
%TO.P,A1,16,D13*%
%TO.N,Net-(A1-Pad16)*%
X153730800Y-103784400D03*
%TO.P,A1,17,3V3*%
%TO.N,Net-(A1-Pad17)*%
X153730800Y-101244400D03*
%TO.P,A1,18,AREF*%
%TO.N,unconnected-(A1-Pad18)*%
X153730800Y-98704400D03*
%TO.P,A1,19,A0*%
%TO.N,Net-(A1-Pad19)*%
X153730800Y-96164400D03*
%TO.P,A1,20,A1*%
%TO.N,Net-(A1-Pad20)*%
X153730800Y-93624400D03*
%TO.P,A1,21,A2*%
%TO.N,Net-(A1-Pad21)*%
X153730800Y-91084400D03*
%TO.P,A1,22,A3*%
%TO.N,Net-(A1-Pad22)*%
X153730800Y-88544400D03*
%TO.P,A1,23,A4*%
%TO.N,Net-(A1-Pad23)*%
X153730800Y-86004400D03*
%TO.P,A1,24,A5*%
%TO.N,Net-(A1-Pad24)*%
X153730800Y-83464400D03*
%TO.P,A1,25,A6*%
%TO.N,Net-(A1-Pad25)*%
X153730800Y-80924400D03*
%TO.P,A1,26,A7*%
%TO.N,Net-(A1-Pad26)*%
X153730800Y-78384400D03*
%TO.P,A1,27,+5V*%
%TO.N,Net-(A1-Pad27)*%
X153730800Y-75844400D03*
%TO.P,A1,28,~{RESET}*%
%TO.N,Net-(A1-Pad28)*%
X153730800Y-73304400D03*
%TO.P,A1,29,GND*%
%TO.N,Net-(A1-Pad29)*%
X153730800Y-70764400D03*
%TO.P,A1,30,VIN*%
%TO.N,Net-(A1-Pad30)*%
X153730800Y-68224400D03*
%TD*%
D14*
%TO.P,J2,1,Pin_1*%
%TO.N,unconnected-(A1-Pad18)*%
X165762000Y-105152800D03*
D15*
%TO.P,J2,2,Pin_2*%
%TO.N,Net-(A1-Pad19)*%
X165762000Y-101652800D03*
%TO.P,J2,3,Pin_3*%
%TO.N,Net-(A1-Pad20)*%
X165762000Y-98152800D03*
%TO.P,J2,4,Pin_4*%
%TO.N,Net-(A1-Pad21)*%
X165762000Y-94652800D03*
%TO.P,J2,5,Pin_5*%
%TO.N,Net-(A1-Pad22)*%
X165762000Y-91152800D03*
%TO.P,J2,6,Pin_6*%
%TO.N,Net-(A1-Pad23)*%
X165762000Y-87652800D03*
%TO.P,J2,7,Pin_7*%
%TO.N,Net-(A1-Pad24)*%
X165762000Y-84152800D03*
%TO.P,J2,8,Pin_8*%
%TO.N,Net-(A1-Pad25)*%
X165762000Y-80652800D03*
%TO.P,J2,9,Pin_9*%
%TO.N,Net-(A1-Pad26)*%
X165762000Y-77152800D03*
%TO.P,J2,10,Pin_10*%
%TO.N,Net-(A1-Pad27)*%
X165762000Y-73652800D03*
%TO.P,J2,11,Pin_11*%
%TO.N,Net-(A1-Pad29)*%
X165762000Y-70152800D03*
%TO.P,J2,12,Pin_12*%
%TO.N,Net-(A1-Pad30)*%
X165762000Y-66652800D03*
%TD*%
D18*
%TO.P,U2,1*%
%TO.N,Net-(C2-Pad1)*%
X149860000Y-119380000D03*
%TO.P,U2,2*%
%TO.N,Net-(C3-Pad1)*%
X149860000Y-114500000D03*
%TD*%
D14*
%TO.P,J3,1,Pin_1*%
%TO.N,+BATT*%
X165989000Y-54885000D03*
D15*
%TO.P,J3,2,Pin_2*%
%TO.N,GND*%
X165989000Y-58385000D03*
%TD*%
D14*
%TO.P,J3,1,Pin_1*%
%TO.N,Net-(J3-Pad1)*%
X166216000Y-115852000D03*
D15*
%TO.P,J3,2,Pin_2*%
%TO.N,Net-(J3-Pad2)*%
X166216000Y-119352000D03*
%TD*%
D19*
%TO.N,Net-(A1-Pad25)*%
X132207000Y-61214000D03*
%TO.N,Net-(A1-Pad26)*%
X132461000Y-56515000D03*
%TO.N,GND*%
X120864500Y-61087000D03*
X136525000Y-65786000D03*
X141882810Y-115062000D03*
X135128000Y-128016000D03*
X120864500Y-56515000D03*
X158410248Y-122518458D03*
X142459048Y-127781258D03*
X154305000Y-124587000D03*
%TO.N,Net-(A1-Pad14)*%
X127127000Y-119938800D03*
%TO.N,Net-(A1-Pad17)*%
X147376448Y-129264658D03*
X129717800Y-127304800D03*
%TD*%
D20*
%TO.N,Net-(A1-Pad25)*%
X149250400Y-80924400D02*
X153730800Y-80924400D01*
X149225000Y-80899000D02*
X149250400Y-80924400D01*
X149225000Y-61341000D02*
X149225000Y-80899000D01*
X149098000Y-61214000D02*
X149225000Y-61341000D01*
X132207000Y-61214000D02*
X149098000Y-61214000D01*
%TO.N,Net-(A1-Pad26)*%
X151155400Y-78384400D02*
X153730800Y-78384400D01*
X150876000Y-58801000D02*
X150876000Y-78105000D01*
X150876000Y-78105000D02*
X151155400Y-78384400D01*
X150749000Y-58928000D02*
X150876000Y-58801000D01*
X132461000Y-58928000D02*
X150749000Y-58928000D01*
X132461000Y-56515000D02*
X132461000Y-58928000D01*
%TO.N,GND*%
X160201000Y-54483000D02*
X160201000Y-58345000D01*
X160241000Y-58385000D02*
X165989000Y-58385000D01*
X160201000Y-58345000D02*
X160241000Y-58385000D01*
X160201000Y-54483000D02*
X153576000Y-54483000D01*
%TO.N,Net-(A1-Pad14)*%
X126441200Y-119938800D02*
X126180552Y-119938800D01*
X126237000Y-101600000D02*
X127306000Y-101600000D01*
X126237000Y-119734600D02*
X126441200Y-119938800D01*
X127127000Y-119938800D02*
X126441200Y-119938800D01*
X126237000Y-101600000D02*
X126237000Y-119734600D01*
X127762000Y-101244400D02*
X134366000Y-101244400D01*
X134366000Y-101244400D02*
X138490800Y-101244400D01*
X134315200Y-101244400D02*
X134366000Y-101244400D01*
X127306000Y-101600000D02*
X127762000Y-102056000D01*
X127762000Y-102056000D02*
X127762000Y-101244400D01*
%TO.N,Net-(A1-Pad17)*%
X156870400Y-101244400D02*
X156870400Y-132080000D01*
X147320000Y-132080000D02*
X147320000Y-129321106D01*
X153730800Y-101244400D02*
X156870400Y-101244400D01*
X156870400Y-132080000D02*
X147320000Y-132080000D01*
X129774248Y-132080000D02*
X129774248Y-127361248D01*
X129774248Y-127361248D02*
X129717800Y-127304800D01*
X147320000Y-132080000D02*
X129774248Y-132080000D01*
X147320000Y-129321106D02*
X147376448Y-129264658D01*
%TD*%
%TA.AperFunction,Conductor*%
%TO.N,GND*%
G36*
X174820621Y-44978502D02*
G01*
X174867114Y-45032158D01*
X174878500Y-45084500D01*
X174878500Y-135128500D01*
X174858498Y-135196621D01*
X174804842Y-135243114D01*
X174752500Y-135254500D01*
X118744500Y-135254500D01*
X118676379Y-135234498D01*
X118629886Y-135180842D01*
X118618500Y-135128500D01*
X118618500Y-132187655D01*
X120159858Y-132187655D01*
X120195104Y-132446638D01*
X120196412Y-132451124D01*
X120196412Y-132451126D01*
X120209570Y-132496270D01*
X120268243Y-132697567D01*
X120270203Y-132701820D01*
X120270204Y-132701821D01*
X120279050Y-132721009D01*
X120377668Y-132934928D01*
X120380231Y-132938837D01*
X120518410Y-133149596D01*
X120518414Y-133149601D01*
X120520976Y-133153509D01*
X120695018Y-133348506D01*
X120895970Y-133515637D01*
X120899973Y-133518066D01*
X121115422Y-133648804D01*
X121115426Y-133648806D01*
X121119419Y-133651229D01*
X121360455Y-133752303D01*
X121613783Y-133816641D01*
X121618434Y-133817109D01*
X121618438Y-133817110D01*
X121811308Y-133836531D01*
X121830867Y-133838500D01*
X121986354Y-133838500D01*
X121988679Y-133838327D01*
X121988685Y-133838327D01*
X122176000Y-133824407D01*
X122176004Y-133824406D01*
X122180652Y-133824061D01*
X122185200Y-133823032D01*
X122185206Y-133823031D01*
X122371601Y-133780853D01*
X122435577Y-133766377D01*
X122471769Y-133752303D01*
X122674824Y-133673340D01*
X122674827Y-133673339D01*
X122679177Y-133671647D01*
X122906098Y-133541951D01*
X123111357Y-133380138D01*
X123290443Y-133189763D01*
X123439424Y-132975009D01*
X123441492Y-132970816D01*
X123552960Y-132744781D01*
X123552961Y-132744778D01*
X123555025Y-132740593D01*
X123562965Y-132715790D01*
X123633280Y-132496123D01*
X123634707Y-132491665D01*
X123676721Y-132233693D01*
X123678942Y-132064049D01*
X123680081Y-131977022D01*
X123680081Y-131977019D01*
X123680142Y-131972345D01*
X123644896Y-131713362D01*
X123630473Y-131663877D01*
X123573068Y-131466932D01*
X123571757Y-131462433D01*
X123462332Y-131225072D01*
X123420468Y-131161219D01*
X123321590Y-131010404D01*
X123321586Y-131010399D01*
X123319024Y-131006491D01*
X123144982Y-130811494D01*
X122944030Y-130644363D01*
X122896844Y-130615730D01*
X122724578Y-130511196D01*
X122724574Y-130511194D01*
X122720581Y-130508771D01*
X122479545Y-130407697D01*
X122226217Y-130343359D01*
X122221566Y-130342891D01*
X122221562Y-130342890D01*
X122012271Y-130321816D01*
X122009133Y-130321500D01*
X121853646Y-130321500D01*
X121851321Y-130321673D01*
X121851315Y-130321673D01*
X121664000Y-130335593D01*
X121663996Y-130335594D01*
X121659348Y-130335939D01*
X121654800Y-130336968D01*
X121654794Y-130336969D01*
X121468399Y-130379147D01*
X121404423Y-130393623D01*
X121400071Y-130395315D01*
X121400069Y-130395316D01*
X121165176Y-130486660D01*
X121165173Y-130486661D01*
X121160823Y-130488353D01*
X120933902Y-130618049D01*
X120728643Y-130779862D01*
X120549557Y-130970237D01*
X120400576Y-131184991D01*
X120398510Y-131189181D01*
X120398508Y-131189184D01*
X120289675Y-131409877D01*
X120284975Y-131419407D01*
X120283553Y-131423850D01*
X120283552Y-131423852D01*
X120273622Y-131454874D01*
X120205293Y-131668335D01*
X120163279Y-131926307D01*
X120163218Y-131930980D01*
X120160220Y-132160030D01*
X120159858Y-132187655D01*
X118618500Y-132187655D01*
X118618500Y-127304800D01*
X128804296Y-127304800D01*
X128824258Y-127494728D01*
X128883273Y-127676356D01*
X128978760Y-127841744D01*
X128983178Y-127846651D01*
X128983179Y-127846652D01*
X129106547Y-127983666D01*
X129104770Y-127985266D01*
X129136298Y-128036438D01*
X129140748Y-128069630D01*
X129140748Y-132008207D01*
X129138516Y-132031816D01*
X129136973Y-132039906D01*
X129137471Y-132047817D01*
X129140499Y-132095951D01*
X129140748Y-132103862D01*
X129140748Y-132119856D01*
X129142754Y-132135730D01*
X129143496Y-132143590D01*
X129145013Y-132167707D01*
X129146291Y-132188007D01*
X129147023Y-132199650D01*
X129149473Y-132207191D01*
X129149569Y-132207487D01*
X129154742Y-132230631D01*
X129154780Y-132230935D01*
X129154781Y-132230940D01*
X129155774Y-132238797D01*
X129158690Y-132246162D01*
X129158691Y-132246166D01*
X129176447Y-132291011D01*
X129179119Y-132298430D01*
X129196484Y-132351875D01*
X129200734Y-132358571D01*
X129200734Y-132358572D01*
X129200898Y-132358831D01*
X129211663Y-132379958D01*
X129211777Y-132380246D01*
X129211780Y-132380251D01*
X129214696Y-132387617D01*
X129219352Y-132394025D01*
X129219355Y-132394031D01*
X129247706Y-132433052D01*
X129252149Y-132439589D01*
X129282248Y-132487018D01*
X129288026Y-132492444D01*
X129288027Y-132492445D01*
X129288255Y-132492659D01*
X129303936Y-132510446D01*
X129308776Y-132517107D01*
X129314885Y-132522161D01*
X129314886Y-132522162D01*
X129352044Y-132552903D01*
X129357978Y-132558134D01*
X129393146Y-132591158D01*
X129393149Y-132591160D01*
X129398927Y-132596586D01*
X129406151Y-132600558D01*
X129425754Y-132613881D01*
X129425994Y-132614080D01*
X129426001Y-132614084D01*
X129432104Y-132619133D01*
X129465596Y-132634893D01*
X129482924Y-132643047D01*
X129489956Y-132646629D01*
X129539188Y-132673695D01*
X129546863Y-132675665D01*
X129546869Y-132675668D01*
X129547167Y-132675744D01*
X129569476Y-132683776D01*
X129569751Y-132683906D01*
X129569759Y-132683909D01*
X129576930Y-132687283D01*
X129632097Y-132697806D01*
X129639806Y-132699529D01*
X129669779Y-132707225D01*
X129686541Y-132711529D01*
X129686542Y-132711529D01*
X129694218Y-132713500D01*
X129702455Y-132713500D01*
X129726064Y-132715732D01*
X129726367Y-132715790D01*
X129726371Y-132715790D01*
X129734154Y-132717275D01*
X129790199Y-132713749D01*
X129798110Y-132713500D01*
X147248207Y-132713500D01*
X147271816Y-132715732D01*
X147272119Y-132715790D01*
X147272123Y-132715790D01*
X147279906Y-132717275D01*
X147335951Y-132713749D01*
X147343862Y-132713500D01*
X156798607Y-132713500D01*
X156822216Y-132715732D01*
X156822519Y-132715790D01*
X156822523Y-132715790D01*
X156830306Y-132717275D01*
X156886351Y-132713749D01*
X156894262Y-132713500D01*
X156910256Y-132713500D01*
X156926130Y-132711494D01*
X156933990Y-132710752D01*
X156961449Y-132709024D01*
X156982137Y-132707723D01*
X156982138Y-132707723D01*
X156990050Y-132707225D01*
X156997591Y-132704775D01*
X156997887Y-132704679D01*
X157021031Y-132699506D01*
X157021335Y-132699468D01*
X157021340Y-132699467D01*
X157029197Y-132698474D01*
X157036562Y-132695558D01*
X157036566Y-132695557D01*
X157081411Y-132677801D01*
X157088830Y-132675129D01*
X157142275Y-132657764D01*
X157148972Y-132653514D01*
X157149231Y-132653350D01*
X157170358Y-132642585D01*
X157170646Y-132642471D01*
X157170651Y-132642468D01*
X157178017Y-132639552D01*
X157184425Y-132634896D01*
X157184431Y-132634893D01*
X157223452Y-132606542D01*
X157229989Y-132602099D01*
X157277418Y-132572000D01*
X157283059Y-132565993D01*
X157300846Y-132550312D01*
X157301091Y-132550134D01*
X157301093Y-132550132D01*
X157307507Y-132545472D01*
X157312562Y-132539362D01*
X157343303Y-132502204D01*
X157348534Y-132496270D01*
X157381558Y-132461102D01*
X157381560Y-132461099D01*
X157386986Y-132455321D01*
X157390958Y-132448097D01*
X157404281Y-132428494D01*
X157404480Y-132428254D01*
X157404484Y-132428247D01*
X157409533Y-132422144D01*
X157433447Y-132371324D01*
X157437029Y-132364292D01*
X157464095Y-132315060D01*
X157466065Y-132307385D01*
X157466068Y-132307379D01*
X157466144Y-132307081D01*
X157474176Y-132284772D01*
X157474306Y-132284497D01*
X157474309Y-132284489D01*
X157477683Y-132277318D01*
X157488206Y-132222151D01*
X157489932Y-132214429D01*
X157495528Y-132192638D01*
X157503900Y-132160030D01*
X157503900Y-132151793D01*
X157506132Y-132128184D01*
X157506190Y-132127881D01*
X157506190Y-132127877D01*
X157507675Y-132120094D01*
X157504149Y-132064049D01*
X157503900Y-132056138D01*
X157503900Y-131933655D01*
X169562858Y-131933655D01*
X169598104Y-132192638D01*
X169599412Y-132197124D01*
X169599412Y-132197126D01*
X169613706Y-132246166D01*
X169671243Y-132443567D01*
X169673203Y-132447820D01*
X169673204Y-132447821D01*
X169674728Y-132451126D01*
X169780668Y-132680928D01*
X169783231Y-132684837D01*
X169921410Y-132895596D01*
X169921414Y-132895601D01*
X169923976Y-132899509D01*
X170098018Y-133094506D01*
X170298970Y-133261637D01*
X170302973Y-133264066D01*
X170518422Y-133394804D01*
X170518426Y-133394806D01*
X170522419Y-133397229D01*
X170763455Y-133498303D01*
X171016783Y-133562641D01*
X171021434Y-133563109D01*
X171021438Y-133563110D01*
X171214308Y-133582531D01*
X171233867Y-133584500D01*
X171389354Y-133584500D01*
X171391679Y-133584327D01*
X171391685Y-133584327D01*
X171579000Y-133570407D01*
X171579004Y-133570406D01*
X171583652Y-133570061D01*
X171588200Y-133569032D01*
X171588206Y-133569031D01*
X171813435Y-133518066D01*
X171838577Y-133512377D01*
X171874769Y-133498303D01*
X172077824Y-133419340D01*
X172077827Y-133419339D01*
X172082177Y-133417647D01*
X172309098Y-133287951D01*
X172514357Y-133126138D01*
X172693443Y-132935763D01*
X172842424Y-132721009D01*
X172844998Y-132715790D01*
X172955960Y-132490781D01*
X172955961Y-132490778D01*
X172958025Y-132486593D01*
X172974141Y-132436248D01*
X173036280Y-132242123D01*
X173037707Y-132237665D01*
X173079721Y-131979693D01*
X173083142Y-131718345D01*
X173047896Y-131459362D01*
X173033473Y-131409877D01*
X172976068Y-131212932D01*
X172974757Y-131208433D01*
X172865332Y-130971072D01*
X172832519Y-130921024D01*
X172724590Y-130756404D01*
X172724586Y-130756399D01*
X172722024Y-130752491D01*
X172547982Y-130557494D01*
X172347030Y-130390363D01*
X172234068Y-130321816D01*
X172127578Y-130257196D01*
X172127574Y-130257194D01*
X172123581Y-130254771D01*
X171882545Y-130153697D01*
X171629217Y-130089359D01*
X171624566Y-130088891D01*
X171624562Y-130088890D01*
X171415271Y-130067816D01*
X171412133Y-130067500D01*
X171256646Y-130067500D01*
X171254321Y-130067673D01*
X171254315Y-130067673D01*
X171067000Y-130081593D01*
X171066996Y-130081594D01*
X171062348Y-130081939D01*
X171057800Y-130082968D01*
X171057794Y-130082969D01*
X170871399Y-130125147D01*
X170807423Y-130139623D01*
X170803071Y-130141315D01*
X170803069Y-130141316D01*
X170568176Y-130232660D01*
X170568173Y-130232661D01*
X170563823Y-130234353D01*
X170336902Y-130364049D01*
X170131643Y-130525862D01*
X169952557Y-130716237D01*
X169803576Y-130930991D01*
X169801510Y-130935181D01*
X169801508Y-130935184D01*
X169766344Y-131006491D01*
X169687975Y-131165407D01*
X169608293Y-131414335D01*
X169566279Y-131672307D01*
X169566218Y-131676980D01*
X169563015Y-131921692D01*
X169562858Y-131933655D01*
X157503900Y-131933655D01*
X157503900Y-126939695D01*
X164225251Y-126939695D01*
X164238110Y-127162715D01*
X164239247Y-127167761D01*
X164239248Y-127167767D01*
X164263304Y-127274508D01*
X164287222Y-127380639D01*
X164371266Y-127587616D01*
X164487987Y-127778088D01*
X164634250Y-127946938D01*
X164806126Y-128089632D01*
X164999000Y-128202338D01*
X165207692Y-128282030D01*
X165212760Y-128283061D01*
X165212763Y-128283062D01*
X165320017Y-128304883D01*
X165426597Y-128326567D01*
X165431772Y-128326757D01*
X165431774Y-128326757D01*
X165644673Y-128334564D01*
X165644677Y-128334564D01*
X165649837Y-128334753D01*
X165654957Y-128334097D01*
X165654959Y-128334097D01*
X165866288Y-128307025D01*
X165866289Y-128307025D01*
X165871416Y-128306368D01*
X165876366Y-128304883D01*
X166080429Y-128243661D01*
X166080434Y-128243659D01*
X166085384Y-128242174D01*
X166285994Y-128143896D01*
X166467860Y-128014173D01*
X166576091Y-127906319D01*
X166638462Y-127872404D01*
X166709268Y-127877592D01*
X166766030Y-127920238D01*
X166783012Y-127951341D01*
X166827385Y-128069705D01*
X166914739Y-128186261D01*
X167031295Y-128273615D01*
X167167684Y-128324745D01*
X167229866Y-128331500D01*
X169026134Y-128331500D01*
X169088316Y-128324745D01*
X169224705Y-128273615D01*
X169341261Y-128186261D01*
X169428615Y-128069705D01*
X169479745Y-127933316D01*
X169486500Y-127871134D01*
X169486500Y-126074866D01*
X169479745Y-126012684D01*
X169428615Y-125876295D01*
X169341261Y-125759739D01*
X169224705Y-125672385D01*
X169088316Y-125621255D01*
X169026134Y-125614500D01*
X167229866Y-125614500D01*
X167167684Y-125621255D01*
X167031295Y-125672385D01*
X166914739Y-125759739D01*
X166827385Y-125876295D01*
X166824233Y-125884703D01*
X166782919Y-125994907D01*
X166740277Y-126051671D01*
X166673716Y-126076371D01*
X166604367Y-126061163D01*
X166571743Y-126035476D01*
X166521151Y-125979875D01*
X166521142Y-125979866D01*
X166517670Y-125976051D01*
X166513619Y-125972852D01*
X166513615Y-125972848D01*
X166346414Y-125840800D01*
X166346410Y-125840798D01*
X166342359Y-125837598D01*
X166146789Y-125729638D01*
X166141920Y-125727914D01*
X166141916Y-125727912D01*
X165941087Y-125656795D01*
X165941083Y-125656794D01*
X165936212Y-125655069D01*
X165931119Y-125654162D01*
X165931116Y-125654161D01*
X165721373Y-125616800D01*
X165721367Y-125616799D01*
X165716284Y-125615894D01*
X165642452Y-125614992D01*
X165498081Y-125613228D01*
X165498079Y-125613228D01*
X165492911Y-125613165D01*
X165272091Y-125646955D01*
X165059756Y-125716357D01*
X164861607Y-125819507D01*
X164857474Y-125822610D01*
X164857471Y-125822612D01*
X164687100Y-125950530D01*
X164682965Y-125953635D01*
X164643525Y-125994907D01*
X164589280Y-126051671D01*
X164528629Y-126115138D01*
X164402743Y-126299680D01*
X164400564Y-126304375D01*
X164338217Y-126438691D01*
X164308688Y-126502305D01*
X164248989Y-126717570D01*
X164225251Y-126939695D01*
X157503900Y-126939695D01*
X157503900Y-119307151D01*
X164503296Y-119307151D01*
X164503520Y-119311817D01*
X164503520Y-119311822D01*
X164506618Y-119376305D01*
X164515480Y-119560798D01*
X164532112Y-119644414D01*
X164552970Y-119749271D01*
X164565021Y-119809857D01*
X164566600Y-119814255D01*
X164566602Y-119814262D01*
X164637855Y-120012718D01*
X164650831Y-120048858D01*
X164653048Y-120052984D01*
X164733726Y-120203133D01*
X164771025Y-120272551D01*
X164773820Y-120276294D01*
X164773822Y-120276297D01*
X164920171Y-120472282D01*
X164920176Y-120472288D01*
X164922963Y-120476020D01*
X164926272Y-120479300D01*
X164926277Y-120479306D01*
X165099990Y-120651509D01*
X165103307Y-120654797D01*
X165107069Y-120657555D01*
X165107072Y-120657558D01*
X165200466Y-120726037D01*
X165308094Y-120804953D01*
X165312229Y-120807129D01*
X165312233Y-120807131D01*
X165388582Y-120847300D01*
X165532827Y-120923191D01*
X165772568Y-121006912D01*
X166022050Y-121054278D01*
X166142532Y-121059011D01*
X166271125Y-121064064D01*
X166271130Y-121064064D01*
X166275793Y-121064247D01*
X166374774Y-121053407D01*
X166523569Y-121037112D01*
X166523575Y-121037111D01*
X166528222Y-121036602D01*
X166637680Y-121007784D01*
X166769273Y-120973138D01*
X166773793Y-120971948D01*
X166892353Y-120921011D01*
X167002807Y-120873557D01*
X167002810Y-120873555D01*
X167007110Y-120871708D01*
X167011090Y-120869245D01*
X167011094Y-120869243D01*
X167219064Y-120740547D01*
X167219066Y-120740545D01*
X167223047Y-120738082D01*
X167321428Y-120654797D01*
X167413289Y-120577031D01*
X167413291Y-120577029D01*
X167416862Y-120574006D01*
X167584295Y-120383084D01*
X167602481Y-120354812D01*
X167719141Y-120173442D01*
X167721669Y-120169512D01*
X167825967Y-119937980D01*
X167894896Y-119693575D01*
X167910168Y-119573529D01*
X167926545Y-119444798D01*
X167926545Y-119444792D01*
X167926943Y-119441667D01*
X167927986Y-119401856D01*
X167928558Y-119380000D01*
X167929291Y-119352000D01*
X167910472Y-119098759D01*
X167904574Y-119072691D01*
X167855459Y-118855639D01*
X167854428Y-118851082D01*
X167834730Y-118800428D01*
X167764084Y-118618762D01*
X167764083Y-118618760D01*
X167762391Y-118614409D01*
X167741866Y-118578498D01*
X167638702Y-118397997D01*
X167638700Y-118397995D01*
X167636383Y-118393940D01*
X167479171Y-118194517D01*
X167294209Y-118020523D01*
X167250483Y-117990189D01*
X167089393Y-117878437D01*
X167089390Y-117878435D01*
X167085561Y-117875779D01*
X167040429Y-117853522D01*
X166930896Y-117799506D01*
X166878647Y-117751437D01*
X166860681Y-117682752D01*
X166882700Y-117615256D01*
X166937716Y-117570380D01*
X166986625Y-117560500D01*
X167464134Y-117560500D01*
X167526316Y-117553745D01*
X167662705Y-117502615D01*
X167779261Y-117415261D01*
X167866615Y-117298705D01*
X167917745Y-117162316D01*
X167924500Y-117100134D01*
X167924500Y-114603866D01*
X167917745Y-114541684D01*
X167866615Y-114405295D01*
X167779261Y-114288739D01*
X167662705Y-114201385D01*
X167526316Y-114150255D01*
X167464134Y-114143500D01*
X164967866Y-114143500D01*
X164905684Y-114150255D01*
X164769295Y-114201385D01*
X164652739Y-114288739D01*
X164565385Y-114405295D01*
X164514255Y-114541684D01*
X164507500Y-114603866D01*
X164507500Y-117100134D01*
X164514255Y-117162316D01*
X164565385Y-117298705D01*
X164652739Y-117415261D01*
X164769295Y-117502615D01*
X164905684Y-117553745D01*
X164967866Y-117560500D01*
X165446719Y-117560500D01*
X165514840Y-117580502D01*
X165561333Y-117634158D01*
X165571437Y-117704432D01*
X165541943Y-117769012D01*
X165499471Y-117800926D01*
X165385380Y-117853522D01*
X165381471Y-117856085D01*
X165176928Y-117990189D01*
X165176923Y-117990193D01*
X165173015Y-117992755D01*
X164983562Y-118161848D01*
X164821183Y-118357087D01*
X164689447Y-118574182D01*
X164687638Y-118578496D01*
X164687637Y-118578498D01*
X164596515Y-118795801D01*
X164591246Y-118808365D01*
X164528738Y-119054490D01*
X164503296Y-119307151D01*
X157503900Y-119307151D01*
X157503900Y-101607951D01*
X164049296Y-101607951D01*
X164049520Y-101612617D01*
X164049520Y-101612622D01*
X164055033Y-101727379D01*
X164061480Y-101861598D01*
X164069347Y-101901149D01*
X164107429Y-102092597D01*
X164111021Y-102110657D01*
X164112600Y-102115055D01*
X164112602Y-102115062D01*
X164161265Y-102250598D01*
X164196831Y-102349658D01*
X164199048Y-102353784D01*
X164285350Y-102514400D01*
X164317025Y-102573351D01*
X164319820Y-102577094D01*
X164319822Y-102577097D01*
X164466171Y-102773082D01*
X164466176Y-102773088D01*
X164468963Y-102776820D01*
X164472272Y-102780100D01*
X164472277Y-102780106D01*
X164645990Y-102952309D01*
X164649307Y-102955597D01*
X164653069Y-102958355D01*
X164653072Y-102958358D01*
X164828633Y-103087084D01*
X164854094Y-103105753D01*
X164858229Y-103107929D01*
X164858233Y-103107931D01*
X165046137Y-103206792D01*
X165097109Y-103256211D01*
X165113272Y-103325344D01*
X165089493Y-103392240D01*
X165033322Y-103435660D01*
X164987469Y-103444300D01*
X164513866Y-103444300D01*
X164451684Y-103451055D01*
X164315295Y-103502185D01*
X164198739Y-103589539D01*
X164111385Y-103706095D01*
X164060255Y-103842484D01*
X164053500Y-103904666D01*
X164053500Y-106400934D01*
X164060255Y-106463116D01*
X164111385Y-106599505D01*
X164198739Y-106716061D01*
X164315295Y-106803415D01*
X164451684Y-106854545D01*
X164513866Y-106861300D01*
X167010134Y-106861300D01*
X167072316Y-106854545D01*
X167208705Y-106803415D01*
X167325261Y-106716061D01*
X167412615Y-106599505D01*
X167463745Y-106463116D01*
X167470500Y-106400934D01*
X167470500Y-103904666D01*
X167463745Y-103842484D01*
X167412615Y-103706095D01*
X167325261Y-103589539D01*
X167208705Y-103502185D01*
X167072316Y-103451055D01*
X167010134Y-103444300D01*
X166532964Y-103444300D01*
X166464843Y-103424298D01*
X166418350Y-103370642D01*
X166408246Y-103300368D01*
X166437740Y-103235788D01*
X166483225Y-103202533D01*
X166553110Y-103172508D01*
X166557090Y-103170045D01*
X166557094Y-103170043D01*
X166765064Y-103041347D01*
X166765066Y-103041345D01*
X166769047Y-103038882D01*
X166867428Y-102955597D01*
X166959289Y-102877831D01*
X166959291Y-102877829D01*
X166962862Y-102874806D01*
X167130295Y-102683884D01*
X167154504Y-102646248D01*
X167265141Y-102474242D01*
X167267669Y-102470312D01*
X167371967Y-102238780D01*
X167440896Y-101994375D01*
X167472943Y-101742467D01*
X167474222Y-101693643D01*
X167475208Y-101655960D01*
X167475291Y-101652800D01*
X167464850Y-101512293D01*
X167456818Y-101404211D01*
X167456817Y-101404207D01*
X167456472Y-101399559D01*
X167448639Y-101364940D01*
X167407867Y-101184756D01*
X167400428Y-101151882D01*
X167398735Y-101147528D01*
X167310084Y-100919562D01*
X167310083Y-100919560D01*
X167308391Y-100915209D01*
X167306073Y-100911153D01*
X167184702Y-100698797D01*
X167184700Y-100698795D01*
X167182383Y-100694740D01*
X167025171Y-100495317D01*
X166902743Y-100380149D01*
X166843610Y-100324522D01*
X166843608Y-100324520D01*
X166840209Y-100321323D01*
X166723850Y-100240602D01*
X166635393Y-100179237D01*
X166635390Y-100179235D01*
X166631561Y-100176579D01*
X166627384Y-100174519D01*
X166627377Y-100174515D01*
X166407996Y-100066328D01*
X166407992Y-100066327D01*
X166403810Y-100064264D01*
X166277901Y-100023960D01*
X166219121Y-99984142D01*
X166191199Y-99918867D01*
X166203000Y-99848858D01*
X166250778Y-99796343D01*
X166284234Y-99782110D01*
X166288332Y-99781031D01*
X166319793Y-99772748D01*
X166438353Y-99721811D01*
X166548807Y-99674357D01*
X166548810Y-99674355D01*
X166553110Y-99672508D01*
X166557090Y-99670045D01*
X166557094Y-99670043D01*
X166765064Y-99541347D01*
X166765066Y-99541345D01*
X166769047Y-99538882D01*
X166842676Y-99476551D01*
X166959289Y-99377831D01*
X166959291Y-99377829D01*
X166962862Y-99374806D01*
X167130295Y-99183884D01*
X167154504Y-99146248D01*
X167265141Y-98974242D01*
X167267669Y-98970312D01*
X167371967Y-98738780D01*
X167440896Y-98494375D01*
X167471482Y-98253951D01*
X167472545Y-98245598D01*
X167472545Y-98245592D01*
X167472943Y-98242467D01*
X167475291Y-98152800D01*
X167456472Y-97899559D01*
X167447544Y-97860100D01*
X167401459Y-97656439D01*
X167400428Y-97651882D01*
X167368599Y-97570034D01*
X167310084Y-97419562D01*
X167310083Y-97419560D01*
X167308391Y-97415209D01*
X167287866Y-97379298D01*
X167184702Y-97198797D01*
X167184700Y-97198795D01*
X167182383Y-97194740D01*
X167025171Y-96995317D01*
X166902743Y-96880149D01*
X166843610Y-96824522D01*
X166843608Y-96824520D01*
X166840209Y-96821323D01*
X166664664Y-96699543D01*
X166635393Y-96679237D01*
X166635390Y-96679235D01*
X166631561Y-96676579D01*
X166627384Y-96674519D01*
X166627377Y-96674515D01*
X166407996Y-96566328D01*
X166407992Y-96566327D01*
X166403810Y-96564264D01*
X166277901Y-96523960D01*
X166219121Y-96484142D01*
X166191199Y-96418867D01*
X166203000Y-96348858D01*
X166250778Y-96296343D01*
X166284234Y-96282110D01*
X166288332Y-96281031D01*
X166319793Y-96272748D01*
X166527977Y-96183306D01*
X166548807Y-96174357D01*
X166548810Y-96174355D01*
X166553110Y-96172508D01*
X166557090Y-96170045D01*
X166557094Y-96170043D01*
X166765064Y-96041347D01*
X166765066Y-96041345D01*
X166769047Y-96038882D01*
X166842676Y-95976551D01*
X166959289Y-95877831D01*
X166959291Y-95877829D01*
X166962862Y-95874806D01*
X167130295Y-95683884D01*
X167154504Y-95646248D01*
X167265141Y-95474242D01*
X167267669Y-95470312D01*
X167371967Y-95238780D01*
X167440896Y-94994375D01*
X167458382Y-94856926D01*
X167472545Y-94745598D01*
X167472545Y-94745592D01*
X167472943Y-94742467D01*
X167475291Y-94652800D01*
X167456472Y-94399559D01*
X167439095Y-94322762D01*
X167401459Y-94156439D01*
X167400428Y-94151882D01*
X167308391Y-93915209D01*
X167287866Y-93879298D01*
X167184702Y-93698797D01*
X167184700Y-93698795D01*
X167182383Y-93694740D01*
X167025171Y-93495317D01*
X166902743Y-93380149D01*
X166843610Y-93324522D01*
X166843608Y-93324520D01*
X166840209Y-93321323D01*
X166664664Y-93199543D01*
X166635393Y-93179237D01*
X166635390Y-93179235D01*
X166631561Y-93176579D01*
X166627384Y-93174519D01*
X166627377Y-93174515D01*
X166407996Y-93066328D01*
X166407992Y-93066327D01*
X166403810Y-93064264D01*
X166277901Y-93023960D01*
X166219121Y-92984142D01*
X166191199Y-92918867D01*
X166203000Y-92848858D01*
X166250778Y-92796343D01*
X166284234Y-92782110D01*
X166291868Y-92780100D01*
X166319793Y-92772748D01*
X166527977Y-92683306D01*
X166548807Y-92674357D01*
X166548810Y-92674355D01*
X166553110Y-92672508D01*
X166557090Y-92670045D01*
X166557094Y-92670043D01*
X166765064Y-92541347D01*
X166765066Y-92541345D01*
X166769047Y-92538882D01*
X166842676Y-92476551D01*
X166959289Y-92377831D01*
X166959291Y-92377829D01*
X166962862Y-92374806D01*
X167130295Y-92183884D01*
X167154504Y-92146248D01*
X167265141Y-91974242D01*
X167267669Y-91970312D01*
X167371967Y-91738780D01*
X167440896Y-91494375D01*
X167464681Y-91307411D01*
X167472545Y-91245598D01*
X167472545Y-91245592D01*
X167472943Y-91242467D01*
X167475291Y-91152800D01*
X167456472Y-90899559D01*
X167447927Y-90861793D01*
X167401459Y-90656439D01*
X167400428Y-90651882D01*
X167315169Y-90432638D01*
X167310084Y-90419562D01*
X167310083Y-90419560D01*
X167308391Y-90415209D01*
X167287866Y-90379298D01*
X167184702Y-90198797D01*
X167184700Y-90198795D01*
X167182383Y-90194740D01*
X167025171Y-89995317D01*
X166902743Y-89880149D01*
X166843610Y-89824522D01*
X166843608Y-89824520D01*
X166840209Y-89821323D01*
X166733249Y-89747122D01*
X166635393Y-89679237D01*
X166635390Y-89679235D01*
X166631561Y-89676579D01*
X166627384Y-89674519D01*
X166627377Y-89674515D01*
X166407996Y-89566328D01*
X166407992Y-89566327D01*
X166403810Y-89564264D01*
X166277901Y-89523960D01*
X166219121Y-89484142D01*
X166191199Y-89418867D01*
X166203000Y-89348858D01*
X166250778Y-89296343D01*
X166284234Y-89282110D01*
X166288332Y-89281031D01*
X166319793Y-89272748D01*
X166486446Y-89201149D01*
X166548807Y-89174357D01*
X166548810Y-89174355D01*
X166553110Y-89172508D01*
X166557090Y-89170045D01*
X166557094Y-89170043D01*
X166765064Y-89041347D01*
X166765066Y-89041345D01*
X166769047Y-89038882D01*
X166842676Y-88976551D01*
X166959289Y-88877831D01*
X166959291Y-88877829D01*
X166962862Y-88874806D01*
X167130295Y-88683884D01*
X167154504Y-88646248D01*
X167265141Y-88474242D01*
X167267669Y-88470312D01*
X167371967Y-88238780D01*
X167440896Y-87994375D01*
X167472943Y-87742467D01*
X167475291Y-87652800D01*
X167464534Y-87508050D01*
X167456818Y-87404211D01*
X167456817Y-87404207D01*
X167456472Y-87399559D01*
X167453992Y-87388595D01*
X167401459Y-87156439D01*
X167400428Y-87151882D01*
X167396555Y-87141923D01*
X167310084Y-86919562D01*
X167310083Y-86919560D01*
X167308391Y-86915209D01*
X167287866Y-86879298D01*
X167184702Y-86698797D01*
X167184700Y-86698795D01*
X167182383Y-86694740D01*
X167025171Y-86495317D01*
X166902743Y-86380149D01*
X166843610Y-86324522D01*
X166843608Y-86324520D01*
X166840209Y-86321323D01*
X166664664Y-86199543D01*
X166635393Y-86179237D01*
X166635390Y-86179235D01*
X166631561Y-86176579D01*
X166627384Y-86174519D01*
X166627377Y-86174515D01*
X166407996Y-86066328D01*
X166407992Y-86066327D01*
X166403810Y-86064264D01*
X166277901Y-86023960D01*
X166219121Y-85984142D01*
X166191199Y-85918867D01*
X166203000Y-85848858D01*
X166250778Y-85796343D01*
X166284234Y-85782110D01*
X166288332Y-85781031D01*
X166319793Y-85772748D01*
X166527977Y-85683306D01*
X166548807Y-85674357D01*
X166548810Y-85674355D01*
X166553110Y-85672508D01*
X166557090Y-85670045D01*
X166557094Y-85670043D01*
X166765064Y-85541347D01*
X166765066Y-85541345D01*
X166769047Y-85538882D01*
X166842676Y-85476551D01*
X166959289Y-85377831D01*
X166959291Y-85377829D01*
X166962862Y-85374806D01*
X167130295Y-85183884D01*
X167145594Y-85160100D01*
X167247223Y-85002099D01*
X167267669Y-84970312D01*
X167371967Y-84738780D01*
X167440896Y-84494375D01*
X167472943Y-84242467D01*
X167475291Y-84152800D01*
X167456472Y-83899559D01*
X167439095Y-83822762D01*
X167401459Y-83656439D01*
X167400428Y-83651882D01*
X167363722Y-83557492D01*
X167310084Y-83419562D01*
X167310083Y-83419560D01*
X167308391Y-83415209D01*
X167287866Y-83379298D01*
X167184702Y-83198797D01*
X167184700Y-83198795D01*
X167182383Y-83194740D01*
X167025171Y-82995317D01*
X166902743Y-82880149D01*
X166843610Y-82824522D01*
X166843608Y-82824520D01*
X166840209Y-82821323D01*
X166664664Y-82699543D01*
X166635393Y-82679237D01*
X166635390Y-82679235D01*
X166631561Y-82676579D01*
X166627384Y-82674519D01*
X166627377Y-82674515D01*
X166407996Y-82566328D01*
X166407992Y-82566327D01*
X166403810Y-82564264D01*
X166277901Y-82523960D01*
X166219121Y-82484142D01*
X166191199Y-82418867D01*
X166203000Y-82348858D01*
X166250778Y-82296343D01*
X166284234Y-82282110D01*
X166288332Y-82281031D01*
X166319793Y-82272748D01*
X166438353Y-82221811D01*
X166548807Y-82174357D01*
X166548810Y-82174355D01*
X166553110Y-82172508D01*
X166557090Y-82170045D01*
X166557094Y-82170043D01*
X166765064Y-82041347D01*
X166765066Y-82041345D01*
X166769047Y-82038882D01*
X166842676Y-81976551D01*
X166959289Y-81877831D01*
X166959291Y-81877829D01*
X166962862Y-81874806D01*
X167130295Y-81683884D01*
X167154504Y-81646248D01*
X167236934Y-81518095D01*
X167267669Y-81470312D01*
X167371967Y-81238780D01*
X167440896Y-80994375D01*
X167458382Y-80856926D01*
X167472545Y-80745598D01*
X167472545Y-80745592D01*
X167472943Y-80742467D01*
X167475291Y-80652800D01*
X167464534Y-80508050D01*
X167456818Y-80404211D01*
X167456817Y-80404207D01*
X167456472Y-80399559D01*
X167439095Y-80322762D01*
X167401459Y-80156439D01*
X167400428Y-80151882D01*
X167363722Y-80057492D01*
X167310084Y-79919562D01*
X167310083Y-79919560D01*
X167308391Y-79915209D01*
X167287866Y-79879298D01*
X167184702Y-79698797D01*
X167184700Y-79698795D01*
X167182383Y-79694740D01*
X167025171Y-79495317D01*
X166902743Y-79380149D01*
X166843610Y-79324522D01*
X166843608Y-79324520D01*
X166840209Y-79321323D01*
X166712311Y-79232597D01*
X166635393Y-79179237D01*
X166635390Y-79179235D01*
X166631561Y-79176579D01*
X166627384Y-79174519D01*
X166627377Y-79174515D01*
X166407996Y-79066328D01*
X166407992Y-79066327D01*
X166403810Y-79064264D01*
X166277901Y-79023960D01*
X166219121Y-78984142D01*
X166191199Y-78918867D01*
X166203000Y-78848858D01*
X166250778Y-78796343D01*
X166284234Y-78782110D01*
X166288332Y-78781031D01*
X166319793Y-78772748D01*
X166527977Y-78683306D01*
X166548807Y-78674357D01*
X166548810Y-78674355D01*
X166553110Y-78672508D01*
X166557090Y-78670045D01*
X166557094Y-78670043D01*
X166765064Y-78541347D01*
X166765066Y-78541345D01*
X166769047Y-78538882D01*
X166842676Y-78476551D01*
X166959289Y-78377831D01*
X166959291Y-78377829D01*
X166962862Y-78374806D01*
X167130295Y-78183884D01*
X167144505Y-78161793D01*
X167265141Y-77974242D01*
X167267669Y-77970312D01*
X167371967Y-77738780D01*
X167440896Y-77494375D01*
X167471482Y-77253951D01*
X167472545Y-77245598D01*
X167472545Y-77245592D01*
X167472943Y-77242467D01*
X167473307Y-77228595D01*
X167475208Y-77155960D01*
X167475291Y-77152800D01*
X167456472Y-76899559D01*
X167445394Y-76850598D01*
X167407738Y-76684189D01*
X167400428Y-76651882D01*
X167308391Y-76415209D01*
X167287866Y-76379298D01*
X167184702Y-76198797D01*
X167184700Y-76198795D01*
X167182383Y-76194740D01*
X167025171Y-75995317D01*
X166902743Y-75880149D01*
X166843610Y-75824522D01*
X166843608Y-75824520D01*
X166840209Y-75821323D01*
X166664664Y-75699543D01*
X166635393Y-75679237D01*
X166635390Y-75679235D01*
X166631561Y-75676579D01*
X166627384Y-75674519D01*
X166627377Y-75674515D01*
X166407996Y-75566328D01*
X166407992Y-75566327D01*
X166403810Y-75564264D01*
X166277901Y-75523960D01*
X166219121Y-75484142D01*
X166191199Y-75418867D01*
X166203000Y-75348858D01*
X166250778Y-75296343D01*
X166284234Y-75282110D01*
X166288332Y-75281031D01*
X166319793Y-75272748D01*
X166506256Y-75192638D01*
X166548807Y-75174357D01*
X166548810Y-75174355D01*
X166553110Y-75172508D01*
X166557090Y-75170045D01*
X166557094Y-75170043D01*
X166765064Y-75041347D01*
X166765066Y-75041345D01*
X166769047Y-75038882D01*
X166842676Y-74976551D01*
X166959289Y-74877831D01*
X166959291Y-74877829D01*
X166962862Y-74874806D01*
X167130295Y-74683884D01*
X167154504Y-74646248D01*
X167242611Y-74509269D01*
X167267669Y-74470312D01*
X167371967Y-74238780D01*
X167440896Y-73994375D01*
X167470312Y-73763148D01*
X167472545Y-73745598D01*
X167472545Y-73745592D01*
X167472943Y-73742467D01*
X167475291Y-73652800D01*
X167456472Y-73399559D01*
X167439095Y-73322762D01*
X167401459Y-73156439D01*
X167400428Y-73151882D01*
X167308391Y-72915209D01*
X167287866Y-72879298D01*
X167184702Y-72698797D01*
X167184700Y-72698795D01*
X167182383Y-72694740D01*
X167025171Y-72495317D01*
X166902743Y-72380149D01*
X166843610Y-72324522D01*
X166843608Y-72324520D01*
X166840209Y-72321323D01*
X166804675Y-72296672D01*
X166635393Y-72179237D01*
X166635390Y-72179235D01*
X166631561Y-72176579D01*
X166627384Y-72174519D01*
X166627377Y-72174515D01*
X166407996Y-72066328D01*
X166407992Y-72066327D01*
X166403810Y-72064264D01*
X166277901Y-72023960D01*
X166219121Y-71984142D01*
X166191199Y-71918867D01*
X166203000Y-71848858D01*
X166250778Y-71796343D01*
X166284234Y-71782110D01*
X166288332Y-71781031D01*
X166319793Y-71772748D01*
X166527977Y-71683306D01*
X166548807Y-71674357D01*
X166548810Y-71674355D01*
X166553110Y-71672508D01*
X166557090Y-71670045D01*
X166557094Y-71670043D01*
X166765064Y-71541347D01*
X166765066Y-71541345D01*
X166769047Y-71538882D01*
X166842676Y-71476551D01*
X166959289Y-71377831D01*
X166959291Y-71377829D01*
X166962862Y-71374806D01*
X167130295Y-71183884D01*
X167154504Y-71146248D01*
X167249987Y-70997802D01*
X167267669Y-70970312D01*
X167371967Y-70738780D01*
X167440896Y-70494375D01*
X167463696Y-70315157D01*
X167472545Y-70245598D01*
X167472545Y-70245592D01*
X167472943Y-70242467D01*
X167475291Y-70152800D01*
X167475057Y-70149651D01*
X167456818Y-69904211D01*
X167456817Y-69904207D01*
X167456472Y-69899559D01*
X167439095Y-69822762D01*
X167414562Y-69714343D01*
X167400428Y-69651882D01*
X167385580Y-69613700D01*
X167310084Y-69419562D01*
X167310083Y-69419560D01*
X167308391Y-69415209D01*
X167292646Y-69387661D01*
X167184702Y-69198797D01*
X167184700Y-69198795D01*
X167182383Y-69194740D01*
X167025171Y-68995317D01*
X166909230Y-68886251D01*
X166843610Y-68824522D01*
X166843608Y-68824520D01*
X166840209Y-68821323D01*
X166757043Y-68763629D01*
X166635393Y-68679237D01*
X166635390Y-68679235D01*
X166631561Y-68676579D01*
X166627384Y-68674519D01*
X166627377Y-68674515D01*
X166407996Y-68566328D01*
X166407992Y-68566327D01*
X166403810Y-68564264D01*
X166277901Y-68523960D01*
X166219121Y-68484142D01*
X166191199Y-68418867D01*
X166203000Y-68348858D01*
X166250778Y-68296343D01*
X166284234Y-68282110D01*
X166285929Y-68281664D01*
X166319793Y-68272748D01*
X166445071Y-68218925D01*
X166548807Y-68174357D01*
X166548810Y-68174355D01*
X166553110Y-68172508D01*
X166557090Y-68170045D01*
X166557094Y-68170043D01*
X166765064Y-68041347D01*
X166765066Y-68041345D01*
X166769047Y-68038882D01*
X166772624Y-68035854D01*
X166959289Y-67877831D01*
X166959291Y-67877829D01*
X166962862Y-67874806D01*
X167130295Y-67683884D01*
X167267669Y-67470312D01*
X167371967Y-67238780D01*
X167378662Y-67215043D01*
X167409395Y-67106069D01*
X167440896Y-66994375D01*
X167458382Y-66856926D01*
X167472545Y-66745598D01*
X167472545Y-66745592D01*
X167472943Y-66742467D01*
X167475291Y-66652800D01*
X167456472Y-66399559D01*
X167400428Y-66151882D01*
X167308391Y-65915209D01*
X167287866Y-65879298D01*
X167184702Y-65698797D01*
X167184700Y-65698795D01*
X167182383Y-65694740D01*
X167025171Y-65495317D01*
X166874834Y-65353895D01*
X166843610Y-65324522D01*
X166843608Y-65324520D01*
X166840209Y-65321323D01*
X166796483Y-65290989D01*
X166635393Y-65179237D01*
X166635390Y-65179235D01*
X166631561Y-65176579D01*
X166627384Y-65174519D01*
X166627377Y-65174515D01*
X166407996Y-65066328D01*
X166407992Y-65066327D01*
X166403810Y-65064264D01*
X166161960Y-64986847D01*
X166157355Y-64986097D01*
X165915935Y-64946780D01*
X165915934Y-64946780D01*
X165911323Y-64946029D01*
X165784365Y-64944367D01*
X165662083Y-64942766D01*
X165662080Y-64942766D01*
X165657406Y-64942705D01*
X165405787Y-64976949D01*
X165161993Y-65048008D01*
X164931380Y-65154322D01*
X164927471Y-65156885D01*
X164722928Y-65290989D01*
X164722923Y-65290993D01*
X164719015Y-65293555D01*
X164529562Y-65462648D01*
X164367183Y-65657887D01*
X164235447Y-65874982D01*
X164137246Y-66109165D01*
X164074738Y-66355290D01*
X164049296Y-66607951D01*
X164061480Y-66861598D01*
X164075540Y-66932281D01*
X164106919Y-67090034D01*
X164111021Y-67110657D01*
X164112600Y-67115055D01*
X164112602Y-67115062D01*
X164157022Y-67238780D01*
X164196831Y-67349658D01*
X164317025Y-67573351D01*
X164319820Y-67577094D01*
X164319822Y-67577097D01*
X164466171Y-67773082D01*
X164466176Y-67773088D01*
X164468963Y-67776820D01*
X164472272Y-67780100D01*
X164472277Y-67780106D01*
X164570859Y-67877831D01*
X164649307Y-67955597D01*
X164653069Y-67958355D01*
X164653072Y-67958358D01*
X164712310Y-68001793D01*
X164854094Y-68105753D01*
X164858229Y-68107929D01*
X164858233Y-68107931D01*
X164976289Y-68170043D01*
X165078827Y-68223991D01*
X165250781Y-68284040D01*
X165308497Y-68325381D01*
X165334701Y-68391365D01*
X165321072Y-68461041D01*
X165271936Y-68512287D01*
X165244497Y-68523960D01*
X165161993Y-68548008D01*
X164931380Y-68654322D01*
X164927471Y-68656885D01*
X164722928Y-68790989D01*
X164722923Y-68790993D01*
X164719015Y-68793555D01*
X164626462Y-68876162D01*
X164538203Y-68954936D01*
X164529562Y-68962648D01*
X164367183Y-69157887D01*
X164235447Y-69374982D01*
X164233638Y-69379296D01*
X164233637Y-69379298D01*
X164140252Y-69601997D01*
X164137246Y-69609165D01*
X164136095Y-69613697D01*
X164136094Y-69613700D01*
X164132028Y-69629710D01*
X164074738Y-69855290D01*
X164049296Y-70107951D01*
X164061480Y-70361598D01*
X164062393Y-70366186D01*
X164100778Y-70559160D01*
X164111021Y-70610657D01*
X164112600Y-70615055D01*
X164112602Y-70615062D01*
X164164686Y-70760126D01*
X164196831Y-70849658D01*
X164199048Y-70853784D01*
X164282593Y-71009269D01*
X164317025Y-71073351D01*
X164319820Y-71077094D01*
X164319822Y-71077097D01*
X164466171Y-71273082D01*
X164466176Y-71273088D01*
X164468963Y-71276820D01*
X164472272Y-71280100D01*
X164472277Y-71280106D01*
X164645990Y-71452309D01*
X164649307Y-71455597D01*
X164653069Y-71458355D01*
X164653072Y-71458358D01*
X164828633Y-71587084D01*
X164854094Y-71605753D01*
X164858229Y-71607929D01*
X164858233Y-71607931D01*
X164859695Y-71608700D01*
X165078827Y-71723991D01*
X165250781Y-71784040D01*
X165308497Y-71825381D01*
X165334701Y-71891365D01*
X165321072Y-71961041D01*
X165271936Y-72012287D01*
X165244497Y-72023960D01*
X165161993Y-72048008D01*
X164931380Y-72154322D01*
X164907415Y-72170034D01*
X164722928Y-72290989D01*
X164722923Y-72290993D01*
X164719015Y-72293555D01*
X164639818Y-72364241D01*
X164582402Y-72415487D01*
X164529562Y-72462648D01*
X164367183Y-72657887D01*
X164235447Y-72874982D01*
X164233638Y-72879296D01*
X164233637Y-72879298D01*
X164140252Y-73101997D01*
X164137246Y-73109165D01*
X164074738Y-73355290D01*
X164049296Y-73607951D01*
X164061480Y-73861598D01*
X164062393Y-73866186D01*
X164100778Y-74059160D01*
X164111021Y-74110657D01*
X164112600Y-74115055D01*
X164112602Y-74115062D01*
X164157022Y-74238780D01*
X164196831Y-74349658D01*
X164199048Y-74353784D01*
X164282593Y-74509269D01*
X164317025Y-74573351D01*
X164319820Y-74577094D01*
X164319822Y-74577097D01*
X164466171Y-74773082D01*
X164466176Y-74773088D01*
X164468963Y-74776820D01*
X164472272Y-74780100D01*
X164472277Y-74780106D01*
X164570467Y-74877442D01*
X164649307Y-74955597D01*
X164653069Y-74958355D01*
X164653072Y-74958358D01*
X164828633Y-75087084D01*
X164854094Y-75105753D01*
X164858229Y-75107929D01*
X164858233Y-75107931D01*
X164976289Y-75170043D01*
X165078827Y-75223991D01*
X165250781Y-75284040D01*
X165308497Y-75325381D01*
X165334701Y-75391365D01*
X165321072Y-75461041D01*
X165271936Y-75512287D01*
X165244497Y-75523960D01*
X165161993Y-75548008D01*
X164931380Y-75654322D01*
X164927471Y-75656885D01*
X164722928Y-75790989D01*
X164722923Y-75790993D01*
X164719015Y-75793555D01*
X164655914Y-75849875D01*
X164582402Y-75915487D01*
X164529562Y-75962648D01*
X164367183Y-76157887D01*
X164235447Y-76374982D01*
X164233638Y-76379296D01*
X164233637Y-76379298D01*
X164140252Y-76601997D01*
X164137246Y-76609165D01*
X164074738Y-76855290D01*
X164049296Y-77107951D01*
X164049520Y-77112617D01*
X164049520Y-77112622D01*
X164051299Y-77149651D01*
X164061480Y-77361598D01*
X164064783Y-77378202D01*
X164100778Y-77559160D01*
X164111021Y-77610657D01*
X164112600Y-77615055D01*
X164112602Y-77615062D01*
X164157022Y-77738780D01*
X164196831Y-77849658D01*
X164199048Y-77853784D01*
X164301743Y-78044909D01*
X164317025Y-78073351D01*
X164319820Y-78077094D01*
X164319822Y-78077097D01*
X164466171Y-78273082D01*
X164466176Y-78273088D01*
X164468963Y-78276820D01*
X164472272Y-78280100D01*
X164472277Y-78280106D01*
X164642034Y-78448387D01*
X164649307Y-78455597D01*
X164653069Y-78458355D01*
X164653072Y-78458358D01*
X164828633Y-78587084D01*
X164854094Y-78605753D01*
X164858229Y-78607929D01*
X164858233Y-78607931D01*
X164866893Y-78612487D01*
X165078827Y-78723991D01*
X165250781Y-78784040D01*
X165308497Y-78825381D01*
X165334701Y-78891365D01*
X165321072Y-78961041D01*
X165271936Y-79012287D01*
X165244497Y-79023960D01*
X165161993Y-79048008D01*
X164931380Y-79154322D01*
X164927471Y-79156885D01*
X164722928Y-79290989D01*
X164722923Y-79290993D01*
X164719015Y-79293555D01*
X164639818Y-79364241D01*
X164582402Y-79415487D01*
X164529562Y-79462648D01*
X164367183Y-79657887D01*
X164235447Y-79874982D01*
X164233638Y-79879296D01*
X164233637Y-79879298D01*
X164140252Y-80101997D01*
X164137246Y-80109165D01*
X164074738Y-80355290D01*
X164049296Y-80607951D01*
X164061480Y-80861598D01*
X164070901Y-80908958D01*
X164109783Y-81104431D01*
X164111021Y-81110657D01*
X164112600Y-81115055D01*
X164112602Y-81115062D01*
X164189663Y-81329694D01*
X164196831Y-81349658D01*
X164199048Y-81353784D01*
X164298473Y-81538823D01*
X164317025Y-81573351D01*
X164319820Y-81577094D01*
X164319822Y-81577097D01*
X164466171Y-81773082D01*
X164466176Y-81773088D01*
X164468963Y-81776820D01*
X164472272Y-81780100D01*
X164472277Y-81780106D01*
X164645990Y-81952309D01*
X164649307Y-81955597D01*
X164653069Y-81958355D01*
X164653072Y-81958358D01*
X164828633Y-82087084D01*
X164854094Y-82105753D01*
X164858229Y-82107929D01*
X164858233Y-82107931D01*
X164954699Y-82158684D01*
X165078827Y-82223991D01*
X165250781Y-82284040D01*
X165308497Y-82325381D01*
X165334701Y-82391365D01*
X165321072Y-82461041D01*
X165271936Y-82512287D01*
X165244497Y-82523960D01*
X165161993Y-82548008D01*
X164931380Y-82654322D01*
X164927471Y-82656885D01*
X164722928Y-82790989D01*
X164722923Y-82790993D01*
X164719015Y-82793555D01*
X164639818Y-82864241D01*
X164582402Y-82915487D01*
X164529562Y-82962648D01*
X164367183Y-83157887D01*
X164235447Y-83374982D01*
X164233638Y-83379296D01*
X164233637Y-83379298D01*
X164140252Y-83601997D01*
X164137246Y-83609165D01*
X164136095Y-83613697D01*
X164136094Y-83613700D01*
X164116085Y-83692487D01*
X164074738Y-83855290D01*
X164049296Y-84107951D01*
X164049520Y-84112617D01*
X164049520Y-84112622D01*
X164051299Y-84149651D01*
X164061480Y-84361598D01*
X164083790Y-84473757D01*
X164109284Y-84601923D01*
X164111021Y-84610657D01*
X164112600Y-84615055D01*
X164112602Y-84615062D01*
X164179604Y-84801678D01*
X164196831Y-84849658D01*
X164199048Y-84853784D01*
X164282593Y-85009269D01*
X164317025Y-85073351D01*
X164319820Y-85077094D01*
X164319822Y-85077097D01*
X164466171Y-85273082D01*
X164466176Y-85273088D01*
X164468963Y-85276820D01*
X164472272Y-85280100D01*
X164472277Y-85280106D01*
X164570467Y-85377442D01*
X164649307Y-85455597D01*
X164653069Y-85458355D01*
X164653072Y-85458358D01*
X164828633Y-85587084D01*
X164854094Y-85605753D01*
X164858229Y-85607929D01*
X164858233Y-85607931D01*
X164976289Y-85670043D01*
X165078827Y-85723991D01*
X165250781Y-85784040D01*
X165308497Y-85825381D01*
X165334701Y-85891365D01*
X165321072Y-85961041D01*
X165271936Y-86012287D01*
X165244497Y-86023960D01*
X165161993Y-86048008D01*
X164931380Y-86154322D01*
X164927471Y-86156885D01*
X164722928Y-86290989D01*
X164722923Y-86290993D01*
X164719015Y-86293555D01*
X164639818Y-86364241D01*
X164545601Y-86448333D01*
X164529562Y-86462648D01*
X164367183Y-86657887D01*
X164235447Y-86874982D01*
X164233638Y-86879296D01*
X164233637Y-86879298D01*
X164140252Y-87101997D01*
X164137246Y-87109165D01*
X164074738Y-87355290D01*
X164049296Y-87607951D01*
X164061480Y-87861598D01*
X164086251Y-87986128D01*
X164107938Y-88095157D01*
X164111021Y-88110657D01*
X164112600Y-88115055D01*
X164112602Y-88115062D01*
X164157022Y-88238780D01*
X164196831Y-88349658D01*
X164199048Y-88353784D01*
X164282593Y-88509269D01*
X164317025Y-88573351D01*
X164319820Y-88577094D01*
X164319822Y-88577097D01*
X164466171Y-88773082D01*
X164466176Y-88773088D01*
X164468963Y-88776820D01*
X164472272Y-88780100D01*
X164472277Y-88780106D01*
X164570467Y-88877442D01*
X164649307Y-88955597D01*
X164653069Y-88958355D01*
X164653072Y-88958358D01*
X164828633Y-89087084D01*
X164854094Y-89105753D01*
X164858229Y-89107929D01*
X164858233Y-89107931D01*
X164976289Y-89170043D01*
X165078827Y-89223991D01*
X165250781Y-89284040D01*
X165308497Y-89325381D01*
X165334701Y-89391365D01*
X165321072Y-89461041D01*
X165271936Y-89512287D01*
X165244497Y-89523960D01*
X165161993Y-89548008D01*
X164931380Y-89654322D01*
X164927471Y-89656885D01*
X164722928Y-89790989D01*
X164722923Y-89790993D01*
X164719015Y-89793555D01*
X164655644Y-89850116D01*
X164582402Y-89915487D01*
X164529562Y-89962648D01*
X164367183Y-90157887D01*
X164235447Y-90374982D01*
X164233638Y-90379296D01*
X164233637Y-90379298D01*
X164140252Y-90601997D01*
X164137246Y-90609165D01*
X164074738Y-90855290D01*
X164049296Y-91107951D01*
X164061480Y-91361598D01*
X164062393Y-91366186D01*
X164100778Y-91559160D01*
X164111021Y-91610657D01*
X164112600Y-91615055D01*
X164112602Y-91615062D01*
X164156082Y-91736162D01*
X164196831Y-91849658D01*
X164199048Y-91853784D01*
X164282593Y-92009269D01*
X164317025Y-92073351D01*
X164319820Y-92077094D01*
X164319822Y-92077097D01*
X164466171Y-92273082D01*
X164466176Y-92273088D01*
X164468963Y-92276820D01*
X164472272Y-92280100D01*
X164472277Y-92280106D01*
X164616786Y-92423359D01*
X164649307Y-92455597D01*
X164653069Y-92458355D01*
X164653072Y-92458358D01*
X164828633Y-92587084D01*
X164854094Y-92605753D01*
X164858229Y-92607929D01*
X164858233Y-92607931D01*
X164976289Y-92670043D01*
X165078827Y-92723991D01*
X165250781Y-92784040D01*
X165308497Y-92825381D01*
X165334701Y-92891365D01*
X165321072Y-92961041D01*
X165271936Y-93012287D01*
X165244497Y-93023960D01*
X165161993Y-93048008D01*
X164931380Y-93154322D01*
X164898395Y-93175948D01*
X164722928Y-93290989D01*
X164722923Y-93290993D01*
X164719015Y-93293555D01*
X164639818Y-93364241D01*
X164582402Y-93415487D01*
X164529562Y-93462648D01*
X164367183Y-93657887D01*
X164235447Y-93874982D01*
X164233638Y-93879296D01*
X164233637Y-93879298D01*
X164140252Y-94101997D01*
X164137246Y-94109165D01*
X164074738Y-94355290D01*
X164049296Y-94607951D01*
X164049520Y-94612617D01*
X164049520Y-94612622D01*
X164051299Y-94649651D01*
X164061480Y-94861598D01*
X164075109Y-94930116D01*
X164100778Y-95059160D01*
X164111021Y-95110657D01*
X164112600Y-95115055D01*
X164112602Y-95115062D01*
X164157022Y-95238780D01*
X164196831Y-95349658D01*
X164199048Y-95353784D01*
X164282593Y-95509269D01*
X164317025Y-95573351D01*
X164319820Y-95577094D01*
X164319822Y-95577097D01*
X164466171Y-95773082D01*
X164466176Y-95773088D01*
X164468963Y-95776820D01*
X164472272Y-95780100D01*
X164472277Y-95780106D01*
X164570467Y-95877442D01*
X164649307Y-95955597D01*
X164653069Y-95958355D01*
X164653072Y-95958358D01*
X164828633Y-96087084D01*
X164854094Y-96105753D01*
X164858229Y-96107929D01*
X164858233Y-96107931D01*
X164955157Y-96158925D01*
X165078827Y-96223991D01*
X165250781Y-96284040D01*
X165308497Y-96325381D01*
X165334701Y-96391365D01*
X165321072Y-96461041D01*
X165271936Y-96512287D01*
X165244497Y-96523960D01*
X165161993Y-96548008D01*
X164931380Y-96654322D01*
X164927471Y-96656885D01*
X164722928Y-96790989D01*
X164722923Y-96790993D01*
X164719015Y-96793555D01*
X164639818Y-96864241D01*
X164582402Y-96915487D01*
X164529562Y-96962648D01*
X164367183Y-97157887D01*
X164235447Y-97374982D01*
X164233638Y-97379296D01*
X164233637Y-97379298D01*
X164140252Y-97601997D01*
X164137246Y-97609165D01*
X164074738Y-97855290D01*
X164049296Y-98107951D01*
X164061480Y-98361598D01*
X164062393Y-98366186D01*
X164100778Y-98559160D01*
X164111021Y-98610657D01*
X164112600Y-98615055D01*
X164112602Y-98615062D01*
X164157022Y-98738780D01*
X164196831Y-98849658D01*
X164199048Y-98853784D01*
X164282593Y-99009269D01*
X164317025Y-99073351D01*
X164319820Y-99077094D01*
X164319822Y-99077097D01*
X164466171Y-99273082D01*
X164466176Y-99273088D01*
X164468963Y-99276820D01*
X164472272Y-99280100D01*
X164472277Y-99280106D01*
X164570467Y-99377442D01*
X164649307Y-99455597D01*
X164653069Y-99458355D01*
X164653072Y-99458358D01*
X164828633Y-99587084D01*
X164854094Y-99605753D01*
X164858229Y-99607929D01*
X164858233Y-99607931D01*
X164976289Y-99670043D01*
X165078827Y-99723991D01*
X165250781Y-99784040D01*
X165308497Y-99825381D01*
X165334701Y-99891365D01*
X165321072Y-99961041D01*
X165271936Y-100012287D01*
X165244497Y-100023960D01*
X165161993Y-100048008D01*
X164931380Y-100154322D01*
X164927471Y-100156885D01*
X164722928Y-100290989D01*
X164722923Y-100290993D01*
X164719015Y-100293555D01*
X164639818Y-100364241D01*
X164582402Y-100415487D01*
X164529562Y-100462648D01*
X164367183Y-100657887D01*
X164235447Y-100874982D01*
X164233638Y-100879296D01*
X164233637Y-100879298D01*
X164139515Y-101103755D01*
X164137246Y-101109165D01*
X164136095Y-101113697D01*
X164136094Y-101113700D01*
X164113023Y-101204544D01*
X164074738Y-101355290D01*
X164049296Y-101607951D01*
X157503900Y-101607951D01*
X157503900Y-101316193D01*
X157506132Y-101292584D01*
X157506190Y-101292281D01*
X157506190Y-101292277D01*
X157507675Y-101284494D01*
X157504149Y-101228449D01*
X157503900Y-101220538D01*
X157503900Y-101204544D01*
X157501894Y-101188670D01*
X157501151Y-101180802D01*
X157498123Y-101132663D01*
X157498123Y-101132662D01*
X157497625Y-101124750D01*
X157495079Y-101116913D01*
X157489906Y-101093769D01*
X157489868Y-101093465D01*
X157489867Y-101093460D01*
X157488874Y-101085603D01*
X157485958Y-101078238D01*
X157485957Y-101078234D01*
X157468201Y-101033389D01*
X157465529Y-101025970D01*
X157448164Y-100972525D01*
X157443914Y-100965828D01*
X157443750Y-100965569D01*
X157432985Y-100944442D01*
X157432871Y-100944154D01*
X157432868Y-100944149D01*
X157429952Y-100936783D01*
X157425296Y-100930375D01*
X157425293Y-100930369D01*
X157396942Y-100891348D01*
X157392492Y-100884801D01*
X157386261Y-100874982D01*
X157362400Y-100837382D01*
X157356393Y-100831741D01*
X157340712Y-100813954D01*
X157340534Y-100813709D01*
X157340532Y-100813707D01*
X157335872Y-100807293D01*
X157327621Y-100800467D01*
X157292604Y-100771497D01*
X157286670Y-100766266D01*
X157251502Y-100733242D01*
X157251499Y-100733240D01*
X157245721Y-100727814D01*
X157238497Y-100723842D01*
X157218894Y-100710519D01*
X157218654Y-100710320D01*
X157218647Y-100710316D01*
X157212544Y-100705267D01*
X157161724Y-100681353D01*
X157154692Y-100677771D01*
X157105460Y-100650705D01*
X157097785Y-100648735D01*
X157097779Y-100648732D01*
X157097481Y-100648656D01*
X157075172Y-100640624D01*
X157074897Y-100640494D01*
X157074889Y-100640491D01*
X157067718Y-100637117D01*
X157012551Y-100626594D01*
X157004842Y-100624871D01*
X156970849Y-100616143D01*
X156958107Y-100612871D01*
X156958106Y-100612871D01*
X156950430Y-100610900D01*
X156942193Y-100610900D01*
X156918584Y-100608668D01*
X156918281Y-100608610D01*
X156918277Y-100608610D01*
X156910494Y-100607125D01*
X156854449Y-100610651D01*
X156846538Y-100610900D01*
X154950194Y-100610900D01*
X154882073Y-100590898D01*
X154846981Y-100557171D01*
X154740157Y-100404611D01*
X154740155Y-100404608D01*
X154736998Y-100400100D01*
X154575100Y-100238202D01*
X154570592Y-100235045D01*
X154570589Y-100235043D01*
X154483556Y-100174102D01*
X154387549Y-100106877D01*
X154382567Y-100104554D01*
X154382562Y-100104551D01*
X154348343Y-100088595D01*
X154295058Y-100041678D01*
X154275597Y-99973401D01*
X154296139Y-99905441D01*
X154348343Y-99860205D01*
X154382562Y-99844249D01*
X154382567Y-99844246D01*
X154387549Y-99841923D01*
X154492411Y-99768498D01*
X154570589Y-99713757D01*
X154570592Y-99713755D01*
X154575100Y-99710598D01*
X154736998Y-99548700D01*
X154868323Y-99361149D01*
X154870646Y-99356167D01*
X154870649Y-99356162D01*
X154962761Y-99158625D01*
X154962761Y-99158624D01*
X154965084Y-99153643D01*
X154967066Y-99146248D01*
X155022919Y-98937802D01*
X155022919Y-98937800D01*
X155024343Y-98932487D01*
X155044298Y-98704400D01*
X155024343Y-98476313D01*
X155022919Y-98470998D01*
X154966507Y-98260467D01*
X154966506Y-98260465D01*
X154965084Y-98255157D01*
X154959167Y-98242467D01*
X154870649Y-98052638D01*
X154870646Y-98052633D01*
X154868323Y-98047651D01*
X154736998Y-97860100D01*
X154575100Y-97698202D01*
X154570592Y-97695045D01*
X154570589Y-97695043D01*
X154426673Y-97594272D01*
X154387549Y-97566877D01*
X154382567Y-97564554D01*
X154382562Y-97564551D01*
X154348343Y-97548595D01*
X154295058Y-97501678D01*
X154275597Y-97433401D01*
X154296139Y-97365441D01*
X154348343Y-97320205D01*
X154382562Y-97304249D01*
X154382567Y-97304246D01*
X154387549Y-97301923D01*
X154541409Y-97194189D01*
X154570589Y-97173757D01*
X154570592Y-97173755D01*
X154575100Y-97170598D01*
X154736998Y-97008700D01*
X154777255Y-96951208D01*
X154821974Y-96887342D01*
X154868323Y-96821149D01*
X154870646Y-96816167D01*
X154870649Y-96816162D01*
X154962761Y-96618625D01*
X154962761Y-96618624D01*
X154965084Y-96613643D01*
X154978697Y-96562841D01*
X155022919Y-96397802D01*
X155022919Y-96397800D01*
X155024343Y-96392487D01*
X155044298Y-96164400D01*
X155024343Y-95936313D01*
X155008673Y-95877831D01*
X154966507Y-95720467D01*
X154966506Y-95720465D01*
X154965084Y-95715157D01*
X154962761Y-95710175D01*
X154870649Y-95512638D01*
X154870646Y-95512633D01*
X154868323Y-95507651D01*
X154736998Y-95320100D01*
X154575100Y-95158202D01*
X154570592Y-95155045D01*
X154570589Y-95155043D01*
X154492411Y-95100302D01*
X154387549Y-95026877D01*
X154382567Y-95024554D01*
X154382562Y-95024551D01*
X154348343Y-95008595D01*
X154295058Y-94961678D01*
X154275597Y-94893401D01*
X154296139Y-94825441D01*
X154348343Y-94780205D01*
X154382562Y-94764249D01*
X154382567Y-94764246D01*
X154387549Y-94761923D01*
X154492411Y-94688498D01*
X154570589Y-94633757D01*
X154570592Y-94633755D01*
X154575100Y-94630598D01*
X154736998Y-94468700D01*
X154868323Y-94281149D01*
X154870646Y-94276167D01*
X154870649Y-94276162D01*
X154962761Y-94078625D01*
X154962761Y-94078624D01*
X154965084Y-94073643D01*
X154967378Y-94065084D01*
X155022919Y-93857802D01*
X155022919Y-93857800D01*
X155024343Y-93852487D01*
X155044298Y-93624400D01*
X155024343Y-93396313D01*
X155004449Y-93322067D01*
X154966507Y-93180467D01*
X154966506Y-93180465D01*
X154965084Y-93175157D01*
X154919573Y-93077557D01*
X154870649Y-92972638D01*
X154870646Y-92972633D01*
X154868323Y-92967651D01*
X154785143Y-92848858D01*
X154740157Y-92784611D01*
X154740155Y-92784608D01*
X154736998Y-92780100D01*
X154575100Y-92618202D01*
X154570592Y-92615045D01*
X154570589Y-92615043D01*
X154465340Y-92541347D01*
X154387549Y-92486877D01*
X154382567Y-92484554D01*
X154382562Y-92484551D01*
X154348343Y-92468595D01*
X154295058Y-92421678D01*
X154275597Y-92353401D01*
X154296139Y-92285441D01*
X154348343Y-92240205D01*
X154382562Y-92224249D01*
X154382567Y-92224246D01*
X154387549Y-92221923D01*
X154508160Y-92137470D01*
X154570589Y-92093757D01*
X154570592Y-92093755D01*
X154575100Y-92090598D01*
X154736998Y-91928700D01*
X154755643Y-91902073D01*
X154848551Y-91769386D01*
X154868323Y-91741149D01*
X154870646Y-91736167D01*
X154870649Y-91736162D01*
X154962761Y-91538625D01*
X154962761Y-91538624D01*
X154965084Y-91533643D01*
X155024343Y-91312487D01*
X155044298Y-91084400D01*
X155024343Y-90856313D01*
X154970787Y-90656439D01*
X154966507Y-90640467D01*
X154966506Y-90640465D01*
X154965084Y-90635157D01*
X154950952Y-90604850D01*
X154870649Y-90432638D01*
X154870646Y-90432633D01*
X154868323Y-90427651D01*
X154736998Y-90240100D01*
X154575100Y-90078202D01*
X154570592Y-90075045D01*
X154570589Y-90075043D01*
X154452158Y-89992117D01*
X154387549Y-89946877D01*
X154382567Y-89944554D01*
X154382562Y-89944551D01*
X154348343Y-89928595D01*
X154295058Y-89881678D01*
X154275597Y-89813401D01*
X154296139Y-89745441D01*
X154348343Y-89700205D01*
X154382562Y-89684249D01*
X154382567Y-89684246D01*
X154387549Y-89681923D01*
X154536599Y-89577557D01*
X154570589Y-89553757D01*
X154570592Y-89553755D01*
X154575100Y-89550598D01*
X154736998Y-89388700D01*
X154757937Y-89358797D01*
X154851248Y-89225534D01*
X154868323Y-89201149D01*
X154870646Y-89196167D01*
X154870649Y-89196162D01*
X154962761Y-88998625D01*
X154962761Y-88998624D01*
X154965084Y-88993643D01*
X154975279Y-88955597D01*
X155022919Y-88777802D01*
X155022919Y-88777800D01*
X155024343Y-88772487D01*
X155044298Y-88544400D01*
X155024343Y-88316313D01*
X155011769Y-88269386D01*
X154966507Y-88100467D01*
X154966506Y-88100465D01*
X154965084Y-88095157D01*
X154962761Y-88090175D01*
X154870649Y-87892638D01*
X154870646Y-87892633D01*
X154868323Y-87887651D01*
X154736998Y-87700100D01*
X154575100Y-87538202D01*
X154570592Y-87535045D01*
X154570589Y-87535043D01*
X154492411Y-87480302D01*
X154387549Y-87406877D01*
X154382567Y-87404554D01*
X154382562Y-87404551D01*
X154348343Y-87388595D01*
X154295058Y-87341678D01*
X154275597Y-87273401D01*
X154296139Y-87205441D01*
X154348343Y-87160205D01*
X154382562Y-87144249D01*
X154382567Y-87144246D01*
X154387549Y-87141923D01*
X154497286Y-87065084D01*
X154570589Y-87013757D01*
X154570592Y-87013755D01*
X154575100Y-87010598D01*
X154736998Y-86848700D01*
X154868323Y-86661149D01*
X154870646Y-86656167D01*
X154870649Y-86656162D01*
X154962761Y-86458625D01*
X154962761Y-86458624D01*
X154965084Y-86453643D01*
X154982850Y-86387342D01*
X155022919Y-86237802D01*
X155022919Y-86237800D01*
X155024343Y-86232487D01*
X155044298Y-86004400D01*
X155024343Y-85776313D01*
X154997024Y-85674357D01*
X154966507Y-85560467D01*
X154966506Y-85560465D01*
X154965084Y-85555157D01*
X154956083Y-85535854D01*
X154870649Y-85352638D01*
X154870646Y-85352633D01*
X154868323Y-85347651D01*
X154753652Y-85183884D01*
X154740157Y-85164611D01*
X154740155Y-85164608D01*
X154736998Y-85160100D01*
X154575100Y-84998202D01*
X154570592Y-84995045D01*
X154570589Y-84995043D01*
X154424776Y-84892944D01*
X154387549Y-84866877D01*
X154382567Y-84864554D01*
X154382562Y-84864551D01*
X154348343Y-84848595D01*
X154295058Y-84801678D01*
X154275597Y-84733401D01*
X154296139Y-84665441D01*
X154348343Y-84620205D01*
X154382562Y-84604249D01*
X154382567Y-84604246D01*
X154387549Y-84601923D01*
X154510514Y-84515822D01*
X154570589Y-84473757D01*
X154570592Y-84473755D01*
X154575100Y-84470598D01*
X154736998Y-84308700D01*
X154868323Y-84121149D01*
X154870646Y-84116167D01*
X154870649Y-84116162D01*
X154962761Y-83918625D01*
X154962761Y-83918624D01*
X154965084Y-83913643D01*
X155000225Y-83782498D01*
X155022919Y-83697802D01*
X155022919Y-83697800D01*
X155024343Y-83692487D01*
X155044298Y-83464400D01*
X155024343Y-83236313D01*
X155021184Y-83224523D01*
X154966507Y-83020467D01*
X154966506Y-83020465D01*
X154965084Y-83015157D01*
X154955833Y-82995317D01*
X154870649Y-82812638D01*
X154870646Y-82812633D01*
X154868323Y-82807651D01*
X154743044Y-82628734D01*
X154740157Y-82624611D01*
X154740155Y-82624608D01*
X154736998Y-82620100D01*
X154575100Y-82458202D01*
X154570592Y-82455045D01*
X154570589Y-82455043D01*
X154433135Y-82358797D01*
X154387549Y-82326877D01*
X154382567Y-82324554D01*
X154382562Y-82324551D01*
X154348343Y-82308595D01*
X154295058Y-82261678D01*
X154275597Y-82193401D01*
X154296139Y-82125441D01*
X154348343Y-82080205D01*
X154382562Y-82064249D01*
X154382567Y-82064246D01*
X154387549Y-82061923D01*
X154509473Y-81976551D01*
X154570589Y-81933757D01*
X154570592Y-81933755D01*
X154575100Y-81930598D01*
X154736998Y-81768700D01*
X154868323Y-81581149D01*
X154870646Y-81576167D01*
X154870649Y-81576162D01*
X154962761Y-81378625D01*
X154962761Y-81378624D01*
X154965084Y-81373643D01*
X154979533Y-81319721D01*
X155022919Y-81157802D01*
X155022919Y-81157800D01*
X155024343Y-81152487D01*
X155044298Y-80924400D01*
X155024343Y-80696313D01*
X155022919Y-80690998D01*
X154966507Y-80480467D01*
X154966506Y-80480465D01*
X154965084Y-80475157D01*
X154932002Y-80404211D01*
X154870649Y-80272638D01*
X154870646Y-80272633D01*
X154868323Y-80267651D01*
X154754328Y-80104850D01*
X154740157Y-80084611D01*
X154740155Y-80084608D01*
X154736998Y-80080100D01*
X154575100Y-79918202D01*
X154570592Y-79915045D01*
X154570589Y-79915043D01*
X154492411Y-79860302D01*
X154387549Y-79786877D01*
X154382567Y-79784554D01*
X154382562Y-79784551D01*
X154348343Y-79768595D01*
X154295058Y-79721678D01*
X154275597Y-79653401D01*
X154296139Y-79585441D01*
X154348343Y-79540205D01*
X154382562Y-79524249D01*
X154382567Y-79524246D01*
X154387549Y-79521923D01*
X154539555Y-79415487D01*
X154570589Y-79393757D01*
X154570592Y-79393755D01*
X154575100Y-79390598D01*
X154736998Y-79228700D01*
X154749454Y-79210912D01*
X154806995Y-79128734D01*
X154868323Y-79041149D01*
X154870646Y-79036167D01*
X154870649Y-79036162D01*
X154962761Y-78838625D01*
X154962761Y-78838624D01*
X154965084Y-78833643D01*
X154978376Y-78784039D01*
X155022919Y-78617802D01*
X155022919Y-78617800D01*
X155024343Y-78612487D01*
X155044298Y-78384400D01*
X155024343Y-78156313D01*
X155022345Y-78148856D01*
X154966507Y-77940467D01*
X154966506Y-77940465D01*
X154965084Y-77935157D01*
X154949657Y-77902073D01*
X154870649Y-77732638D01*
X154870646Y-77732633D01*
X154868323Y-77727651D01*
X154750344Y-77559160D01*
X154740157Y-77544611D01*
X154740155Y-77544608D01*
X154736998Y-77540100D01*
X154575100Y-77378202D01*
X154570592Y-77375045D01*
X154570589Y-77375043D01*
X154474000Y-77307411D01*
X154387549Y-77246877D01*
X154382567Y-77244554D01*
X154382562Y-77244551D01*
X154348343Y-77228595D01*
X154295058Y-77181678D01*
X154275597Y-77113401D01*
X154296139Y-77045441D01*
X154348343Y-77000205D01*
X154382562Y-76984249D01*
X154382567Y-76984246D01*
X154387549Y-76981923D01*
X154505177Y-76899559D01*
X154570589Y-76853757D01*
X154570592Y-76853755D01*
X154575100Y-76850598D01*
X154736998Y-76688700D01*
X154759588Y-76656439D01*
X154865166Y-76505657D01*
X154868323Y-76501149D01*
X154870646Y-76496167D01*
X154870649Y-76496162D01*
X154962761Y-76298625D01*
X154962761Y-76298624D01*
X154965084Y-76293643D01*
X155024343Y-76072487D01*
X155044298Y-75844400D01*
X155024343Y-75616313D01*
X155013463Y-75575708D01*
X154966507Y-75400467D01*
X154966506Y-75400465D01*
X154965084Y-75395157D01*
X154919007Y-75296343D01*
X154870649Y-75192638D01*
X154870646Y-75192633D01*
X154868323Y-75187651D01*
X154764154Y-75038882D01*
X154740157Y-75004611D01*
X154740155Y-75004608D01*
X154736998Y-75000100D01*
X154575100Y-74838202D01*
X154570592Y-74835045D01*
X154570589Y-74835043D01*
X154446920Y-74748449D01*
X154387549Y-74706877D01*
X154382567Y-74704554D01*
X154382562Y-74704551D01*
X154348343Y-74688595D01*
X154295058Y-74641678D01*
X154275597Y-74573401D01*
X154296139Y-74505441D01*
X154348343Y-74460205D01*
X154382562Y-74444249D01*
X154382567Y-74444246D01*
X154387549Y-74441923D01*
X154519317Y-74349658D01*
X154570589Y-74313757D01*
X154570592Y-74313755D01*
X154575100Y-74310598D01*
X154736998Y-74148700D01*
X154741333Y-74142510D01*
X154845058Y-73994375D01*
X154868323Y-73961149D01*
X154870646Y-73956167D01*
X154870649Y-73956162D01*
X154962761Y-73758625D01*
X154962761Y-73758624D01*
X154965084Y-73753643D01*
X155004123Y-73607951D01*
X155022919Y-73537802D01*
X155022919Y-73537800D01*
X155024343Y-73532487D01*
X155044298Y-73304400D01*
X155024343Y-73076313D01*
X155019300Y-73057492D01*
X154966507Y-72860467D01*
X154966506Y-72860465D01*
X154965084Y-72855157D01*
X154962761Y-72850175D01*
X154870649Y-72652638D01*
X154870646Y-72652633D01*
X154868323Y-72647651D01*
X154743600Y-72469528D01*
X154740157Y-72464611D01*
X154740155Y-72464608D01*
X154736998Y-72460100D01*
X154575100Y-72298202D01*
X154570592Y-72295045D01*
X154570589Y-72295043D01*
X154450437Y-72210912D01*
X154387549Y-72166877D01*
X154382567Y-72164554D01*
X154382562Y-72164551D01*
X154348343Y-72148595D01*
X154295058Y-72101678D01*
X154275597Y-72033401D01*
X154296139Y-71965441D01*
X154348343Y-71920205D01*
X154382562Y-71904249D01*
X154382567Y-71904246D01*
X154387549Y-71901923D01*
X154522096Y-71807712D01*
X154570589Y-71773757D01*
X154570592Y-71773755D01*
X154575100Y-71770598D01*
X154736998Y-71608700D01*
X154788006Y-71535854D01*
X154865166Y-71425657D01*
X154868323Y-71421149D01*
X154870646Y-71416167D01*
X154870649Y-71416162D01*
X154962761Y-71218625D01*
X154962761Y-71218624D01*
X154965084Y-71213643D01*
X154974111Y-71179956D01*
X155022919Y-70997802D01*
X155022919Y-70997800D01*
X155024343Y-70992487D01*
X155044298Y-70764400D01*
X155024343Y-70536313D01*
X155022919Y-70530998D01*
X154966507Y-70320467D01*
X154966506Y-70320465D01*
X154965084Y-70315157D01*
X154938660Y-70258490D01*
X154870649Y-70112638D01*
X154870646Y-70112633D01*
X154868323Y-70107651D01*
X154736998Y-69920100D01*
X154575100Y-69758202D01*
X154570592Y-69755045D01*
X154570589Y-69755043D01*
X154492411Y-69700302D01*
X154387549Y-69626877D01*
X154382567Y-69624554D01*
X154382562Y-69624551D01*
X154348343Y-69608595D01*
X154295058Y-69561678D01*
X154275597Y-69493401D01*
X154296139Y-69425441D01*
X154348343Y-69380205D01*
X154382562Y-69364249D01*
X154382567Y-69364246D01*
X154387549Y-69361923D01*
X154529258Y-69262697D01*
X154570589Y-69233757D01*
X154570592Y-69233755D01*
X154575100Y-69230598D01*
X154736998Y-69068700D01*
X154743031Y-69060085D01*
X154807884Y-68967464D01*
X154868323Y-68881149D01*
X154870646Y-68876167D01*
X154870649Y-68876162D01*
X154962761Y-68678625D01*
X154962761Y-68678624D01*
X154965084Y-68673643D01*
X154969575Y-68656885D01*
X155022919Y-68457802D01*
X155022919Y-68457800D01*
X155024343Y-68452487D01*
X155044298Y-68224400D01*
X155024343Y-67996313D01*
X154991785Y-67874806D01*
X154966507Y-67780467D01*
X154966506Y-67780465D01*
X154965084Y-67775157D01*
X154922523Y-67683884D01*
X154870649Y-67572638D01*
X154870646Y-67572633D01*
X154868323Y-67567651D01*
X154736998Y-67380100D01*
X154575100Y-67218202D01*
X154570592Y-67215045D01*
X154570589Y-67215043D01*
X154421510Y-67110657D01*
X154387549Y-67086877D01*
X154382567Y-67084554D01*
X154382562Y-67084551D01*
X154185025Y-66992439D01*
X154185024Y-66992439D01*
X154180043Y-66990116D01*
X154174735Y-66988694D01*
X154174733Y-66988693D01*
X153964202Y-66932281D01*
X153964200Y-66932281D01*
X153958887Y-66930857D01*
X153730800Y-66910902D01*
X153502713Y-66930857D01*
X153497400Y-66932281D01*
X153497398Y-66932281D01*
X153286867Y-66988693D01*
X153286865Y-66988694D01*
X153281557Y-66990116D01*
X153276576Y-66992439D01*
X153276575Y-66992439D01*
X153079038Y-67084551D01*
X153079033Y-67084554D01*
X153074051Y-67086877D01*
X153040090Y-67110657D01*
X152891011Y-67215043D01*
X152891008Y-67215045D01*
X152886500Y-67218202D01*
X152724602Y-67380100D01*
X152593277Y-67567651D01*
X152590954Y-67572633D01*
X152590951Y-67572638D01*
X152539077Y-67683884D01*
X152496516Y-67775157D01*
X152495094Y-67780465D01*
X152495093Y-67780467D01*
X152469815Y-67874806D01*
X152437257Y-67996313D01*
X152417302Y-68224400D01*
X152437257Y-68452487D01*
X152438681Y-68457800D01*
X152438681Y-68457802D01*
X152492026Y-68656885D01*
X152496516Y-68673643D01*
X152498839Y-68678624D01*
X152498839Y-68678625D01*
X152590951Y-68876162D01*
X152590954Y-68876167D01*
X152593277Y-68881149D01*
X152653716Y-68967464D01*
X152718570Y-69060085D01*
X152724602Y-69068700D01*
X152886500Y-69230598D01*
X152891008Y-69233755D01*
X152891011Y-69233757D01*
X152932342Y-69262697D01*
X153074051Y-69361923D01*
X153079033Y-69364246D01*
X153079038Y-69364249D01*
X153113257Y-69380205D01*
X153166542Y-69427122D01*
X153186003Y-69495399D01*
X153165461Y-69563359D01*
X153113257Y-69608595D01*
X153079038Y-69624551D01*
X153079033Y-69624554D01*
X153074051Y-69626877D01*
X152969189Y-69700302D01*
X152891011Y-69755043D01*
X152891008Y-69755045D01*
X152886500Y-69758202D01*
X152724602Y-69920100D01*
X152593277Y-70107651D01*
X152590954Y-70112633D01*
X152590951Y-70112638D01*
X152522940Y-70258490D01*
X152496516Y-70315157D01*
X152495094Y-70320465D01*
X152495093Y-70320467D01*
X152438681Y-70530998D01*
X152437257Y-70536313D01*
X152417302Y-70764400D01*
X152437257Y-70992487D01*
X152438681Y-70997800D01*
X152438681Y-70997802D01*
X152487490Y-71179956D01*
X152496516Y-71213643D01*
X152498839Y-71218624D01*
X152498839Y-71218625D01*
X152590951Y-71416162D01*
X152590954Y-71416167D01*
X152593277Y-71421149D01*
X152596434Y-71425657D01*
X152673595Y-71535854D01*
X152724602Y-71608700D01*
X152886500Y-71770598D01*
X152891008Y-71773755D01*
X152891011Y-71773757D01*
X152939504Y-71807712D01*
X153074051Y-71901923D01*
X153079033Y-71904246D01*
X153079038Y-71904249D01*
X153113257Y-71920205D01*
X153166542Y-71967122D01*
X153186003Y-72035399D01*
X153165461Y-72103359D01*
X153113257Y-72148595D01*
X153079038Y-72164551D01*
X153079033Y-72164554D01*
X153074051Y-72166877D01*
X153011163Y-72210912D01*
X152891011Y-72295043D01*
X152891008Y-72295045D01*
X152886500Y-72298202D01*
X152724602Y-72460100D01*
X152721445Y-72464608D01*
X152721443Y-72464611D01*
X152718000Y-72469528D01*
X152593277Y-72647651D01*
X152590954Y-72652633D01*
X152590951Y-72652638D01*
X152498839Y-72850175D01*
X152496516Y-72855157D01*
X152495094Y-72860465D01*
X152495093Y-72860467D01*
X152442300Y-73057492D01*
X152437257Y-73076313D01*
X152417302Y-73304400D01*
X152437257Y-73532487D01*
X152438681Y-73537800D01*
X152438681Y-73537802D01*
X152457478Y-73607951D01*
X152496516Y-73753643D01*
X152498839Y-73758624D01*
X152498839Y-73758625D01*
X152590951Y-73956162D01*
X152590954Y-73956167D01*
X152593277Y-73961149D01*
X152616542Y-73994375D01*
X152720268Y-74142510D01*
X152724602Y-74148700D01*
X152886500Y-74310598D01*
X152891008Y-74313755D01*
X152891011Y-74313757D01*
X152942283Y-74349658D01*
X153074051Y-74441923D01*
X153079033Y-74444246D01*
X153079038Y-74444249D01*
X153113257Y-74460205D01*
X153166542Y-74507122D01*
X153186003Y-74575399D01*
X153165461Y-74643359D01*
X153113257Y-74688595D01*
X153079038Y-74704551D01*
X153079033Y-74704554D01*
X153074051Y-74706877D01*
X153014680Y-74748449D01*
X152891011Y-74835043D01*
X152891008Y-74835045D01*
X152886500Y-74838202D01*
X152724602Y-75000100D01*
X152721445Y-75004608D01*
X152721443Y-75004611D01*
X152697446Y-75038882D01*
X152593277Y-75187651D01*
X152590954Y-75192633D01*
X152590951Y-75192638D01*
X152542593Y-75296343D01*
X152496516Y-75395157D01*
X152495094Y-75400465D01*
X152495093Y-75400467D01*
X152448137Y-75575708D01*
X152437257Y-75616313D01*
X152417302Y-75844400D01*
X152437257Y-76072487D01*
X152496516Y-76293643D01*
X152498839Y-76298624D01*
X152498839Y-76298625D01*
X152590951Y-76496162D01*
X152590954Y-76496167D01*
X152593277Y-76501149D01*
X152596434Y-76505657D01*
X152702013Y-76656439D01*
X152724602Y-76688700D01*
X152886500Y-76850598D01*
X152891008Y-76853755D01*
X152891011Y-76853757D01*
X152956423Y-76899559D01*
X153074051Y-76981923D01*
X153079033Y-76984246D01*
X153079038Y-76984249D01*
X153113257Y-77000205D01*
X153166542Y-77047122D01*
X153186003Y-77115399D01*
X153165461Y-77183359D01*
X153113257Y-77228595D01*
X153079038Y-77244551D01*
X153079033Y-77244554D01*
X153074051Y-77246877D01*
X152987600Y-77307411D01*
X152891011Y-77375043D01*
X152891008Y-77375045D01*
X152886500Y-77378202D01*
X152724602Y-77540100D01*
X152721445Y-77544608D01*
X152721443Y-77544611D01*
X152614619Y-77697171D01*
X152559162Y-77741499D01*
X152511406Y-77750900D01*
X151635500Y-77750900D01*
X151567379Y-77730898D01*
X151520886Y-77677242D01*
X151509500Y-77624900D01*
X151509500Y-59758359D01*
X164980386Y-59758359D01*
X164989099Y-59769879D01*
X165077586Y-59834760D01*
X165085505Y-59839708D01*
X165301877Y-59953547D01*
X165310451Y-59957275D01*
X165541282Y-60037885D01*
X165550291Y-60040299D01*
X165790518Y-60085908D01*
X165799775Y-60086962D01*
X166044107Y-60096563D01*
X166053420Y-60096237D01*
X166296478Y-60069618D01*
X166305655Y-60067917D01*
X166542107Y-60005665D01*
X166550926Y-60002628D01*
X166775584Y-59906107D01*
X166783856Y-59901800D01*
X166991777Y-59773135D01*
X166993620Y-59771796D01*
X167001038Y-59760541D01*
X166994974Y-59750184D01*
X166001812Y-58757022D01*
X165987868Y-58749408D01*
X165986035Y-58749539D01*
X165979420Y-58753790D01*
X164987044Y-59746166D01*
X164980386Y-59758359D01*
X151509500Y-59758359D01*
X151509500Y-58860776D01*
X151511051Y-58841065D01*
X151512980Y-58828886D01*
X151514220Y-58821057D01*
X151510059Y-58777038D01*
X151509500Y-58765181D01*
X151509500Y-58761144D01*
X151506002Y-58733455D01*
X151505567Y-58729521D01*
X151499903Y-58669598D01*
X151499903Y-58669596D01*
X151499157Y-58661708D01*
X151496558Y-58654488D01*
X151496457Y-58653909D01*
X151495608Y-58650373D01*
X151495436Y-58649813D01*
X151494474Y-58642203D01*
X151469399Y-58578872D01*
X151468004Y-58575178D01*
X151447625Y-58518573D01*
X151444939Y-58511111D01*
X151440624Y-58504761D01*
X151440380Y-58504221D01*
X151438685Y-58501018D01*
X151438374Y-58500511D01*
X151435552Y-58493383D01*
X151430898Y-58486977D01*
X151430895Y-58486972D01*
X151395513Y-58438273D01*
X151393237Y-58435035D01*
X151354972Y-58378729D01*
X151349215Y-58373654D01*
X151348843Y-58373189D01*
X151346402Y-58370508D01*
X151345983Y-58370102D01*
X151341472Y-58363893D01*
X151318435Y-58344835D01*
X164277022Y-58344835D01*
X164288754Y-58589064D01*
X164289891Y-58598324D01*
X164337593Y-58838143D01*
X164340082Y-58847118D01*
X164422708Y-59077250D01*
X164426505Y-59085778D01*
X164542234Y-59301160D01*
X164547245Y-59309027D01*
X164604173Y-59385263D01*
X164615431Y-59393712D01*
X164627850Y-59386940D01*
X165616978Y-58397812D01*
X165623356Y-58386132D01*
X166353408Y-58386132D01*
X166353539Y-58387965D01*
X166357790Y-58394580D01*
X167352732Y-59389522D01*
X167365112Y-59396282D01*
X167373453Y-59390038D01*
X167491700Y-59206202D01*
X167496147Y-59198011D01*
X167596572Y-58975076D01*
X167599767Y-58966298D01*
X167666135Y-58730973D01*
X167667993Y-58721844D01*
X167699044Y-58477770D01*
X167699525Y-58471483D01*
X167701706Y-58388160D01*
X167701555Y-58381851D01*
X167683321Y-58136486D01*
X167681944Y-58127280D01*
X167627979Y-57888786D01*
X167625255Y-57879875D01*
X167536633Y-57651983D01*
X167532619Y-57643567D01*
X167411284Y-57431276D01*
X167406074Y-57423553D01*
X167374787Y-57383865D01*
X167362863Y-57375395D01*
X167351328Y-57381882D01*
X166361022Y-58372188D01*
X166353408Y-58386132D01*
X165623356Y-58386132D01*
X165624592Y-58383868D01*
X165624461Y-58382035D01*
X165620210Y-58375420D01*
X164625828Y-57381038D01*
X164612520Y-57373771D01*
X164602481Y-57380893D01*
X164597581Y-57386784D01*
X164592168Y-57394373D01*
X164465322Y-57603409D01*
X164461084Y-57611726D01*
X164366529Y-57837214D01*
X164363572Y-57846052D01*
X164303384Y-58083042D01*
X164301763Y-58092232D01*
X164277267Y-58335510D01*
X164277022Y-58344835D01*
X151318435Y-58344835D01*
X151289003Y-58320486D01*
X151285996Y-58317918D01*
X151240857Y-58278123D01*
X151234910Y-58272880D01*
X151228075Y-58269398D01*
X151227614Y-58269052D01*
X151224565Y-58267049D01*
X151224056Y-58266759D01*
X151218144Y-58261867D01*
X151156512Y-58232865D01*
X151153010Y-58231150D01*
X151092296Y-58200215D01*
X151084805Y-58198540D01*
X151084253Y-58198312D01*
X151080836Y-58197142D01*
X151080264Y-58196985D01*
X151073318Y-58193717D01*
X151036475Y-58186689D01*
X151006429Y-58180957D01*
X151002573Y-58180159D01*
X150936091Y-58165298D01*
X150928422Y-58165539D01*
X150927840Y-58165456D01*
X150924211Y-58165171D01*
X150923626Y-58165162D01*
X150916094Y-58163725D01*
X150848116Y-58168002D01*
X150844220Y-58168186D01*
X150776110Y-58170327D01*
X150768741Y-58172468D01*
X150768151Y-58172533D01*
X150764592Y-58173154D01*
X150764014Y-58173293D01*
X150756350Y-58173775D01*
X150734246Y-58180957D01*
X150691588Y-58194817D01*
X150687807Y-58195981D01*
X150622407Y-58214982D01*
X150615805Y-58218886D01*
X150615258Y-58219093D01*
X150611947Y-58220588D01*
X150611426Y-58220864D01*
X150604125Y-58223236D01*
X150546582Y-58259754D01*
X150543257Y-58261791D01*
X150517617Y-58276954D01*
X150453479Y-58294500D01*
X133220500Y-58294500D01*
X133152379Y-58274498D01*
X133105886Y-58220842D01*
X133094500Y-58168500D01*
X133094500Y-57217524D01*
X133114502Y-57149403D01*
X133126858Y-57133221D01*
X133200040Y-57051944D01*
X133295527Y-56886556D01*
X133354542Y-56704928D01*
X133366254Y-56593500D01*
X133373814Y-56521565D01*
X133374504Y-56515000D01*
X133366735Y-56441081D01*
X133355232Y-56331635D01*
X133355232Y-56331633D01*
X133354542Y-56325072D01*
X133295527Y-56143444D01*
X133289575Y-56133134D01*
X164280500Y-56133134D01*
X164287255Y-56195316D01*
X164338385Y-56331705D01*
X164425739Y-56448261D01*
X164542295Y-56535615D01*
X164678684Y-56586745D01*
X164740866Y-56593500D01*
X165220914Y-56593500D01*
X165289035Y-56613502D01*
X165335528Y-56667158D01*
X165345632Y-56737432D01*
X165316138Y-56802012D01*
X165273665Y-56833926D01*
X165162869Y-56885004D01*
X165154714Y-56889524D01*
X164987468Y-56999175D01*
X164978330Y-57009917D01*
X164982903Y-57019693D01*
X165976188Y-58012978D01*
X165990132Y-58020592D01*
X165991965Y-58020461D01*
X165998580Y-58016210D01*
X166991488Y-57023302D01*
X166997872Y-57011612D01*
X166988460Y-56999502D01*
X166862144Y-56911873D01*
X166854116Y-56907145D01*
X166702763Y-56832506D01*
X166650514Y-56784438D01*
X166632547Y-56715752D01*
X166654566Y-56648257D01*
X166709581Y-56603380D01*
X166758491Y-56593500D01*
X167237134Y-56593500D01*
X167299316Y-56586745D01*
X167435705Y-56535615D01*
X167552261Y-56448261D01*
X167639615Y-56331705D01*
X167690745Y-56195316D01*
X167697500Y-56133134D01*
X167697500Y-53636866D01*
X167690745Y-53574684D01*
X167639615Y-53438295D01*
X167552261Y-53321739D01*
X167435705Y-53234385D01*
X167299316Y-53183255D01*
X167237134Y-53176500D01*
X164740866Y-53176500D01*
X164678684Y-53183255D01*
X164542295Y-53234385D01*
X164425739Y-53321739D01*
X164338385Y-53438295D01*
X164287255Y-53574684D01*
X164280500Y-53636866D01*
X164280500Y-56133134D01*
X133289575Y-56133134D01*
X133200040Y-55978056D01*
X133168594Y-55943131D01*
X133076675Y-55841045D01*
X133076674Y-55841044D01*
X133072253Y-55836134D01*
X132917752Y-55723882D01*
X132911724Y-55721198D01*
X132911722Y-55721197D01*
X132749319Y-55648891D01*
X132749318Y-55648891D01*
X132743288Y-55646206D01*
X132649888Y-55626353D01*
X132562944Y-55607872D01*
X132562939Y-55607872D01*
X132556487Y-55606500D01*
X132365513Y-55606500D01*
X132359061Y-55607872D01*
X132359056Y-55607872D01*
X132272112Y-55626353D01*
X132178712Y-55646206D01*
X132172682Y-55648891D01*
X132172681Y-55648891D01*
X132010278Y-55721197D01*
X132010276Y-55721198D01*
X132004248Y-55723882D01*
X131849747Y-55836134D01*
X131845326Y-55841044D01*
X131845325Y-55841045D01*
X131753407Y-55943131D01*
X131721960Y-55978056D01*
X131626473Y-56143444D01*
X131567458Y-56325072D01*
X131566768Y-56331633D01*
X131566768Y-56331635D01*
X131555265Y-56441081D01*
X131547496Y-56515000D01*
X131548186Y-56521565D01*
X131555747Y-56593500D01*
X131567458Y-56704928D01*
X131626473Y-56886556D01*
X131721960Y-57051944D01*
X131795137Y-57133215D01*
X131825853Y-57197221D01*
X131827500Y-57217524D01*
X131827500Y-58856207D01*
X131825268Y-58879816D01*
X131823725Y-58887906D01*
X131824223Y-58895817D01*
X131827251Y-58943951D01*
X131827500Y-58951862D01*
X131827500Y-58967856D01*
X131829506Y-58983730D01*
X131830248Y-58991590D01*
X131833775Y-59047650D01*
X131836225Y-59055191D01*
X131836321Y-59055487D01*
X131841494Y-59078631D01*
X131841532Y-59078935D01*
X131841533Y-59078940D01*
X131842526Y-59086797D01*
X131845442Y-59094162D01*
X131845443Y-59094166D01*
X131863199Y-59139011D01*
X131865871Y-59146430D01*
X131883236Y-59199875D01*
X131887486Y-59206571D01*
X131887486Y-59206572D01*
X131887650Y-59206831D01*
X131898415Y-59227958D01*
X131898529Y-59228246D01*
X131898532Y-59228251D01*
X131901448Y-59235617D01*
X131906104Y-59242025D01*
X131906107Y-59242031D01*
X131934458Y-59281052D01*
X131938901Y-59287589D01*
X131969000Y-59335018D01*
X131974778Y-59340444D01*
X131974779Y-59340445D01*
X131975007Y-59340659D01*
X131990688Y-59358446D01*
X131995528Y-59365107D01*
X132001637Y-59370161D01*
X132001638Y-59370162D01*
X132038796Y-59400903D01*
X132044730Y-59406134D01*
X132079898Y-59439158D01*
X132079901Y-59439160D01*
X132085679Y-59444586D01*
X132092903Y-59448558D01*
X132112506Y-59461881D01*
X132112746Y-59462080D01*
X132112753Y-59462084D01*
X132118856Y-59467133D01*
X132158400Y-59485741D01*
X132169676Y-59491047D01*
X132176708Y-59494629D01*
X132225940Y-59521695D01*
X132233615Y-59523665D01*
X132233621Y-59523668D01*
X132233919Y-59523744D01*
X132256228Y-59531776D01*
X132256503Y-59531906D01*
X132256511Y-59531909D01*
X132263682Y-59535283D01*
X132318849Y-59545806D01*
X132326558Y-59547529D01*
X132360551Y-59556257D01*
X132373293Y-59559529D01*
X132373294Y-59559529D01*
X132380970Y-59561500D01*
X132389207Y-59561500D01*
X132412816Y-59563732D01*
X132413119Y-59563790D01*
X132413123Y-59563790D01*
X132420906Y-59565275D01*
X132476951Y-59561749D01*
X132484862Y-59561500D01*
X150116500Y-59561500D01*
X150184621Y-59581502D01*
X150231114Y-59635158D01*
X150242500Y-59687500D01*
X150242500Y-78026233D01*
X150241973Y-78037416D01*
X150240298Y-78044909D01*
X150240547Y-78052835D01*
X150240547Y-78052836D01*
X150242438Y-78112986D01*
X150242500Y-78116945D01*
X150242500Y-78144856D01*
X150242997Y-78148790D01*
X150242997Y-78148791D01*
X150243005Y-78148856D01*
X150243938Y-78160693D01*
X150245327Y-78204889D01*
X150250978Y-78224339D01*
X150254987Y-78243700D01*
X150257526Y-78263797D01*
X150260445Y-78271168D01*
X150260445Y-78271170D01*
X150273804Y-78304912D01*
X150277649Y-78316142D01*
X150289982Y-78358593D01*
X150294015Y-78365412D01*
X150294017Y-78365417D01*
X150300293Y-78376028D01*
X150308988Y-78393776D01*
X150316448Y-78412617D01*
X150321110Y-78419033D01*
X150321110Y-78419034D01*
X150342436Y-78448387D01*
X150348952Y-78458307D01*
X150359742Y-78476551D01*
X150371458Y-78496362D01*
X150385779Y-78510683D01*
X150398619Y-78525716D01*
X150410528Y-78542107D01*
X150416634Y-78547158D01*
X150444605Y-78570298D01*
X150453384Y-78578288D01*
X150651743Y-78776647D01*
X150659287Y-78784937D01*
X150663400Y-78791418D01*
X150669177Y-78796843D01*
X150713067Y-78838058D01*
X150715909Y-78840813D01*
X150735630Y-78860534D01*
X150738825Y-78863012D01*
X150747847Y-78870718D01*
X150780079Y-78900986D01*
X150787028Y-78904806D01*
X150797832Y-78910746D01*
X150814356Y-78921599D01*
X150830359Y-78934013D01*
X150870943Y-78951576D01*
X150881573Y-78956783D01*
X150920340Y-78978095D01*
X150928017Y-78980066D01*
X150928022Y-78980068D01*
X150939958Y-78983132D01*
X150958666Y-78989537D01*
X150977255Y-78997581D01*
X150985083Y-78998821D01*
X150985090Y-78998823D01*
X151020924Y-79004499D01*
X151032544Y-79006905D01*
X151067689Y-79015928D01*
X151075370Y-79017900D01*
X151095624Y-79017900D01*
X151115334Y-79019451D01*
X151135343Y-79022620D01*
X151143235Y-79021874D01*
X151179361Y-79018459D01*
X151191219Y-79017900D01*
X152511406Y-79017900D01*
X152579527Y-79037902D01*
X152614619Y-79071629D01*
X152721443Y-79224189D01*
X152724602Y-79228700D01*
X152886500Y-79390598D01*
X152891008Y-79393755D01*
X152891011Y-79393757D01*
X152922045Y-79415487D01*
X153074051Y-79521923D01*
X153079033Y-79524246D01*
X153079038Y-79524249D01*
X153113257Y-79540205D01*
X153166542Y-79587122D01*
X153186003Y-79655399D01*
X153165461Y-79723359D01*
X153113257Y-79768595D01*
X153079038Y-79784551D01*
X153079033Y-79784554D01*
X153074051Y-79786877D01*
X152969189Y-79860302D01*
X152891011Y-79915043D01*
X152891008Y-79915045D01*
X152886500Y-79918202D01*
X152724602Y-80080100D01*
X152721445Y-80084608D01*
X152721443Y-80084611D01*
X152614619Y-80237171D01*
X152559162Y-80281499D01*
X152511406Y-80290900D01*
X149984500Y-80290900D01*
X149916379Y-80270898D01*
X149869886Y-80217242D01*
X149858500Y-80164900D01*
X149858500Y-61419767D01*
X149859027Y-61408584D01*
X149860702Y-61401091D01*
X149858562Y-61333014D01*
X149858500Y-61329055D01*
X149858500Y-61301144D01*
X149857995Y-61297144D01*
X149857062Y-61285301D01*
X149855922Y-61249029D01*
X149855673Y-61241110D01*
X149850022Y-61221658D01*
X149846014Y-61202306D01*
X149844467Y-61190063D01*
X149843474Y-61182203D01*
X149840556Y-61174832D01*
X149827200Y-61141097D01*
X149823355Y-61129870D01*
X149822721Y-61127687D01*
X149811018Y-61087407D01*
X149800707Y-61069972D01*
X149792012Y-61052224D01*
X149784552Y-61033383D01*
X149758564Y-60997613D01*
X149752048Y-60987693D01*
X149733580Y-60956465D01*
X149733578Y-60956462D01*
X149729542Y-60949638D01*
X149715218Y-60935314D01*
X149702383Y-60920287D01*
X149690472Y-60903893D01*
X149656402Y-60875708D01*
X149647622Y-60867718D01*
X149601653Y-60821749D01*
X149594113Y-60813463D01*
X149590000Y-60806982D01*
X149540347Y-60760355D01*
X149537506Y-60757601D01*
X149517770Y-60737865D01*
X149514573Y-60735385D01*
X149505551Y-60727680D01*
X149479100Y-60702841D01*
X149473321Y-60697414D01*
X149466375Y-60693595D01*
X149466372Y-60693593D01*
X149455566Y-60687652D01*
X149439047Y-60676801D01*
X149433048Y-60672148D01*
X149423041Y-60664386D01*
X149415772Y-60661241D01*
X149415768Y-60661238D01*
X149382463Y-60646826D01*
X149371813Y-60641609D01*
X149333060Y-60620305D01*
X149313437Y-60615267D01*
X149294734Y-60608863D01*
X149283420Y-60603967D01*
X149283419Y-60603967D01*
X149276145Y-60600819D01*
X149268322Y-60599580D01*
X149268312Y-60599577D01*
X149232476Y-60593901D01*
X149220856Y-60591495D01*
X149185711Y-60582472D01*
X149185710Y-60582472D01*
X149178030Y-60580500D01*
X149157776Y-60580500D01*
X149138065Y-60578949D01*
X149125886Y-60577020D01*
X149118057Y-60575780D01*
X149110165Y-60576526D01*
X149074039Y-60579941D01*
X149062181Y-60580500D01*
X132915200Y-60580500D01*
X132847079Y-60560498D01*
X132827853Y-60544157D01*
X132827580Y-60544460D01*
X132822668Y-60540037D01*
X132818253Y-60535134D01*
X132663752Y-60422882D01*
X132657724Y-60420198D01*
X132657722Y-60420197D01*
X132495319Y-60347891D01*
X132495318Y-60347891D01*
X132489288Y-60345206D01*
X132395887Y-60325353D01*
X132308944Y-60306872D01*
X132308939Y-60306872D01*
X132302487Y-60305500D01*
X132111513Y-60305500D01*
X132105061Y-60306872D01*
X132105056Y-60306872D01*
X132018113Y-60325353D01*
X131924712Y-60345206D01*
X131918682Y-60347891D01*
X131918681Y-60347891D01*
X131756278Y-60420197D01*
X131756276Y-60420198D01*
X131750248Y-60422882D01*
X131595747Y-60535134D01*
X131591326Y-60540044D01*
X131591325Y-60540045D01*
X131482203Y-60661238D01*
X131467960Y-60677056D01*
X131372473Y-60842444D01*
X131313458Y-61024072D01*
X131312768Y-61030633D01*
X131312768Y-61030635D01*
X131302338Y-61129870D01*
X131293496Y-61214000D01*
X131294186Y-61220565D01*
X131312327Y-61393164D01*
X131313458Y-61403928D01*
X131372473Y-61585556D01*
X131467960Y-61750944D01*
X131595747Y-61892866D01*
X131750248Y-62005118D01*
X131756276Y-62007802D01*
X131756278Y-62007803D01*
X131918681Y-62080109D01*
X131924712Y-62082794D01*
X132018113Y-62102647D01*
X132105056Y-62121128D01*
X132105061Y-62121128D01*
X132111513Y-62122500D01*
X132302487Y-62122500D01*
X132308939Y-62121128D01*
X132308944Y-62121128D01*
X132395887Y-62102647D01*
X132489288Y-62082794D01*
X132495319Y-62080109D01*
X132657722Y-62007803D01*
X132657724Y-62007802D01*
X132663752Y-62005118D01*
X132818253Y-61892866D01*
X132822668Y-61887963D01*
X132827580Y-61883540D01*
X132828705Y-61884789D01*
X132882014Y-61851949D01*
X132915200Y-61847500D01*
X148465500Y-61847500D01*
X148533621Y-61867502D01*
X148580114Y-61921158D01*
X148591500Y-61973500D01*
X148591500Y-80820233D01*
X148590973Y-80831416D01*
X148589298Y-80838909D01*
X148589547Y-80846835D01*
X148589547Y-80846836D01*
X148591438Y-80906986D01*
X148591500Y-80910945D01*
X148591500Y-80938856D01*
X148591997Y-80942790D01*
X148591997Y-80942791D01*
X148592005Y-80942856D01*
X148592938Y-80954693D01*
X148594327Y-80998889D01*
X148599978Y-81018339D01*
X148603987Y-81037700D01*
X148606526Y-81057797D01*
X148609445Y-81065168D01*
X148609445Y-81065170D01*
X148622804Y-81098912D01*
X148626649Y-81110142D01*
X148636053Y-81142510D01*
X148638982Y-81152593D01*
X148643015Y-81159412D01*
X148643017Y-81159417D01*
X148649293Y-81170028D01*
X148657988Y-81187776D01*
X148665448Y-81206617D01*
X148670110Y-81213033D01*
X148670110Y-81213034D01*
X148691436Y-81242387D01*
X148697952Y-81252307D01*
X148708053Y-81269386D01*
X148720458Y-81290362D01*
X148734782Y-81304686D01*
X148747617Y-81319713D01*
X148759528Y-81336107D01*
X148765636Y-81341160D01*
X148765638Y-81341162D01*
X148788949Y-81360446D01*
X148794888Y-81365682D01*
X148808054Y-81378046D01*
X148810895Y-81380800D01*
X148830630Y-81400535D01*
X148833827Y-81403015D01*
X148842847Y-81410718D01*
X148875079Y-81440986D01*
X148882025Y-81444805D01*
X148882028Y-81444807D01*
X148892834Y-81450748D01*
X148909353Y-81461599D01*
X148925359Y-81474014D01*
X148932628Y-81477159D01*
X148932632Y-81477162D01*
X148965937Y-81491574D01*
X148976587Y-81496791D01*
X149015340Y-81518095D01*
X149023015Y-81520066D01*
X149023016Y-81520066D01*
X149034962Y-81523133D01*
X149053667Y-81529537D01*
X149072255Y-81537581D01*
X149080078Y-81538820D01*
X149080088Y-81538823D01*
X149115924Y-81544499D01*
X149127544Y-81546905D01*
X149162689Y-81555928D01*
X149170370Y-81557900D01*
X149190624Y-81557900D01*
X149210334Y-81559451D01*
X149230343Y-81562620D01*
X149238235Y-81561874D01*
X149274361Y-81558459D01*
X149286219Y-81557900D01*
X152511406Y-81557900D01*
X152579527Y-81577902D01*
X152614619Y-81611629D01*
X152710422Y-81748449D01*
X152724602Y-81768700D01*
X152886500Y-81930598D01*
X152891008Y-81933755D01*
X152891011Y-81933757D01*
X152952127Y-81976551D01*
X153074051Y-82061923D01*
X153079033Y-82064246D01*
X153079038Y-82064249D01*
X153113257Y-82080205D01*
X153166542Y-82127122D01*
X153186003Y-82195399D01*
X153165461Y-82263359D01*
X153113257Y-82308595D01*
X153079038Y-82324551D01*
X153079033Y-82324554D01*
X153074051Y-82326877D01*
X153028465Y-82358797D01*
X152891011Y-82455043D01*
X152891008Y-82455045D01*
X152886500Y-82458202D01*
X152724602Y-82620100D01*
X152721445Y-82624608D01*
X152721443Y-82624611D01*
X152718556Y-82628734D01*
X152593277Y-82807651D01*
X152590954Y-82812633D01*
X152590951Y-82812638D01*
X152505767Y-82995317D01*
X152496516Y-83015157D01*
X152495094Y-83020465D01*
X152495093Y-83020467D01*
X152440416Y-83224523D01*
X152437257Y-83236313D01*
X152417302Y-83464400D01*
X152437257Y-83692487D01*
X152438681Y-83697800D01*
X152438681Y-83697802D01*
X152461376Y-83782498D01*
X152496516Y-83913643D01*
X152498839Y-83918624D01*
X152498839Y-83918625D01*
X152590951Y-84116162D01*
X152590954Y-84116167D01*
X152593277Y-84121149D01*
X152724602Y-84308700D01*
X152886500Y-84470598D01*
X152891008Y-84473755D01*
X152891011Y-84473757D01*
X152951086Y-84515822D01*
X153074051Y-84601923D01*
X153079033Y-84604246D01*
X153079038Y-84604249D01*
X153113257Y-84620205D01*
X153166542Y-84667122D01*
X153186003Y-84735399D01*
X153165461Y-84803359D01*
X153113257Y-84848595D01*
X153079038Y-84864551D01*
X153079033Y-84864554D01*
X153074051Y-84866877D01*
X153036824Y-84892944D01*
X152891011Y-84995043D01*
X152891008Y-84995045D01*
X152886500Y-84998202D01*
X152724602Y-85160100D01*
X152721445Y-85164608D01*
X152721443Y-85164611D01*
X152707948Y-85183884D01*
X152593277Y-85347651D01*
X152590954Y-85352633D01*
X152590951Y-85352638D01*
X152505517Y-85535854D01*
X152496516Y-85555157D01*
X152495094Y-85560465D01*
X152495093Y-85560467D01*
X152464576Y-85674357D01*
X152437257Y-85776313D01*
X152417302Y-86004400D01*
X152437257Y-86232487D01*
X152438681Y-86237800D01*
X152438681Y-86237802D01*
X152478751Y-86387342D01*
X152496516Y-86453643D01*
X152498839Y-86458624D01*
X152498839Y-86458625D01*
X152590951Y-86656162D01*
X152590954Y-86656167D01*
X152593277Y-86661149D01*
X152724602Y-86848700D01*
X152886500Y-87010598D01*
X152891008Y-87013755D01*
X152891011Y-87013757D01*
X152964314Y-87065084D01*
X153074051Y-87141923D01*
X153079033Y-87144246D01*
X153079038Y-87144249D01*
X153113257Y-87160205D01*
X153166542Y-87207122D01*
X153186003Y-87275399D01*
X153165461Y-87343359D01*
X153113257Y-87388595D01*
X153079038Y-87404551D01*
X153079033Y-87404554D01*
X153074051Y-87406877D01*
X152969189Y-87480302D01*
X152891011Y-87535043D01*
X152891008Y-87535045D01*
X152886500Y-87538202D01*
X152724602Y-87700100D01*
X152593277Y-87887651D01*
X152590954Y-87892633D01*
X152590951Y-87892638D01*
X152498839Y-88090175D01*
X152496516Y-88095157D01*
X152495094Y-88100465D01*
X152495093Y-88100467D01*
X152449831Y-88269386D01*
X152437257Y-88316313D01*
X152417302Y-88544400D01*
X152437257Y-88772487D01*
X152438681Y-88777800D01*
X152438681Y-88777802D01*
X152486322Y-88955597D01*
X152496516Y-88993643D01*
X152498839Y-88998624D01*
X152498839Y-88998625D01*
X152590951Y-89196162D01*
X152590954Y-89196167D01*
X152593277Y-89201149D01*
X152610352Y-89225534D01*
X152703664Y-89358797D01*
X152724602Y-89388700D01*
X152886500Y-89550598D01*
X152891008Y-89553755D01*
X152891011Y-89553757D01*
X152925001Y-89577557D01*
X153074051Y-89681923D01*
X153079033Y-89684246D01*
X153079038Y-89684249D01*
X153113257Y-89700205D01*
X153166542Y-89747122D01*
X153186003Y-89815399D01*
X153165461Y-89883359D01*
X153113257Y-89928595D01*
X153079038Y-89944551D01*
X153079033Y-89944554D01*
X153074051Y-89946877D01*
X153009442Y-89992117D01*
X152891011Y-90075043D01*
X152891008Y-90075045D01*
X152886500Y-90078202D01*
X152724602Y-90240100D01*
X152593277Y-90427651D01*
X152590954Y-90432633D01*
X152590951Y-90432638D01*
X152510648Y-90604850D01*
X152496516Y-90635157D01*
X152495094Y-90640465D01*
X152495093Y-90640467D01*
X152490813Y-90656439D01*
X152437257Y-90856313D01*
X152417302Y-91084400D01*
X152437257Y-91312487D01*
X152496516Y-91533643D01*
X152498839Y-91538624D01*
X152498839Y-91538625D01*
X152590951Y-91736162D01*
X152590954Y-91736167D01*
X152593277Y-91741149D01*
X152613049Y-91769386D01*
X152705958Y-91902073D01*
X152724602Y-91928700D01*
X152886500Y-92090598D01*
X152891008Y-92093755D01*
X152891011Y-92093757D01*
X152953440Y-92137470D01*
X153074051Y-92221923D01*
X153079033Y-92224246D01*
X153079038Y-92224249D01*
X153113257Y-92240205D01*
X153166542Y-92287122D01*
X153186003Y-92355399D01*
X153165461Y-92423359D01*
X153113257Y-92468595D01*
X153079038Y-92484551D01*
X153079033Y-92484554D01*
X153074051Y-92486877D01*
X152996260Y-92541347D01*
X152891011Y-92615043D01*
X152891008Y-92615045D01*
X152886500Y-92618202D01*
X152724602Y-92780100D01*
X152721445Y-92784608D01*
X152721443Y-92784611D01*
X152676457Y-92848858D01*
X152593277Y-92967651D01*
X152590954Y-92972633D01*
X152590951Y-92972638D01*
X152542027Y-93077557D01*
X152496516Y-93175157D01*
X152495094Y-93180465D01*
X152495093Y-93180467D01*
X152457151Y-93322067D01*
X152437257Y-93396313D01*
X152417302Y-93624400D01*
X152437257Y-93852487D01*
X152438681Y-93857800D01*
X152438681Y-93857802D01*
X152494223Y-94065084D01*
X152496516Y-94073643D01*
X152498839Y-94078624D01*
X152498839Y-94078625D01*
X152590951Y-94276162D01*
X152590954Y-94276167D01*
X152593277Y-94281149D01*
X152724602Y-94468700D01*
X152886500Y-94630598D01*
X152891008Y-94633755D01*
X152891011Y-94633757D01*
X152969189Y-94688498D01*
X153074051Y-94761923D01*
X153079033Y-94764246D01*
X153079038Y-94764249D01*
X153113257Y-94780205D01*
X153166542Y-94827122D01*
X153186003Y-94895399D01*
X153165461Y-94963359D01*
X153113257Y-95008595D01*
X153079038Y-95024551D01*
X153079033Y-95024554D01*
X153074051Y-95026877D01*
X152969189Y-95100302D01*
X152891011Y-95155043D01*
X152891008Y-95155045D01*
X152886500Y-95158202D01*
X152724602Y-95320100D01*
X152593277Y-95507651D01*
X152590954Y-95512633D01*
X152590951Y-95512638D01*
X152498839Y-95710175D01*
X152496516Y-95715157D01*
X152495094Y-95720465D01*
X152495093Y-95720467D01*
X152452927Y-95877831D01*
X152437257Y-95936313D01*
X152417302Y-96164400D01*
X152437257Y-96392487D01*
X152438681Y-96397800D01*
X152438681Y-96397802D01*
X152482904Y-96562841D01*
X152496516Y-96613643D01*
X152498839Y-96618624D01*
X152498839Y-96618625D01*
X152590951Y-96816162D01*
X152590954Y-96816167D01*
X152593277Y-96821149D01*
X152639626Y-96887342D01*
X152684346Y-96951208D01*
X152724602Y-97008700D01*
X152886500Y-97170598D01*
X152891008Y-97173755D01*
X152891011Y-97173757D01*
X152920191Y-97194189D01*
X153074051Y-97301923D01*
X153079033Y-97304246D01*
X153079038Y-97304249D01*
X153113257Y-97320205D01*
X153166542Y-97367122D01*
X153186003Y-97435399D01*
X153165461Y-97503359D01*
X153113257Y-97548595D01*
X153079038Y-97564551D01*
X153079033Y-97564554D01*
X153074051Y-97566877D01*
X153034927Y-97594272D01*
X152891011Y-97695043D01*
X152891008Y-97695045D01*
X152886500Y-97698202D01*
X152724602Y-97860100D01*
X152593277Y-98047651D01*
X152590954Y-98052633D01*
X152590951Y-98052638D01*
X152502433Y-98242467D01*
X152496516Y-98255157D01*
X152495094Y-98260465D01*
X152495093Y-98260467D01*
X152438681Y-98470998D01*
X152437257Y-98476313D01*
X152417302Y-98704400D01*
X152437257Y-98932487D01*
X152438681Y-98937800D01*
X152438681Y-98937802D01*
X152494535Y-99146248D01*
X152496516Y-99153643D01*
X152498839Y-99158624D01*
X152498839Y-99158625D01*
X152590951Y-99356162D01*
X152590954Y-99356167D01*
X152593277Y-99361149D01*
X152724602Y-99548700D01*
X152886500Y-99710598D01*
X152891008Y-99713755D01*
X152891011Y-99713757D01*
X152969189Y-99768498D01*
X153074051Y-99841923D01*
X153079033Y-99844246D01*
X153079038Y-99844249D01*
X153113257Y-99860205D01*
X153166542Y-99907122D01*
X153186003Y-99975399D01*
X153165461Y-100043359D01*
X153113257Y-100088595D01*
X153079038Y-100104551D01*
X153079033Y-100104554D01*
X153074051Y-100106877D01*
X152978044Y-100174102D01*
X152891011Y-100235043D01*
X152891008Y-100235045D01*
X152886500Y-100238202D01*
X152724602Y-100400100D01*
X152721445Y-100404608D01*
X152721443Y-100404611D01*
X152682988Y-100459531D01*
X152593277Y-100587651D01*
X152590954Y-100592633D01*
X152590951Y-100592638D01*
X152527918Y-100727814D01*
X152496516Y-100795157D01*
X152495094Y-100800465D01*
X152495093Y-100800467D01*
X152441039Y-101002199D01*
X152437257Y-101016313D01*
X152417302Y-101244400D01*
X152437257Y-101472487D01*
X152438681Y-101477800D01*
X152438681Y-101477802D01*
X152455379Y-101540117D01*
X152496516Y-101693643D01*
X152498839Y-101698624D01*
X152498839Y-101698625D01*
X152590951Y-101896162D01*
X152590954Y-101896167D01*
X152593277Y-101901149D01*
X152724602Y-102088700D01*
X152886500Y-102250598D01*
X152891008Y-102253755D01*
X152891011Y-102253757D01*
X152969189Y-102308498D01*
X153074051Y-102381923D01*
X153079033Y-102384246D01*
X153079038Y-102384249D01*
X153113257Y-102400205D01*
X153166542Y-102447122D01*
X153186003Y-102515399D01*
X153165461Y-102583359D01*
X153113257Y-102628595D01*
X153079038Y-102644551D01*
X153079033Y-102644554D01*
X153074051Y-102646877D01*
X153021200Y-102683884D01*
X152891011Y-102775043D01*
X152891008Y-102775045D01*
X152886500Y-102778202D01*
X152724602Y-102940100D01*
X152721445Y-102944608D01*
X152721443Y-102944611D01*
X152666702Y-103022789D01*
X152593277Y-103127651D01*
X152590954Y-103132633D01*
X152590951Y-103132638D01*
X152524806Y-103274488D01*
X152496516Y-103335157D01*
X152495094Y-103340465D01*
X152495093Y-103340467D01*
X152450317Y-103507571D01*
X152437257Y-103556313D01*
X152417302Y-103784400D01*
X152437257Y-104012487D01*
X152496516Y-104233643D01*
X152498839Y-104238624D01*
X152498839Y-104238625D01*
X152590951Y-104436162D01*
X152590954Y-104436167D01*
X152593277Y-104441149D01*
X152596434Y-104445657D01*
X152703064Y-104597940D01*
X152724602Y-104628700D01*
X152886500Y-104790598D01*
X152891008Y-104793755D01*
X152891011Y-104793757D01*
X152926218Y-104818409D01*
X153074051Y-104921923D01*
X153079033Y-104924246D01*
X153079038Y-104924249D01*
X153276575Y-105016361D01*
X153281557Y-105018684D01*
X153286865Y-105020106D01*
X153286867Y-105020107D01*
X153497398Y-105076519D01*
X153497400Y-105076519D01*
X153502713Y-105077943D01*
X153730800Y-105097898D01*
X153958887Y-105077943D01*
X153964200Y-105076519D01*
X153964202Y-105076519D01*
X154174733Y-105020107D01*
X154174735Y-105020106D01*
X154180043Y-105018684D01*
X154185025Y-105016361D01*
X154382562Y-104924249D01*
X154382567Y-104924246D01*
X154387549Y-104921923D01*
X154535382Y-104818409D01*
X154570589Y-104793757D01*
X154570592Y-104793755D01*
X154575100Y-104790598D01*
X154736998Y-104628700D01*
X154758537Y-104597940D01*
X154865166Y-104445657D01*
X154868323Y-104441149D01*
X154870646Y-104436167D01*
X154870649Y-104436162D01*
X154962761Y-104238625D01*
X154962761Y-104238624D01*
X154965084Y-104233643D01*
X155024343Y-104012487D01*
X155044298Y-103784400D01*
X155024343Y-103556313D01*
X155011283Y-103507571D01*
X154966507Y-103340467D01*
X154966506Y-103340465D01*
X154965084Y-103335157D01*
X154936794Y-103274488D01*
X154870649Y-103132638D01*
X154870646Y-103132633D01*
X154868323Y-103127651D01*
X154794898Y-103022789D01*
X154740157Y-102944611D01*
X154740155Y-102944608D01*
X154736998Y-102940100D01*
X154575100Y-102778202D01*
X154570592Y-102775045D01*
X154570589Y-102775043D01*
X154440400Y-102683884D01*
X154387549Y-102646877D01*
X154382567Y-102644554D01*
X154382562Y-102644551D01*
X154348343Y-102628595D01*
X154295058Y-102581678D01*
X154275597Y-102513401D01*
X154296139Y-102445441D01*
X154348343Y-102400205D01*
X154382562Y-102384249D01*
X154382567Y-102384246D01*
X154387549Y-102381923D01*
X154492411Y-102308498D01*
X154570589Y-102253757D01*
X154570592Y-102253755D01*
X154575100Y-102250598D01*
X154736998Y-102088700D01*
X154740157Y-102084189D01*
X154846981Y-101931629D01*
X154902438Y-101887301D01*
X154950194Y-101877900D01*
X156110900Y-101877900D01*
X156179021Y-101897902D01*
X156225514Y-101951558D01*
X156236900Y-102003900D01*
X156236900Y-131320500D01*
X156216898Y-131388621D01*
X156163242Y-131435114D01*
X156110900Y-131446500D01*
X148079500Y-131446500D01*
X148011379Y-131426498D01*
X147964886Y-131372842D01*
X147953500Y-131320500D01*
X147953500Y-130029488D01*
X147973502Y-129961367D01*
X147988249Y-129944018D01*
X147987701Y-129943524D01*
X148111069Y-129806510D01*
X148111070Y-129806509D01*
X148115488Y-129801602D01*
X148210975Y-129636214D01*
X148269990Y-129454586D01*
X148289952Y-129264658D01*
X148269990Y-129074730D01*
X148210975Y-128893102D01*
X148115488Y-128727714D01*
X147987701Y-128585792D01*
X147833200Y-128473540D01*
X147827172Y-128470856D01*
X147827170Y-128470855D01*
X147664767Y-128398549D01*
X147664766Y-128398549D01*
X147658736Y-128395864D01*
X147565335Y-128376011D01*
X147478392Y-128357530D01*
X147478387Y-128357530D01*
X147471935Y-128356158D01*
X147280961Y-128356158D01*
X147274509Y-128357530D01*
X147274504Y-128357530D01*
X147187561Y-128376011D01*
X147094160Y-128395864D01*
X147088130Y-128398549D01*
X147088129Y-128398549D01*
X146925726Y-128470855D01*
X146925724Y-128470856D01*
X146919696Y-128473540D01*
X146765195Y-128585792D01*
X146637408Y-128727714D01*
X146541921Y-128893102D01*
X146482906Y-129074730D01*
X146462944Y-129264658D01*
X146482906Y-129454586D01*
X146541921Y-129636214D01*
X146637408Y-129801602D01*
X146654136Y-129820180D01*
X146684853Y-129884187D01*
X146686500Y-129904491D01*
X146686500Y-131320500D01*
X146666498Y-131388621D01*
X146612842Y-131435114D01*
X146560500Y-131446500D01*
X130533748Y-131446500D01*
X130465627Y-131426498D01*
X130419134Y-131372842D01*
X130407748Y-131320500D01*
X130407748Y-127944633D01*
X130427750Y-127876512D01*
X130440112Y-127860322D01*
X130443563Y-127856489D01*
X130456840Y-127841744D01*
X130552327Y-127676356D01*
X130611342Y-127494728D01*
X130631304Y-127304800D01*
X130630614Y-127298235D01*
X130612032Y-127121435D01*
X130612032Y-127121433D01*
X130611342Y-127114872D01*
X130552327Y-126933244D01*
X130456840Y-126767856D01*
X130329053Y-126625934D01*
X130174552Y-126513682D01*
X130168524Y-126510998D01*
X130168522Y-126510997D01*
X130006119Y-126438691D01*
X130006118Y-126438691D01*
X130000088Y-126436006D01*
X129906688Y-126416153D01*
X129819744Y-126397672D01*
X129819739Y-126397672D01*
X129813287Y-126396300D01*
X129622313Y-126396300D01*
X129615861Y-126397672D01*
X129615856Y-126397672D01*
X129528912Y-126416153D01*
X129435512Y-126436006D01*
X129429482Y-126438691D01*
X129429481Y-126438691D01*
X129267078Y-126510997D01*
X129267076Y-126510998D01*
X129261048Y-126513682D01*
X129106547Y-126625934D01*
X128978760Y-126767856D01*
X128883273Y-126933244D01*
X128824258Y-127114872D01*
X128823568Y-127121433D01*
X128823568Y-127121435D01*
X128804986Y-127298235D01*
X128804296Y-127304800D01*
X118618500Y-127304800D01*
X118618500Y-119898706D01*
X125543277Y-119898706D01*
X125548844Y-119987200D01*
X125552724Y-120048858D01*
X125553327Y-120058450D01*
X125555776Y-120065986D01*
X125555776Y-120065988D01*
X125588029Y-120165251D01*
X125602788Y-120210675D01*
X125688552Y-120345818D01*
X125805231Y-120455386D01*
X125945492Y-120532495D01*
X126100522Y-120572300D01*
X126381431Y-120572300D01*
X126401140Y-120573851D01*
X126421143Y-120577019D01*
X126427066Y-120576459D01*
X126493690Y-120598317D01*
X126506582Y-120608485D01*
X126511325Y-120612755D01*
X126515747Y-120617666D01*
X126670248Y-120729918D01*
X126676276Y-120732602D01*
X126676278Y-120732603D01*
X126838681Y-120804909D01*
X126844712Y-120807594D01*
X126938112Y-120827447D01*
X127025056Y-120845928D01*
X127025061Y-120845928D01*
X127031513Y-120847300D01*
X127222487Y-120847300D01*
X127228939Y-120845928D01*
X127228944Y-120845928D01*
X127315888Y-120827447D01*
X127409288Y-120807594D01*
X127415319Y-120804909D01*
X127577722Y-120732603D01*
X127577724Y-120732602D01*
X127583752Y-120729918D01*
X127738253Y-120617666D01*
X127855264Y-120487712D01*
X127861621Y-120480652D01*
X127861622Y-120480651D01*
X127866040Y-120475744D01*
X127961527Y-120310356D01*
X128020542Y-120128728D01*
X128023097Y-120104424D01*
X128039814Y-119945365D01*
X128040504Y-119938800D01*
X128039513Y-119929371D01*
X128021232Y-119755435D01*
X128021232Y-119755433D01*
X128020542Y-119748872D01*
X127961527Y-119567244D01*
X127957806Y-119560798D01*
X127924314Y-119502790D01*
X127866040Y-119401856D01*
X127825409Y-119356730D01*
X127820217Y-119350964D01*
X148751148Y-119350964D01*
X148764424Y-119553522D01*
X148765845Y-119559118D01*
X148765846Y-119559123D01*
X148786119Y-119638945D01*
X148814392Y-119750269D01*
X148816809Y-119755512D01*
X148854010Y-119836208D01*
X148899377Y-119934616D01*
X148902710Y-119939332D01*
X148986894Y-120058450D01*
X149016533Y-120100389D01*
X149161938Y-120242035D01*
X149330720Y-120354812D01*
X149336023Y-120357090D01*
X149336026Y-120357092D01*
X149424707Y-120395192D01*
X149517228Y-120434942D01*
X149583603Y-120449961D01*
X149709579Y-120478467D01*
X149709584Y-120478468D01*
X149715216Y-120479742D01*
X149720987Y-120479969D01*
X149720989Y-120479969D01*
X149780756Y-120482317D01*
X149918053Y-120487712D01*
X150024472Y-120472282D01*
X150113231Y-120459413D01*
X150113236Y-120459412D01*
X150118945Y-120458584D01*
X150124409Y-120456729D01*
X150124414Y-120456728D01*
X150305693Y-120395192D01*
X150305698Y-120395190D01*
X150311165Y-120393334D01*
X150488276Y-120294147D01*
X150509739Y-120276297D01*
X150639913Y-120168031D01*
X150644345Y-120164345D01*
X150726148Y-120065988D01*
X150770453Y-120012718D01*
X150770455Y-120012715D01*
X150774147Y-120008276D01*
X150873334Y-119831165D01*
X150875190Y-119825698D01*
X150875192Y-119825693D01*
X150936728Y-119644414D01*
X150936729Y-119644409D01*
X150938584Y-119638945D01*
X150939412Y-119633236D01*
X150939413Y-119633231D01*
X150967179Y-119441727D01*
X150967712Y-119438053D01*
X150969232Y-119380000D01*
X150950658Y-119177859D01*
X150949090Y-119172299D01*
X150897125Y-118988046D01*
X150897124Y-118988044D01*
X150895557Y-118982487D01*
X150884978Y-118961033D01*
X150808331Y-118805609D01*
X150805776Y-118800428D01*
X150684320Y-118637779D01*
X150535258Y-118499987D01*
X150530375Y-118496906D01*
X150530371Y-118496903D01*
X150368464Y-118394748D01*
X150363581Y-118391667D01*
X150175039Y-118316446D01*
X150169379Y-118315320D01*
X150169375Y-118315319D01*
X149981613Y-118277971D01*
X149981610Y-118277971D01*
X149975946Y-118276844D01*
X149970171Y-118276768D01*
X149970167Y-118276768D01*
X149868793Y-118275441D01*
X149772971Y-118274187D01*
X149767274Y-118275166D01*
X149767273Y-118275166D01*
X149578607Y-118307585D01*
X149572910Y-118308564D01*
X149382463Y-118378824D01*
X149208010Y-118482612D01*
X149203670Y-118486418D01*
X149203666Y-118486421D01*
X149183723Y-118503911D01*
X149055392Y-118616455D01*
X148929720Y-118775869D01*
X148927031Y-118780980D01*
X148927029Y-118780983D01*
X148914893Y-118804050D01*
X148835203Y-118955515D01*
X148775007Y-119149378D01*
X148751148Y-119350964D01*
X127820217Y-119350964D01*
X127742675Y-119264845D01*
X127742674Y-119264844D01*
X127738253Y-119259934D01*
X127583752Y-119147682D01*
X127577724Y-119144998D01*
X127577722Y-119144997D01*
X127415319Y-119072691D01*
X127415318Y-119072691D01*
X127409288Y-119070006D01*
X127314937Y-119049951D01*
X127228944Y-119031672D01*
X127228939Y-119031672D01*
X127222487Y-119030300D01*
X127031513Y-119030300D01*
X127022697Y-119032174D01*
X127021301Y-119032067D01*
X127018489Y-119032363D01*
X127018435Y-119031849D01*
X126951907Y-119026773D01*
X126895274Y-118983957D01*
X126870780Y-118917320D01*
X126870500Y-118908928D01*
X126870500Y-114470964D01*
X148751148Y-114470964D01*
X148764424Y-114673522D01*
X148765845Y-114679118D01*
X148765846Y-114679123D01*
X148786119Y-114758945D01*
X148814392Y-114870269D01*
X148816809Y-114875512D01*
X148854010Y-114956208D01*
X148899377Y-115054616D01*
X149016533Y-115220389D01*
X149161938Y-115362035D01*
X149330720Y-115474812D01*
X149336023Y-115477090D01*
X149336026Y-115477092D01*
X149424707Y-115515192D01*
X149517228Y-115554942D01*
X149590244Y-115571464D01*
X149709579Y-115598467D01*
X149709584Y-115598468D01*
X149715216Y-115599742D01*
X149720987Y-115599969D01*
X149720989Y-115599969D01*
X149780756Y-115602317D01*
X149918053Y-115607712D01*
X150018499Y-115593148D01*
X150113231Y-115579413D01*
X150113236Y-115579412D01*
X150118945Y-115578584D01*
X150124409Y-115576729D01*
X150124414Y-115576728D01*
X150305693Y-115515192D01*
X150305698Y-115515190D01*
X150311165Y-115513334D01*
X150488276Y-115414147D01*
X150550934Y-115362035D01*
X150639913Y-115288031D01*
X150644345Y-115284345D01*
X150774147Y-115128276D01*
X150873334Y-114951165D01*
X150875190Y-114945698D01*
X150875192Y-114945693D01*
X150936728Y-114764414D01*
X150936729Y-114764409D01*
X150938584Y-114758945D01*
X150939412Y-114753236D01*
X150939413Y-114753231D01*
X150967179Y-114561727D01*
X150967712Y-114558053D01*
X150969232Y-114500000D01*
X150950658Y-114297859D01*
X150946568Y-114283358D01*
X150897125Y-114108046D01*
X150897124Y-114108044D01*
X150895557Y-114102487D01*
X150884978Y-114081033D01*
X150808331Y-113925609D01*
X150805776Y-113920428D01*
X150684320Y-113757779D01*
X150535258Y-113619987D01*
X150530375Y-113616906D01*
X150530371Y-113616903D01*
X150368464Y-113514748D01*
X150363581Y-113511667D01*
X150175039Y-113436446D01*
X150169379Y-113435320D01*
X150169375Y-113435319D01*
X149981613Y-113397971D01*
X149981610Y-113397971D01*
X149975946Y-113396844D01*
X149970171Y-113396768D01*
X149970167Y-113396768D01*
X149868793Y-113395441D01*
X149772971Y-113394187D01*
X149767274Y-113395166D01*
X149767273Y-113395166D01*
X149578607Y-113427585D01*
X149572910Y-113428564D01*
X149382463Y-113498824D01*
X149208010Y-113602612D01*
X149203670Y-113606418D01*
X149203666Y-113606421D01*
X149183723Y-113623911D01*
X149055392Y-113736455D01*
X148929720Y-113895869D01*
X148927031Y-113900980D01*
X148927029Y-113900983D01*
X148914073Y-113925609D01*
X148835203Y-114075515D01*
X148775007Y-114269378D01*
X148751148Y-114470964D01*
X126870500Y-114470964D01*
X126870500Y-107226251D01*
X126890502Y-107158130D01*
X126944158Y-107111637D01*
X127014432Y-107101533D01*
X127055163Y-107114741D01*
X127078827Y-107127191D01*
X127083250Y-107128736D01*
X127083251Y-107128736D01*
X127221854Y-107177138D01*
X127318568Y-107210912D01*
X127568050Y-107258278D01*
X127688532Y-107263011D01*
X127817125Y-107268064D01*
X127817130Y-107268064D01*
X127821793Y-107268247D01*
X127920774Y-107257407D01*
X128069569Y-107241112D01*
X128069575Y-107241111D01*
X128074222Y-107240602D01*
X128128731Y-107226251D01*
X128315273Y-107177138D01*
X128319793Y-107175948D01*
X128493000Y-107101533D01*
X128548807Y-107077557D01*
X128548810Y-107077555D01*
X128553110Y-107075708D01*
X128557090Y-107073245D01*
X128557094Y-107073243D01*
X128765064Y-106944547D01*
X128765066Y-106944545D01*
X128769047Y-106942082D01*
X128875727Y-106851771D01*
X128959289Y-106781031D01*
X128959291Y-106781029D01*
X128962862Y-106778006D01*
X129130295Y-106587084D01*
X129267669Y-106373512D01*
X129371967Y-106141980D01*
X129440896Y-105897575D01*
X129472943Y-105645667D01*
X129475291Y-105556000D01*
X129456472Y-105302759D01*
X129400428Y-105055082D01*
X129349550Y-104924249D01*
X129310084Y-104822762D01*
X129310083Y-104822760D01*
X129308391Y-104818409D01*
X129292496Y-104790598D01*
X129184702Y-104601997D01*
X129184700Y-104601995D01*
X129182383Y-104597940D01*
X129025171Y-104398517D01*
X128849904Y-104233643D01*
X128843610Y-104227722D01*
X128843608Y-104227720D01*
X128840209Y-104224523D01*
X128657015Y-104097437D01*
X128635393Y-104082437D01*
X128635390Y-104082435D01*
X128631561Y-104079779D01*
X128627384Y-104077719D01*
X128627377Y-104077715D01*
X128407996Y-103969528D01*
X128407992Y-103969527D01*
X128403810Y-103967464D01*
X128277901Y-103927160D01*
X128219121Y-103887342D01*
X128191199Y-103822067D01*
X128203000Y-103752058D01*
X128250778Y-103699543D01*
X128284234Y-103685310D01*
X128285929Y-103684864D01*
X128319793Y-103675948D01*
X128493000Y-103601533D01*
X128548807Y-103577557D01*
X128548810Y-103577555D01*
X128553110Y-103575708D01*
X128557090Y-103573245D01*
X128557094Y-103573243D01*
X128765064Y-103444547D01*
X128765066Y-103444545D01*
X128769047Y-103442082D01*
X128776633Y-103435660D01*
X128959289Y-103281031D01*
X128959291Y-103281029D01*
X128962862Y-103278006D01*
X129130295Y-103087084D01*
X129163248Y-103035854D01*
X129265141Y-102877442D01*
X129267669Y-102873512D01*
X129371967Y-102641980D01*
X129440896Y-102397575D01*
X129460090Y-102246701D01*
X129472545Y-102148798D01*
X129472545Y-102148792D01*
X129472943Y-102145667D01*
X129473745Y-102115062D01*
X129475208Y-102059160D01*
X129475291Y-102056000D01*
X129475058Y-102052861D01*
X129475057Y-102052831D01*
X129472114Y-102013238D01*
X129487012Y-101943823D01*
X129537074Y-101893481D01*
X129597767Y-101877900D01*
X137271406Y-101877900D01*
X137339527Y-101897902D01*
X137374619Y-101931629D01*
X137481443Y-102084189D01*
X137484602Y-102088700D01*
X137646500Y-102250598D01*
X137651008Y-102253755D01*
X137651011Y-102253757D01*
X137729189Y-102308498D01*
X137834051Y-102381923D01*
X137839033Y-102384246D01*
X137839038Y-102384249D01*
X137873257Y-102400205D01*
X137926542Y-102447122D01*
X137946003Y-102515399D01*
X137925461Y-102583359D01*
X137873257Y-102628595D01*
X137839038Y-102644551D01*
X137839033Y-102644554D01*
X137834051Y-102646877D01*
X137781200Y-102683884D01*
X137651011Y-102775043D01*
X137651008Y-102775045D01*
X137646500Y-102778202D01*
X137484602Y-102940100D01*
X137481445Y-102944608D01*
X137481443Y-102944611D01*
X137426702Y-103022789D01*
X137353277Y-103127651D01*
X137350954Y-103132633D01*
X137350951Y-103132638D01*
X137284806Y-103274488D01*
X137256516Y-103335157D01*
X137255094Y-103340465D01*
X137255093Y-103340467D01*
X137210317Y-103507571D01*
X137197257Y-103556313D01*
X137177302Y-103784400D01*
X137197257Y-104012487D01*
X137256516Y-104233643D01*
X137258839Y-104238624D01*
X137258839Y-104238625D01*
X137350951Y-104436162D01*
X137350954Y-104436167D01*
X137353277Y-104441149D01*
X137356434Y-104445657D01*
X137463064Y-104597940D01*
X137484602Y-104628700D01*
X137646500Y-104790598D01*
X137651008Y-104793755D01*
X137651011Y-104793757D01*
X137686218Y-104818409D01*
X137834051Y-104921923D01*
X137839033Y-104924246D01*
X137839038Y-104924249D01*
X138036575Y-105016361D01*
X138041557Y-105018684D01*
X138046865Y-105020106D01*
X138046867Y-105020107D01*
X138257398Y-105076519D01*
X138257400Y-105076519D01*
X138262713Y-105077943D01*
X138490800Y-105097898D01*
X138718887Y-105077943D01*
X138724200Y-105076519D01*
X138724202Y-105076519D01*
X138934733Y-105020107D01*
X138934735Y-105020106D01*
X138940043Y-105018684D01*
X138945025Y-105016361D01*
X139142562Y-104924249D01*
X139142567Y-104924246D01*
X139147549Y-104921923D01*
X139295382Y-104818409D01*
X139330589Y-104793757D01*
X139330592Y-104793755D01*
X139335100Y-104790598D01*
X139496998Y-104628700D01*
X139518537Y-104597940D01*
X139625166Y-104445657D01*
X139628323Y-104441149D01*
X139630646Y-104436167D01*
X139630649Y-104436162D01*
X139722761Y-104238625D01*
X139722761Y-104238624D01*
X139725084Y-104233643D01*
X139784343Y-104012487D01*
X139804298Y-103784400D01*
X139784343Y-103556313D01*
X139771283Y-103507571D01*
X139726507Y-103340467D01*
X139726506Y-103340465D01*
X139725084Y-103335157D01*
X139696794Y-103274488D01*
X139630649Y-103132638D01*
X139630646Y-103132633D01*
X139628323Y-103127651D01*
X139554898Y-103022789D01*
X139500157Y-102944611D01*
X139500155Y-102944608D01*
X139496998Y-102940100D01*
X139335100Y-102778202D01*
X139330592Y-102775045D01*
X139330589Y-102775043D01*
X139200400Y-102683884D01*
X139147549Y-102646877D01*
X139142567Y-102644554D01*
X139142562Y-102644551D01*
X139108343Y-102628595D01*
X139055058Y-102581678D01*
X139035597Y-102513401D01*
X139056139Y-102445441D01*
X139108343Y-102400205D01*
X139142562Y-102384249D01*
X139142567Y-102384246D01*
X139147549Y-102381923D01*
X139252411Y-102308498D01*
X139330589Y-102253757D01*
X139330592Y-102253755D01*
X139335100Y-102250598D01*
X139496998Y-102088700D01*
X139628323Y-101901149D01*
X139630646Y-101896167D01*
X139630649Y-101896162D01*
X139722761Y-101698625D01*
X139722761Y-101698624D01*
X139725084Y-101693643D01*
X139766222Y-101540117D01*
X139782919Y-101477802D01*
X139782919Y-101477800D01*
X139784343Y-101472487D01*
X139804298Y-101244400D01*
X139784343Y-101016313D01*
X139780561Y-101002199D01*
X139726507Y-100800467D01*
X139726506Y-100800465D01*
X139725084Y-100795157D01*
X139693682Y-100727814D01*
X139630649Y-100592638D01*
X139630646Y-100592633D01*
X139628323Y-100587651D01*
X139538612Y-100459531D01*
X139500157Y-100404611D01*
X139500155Y-100404608D01*
X139496998Y-100400100D01*
X139335100Y-100238202D01*
X139330592Y-100235045D01*
X139330589Y-100235043D01*
X139243556Y-100174102D01*
X139147549Y-100106877D01*
X139142567Y-100104554D01*
X139142562Y-100104551D01*
X139108343Y-100088595D01*
X139055058Y-100041678D01*
X139035597Y-99973401D01*
X139056139Y-99905441D01*
X139108343Y-99860205D01*
X139142562Y-99844249D01*
X139142567Y-99844246D01*
X139147549Y-99841923D01*
X139252411Y-99768498D01*
X139330589Y-99713757D01*
X139330592Y-99713755D01*
X139335100Y-99710598D01*
X139496998Y-99548700D01*
X139628323Y-99361149D01*
X139630646Y-99356167D01*
X139630649Y-99356162D01*
X139722761Y-99158625D01*
X139722761Y-99158624D01*
X139725084Y-99153643D01*
X139727066Y-99146248D01*
X139782919Y-98937802D01*
X139782919Y-98937800D01*
X139784343Y-98932487D01*
X139804298Y-98704400D01*
X139784343Y-98476313D01*
X139782919Y-98470998D01*
X139726507Y-98260467D01*
X139726506Y-98260465D01*
X139725084Y-98255157D01*
X139719167Y-98242467D01*
X139630649Y-98052638D01*
X139630646Y-98052633D01*
X139628323Y-98047651D01*
X139496998Y-97860100D01*
X139335100Y-97698202D01*
X139330592Y-97695045D01*
X139330589Y-97695043D01*
X139186673Y-97594272D01*
X139147549Y-97566877D01*
X139142567Y-97564554D01*
X139142562Y-97564551D01*
X139108343Y-97548595D01*
X139055058Y-97501678D01*
X139035597Y-97433401D01*
X139056139Y-97365441D01*
X139108343Y-97320205D01*
X139142562Y-97304249D01*
X139142567Y-97304246D01*
X139147549Y-97301923D01*
X139301409Y-97194189D01*
X139330589Y-97173757D01*
X139330592Y-97173755D01*
X139335100Y-97170598D01*
X139496998Y-97008700D01*
X139537255Y-96951208D01*
X139581974Y-96887342D01*
X139628323Y-96821149D01*
X139630646Y-96816167D01*
X139630649Y-96816162D01*
X139722761Y-96618625D01*
X139722761Y-96618624D01*
X139725084Y-96613643D01*
X139738697Y-96562841D01*
X139782919Y-96397802D01*
X139782919Y-96397800D01*
X139784343Y-96392487D01*
X139804298Y-96164400D01*
X139784343Y-95936313D01*
X139768673Y-95877831D01*
X139726507Y-95720467D01*
X139726506Y-95720465D01*
X139725084Y-95715157D01*
X139722761Y-95710175D01*
X139630649Y-95512638D01*
X139630646Y-95512633D01*
X139628323Y-95507651D01*
X139496998Y-95320100D01*
X139335100Y-95158202D01*
X139330592Y-95155045D01*
X139330589Y-95155043D01*
X139252411Y-95100302D01*
X139147549Y-95026877D01*
X139142567Y-95024554D01*
X139142562Y-95024551D01*
X139108343Y-95008595D01*
X139055058Y-94961678D01*
X139035597Y-94893401D01*
X139056139Y-94825441D01*
X139108343Y-94780205D01*
X139142562Y-94764249D01*
X139142567Y-94764246D01*
X139147549Y-94761923D01*
X139252411Y-94688498D01*
X139330589Y-94633757D01*
X139330592Y-94633755D01*
X139335100Y-94630598D01*
X139496998Y-94468700D01*
X139628323Y-94281149D01*
X139630646Y-94276167D01*
X139630649Y-94276162D01*
X139722761Y-94078625D01*
X139722761Y-94078624D01*
X139725084Y-94073643D01*
X139727378Y-94065084D01*
X139782919Y-93857802D01*
X139782919Y-93857800D01*
X139784343Y-93852487D01*
X139804298Y-93624400D01*
X139784343Y-93396313D01*
X139764449Y-93322067D01*
X139726507Y-93180467D01*
X139726506Y-93180465D01*
X139725084Y-93175157D01*
X139679573Y-93077557D01*
X139630649Y-92972638D01*
X139630646Y-92972633D01*
X139628323Y-92967651D01*
X139545143Y-92848858D01*
X139500157Y-92784611D01*
X139500155Y-92784608D01*
X139496998Y-92780100D01*
X139335100Y-92618202D01*
X139330592Y-92615045D01*
X139330589Y-92615043D01*
X139225340Y-92541347D01*
X139147549Y-92486877D01*
X139142567Y-92484554D01*
X139142562Y-92484551D01*
X139108343Y-92468595D01*
X139055058Y-92421678D01*
X139035597Y-92353401D01*
X139056139Y-92285441D01*
X139108343Y-92240205D01*
X139142562Y-92224249D01*
X139142567Y-92224246D01*
X139147549Y-92221923D01*
X139268160Y-92137470D01*
X139330589Y-92093757D01*
X139330592Y-92093755D01*
X139335100Y-92090598D01*
X139496998Y-91928700D01*
X139515643Y-91902073D01*
X139608551Y-91769386D01*
X139628323Y-91741149D01*
X139630646Y-91736167D01*
X139630649Y-91736162D01*
X139722761Y-91538625D01*
X139722761Y-91538624D01*
X139725084Y-91533643D01*
X139784343Y-91312487D01*
X139804298Y-91084400D01*
X139784343Y-90856313D01*
X139730787Y-90656439D01*
X139726507Y-90640467D01*
X139726506Y-90640465D01*
X139725084Y-90635157D01*
X139710952Y-90604850D01*
X139630649Y-90432638D01*
X139630646Y-90432633D01*
X139628323Y-90427651D01*
X139496998Y-90240100D01*
X139335100Y-90078202D01*
X139330592Y-90075045D01*
X139330589Y-90075043D01*
X139212158Y-89992117D01*
X139147549Y-89946877D01*
X139142567Y-89944554D01*
X139142562Y-89944551D01*
X139108343Y-89928595D01*
X139055058Y-89881678D01*
X139035597Y-89813401D01*
X139056139Y-89745441D01*
X139108343Y-89700205D01*
X139142562Y-89684249D01*
X139142567Y-89684246D01*
X139147549Y-89681923D01*
X139296599Y-89577557D01*
X139330589Y-89553757D01*
X139330592Y-89553755D01*
X139335100Y-89550598D01*
X139496998Y-89388700D01*
X139517937Y-89358797D01*
X139611248Y-89225534D01*
X139628323Y-89201149D01*
X139630646Y-89196167D01*
X139630649Y-89196162D01*
X139722761Y-88998625D01*
X139722761Y-88998624D01*
X139725084Y-88993643D01*
X139735279Y-88955597D01*
X139782919Y-88777802D01*
X139782919Y-88777800D01*
X139784343Y-88772487D01*
X139804298Y-88544400D01*
X139784343Y-88316313D01*
X139771769Y-88269386D01*
X139726507Y-88100467D01*
X139726506Y-88100465D01*
X139725084Y-88095157D01*
X139722761Y-88090175D01*
X139630649Y-87892638D01*
X139630646Y-87892633D01*
X139628323Y-87887651D01*
X139496998Y-87700100D01*
X139335100Y-87538202D01*
X139330592Y-87535045D01*
X139330589Y-87535043D01*
X139252411Y-87480302D01*
X139147549Y-87406877D01*
X139142567Y-87404554D01*
X139142562Y-87404551D01*
X139108343Y-87388595D01*
X139055058Y-87341678D01*
X139035597Y-87273401D01*
X139056139Y-87205441D01*
X139108343Y-87160205D01*
X139142562Y-87144249D01*
X139142567Y-87144246D01*
X139147549Y-87141923D01*
X139257286Y-87065084D01*
X139330589Y-87013757D01*
X139330592Y-87013755D01*
X139335100Y-87010598D01*
X139496998Y-86848700D01*
X139628323Y-86661149D01*
X139630646Y-86656167D01*
X139630649Y-86656162D01*
X139722761Y-86458625D01*
X139722761Y-86458624D01*
X139725084Y-86453643D01*
X139742850Y-86387342D01*
X139782919Y-86237802D01*
X139782919Y-86237800D01*
X139784343Y-86232487D01*
X139804298Y-86004400D01*
X139784343Y-85776313D01*
X139757024Y-85674357D01*
X139726507Y-85560467D01*
X139726506Y-85560465D01*
X139725084Y-85555157D01*
X139716083Y-85535854D01*
X139630649Y-85352638D01*
X139630646Y-85352633D01*
X139628323Y-85347651D01*
X139513652Y-85183884D01*
X139500157Y-85164611D01*
X139500155Y-85164608D01*
X139496998Y-85160100D01*
X139335100Y-84998202D01*
X139330592Y-84995045D01*
X139330589Y-84995043D01*
X139184776Y-84892944D01*
X139147549Y-84866877D01*
X139142567Y-84864554D01*
X139142562Y-84864551D01*
X139108343Y-84848595D01*
X139055058Y-84801678D01*
X139035597Y-84733401D01*
X139056139Y-84665441D01*
X139108343Y-84620205D01*
X139142562Y-84604249D01*
X139142567Y-84604246D01*
X139147549Y-84601923D01*
X139270514Y-84515822D01*
X139330589Y-84473757D01*
X139330592Y-84473755D01*
X139335100Y-84470598D01*
X139496998Y-84308700D01*
X139628323Y-84121149D01*
X139630646Y-84116167D01*
X139630649Y-84116162D01*
X139722761Y-83918625D01*
X139722761Y-83918624D01*
X139725084Y-83913643D01*
X139760225Y-83782498D01*
X139782919Y-83697802D01*
X139782919Y-83697800D01*
X139784343Y-83692487D01*
X139804298Y-83464400D01*
X139784343Y-83236313D01*
X139781184Y-83224523D01*
X139726507Y-83020467D01*
X139726506Y-83020465D01*
X139725084Y-83015157D01*
X139715833Y-82995317D01*
X139630649Y-82812638D01*
X139630646Y-82812633D01*
X139628323Y-82807651D01*
X139503044Y-82628734D01*
X139500157Y-82624611D01*
X139500155Y-82624608D01*
X139496998Y-82620100D01*
X139335100Y-82458202D01*
X139330592Y-82455045D01*
X139330589Y-82455043D01*
X139193135Y-82358797D01*
X139147549Y-82326877D01*
X139142567Y-82324554D01*
X139142562Y-82324551D01*
X139108343Y-82308595D01*
X139055058Y-82261678D01*
X139035597Y-82193401D01*
X139056139Y-82125441D01*
X139108343Y-82080205D01*
X139142562Y-82064249D01*
X139142567Y-82064246D01*
X139147549Y-82061923D01*
X139269473Y-81976551D01*
X139330589Y-81933757D01*
X139330592Y-81933755D01*
X139335100Y-81930598D01*
X139496998Y-81768700D01*
X139628323Y-81581149D01*
X139630646Y-81576167D01*
X139630649Y-81576162D01*
X139722761Y-81378625D01*
X139722761Y-81378624D01*
X139725084Y-81373643D01*
X139739533Y-81319721D01*
X139782919Y-81157802D01*
X139782919Y-81157800D01*
X139784343Y-81152487D01*
X139804298Y-80924400D01*
X139784343Y-80696313D01*
X139782919Y-80690998D01*
X139726507Y-80480467D01*
X139726506Y-80480465D01*
X139725084Y-80475157D01*
X139692002Y-80404211D01*
X139630649Y-80272638D01*
X139630646Y-80272633D01*
X139628323Y-80267651D01*
X139514328Y-80104850D01*
X139500157Y-80084611D01*
X139500155Y-80084608D01*
X139496998Y-80080100D01*
X139335100Y-79918202D01*
X139330592Y-79915045D01*
X139330589Y-79915043D01*
X139252411Y-79860302D01*
X139147549Y-79786877D01*
X139142567Y-79784554D01*
X139142562Y-79784551D01*
X139108343Y-79768595D01*
X139055058Y-79721678D01*
X139035597Y-79653401D01*
X139056139Y-79585441D01*
X139108343Y-79540205D01*
X139142562Y-79524249D01*
X139142567Y-79524246D01*
X139147549Y-79521923D01*
X139299555Y-79415487D01*
X139330589Y-79393757D01*
X139330592Y-79393755D01*
X139335100Y-79390598D01*
X139496998Y-79228700D01*
X139509454Y-79210912D01*
X139566995Y-79128734D01*
X139628323Y-79041149D01*
X139630646Y-79036167D01*
X139630649Y-79036162D01*
X139722761Y-78838625D01*
X139722761Y-78838624D01*
X139725084Y-78833643D01*
X139738376Y-78784039D01*
X139782919Y-78617802D01*
X139782919Y-78617800D01*
X139784343Y-78612487D01*
X139804298Y-78384400D01*
X139784343Y-78156313D01*
X139782345Y-78148856D01*
X139726507Y-77940467D01*
X139726506Y-77940465D01*
X139725084Y-77935157D01*
X139709657Y-77902073D01*
X139630649Y-77732638D01*
X139630646Y-77732633D01*
X139628323Y-77727651D01*
X139510344Y-77559160D01*
X139500157Y-77544611D01*
X139500155Y-77544608D01*
X139496998Y-77540100D01*
X139335100Y-77378202D01*
X139330592Y-77375045D01*
X139330589Y-77375043D01*
X139234000Y-77307411D01*
X139147549Y-77246877D01*
X139142567Y-77244554D01*
X139142562Y-77244551D01*
X139107751Y-77228319D01*
X139054466Y-77181402D01*
X139035005Y-77113125D01*
X139055547Y-77045165D01*
X139107751Y-76999929D01*
X139142311Y-76983814D01*
X139151807Y-76978331D01*
X139330267Y-76853372D01*
X139338675Y-76846316D01*
X139492716Y-76692275D01*
X139499772Y-76683867D01*
X139624731Y-76505407D01*
X139630214Y-76495911D01*
X139722290Y-76298453D01*
X139726036Y-76288161D01*
X139772194Y-76115897D01*
X139771858Y-76101801D01*
X139763916Y-76098400D01*
X137222833Y-76098400D01*
X137209302Y-76102373D01*
X137208073Y-76110922D01*
X137255564Y-76288161D01*
X137259310Y-76298453D01*
X137351386Y-76495911D01*
X137356869Y-76505407D01*
X137481828Y-76683867D01*
X137488884Y-76692275D01*
X137642925Y-76846316D01*
X137651333Y-76853372D01*
X137829793Y-76978331D01*
X137839289Y-76983814D01*
X137873849Y-76999929D01*
X137927134Y-77046846D01*
X137946595Y-77115123D01*
X137926053Y-77183083D01*
X137873849Y-77228319D01*
X137839038Y-77244551D01*
X137839033Y-77244554D01*
X137834051Y-77246877D01*
X137747600Y-77307411D01*
X137651011Y-77375043D01*
X137651008Y-77375045D01*
X137646500Y-77378202D01*
X137484602Y-77540100D01*
X137481445Y-77544608D01*
X137481443Y-77544611D01*
X137471256Y-77559160D01*
X137353277Y-77727651D01*
X137350954Y-77732633D01*
X137350951Y-77732638D01*
X137271943Y-77902073D01*
X137256516Y-77935157D01*
X137255094Y-77940465D01*
X137255093Y-77940467D01*
X137199255Y-78148856D01*
X137197257Y-78156313D01*
X137177302Y-78384400D01*
X137197257Y-78612487D01*
X137198681Y-78617800D01*
X137198681Y-78617802D01*
X137243225Y-78784039D01*
X137256516Y-78833643D01*
X137258839Y-78838624D01*
X137258839Y-78838625D01*
X137350951Y-79036162D01*
X137350954Y-79036167D01*
X137353277Y-79041149D01*
X137414605Y-79128734D01*
X137472147Y-79210912D01*
X137484602Y-79228700D01*
X137646500Y-79390598D01*
X137651008Y-79393755D01*
X137651011Y-79393757D01*
X137682045Y-79415487D01*
X137834051Y-79521923D01*
X137839033Y-79524246D01*
X137839038Y-79524249D01*
X137873257Y-79540205D01*
X137926542Y-79587122D01*
X137946003Y-79655399D01*
X137925461Y-79723359D01*
X137873257Y-79768595D01*
X137839038Y-79784551D01*
X137839033Y-79784554D01*
X137834051Y-79786877D01*
X137729189Y-79860302D01*
X137651011Y-79915043D01*
X137651008Y-79915045D01*
X137646500Y-79918202D01*
X137484602Y-80080100D01*
X137481445Y-80084608D01*
X137481443Y-80084611D01*
X137467272Y-80104850D01*
X137353277Y-80267651D01*
X137350954Y-80272633D01*
X137350951Y-80272638D01*
X137289598Y-80404211D01*
X137256516Y-80475157D01*
X137255094Y-80480465D01*
X137255093Y-80480467D01*
X137198681Y-80690998D01*
X137197257Y-80696313D01*
X137177302Y-80924400D01*
X137197257Y-81152487D01*
X137198681Y-81157800D01*
X137198681Y-81157802D01*
X137242068Y-81319721D01*
X137256516Y-81373643D01*
X137258839Y-81378624D01*
X137258839Y-81378625D01*
X137350951Y-81576162D01*
X137350954Y-81576167D01*
X137353277Y-81581149D01*
X137484602Y-81768700D01*
X137646500Y-81930598D01*
X137651008Y-81933755D01*
X137651011Y-81933757D01*
X137712127Y-81976551D01*
X137834051Y-82061923D01*
X137839033Y-82064246D01*
X137839038Y-82064249D01*
X137873257Y-82080205D01*
X137926542Y-82127122D01*
X137946003Y-82195399D01*
X137925461Y-82263359D01*
X137873257Y-82308595D01*
X137839038Y-82324551D01*
X137839033Y-82324554D01*
X137834051Y-82326877D01*
X137788465Y-82358797D01*
X137651011Y-82455043D01*
X137651008Y-82455045D01*
X137646500Y-82458202D01*
X137484602Y-82620100D01*
X137481445Y-82624608D01*
X137481443Y-82624611D01*
X137478556Y-82628734D01*
X137353277Y-82807651D01*
X137350954Y-82812633D01*
X137350951Y-82812638D01*
X137265767Y-82995317D01*
X137256516Y-83015157D01*
X137255094Y-83020465D01*
X137255093Y-83020467D01*
X137200416Y-83224523D01*
X137197257Y-83236313D01*
X137177302Y-83464400D01*
X137197257Y-83692487D01*
X137198681Y-83697800D01*
X137198681Y-83697802D01*
X137221376Y-83782498D01*
X137256516Y-83913643D01*
X137258839Y-83918624D01*
X137258839Y-83918625D01*
X137350951Y-84116162D01*
X137350954Y-84116167D01*
X137353277Y-84121149D01*
X137484602Y-84308700D01*
X137646500Y-84470598D01*
X137651008Y-84473755D01*
X137651011Y-84473757D01*
X137711086Y-84515822D01*
X137834051Y-84601923D01*
X137839033Y-84604246D01*
X137839038Y-84604249D01*
X137873257Y-84620205D01*
X137926542Y-84667122D01*
X137946003Y-84735399D01*
X137925461Y-84803359D01*
X137873257Y-84848595D01*
X137839038Y-84864551D01*
X137839033Y-84864554D01*
X137834051Y-84866877D01*
X137796824Y-84892944D01*
X137651011Y-84995043D01*
X137651008Y-84995045D01*
X137646500Y-84998202D01*
X137484602Y-85160100D01*
X137481445Y-85164608D01*
X137481443Y-85164611D01*
X137467948Y-85183884D01*
X137353277Y-85347651D01*
X137350954Y-85352633D01*
X137350951Y-85352638D01*
X137265517Y-85535854D01*
X137256516Y-85555157D01*
X137255094Y-85560465D01*
X137255093Y-85560467D01*
X137224576Y-85674357D01*
X137197257Y-85776313D01*
X137177302Y-86004400D01*
X137197257Y-86232487D01*
X137198681Y-86237800D01*
X137198681Y-86237802D01*
X137238751Y-86387342D01*
X137256516Y-86453643D01*
X137258839Y-86458624D01*
X137258839Y-86458625D01*
X137350951Y-86656162D01*
X137350954Y-86656167D01*
X137353277Y-86661149D01*
X137484602Y-86848700D01*
X137646500Y-87010598D01*
X137651008Y-87013755D01*
X137651011Y-87013757D01*
X137724314Y-87065084D01*
X137834051Y-87141923D01*
X137839033Y-87144246D01*
X137839038Y-87144249D01*
X137873257Y-87160205D01*
X137926542Y-87207122D01*
X137946003Y-87275399D01*
X137925461Y-87343359D01*
X137873257Y-87388595D01*
X137839038Y-87404551D01*
X137839033Y-87404554D01*
X137834051Y-87406877D01*
X137729189Y-87480302D01*
X137651011Y-87535043D01*
X137651008Y-87535045D01*
X137646500Y-87538202D01*
X137484602Y-87700100D01*
X137353277Y-87887651D01*
X137350954Y-87892633D01*
X137350951Y-87892638D01*
X137258839Y-88090175D01*
X137256516Y-88095157D01*
X137255094Y-88100465D01*
X137255093Y-88100467D01*
X137209831Y-88269386D01*
X137197257Y-88316313D01*
X137177302Y-88544400D01*
X137197257Y-88772487D01*
X137198681Y-88777800D01*
X137198681Y-88777802D01*
X137246322Y-88955597D01*
X137256516Y-88993643D01*
X137258839Y-88998624D01*
X137258839Y-88998625D01*
X137350951Y-89196162D01*
X137350954Y-89196167D01*
X137353277Y-89201149D01*
X137370352Y-89225534D01*
X137463664Y-89358797D01*
X137484602Y-89388700D01*
X137646500Y-89550598D01*
X137651008Y-89553755D01*
X137651011Y-89553757D01*
X137685001Y-89577557D01*
X137834051Y-89681923D01*
X137839033Y-89684246D01*
X137839038Y-89684249D01*
X137873257Y-89700205D01*
X137926542Y-89747122D01*
X137946003Y-89815399D01*
X137925461Y-89883359D01*
X137873257Y-89928595D01*
X137839038Y-89944551D01*
X137839033Y-89944554D01*
X137834051Y-89946877D01*
X137769442Y-89992117D01*
X137651011Y-90075043D01*
X137651008Y-90075045D01*
X137646500Y-90078202D01*
X137484602Y-90240100D01*
X137353277Y-90427651D01*
X137350954Y-90432633D01*
X137350951Y-90432638D01*
X137270648Y-90604850D01*
X137256516Y-90635157D01*
X137255094Y-90640465D01*
X137255093Y-90640467D01*
X137250813Y-90656439D01*
X137197257Y-90856313D01*
X137177302Y-91084400D01*
X137197257Y-91312487D01*
X137256516Y-91533643D01*
X137258839Y-91538624D01*
X137258839Y-91538625D01*
X137350951Y-91736162D01*
X137350954Y-91736167D01*
X137353277Y-91741149D01*
X137373049Y-91769386D01*
X137465958Y-91902073D01*
X137484602Y-91928700D01*
X137646500Y-92090598D01*
X137651008Y-92093755D01*
X137651011Y-92093757D01*
X137713440Y-92137470D01*
X137834051Y-92221923D01*
X137839033Y-92224246D01*
X137839038Y-92224249D01*
X137873257Y-92240205D01*
X137926542Y-92287122D01*
X137946003Y-92355399D01*
X137925461Y-92423359D01*
X137873257Y-92468595D01*
X137839038Y-92484551D01*
X137839033Y-92484554D01*
X137834051Y-92486877D01*
X137756260Y-92541347D01*
X137651011Y-92615043D01*
X137651008Y-92615045D01*
X137646500Y-92618202D01*
X137484602Y-92780100D01*
X137481445Y-92784608D01*
X137481443Y-92784611D01*
X137436457Y-92848858D01*
X137353277Y-92967651D01*
X137350954Y-92972633D01*
X137350951Y-92972638D01*
X137302027Y-93077557D01*
X137256516Y-93175157D01*
X137255094Y-93180465D01*
X137255093Y-93180467D01*
X137217151Y-93322067D01*
X137197257Y-93396313D01*
X137177302Y-93624400D01*
X137197257Y-93852487D01*
X137198681Y-93857800D01*
X137198681Y-93857802D01*
X137254223Y-94065084D01*
X137256516Y-94073643D01*
X137258839Y-94078624D01*
X137258839Y-94078625D01*
X137350951Y-94276162D01*
X137350954Y-94276167D01*
X137353277Y-94281149D01*
X137484602Y-94468700D01*
X137646500Y-94630598D01*
X137651008Y-94633755D01*
X137651011Y-94633757D01*
X137729189Y-94688498D01*
X137834051Y-94761923D01*
X137839033Y-94764246D01*
X137839038Y-94764249D01*
X137873257Y-94780205D01*
X137926542Y-94827122D01*
X137946003Y-94895399D01*
X137925461Y-94963359D01*
X137873257Y-95008595D01*
X137839038Y-95024551D01*
X137839033Y-95024554D01*
X137834051Y-95026877D01*
X137729189Y-95100302D01*
X137651011Y-95155043D01*
X137651008Y-95155045D01*
X137646500Y-95158202D01*
X137484602Y-95320100D01*
X137353277Y-95507651D01*
X137350954Y-95512633D01*
X137350951Y-95512638D01*
X137258839Y-95710175D01*
X137256516Y-95715157D01*
X137255094Y-95720465D01*
X137255093Y-95720467D01*
X137212927Y-95877831D01*
X137197257Y-95936313D01*
X137177302Y-96164400D01*
X137197257Y-96392487D01*
X137198681Y-96397800D01*
X137198681Y-96397802D01*
X137242904Y-96562841D01*
X137256516Y-96613643D01*
X137258839Y-96618624D01*
X137258839Y-96618625D01*
X137350951Y-96816162D01*
X137350954Y-96816167D01*
X137353277Y-96821149D01*
X137399626Y-96887342D01*
X137444346Y-96951208D01*
X137484602Y-97008700D01*
X137646500Y-97170598D01*
X137651008Y-97173755D01*
X137651011Y-97173757D01*
X137680191Y-97194189D01*
X137834051Y-97301923D01*
X137839033Y-97304246D01*
X137839038Y-97304249D01*
X137873257Y-97320205D01*
X137926542Y-97367122D01*
X137946003Y-97435399D01*
X137925461Y-97503359D01*
X137873257Y-97548595D01*
X137839038Y-97564551D01*
X137839033Y-97564554D01*
X137834051Y-97566877D01*
X137794927Y-97594272D01*
X137651011Y-97695043D01*
X137651008Y-97695045D01*
X137646500Y-97698202D01*
X137484602Y-97860100D01*
X137353277Y-98047651D01*
X137350954Y-98052633D01*
X137350951Y-98052638D01*
X137262433Y-98242467D01*
X137256516Y-98255157D01*
X137255094Y-98260465D01*
X137255093Y-98260467D01*
X137198681Y-98470998D01*
X137197257Y-98476313D01*
X137177302Y-98704400D01*
X137197257Y-98932487D01*
X137198681Y-98937800D01*
X137198681Y-98937802D01*
X137254535Y-99146248D01*
X137256516Y-99153643D01*
X137258839Y-99158624D01*
X137258839Y-99158625D01*
X137350951Y-99356162D01*
X137350954Y-99356167D01*
X137353277Y-99361149D01*
X137484602Y-99548700D01*
X137646500Y-99710598D01*
X137651008Y-99713755D01*
X137651011Y-99713757D01*
X137729189Y-99768498D01*
X137834051Y-99841923D01*
X137839033Y-99844246D01*
X137839038Y-99844249D01*
X137873257Y-99860205D01*
X137926542Y-99907122D01*
X137946003Y-99975399D01*
X137925461Y-100043359D01*
X137873257Y-100088595D01*
X137839038Y-100104551D01*
X137839033Y-100104554D01*
X137834051Y-100106877D01*
X137738044Y-100174102D01*
X137651011Y-100235043D01*
X137651008Y-100235045D01*
X137646500Y-100238202D01*
X137484602Y-100400100D01*
X137481445Y-100404608D01*
X137481443Y-100404611D01*
X137374619Y-100557171D01*
X137319162Y-100601499D01*
X137271406Y-100610900D01*
X128715848Y-100610900D01*
X128644030Y-100588429D01*
X128644001Y-100588409D01*
X128631561Y-100579779D01*
X128453801Y-100492117D01*
X128407996Y-100469528D01*
X128407992Y-100469527D01*
X128403810Y-100467464D01*
X128277901Y-100427160D01*
X128219121Y-100387342D01*
X128191199Y-100322067D01*
X128203000Y-100252058D01*
X128250778Y-100199543D01*
X128284234Y-100185310D01*
X128285929Y-100184864D01*
X128319793Y-100175948D01*
X128438353Y-100125011D01*
X128548807Y-100077557D01*
X128548810Y-100077555D01*
X128553110Y-100075708D01*
X128557090Y-100073245D01*
X128557094Y-100073243D01*
X128765064Y-99944547D01*
X128765066Y-99944545D01*
X128769047Y-99942082D01*
X128864166Y-99861558D01*
X128959289Y-99781031D01*
X128959291Y-99781029D01*
X128962862Y-99778006D01*
X129130295Y-99587084D01*
X129154985Y-99548700D01*
X129265141Y-99377442D01*
X129267669Y-99373512D01*
X129371967Y-99141980D01*
X129440896Y-98897575D01*
X129458382Y-98760126D01*
X129472545Y-98648798D01*
X129472545Y-98648792D01*
X129472943Y-98645667D01*
X129473745Y-98615062D01*
X129475208Y-98559160D01*
X129475291Y-98556000D01*
X129471046Y-98498873D01*
X129456818Y-98307411D01*
X129456817Y-98307407D01*
X129456472Y-98302759D01*
X129446903Y-98260467D01*
X129401459Y-98059639D01*
X129400428Y-98055082D01*
X129341758Y-97904211D01*
X129310084Y-97822762D01*
X129310083Y-97822760D01*
X129308391Y-97818409D01*
X129287866Y-97782498D01*
X129184702Y-97601997D01*
X129184700Y-97601995D01*
X129182383Y-97597940D01*
X129025171Y-97398517D01*
X128840209Y-97224523D01*
X128796483Y-97194189D01*
X128635393Y-97082437D01*
X128635390Y-97082435D01*
X128631561Y-97079779D01*
X128627384Y-97077719D01*
X128627377Y-97077715D01*
X128407996Y-96969528D01*
X128407992Y-96969527D01*
X128403810Y-96967464D01*
X128277901Y-96927160D01*
X128219121Y-96887342D01*
X128191199Y-96822067D01*
X128203000Y-96752058D01*
X128250778Y-96699543D01*
X128284234Y-96685310D01*
X128285929Y-96684864D01*
X128319793Y-96675948D01*
X128477173Y-96608333D01*
X128548807Y-96577557D01*
X128548810Y-96577555D01*
X128553110Y-96575708D01*
X128557090Y-96573245D01*
X128557094Y-96573243D01*
X128765064Y-96444547D01*
X128765066Y-96444545D01*
X128769047Y-96442082D01*
X128828957Y-96391365D01*
X128959289Y-96281031D01*
X128959291Y-96281029D01*
X128962862Y-96278006D01*
X129130295Y-96087084D01*
X129163248Y-96035854D01*
X129265141Y-95877442D01*
X129267669Y-95873512D01*
X129371967Y-95641980D01*
X129440896Y-95397575D01*
X129458382Y-95260126D01*
X129472545Y-95148798D01*
X129472545Y-95148792D01*
X129472943Y-95145667D01*
X129473745Y-95115062D01*
X129475208Y-95059160D01*
X129475291Y-95056000D01*
X129471046Y-94998873D01*
X129456818Y-94807411D01*
X129456817Y-94807407D01*
X129456472Y-94802759D01*
X129446518Y-94758766D01*
X129401459Y-94559639D01*
X129400428Y-94555082D01*
X129382138Y-94508050D01*
X129310084Y-94322762D01*
X129310083Y-94322760D01*
X129308391Y-94318409D01*
X129287095Y-94281149D01*
X129184702Y-94101997D01*
X129184700Y-94101995D01*
X129182383Y-94097940D01*
X129025171Y-93898517D01*
X128840209Y-93724523D01*
X128796483Y-93694189D01*
X128635393Y-93582437D01*
X128635390Y-93582435D01*
X128631561Y-93579779D01*
X128627384Y-93577719D01*
X128627377Y-93577715D01*
X128407996Y-93469528D01*
X128407992Y-93469527D01*
X128403810Y-93467464D01*
X128277901Y-93427160D01*
X128219121Y-93387342D01*
X128191199Y-93322067D01*
X128203000Y-93252058D01*
X128250778Y-93199543D01*
X128284234Y-93185310D01*
X128285929Y-93184864D01*
X128319793Y-93175948D01*
X128438353Y-93125011D01*
X128548807Y-93077557D01*
X128548810Y-93077555D01*
X128553110Y-93075708D01*
X128557090Y-93073245D01*
X128557094Y-93073243D01*
X128765064Y-92944547D01*
X128765066Y-92944545D01*
X128769047Y-92942082D01*
X128867428Y-92858797D01*
X128959289Y-92781031D01*
X128959291Y-92781029D01*
X128962862Y-92778006D01*
X129130295Y-92587084D01*
X129163248Y-92535854D01*
X129265141Y-92377442D01*
X129267669Y-92373512D01*
X129371967Y-92141980D01*
X129440896Y-91897575D01*
X129460223Y-91745657D01*
X129472545Y-91648798D01*
X129472545Y-91648792D01*
X129472943Y-91645667D01*
X129473745Y-91615062D01*
X129475208Y-91559160D01*
X129475291Y-91556000D01*
X129471046Y-91498873D01*
X129456818Y-91307411D01*
X129456817Y-91307407D01*
X129456472Y-91302759D01*
X129442830Y-91242467D01*
X129401459Y-91059639D01*
X129400428Y-91055082D01*
X129341758Y-90904211D01*
X129310084Y-90822762D01*
X129310083Y-90822760D01*
X129308391Y-90818409D01*
X129287866Y-90782498D01*
X129184702Y-90601997D01*
X129184700Y-90601995D01*
X129182383Y-90597940D01*
X129025171Y-90398517D01*
X128941625Y-90319925D01*
X128843610Y-90227722D01*
X128843608Y-90227720D01*
X128840209Y-90224523D01*
X128796483Y-90194189D01*
X128635393Y-90082437D01*
X128635390Y-90082435D01*
X128631561Y-90079779D01*
X128627384Y-90077719D01*
X128627377Y-90077715D01*
X128407996Y-89969528D01*
X128407992Y-89969527D01*
X128403810Y-89967464D01*
X128277901Y-89927160D01*
X128219121Y-89887342D01*
X128191199Y-89822067D01*
X128203000Y-89752058D01*
X128250778Y-89699543D01*
X128284234Y-89685310D01*
X128288264Y-89684249D01*
X128319793Y-89675948D01*
X128438353Y-89625011D01*
X128548807Y-89577557D01*
X128548810Y-89577555D01*
X128553110Y-89575708D01*
X128557090Y-89573245D01*
X128557094Y-89573243D01*
X128765064Y-89444547D01*
X128765066Y-89444545D01*
X128769047Y-89442082D01*
X128867428Y-89358797D01*
X128959289Y-89281031D01*
X128959291Y-89281029D01*
X128962862Y-89278006D01*
X129130295Y-89087084D01*
X129163248Y-89035854D01*
X129265141Y-88877442D01*
X129267669Y-88873512D01*
X129371967Y-88641980D01*
X129440896Y-88397575D01*
X129458382Y-88260126D01*
X129472545Y-88148798D01*
X129472545Y-88148792D01*
X129472943Y-88145667D01*
X129473745Y-88115062D01*
X129475208Y-88059160D01*
X129475291Y-88056000D01*
X129471046Y-87998873D01*
X129456818Y-87807411D01*
X129456817Y-87807407D01*
X129456472Y-87802759D01*
X129442830Y-87742467D01*
X129401459Y-87559639D01*
X129400428Y-87555082D01*
X129341758Y-87404211D01*
X129310084Y-87322762D01*
X129310083Y-87322760D01*
X129308391Y-87318409D01*
X129287866Y-87282498D01*
X129184702Y-87101997D01*
X129184700Y-87101995D01*
X129182383Y-87097940D01*
X129025171Y-86898517D01*
X128840209Y-86724523D01*
X128796483Y-86694189D01*
X128635393Y-86582437D01*
X128635390Y-86582435D01*
X128631561Y-86579779D01*
X128627384Y-86577719D01*
X128627377Y-86577715D01*
X128407996Y-86469528D01*
X128407992Y-86469527D01*
X128403810Y-86467464D01*
X128277901Y-86427160D01*
X128219121Y-86387342D01*
X128191199Y-86322067D01*
X128203000Y-86252058D01*
X128250778Y-86199543D01*
X128284234Y-86185310D01*
X128285929Y-86184864D01*
X128319793Y-86175948D01*
X128438353Y-86125011D01*
X128548807Y-86077557D01*
X128548810Y-86077555D01*
X128553110Y-86075708D01*
X128557090Y-86073245D01*
X128557094Y-86073243D01*
X128765064Y-85944547D01*
X128765066Y-85944545D01*
X128769047Y-85942082D01*
X128867428Y-85858797D01*
X128959289Y-85781031D01*
X128959291Y-85781029D01*
X128962862Y-85778006D01*
X129130295Y-85587084D01*
X129163248Y-85535854D01*
X129265141Y-85377442D01*
X129267669Y-85373512D01*
X129371967Y-85141980D01*
X129440896Y-84897575D01*
X129458382Y-84760126D01*
X129472545Y-84648798D01*
X129472545Y-84648792D01*
X129472943Y-84645667D01*
X129473745Y-84615062D01*
X129475208Y-84559160D01*
X129475291Y-84556000D01*
X129471046Y-84498873D01*
X129456818Y-84307411D01*
X129456817Y-84307407D01*
X129456472Y-84302759D01*
X129442830Y-84242467D01*
X129401459Y-84059639D01*
X129400428Y-84055082D01*
X129347363Y-83918625D01*
X129310084Y-83822762D01*
X129310083Y-83822760D01*
X129308391Y-83818409D01*
X129287866Y-83782498D01*
X129184702Y-83601997D01*
X129184700Y-83601995D01*
X129182383Y-83597940D01*
X129025171Y-83398517D01*
X128858568Y-83241793D01*
X128843610Y-83227722D01*
X128843608Y-83227720D01*
X128840209Y-83224523D01*
X128796483Y-83194189D01*
X128635393Y-83082437D01*
X128635390Y-83082435D01*
X128631561Y-83079779D01*
X128627384Y-83077719D01*
X128627377Y-83077715D01*
X128407996Y-82969528D01*
X128407992Y-82969527D01*
X128403810Y-82967464D01*
X128277901Y-82927160D01*
X128219121Y-82887342D01*
X128191199Y-82822067D01*
X128203000Y-82752058D01*
X128250778Y-82699543D01*
X128284234Y-82685310D01*
X128285929Y-82684864D01*
X128319793Y-82675948D01*
X128449784Y-82620100D01*
X128548807Y-82577557D01*
X128548810Y-82577555D01*
X128553110Y-82575708D01*
X128557090Y-82573245D01*
X128557094Y-82573243D01*
X128765064Y-82444547D01*
X128765066Y-82444545D01*
X128769047Y-82442082D01*
X128867428Y-82358797D01*
X128959289Y-82281031D01*
X128959291Y-82281029D01*
X128962862Y-82278006D01*
X129130295Y-82087084D01*
X129163248Y-82035854D01*
X129265141Y-81877442D01*
X129267669Y-81873512D01*
X129371967Y-81641980D01*
X129440896Y-81397575D01*
X129460027Y-81247192D01*
X129472545Y-81148798D01*
X129472545Y-81148792D01*
X129472943Y-81145667D01*
X129473745Y-81115062D01*
X129475208Y-81059160D01*
X129475291Y-81056000D01*
X129471046Y-80998873D01*
X129456818Y-80807411D01*
X129456817Y-80807407D01*
X129456472Y-80802759D01*
X129442830Y-80742467D01*
X129401459Y-80559639D01*
X129400428Y-80555082D01*
X129341758Y-80404211D01*
X129310084Y-80322762D01*
X129310083Y-80322760D01*
X129308391Y-80318409D01*
X129306073Y-80314353D01*
X129184702Y-80101997D01*
X129184700Y-80101995D01*
X129182383Y-80097940D01*
X129025171Y-79898517D01*
X128840209Y-79724523D01*
X128796483Y-79694189D01*
X128635393Y-79582437D01*
X128635390Y-79582435D01*
X128631561Y-79579779D01*
X128627384Y-79577719D01*
X128627377Y-79577715D01*
X128407996Y-79469528D01*
X128407992Y-79469527D01*
X128403810Y-79467464D01*
X128277901Y-79427160D01*
X128219121Y-79387342D01*
X128191199Y-79322067D01*
X128203000Y-79252058D01*
X128250778Y-79199543D01*
X128284234Y-79185310D01*
X128285929Y-79184864D01*
X128319793Y-79175948D01*
X128438353Y-79125011D01*
X128548807Y-79077557D01*
X128548810Y-79077555D01*
X128553110Y-79075708D01*
X128557090Y-79073245D01*
X128557094Y-79073243D01*
X128765064Y-78944547D01*
X128765066Y-78944545D01*
X128769047Y-78942082D01*
X128778579Y-78934013D01*
X128959289Y-78781031D01*
X128959291Y-78781029D01*
X128962862Y-78778006D01*
X129130295Y-78587084D01*
X129138662Y-78574077D01*
X129260561Y-78384563D01*
X129267669Y-78373512D01*
X129371967Y-78141980D01*
X129440896Y-77897575D01*
X129459556Y-77750900D01*
X129472545Y-77648798D01*
X129472545Y-77648792D01*
X129472943Y-77645667D01*
X129473745Y-77615062D01*
X129475208Y-77559160D01*
X129475291Y-77556000D01*
X129471046Y-77498873D01*
X129456818Y-77307411D01*
X129456817Y-77307407D01*
X129456472Y-77302759D01*
X129444542Y-77250034D01*
X129401459Y-77059639D01*
X129400428Y-77055082D01*
X129396679Y-77045441D01*
X129310084Y-76822762D01*
X129310083Y-76822760D01*
X129308391Y-76818409D01*
X129287866Y-76782498D01*
X129184702Y-76601997D01*
X129184700Y-76601995D01*
X129182383Y-76597940D01*
X129025171Y-76398517D01*
X128840209Y-76224523D01*
X128796483Y-76194189D01*
X128635393Y-76082437D01*
X128635390Y-76082435D01*
X128631561Y-76079779D01*
X128627384Y-76077719D01*
X128627377Y-76077715D01*
X128407996Y-75969528D01*
X128407992Y-75969527D01*
X128403810Y-75967464D01*
X128277901Y-75927160D01*
X128219121Y-75887342D01*
X128191199Y-75822067D01*
X128203000Y-75752058D01*
X128250778Y-75699543D01*
X128284234Y-75685310D01*
X128285929Y-75684864D01*
X128319793Y-75675948D01*
X128445843Y-75621793D01*
X128548807Y-75577557D01*
X128548810Y-75577555D01*
X128553110Y-75575708D01*
X128557090Y-75573245D01*
X128557094Y-75573243D01*
X128765064Y-75444547D01*
X128765066Y-75444545D01*
X128769047Y-75442082D01*
X128867428Y-75358797D01*
X128959289Y-75281031D01*
X128959291Y-75281029D01*
X128962862Y-75278006D01*
X129130295Y-75087084D01*
X129163248Y-75035854D01*
X129265141Y-74877442D01*
X129267669Y-74873512D01*
X129371967Y-74641980D01*
X129440896Y-74397575D01*
X129458382Y-74260126D01*
X129472545Y-74148798D01*
X129472545Y-74148792D01*
X129472943Y-74145667D01*
X129473745Y-74115062D01*
X129475208Y-74059160D01*
X129475291Y-74056000D01*
X129471046Y-73998873D01*
X129456818Y-73807411D01*
X129456817Y-73807407D01*
X129456472Y-73802759D01*
X129446486Y-73758625D01*
X129401459Y-73559639D01*
X129400428Y-73555082D01*
X129341758Y-73404211D01*
X129310084Y-73322762D01*
X129310083Y-73322760D01*
X129308391Y-73318409D01*
X129306073Y-73314353D01*
X129300384Y-73304400D01*
X137177302Y-73304400D01*
X137197257Y-73532487D01*
X137198681Y-73537800D01*
X137198681Y-73537802D01*
X137217478Y-73607951D01*
X137256516Y-73753643D01*
X137258839Y-73758624D01*
X137258839Y-73758625D01*
X137350951Y-73956162D01*
X137350954Y-73956167D01*
X137353277Y-73961149D01*
X137376542Y-73994375D01*
X137480268Y-74142510D01*
X137484602Y-74148700D01*
X137646500Y-74310598D01*
X137651008Y-74313755D01*
X137651011Y-74313757D01*
X137702283Y-74349658D01*
X137834051Y-74441923D01*
X137839033Y-74444246D01*
X137839038Y-74444249D01*
X137873849Y-74460481D01*
X137927134Y-74507398D01*
X137946595Y-74575675D01*
X137926053Y-74643635D01*
X137873849Y-74688871D01*
X137839289Y-74704986D01*
X137829793Y-74710469D01*
X137651333Y-74835428D01*
X137642925Y-74842484D01*
X137488884Y-74996525D01*
X137481828Y-75004933D01*
X137356869Y-75183393D01*
X137351386Y-75192889D01*
X137259310Y-75390347D01*
X137255564Y-75400639D01*
X137209406Y-75572903D01*
X137209742Y-75586999D01*
X137217684Y-75590400D01*
X139758767Y-75590400D01*
X139772298Y-75586427D01*
X139773527Y-75577878D01*
X139726036Y-75400639D01*
X139722290Y-75390347D01*
X139630214Y-75192889D01*
X139624731Y-75183393D01*
X139499772Y-75004933D01*
X139492716Y-74996525D01*
X139338675Y-74842484D01*
X139330267Y-74835428D01*
X139151807Y-74710469D01*
X139142311Y-74704986D01*
X139107751Y-74688871D01*
X139054466Y-74641954D01*
X139035005Y-74573677D01*
X139055547Y-74505717D01*
X139107751Y-74460481D01*
X139142562Y-74444249D01*
X139142567Y-74444246D01*
X139147549Y-74441923D01*
X139279317Y-74349658D01*
X139330589Y-74313757D01*
X139330592Y-74313755D01*
X139335100Y-74310598D01*
X139496998Y-74148700D01*
X139501333Y-74142510D01*
X139605058Y-73994375D01*
X139628323Y-73961149D01*
X139630646Y-73956167D01*
X139630649Y-73956162D01*
X139722761Y-73758625D01*
X139722761Y-73758624D01*
X139725084Y-73753643D01*
X139764123Y-73607951D01*
X139782919Y-73537802D01*
X139782919Y-73537800D01*
X139784343Y-73532487D01*
X139804298Y-73304400D01*
X139784343Y-73076313D01*
X139779300Y-73057492D01*
X139726507Y-72860467D01*
X139726506Y-72860465D01*
X139725084Y-72855157D01*
X139722761Y-72850175D01*
X139630649Y-72652638D01*
X139630646Y-72652633D01*
X139628323Y-72647651D01*
X139503600Y-72469528D01*
X139500157Y-72464611D01*
X139500155Y-72464608D01*
X139496998Y-72460100D01*
X139335100Y-72298202D01*
X139330592Y-72295045D01*
X139330589Y-72295043D01*
X139210437Y-72210912D01*
X139147549Y-72166877D01*
X139142567Y-72164554D01*
X139142562Y-72164551D01*
X139108343Y-72148595D01*
X139055058Y-72101678D01*
X139035597Y-72033401D01*
X139056139Y-71965441D01*
X139108343Y-71920205D01*
X139142562Y-71904249D01*
X139142567Y-71904246D01*
X139147549Y-71901923D01*
X139282096Y-71807712D01*
X139330589Y-71773757D01*
X139330592Y-71773755D01*
X139335100Y-71770598D01*
X139496998Y-71608700D01*
X139548006Y-71535854D01*
X139625166Y-71425657D01*
X139628323Y-71421149D01*
X139630646Y-71416167D01*
X139630649Y-71416162D01*
X139722761Y-71218625D01*
X139722761Y-71218624D01*
X139725084Y-71213643D01*
X139734111Y-71179956D01*
X139782919Y-70997802D01*
X139782919Y-70997800D01*
X139784343Y-70992487D01*
X139804298Y-70764400D01*
X139784343Y-70536313D01*
X139782919Y-70530998D01*
X139726507Y-70320467D01*
X139726506Y-70320465D01*
X139725084Y-70315157D01*
X139698660Y-70258490D01*
X139630649Y-70112638D01*
X139630646Y-70112633D01*
X139628323Y-70107651D01*
X139496998Y-69920100D01*
X139335100Y-69758202D01*
X139330589Y-69755043D01*
X139326376Y-69751508D01*
X139327327Y-69750374D01*
X139287329Y-69700329D01*
X139280024Y-69629710D01*
X139312058Y-69566351D01*
X139373262Y-69530370D01*
X139390317Y-69527318D01*
X139401116Y-69526145D01*
X139537505Y-69475015D01*
X139654061Y-69387661D01*
X139741415Y-69271105D01*
X139792545Y-69134716D01*
X139799300Y-69072534D01*
X139799300Y-67376266D01*
X139792545Y-67314084D01*
X139741415Y-67177695D01*
X139654061Y-67061139D01*
X139537505Y-66973785D01*
X139401116Y-66922655D01*
X139338934Y-66915900D01*
X137642666Y-66915900D01*
X137580484Y-66922655D01*
X137444095Y-66973785D01*
X137327539Y-67061139D01*
X137240185Y-67177695D01*
X137189055Y-67314084D01*
X137182300Y-67376266D01*
X137182300Y-69072534D01*
X137189055Y-69134716D01*
X137240185Y-69271105D01*
X137327539Y-69387661D01*
X137444095Y-69475015D01*
X137580484Y-69526145D01*
X137591274Y-69527317D01*
X137593406Y-69528203D01*
X137596022Y-69528825D01*
X137595921Y-69529248D01*
X137656835Y-69554555D01*
X137697263Y-69612917D01*
X137699722Y-69683871D01*
X137663429Y-69744890D01*
X137654769Y-69751889D01*
X137651007Y-69755046D01*
X137646500Y-69758202D01*
X137484602Y-69920100D01*
X137353277Y-70107651D01*
X137350954Y-70112633D01*
X137350951Y-70112638D01*
X137282940Y-70258490D01*
X137256516Y-70315157D01*
X137255094Y-70320465D01*
X137255093Y-70320467D01*
X137198681Y-70530998D01*
X137197257Y-70536313D01*
X137177302Y-70764400D01*
X137197257Y-70992487D01*
X137198681Y-70997800D01*
X137198681Y-70997802D01*
X137247490Y-71179956D01*
X137256516Y-71213643D01*
X137258839Y-71218624D01*
X137258839Y-71218625D01*
X137350951Y-71416162D01*
X137350954Y-71416167D01*
X137353277Y-71421149D01*
X137356434Y-71425657D01*
X137433595Y-71535854D01*
X137484602Y-71608700D01*
X137646500Y-71770598D01*
X137651008Y-71773755D01*
X137651011Y-71773757D01*
X137699504Y-71807712D01*
X137834051Y-71901923D01*
X137839033Y-71904246D01*
X137839038Y-71904249D01*
X137873257Y-71920205D01*
X137926542Y-71967122D01*
X137946003Y-72035399D01*
X137925461Y-72103359D01*
X137873257Y-72148595D01*
X137839038Y-72164551D01*
X137839033Y-72164554D01*
X137834051Y-72166877D01*
X137771163Y-72210912D01*
X137651011Y-72295043D01*
X137651008Y-72295045D01*
X137646500Y-72298202D01*
X137484602Y-72460100D01*
X137481445Y-72464608D01*
X137481443Y-72464611D01*
X137478000Y-72469528D01*
X137353277Y-72647651D01*
X137350954Y-72652633D01*
X137350951Y-72652638D01*
X137258839Y-72850175D01*
X137256516Y-72855157D01*
X137255094Y-72860465D01*
X137255093Y-72860467D01*
X137202300Y-73057492D01*
X137197257Y-73076313D01*
X137177302Y-73304400D01*
X129300384Y-73304400D01*
X129184702Y-73101997D01*
X129184700Y-73101995D01*
X129182383Y-73097940D01*
X129025171Y-72898517D01*
X128840209Y-72724523D01*
X128796483Y-72694189D01*
X128635393Y-72582437D01*
X128635390Y-72582435D01*
X128631561Y-72579779D01*
X128627384Y-72577719D01*
X128627377Y-72577715D01*
X128407996Y-72469528D01*
X128407992Y-72469527D01*
X128403810Y-72467464D01*
X128277901Y-72427160D01*
X128219121Y-72387342D01*
X128191199Y-72322067D01*
X128203000Y-72252058D01*
X128250778Y-72199543D01*
X128284234Y-72185310D01*
X128285929Y-72184864D01*
X128319793Y-72175948D01*
X128492663Y-72101678D01*
X128548807Y-72077557D01*
X128548810Y-72077555D01*
X128553110Y-72075708D01*
X128557090Y-72073245D01*
X128557094Y-72073243D01*
X128765064Y-71944547D01*
X128765066Y-71944545D01*
X128769047Y-71942082D01*
X128867428Y-71858797D01*
X128959289Y-71781031D01*
X128959291Y-71781029D01*
X128962862Y-71778006D01*
X129130295Y-71587084D01*
X129163248Y-71535854D01*
X129265141Y-71377442D01*
X129267669Y-71373512D01*
X129371967Y-71141980D01*
X129440896Y-70897575D01*
X129458535Y-70758925D01*
X129472545Y-70648798D01*
X129472545Y-70648792D01*
X129472943Y-70645667D01*
X129473745Y-70615062D01*
X129475208Y-70559160D01*
X129475291Y-70556000D01*
X129471046Y-70498873D01*
X129456818Y-70307411D01*
X129456817Y-70307407D01*
X129456472Y-70302759D01*
X129442830Y-70242467D01*
X129401459Y-70059639D01*
X129400428Y-70055082D01*
X129349691Y-69924611D01*
X129310084Y-69822762D01*
X129310083Y-69822760D01*
X129308391Y-69818409D01*
X129287866Y-69782498D01*
X129184702Y-69601997D01*
X129184700Y-69601995D01*
X129182383Y-69597940D01*
X129025171Y-69398517D01*
X128941625Y-69319925D01*
X128843610Y-69227722D01*
X128843608Y-69227720D01*
X128840209Y-69224523D01*
X128796483Y-69194189D01*
X128635393Y-69082437D01*
X128635390Y-69082435D01*
X128631561Y-69079779D01*
X128623758Y-69075931D01*
X128475880Y-69003005D01*
X128423631Y-68954936D01*
X128405665Y-68886251D01*
X128427684Y-68818755D01*
X128482699Y-68773879D01*
X128531609Y-68763999D01*
X129006669Y-68763999D01*
X129013490Y-68763629D01*
X129064352Y-68758105D01*
X129079604Y-68754479D01*
X129200054Y-68709324D01*
X129215649Y-68700786D01*
X129317724Y-68624285D01*
X129330285Y-68611724D01*
X129406786Y-68509649D01*
X129415324Y-68494054D01*
X129460478Y-68373606D01*
X129464105Y-68358351D01*
X129469631Y-68307486D01*
X129470000Y-68300672D01*
X129470000Y-67328115D01*
X129465525Y-67312876D01*
X129464135Y-67311671D01*
X129456452Y-67310000D01*
X126072116Y-67310000D01*
X126056877Y-67314475D01*
X126055672Y-67315865D01*
X126054001Y-67323548D01*
X126054001Y-68300669D01*
X126054371Y-68307490D01*
X126059895Y-68358352D01*
X126063521Y-68373604D01*
X126108676Y-68494054D01*
X126117214Y-68509649D01*
X126193715Y-68611724D01*
X126206276Y-68624285D01*
X126308351Y-68700786D01*
X126323946Y-68709324D01*
X126444394Y-68754478D01*
X126459649Y-68758105D01*
X126510514Y-68763631D01*
X126517328Y-68764000D01*
X126993804Y-68764000D01*
X127061925Y-68784002D01*
X127108418Y-68837658D01*
X127118522Y-68907932D01*
X127089028Y-68972512D01*
X127046556Y-69004425D01*
X126931380Y-69057522D01*
X126927471Y-69060085D01*
X126722928Y-69194189D01*
X126722923Y-69194193D01*
X126719015Y-69196755D01*
X126681097Y-69230598D01*
X126533960Y-69361923D01*
X126529562Y-69365848D01*
X126367183Y-69561087D01*
X126235447Y-69778182D01*
X126233638Y-69782496D01*
X126233637Y-69782498D01*
X126182599Y-69904211D01*
X126137246Y-70012365D01*
X126074738Y-70258490D01*
X126049296Y-70511151D01*
X126049520Y-70515817D01*
X126049520Y-70515822D01*
X126050768Y-70541793D01*
X126061480Y-70764798D01*
X126111021Y-71013857D01*
X126112600Y-71018255D01*
X126112602Y-71018262D01*
X126172067Y-71183884D01*
X126196831Y-71252858D01*
X126199048Y-71256984D01*
X126307250Y-71458358D01*
X126317025Y-71476551D01*
X126319820Y-71480294D01*
X126319822Y-71480297D01*
X126466171Y-71676282D01*
X126466176Y-71676288D01*
X126468963Y-71680020D01*
X126472272Y-71683300D01*
X126472277Y-71683306D01*
X126597774Y-71807712D01*
X126649307Y-71858797D01*
X126653069Y-71861555D01*
X126653072Y-71861558D01*
X126731232Y-71918867D01*
X126854094Y-72008953D01*
X126858229Y-72011129D01*
X126858233Y-72011131D01*
X126904359Y-72035399D01*
X127078827Y-72127191D01*
X127250781Y-72187240D01*
X127308497Y-72228581D01*
X127334701Y-72294565D01*
X127321072Y-72364241D01*
X127271936Y-72415487D01*
X127244497Y-72427160D01*
X127161993Y-72451208D01*
X126931380Y-72557522D01*
X126927471Y-72560085D01*
X126722928Y-72694189D01*
X126722923Y-72694193D01*
X126719015Y-72696755D01*
X126529562Y-72865848D01*
X126367183Y-73061087D01*
X126235447Y-73278182D01*
X126233638Y-73282496D01*
X126233637Y-73282498D01*
X126182599Y-73404211D01*
X126137246Y-73512365D01*
X126136095Y-73516897D01*
X126136094Y-73516900D01*
X126130786Y-73537802D01*
X126074738Y-73758490D01*
X126049296Y-74011151D01*
X126061480Y-74264798D01*
X126086250Y-74389327D01*
X126109402Y-74505717D01*
X126111021Y-74513857D01*
X126112600Y-74518255D01*
X126112602Y-74518262D01*
X126172067Y-74683884D01*
X126196831Y-74752858D01*
X126199048Y-74756984D01*
X126307250Y-74958358D01*
X126317025Y-74976551D01*
X126319820Y-74980294D01*
X126319822Y-74980297D01*
X126466171Y-75176282D01*
X126466176Y-75176288D01*
X126468963Y-75180020D01*
X126472272Y-75183300D01*
X126472277Y-75183306D01*
X126597774Y-75307712D01*
X126649307Y-75358797D01*
X126653069Y-75361555D01*
X126653072Y-75361558D01*
X126706372Y-75400639D01*
X126854094Y-75508953D01*
X126858229Y-75511129D01*
X126858233Y-75511131D01*
X126925835Y-75546698D01*
X127078827Y-75627191D01*
X127250781Y-75687240D01*
X127308497Y-75728581D01*
X127334701Y-75794565D01*
X127321072Y-75864241D01*
X127271936Y-75915487D01*
X127244497Y-75927160D01*
X127161993Y-75951208D01*
X126931380Y-76057522D01*
X126927471Y-76060085D01*
X126722928Y-76194189D01*
X126722923Y-76194193D01*
X126719015Y-76196755D01*
X126529562Y-76365848D01*
X126367183Y-76561087D01*
X126235447Y-76778182D01*
X126233638Y-76782496D01*
X126233637Y-76782498D01*
X126142461Y-76999929D01*
X126137246Y-77012365D01*
X126136095Y-77016897D01*
X126136094Y-77016900D01*
X126114152Y-77103297D01*
X126074738Y-77258490D01*
X126049296Y-77511151D01*
X126049520Y-77515817D01*
X126049520Y-77515822D01*
X126050903Y-77544611D01*
X126061480Y-77764798D01*
X126086250Y-77889327D01*
X126095367Y-77935157D01*
X126111021Y-78013857D01*
X126112600Y-78018255D01*
X126112602Y-78018262D01*
X126172067Y-78183884D01*
X126196831Y-78252858D01*
X126199048Y-78256984D01*
X126307250Y-78458358D01*
X126317025Y-78476551D01*
X126319820Y-78480294D01*
X126319822Y-78480297D01*
X126466171Y-78676282D01*
X126466176Y-78676288D01*
X126468963Y-78680020D01*
X126472272Y-78683300D01*
X126472277Y-78683306D01*
X126627724Y-78837402D01*
X126649307Y-78858797D01*
X126653069Y-78861555D01*
X126653072Y-78861558D01*
X126849285Y-79005427D01*
X126854094Y-79008953D01*
X126858229Y-79011129D01*
X126858233Y-79011131D01*
X126925835Y-79046698D01*
X127078827Y-79127191D01*
X127250781Y-79187240D01*
X127308497Y-79228581D01*
X127334701Y-79294565D01*
X127321072Y-79364241D01*
X127271936Y-79415487D01*
X127244497Y-79427160D01*
X127161993Y-79451208D01*
X126931380Y-79557522D01*
X126927471Y-79560085D01*
X126722928Y-79694189D01*
X126722923Y-79694193D01*
X126719015Y-79696755D01*
X126529562Y-79865848D01*
X126367183Y-80061087D01*
X126235447Y-80278182D01*
X126233638Y-80282496D01*
X126233637Y-80282498D01*
X126152849Y-80475157D01*
X126137246Y-80512365D01*
X126074738Y-80758490D01*
X126049296Y-81011151D01*
X126049520Y-81015817D01*
X126049520Y-81015822D01*
X126051602Y-81059160D01*
X126061480Y-81264798D01*
X126084122Y-81378625D01*
X126106589Y-81491574D01*
X126111021Y-81513857D01*
X126112600Y-81518255D01*
X126112602Y-81518262D01*
X126172067Y-81683884D01*
X126196831Y-81752858D01*
X126199048Y-81756984D01*
X126307250Y-81958358D01*
X126317025Y-81976551D01*
X126319820Y-81980294D01*
X126319822Y-81980297D01*
X126466171Y-82176282D01*
X126466176Y-82176288D01*
X126468963Y-82180020D01*
X126472272Y-82183300D01*
X126472277Y-82183306D01*
X126597774Y-82307712D01*
X126649307Y-82358797D01*
X126653069Y-82361555D01*
X126653072Y-82361558D01*
X126693724Y-82391365D01*
X126854094Y-82508953D01*
X126858229Y-82511129D01*
X126858233Y-82511131D01*
X126925835Y-82546698D01*
X127078827Y-82627191D01*
X127250781Y-82687240D01*
X127308497Y-82728581D01*
X127334701Y-82794565D01*
X127321072Y-82864241D01*
X127271936Y-82915487D01*
X127244497Y-82927160D01*
X127161993Y-82951208D01*
X126931380Y-83057522D01*
X126927471Y-83060085D01*
X126722928Y-83194189D01*
X126722923Y-83194193D01*
X126719015Y-83196755D01*
X126529562Y-83365848D01*
X126367183Y-83561087D01*
X126235447Y-83778182D01*
X126233638Y-83782496D01*
X126233637Y-83782498D01*
X126178644Y-83913643D01*
X126137246Y-84012365D01*
X126074738Y-84258490D01*
X126049296Y-84511151D01*
X126061480Y-84764798D01*
X126081322Y-84864551D01*
X126107279Y-84995043D01*
X126111021Y-85013857D01*
X126112600Y-85018255D01*
X126112602Y-85018262D01*
X126172067Y-85183884D01*
X126196831Y-85252858D01*
X126199048Y-85256984D01*
X126307250Y-85458358D01*
X126317025Y-85476551D01*
X126319820Y-85480294D01*
X126319822Y-85480297D01*
X126466171Y-85676282D01*
X126466176Y-85676288D01*
X126468963Y-85680020D01*
X126472272Y-85683300D01*
X126472277Y-85683306D01*
X126597774Y-85807712D01*
X126649307Y-85858797D01*
X126653069Y-85861555D01*
X126653072Y-85861558D01*
X126847884Y-86004400D01*
X126854094Y-86008953D01*
X126858229Y-86011129D01*
X126858233Y-86011131D01*
X126925835Y-86046698D01*
X127078827Y-86127191D01*
X127250781Y-86187240D01*
X127308497Y-86228581D01*
X127334701Y-86294565D01*
X127321072Y-86364241D01*
X127271936Y-86415487D01*
X127244497Y-86427160D01*
X127161993Y-86451208D01*
X126931380Y-86557522D01*
X126927471Y-86560085D01*
X126722928Y-86694189D01*
X126722923Y-86694193D01*
X126719015Y-86696755D01*
X126624289Y-86781301D01*
X126544409Y-86852597D01*
X126529562Y-86865848D01*
X126367183Y-87061087D01*
X126235447Y-87278182D01*
X126233638Y-87282496D01*
X126233637Y-87282498D01*
X126181481Y-87406877D01*
X126137246Y-87512365D01*
X126136095Y-87516897D01*
X126136094Y-87516900D01*
X126127503Y-87550728D01*
X126074738Y-87758490D01*
X126049296Y-88011151D01*
X126061480Y-88264798D01*
X126111021Y-88513857D01*
X126112600Y-88518255D01*
X126112602Y-88518262D01*
X126172067Y-88683884D01*
X126196831Y-88752858D01*
X126207378Y-88772487D01*
X126307250Y-88958358D01*
X126317025Y-88976551D01*
X126319820Y-88980294D01*
X126319822Y-88980297D01*
X126466171Y-89176282D01*
X126466176Y-89176288D01*
X126468963Y-89180020D01*
X126472272Y-89183300D01*
X126472277Y-89183306D01*
X126597774Y-89307712D01*
X126649307Y-89358797D01*
X126653069Y-89361555D01*
X126653072Y-89361558D01*
X126693724Y-89391365D01*
X126854094Y-89508953D01*
X126858229Y-89511129D01*
X126858233Y-89511131D01*
X126925835Y-89546698D01*
X127078827Y-89627191D01*
X127250781Y-89687240D01*
X127308497Y-89728581D01*
X127334701Y-89794565D01*
X127321072Y-89864241D01*
X127271936Y-89915487D01*
X127244497Y-89927160D01*
X127161993Y-89951208D01*
X126931380Y-90057522D01*
X126927471Y-90060085D01*
X126722928Y-90194189D01*
X126722923Y-90194193D01*
X126719015Y-90196755D01*
X126529562Y-90365848D01*
X126367183Y-90561087D01*
X126235447Y-90778182D01*
X126233638Y-90782496D01*
X126233637Y-90782498D01*
X126182599Y-90904211D01*
X126137246Y-91012365D01*
X126074738Y-91258490D01*
X126049296Y-91511151D01*
X126049520Y-91515817D01*
X126049520Y-91515822D01*
X126051299Y-91552851D01*
X126061480Y-91764798D01*
X126111021Y-92013857D01*
X126112600Y-92018255D01*
X126112602Y-92018262D01*
X126172067Y-92183884D01*
X126196831Y-92252858D01*
X126199048Y-92256984D01*
X126307250Y-92458358D01*
X126317025Y-92476551D01*
X126319820Y-92480294D01*
X126319822Y-92480297D01*
X126466171Y-92676282D01*
X126466176Y-92676288D01*
X126468963Y-92680020D01*
X126472272Y-92683300D01*
X126472277Y-92683306D01*
X126597774Y-92807712D01*
X126649307Y-92858797D01*
X126653069Y-92861555D01*
X126653072Y-92861558D01*
X126810446Y-92976949D01*
X126854094Y-93008953D01*
X126858229Y-93011129D01*
X126858233Y-93011131D01*
X126925835Y-93046698D01*
X127078827Y-93127191D01*
X127250781Y-93187240D01*
X127308497Y-93228581D01*
X127334701Y-93294565D01*
X127321072Y-93364241D01*
X127271936Y-93415487D01*
X127244497Y-93427160D01*
X127161993Y-93451208D01*
X126931380Y-93557522D01*
X126927471Y-93560085D01*
X126722928Y-93694189D01*
X126722923Y-93694193D01*
X126719015Y-93696755D01*
X126624288Y-93781302D01*
X126544532Y-93852487D01*
X126529562Y-93865848D01*
X126367183Y-94061087D01*
X126235447Y-94278182D01*
X126233638Y-94282496D01*
X126233637Y-94282498D01*
X126157448Y-94464189D01*
X126137246Y-94512365D01*
X126074738Y-94758490D01*
X126049296Y-95011151D01*
X126049520Y-95015817D01*
X126049520Y-95015822D01*
X126050051Y-95026877D01*
X126061480Y-95264798D01*
X126086250Y-95389327D01*
X126109787Y-95507651D01*
X126111021Y-95513857D01*
X126112600Y-95518255D01*
X126112602Y-95518262D01*
X126172067Y-95683884D01*
X126196831Y-95752858D01*
X126199048Y-95756984D01*
X126307250Y-95958358D01*
X126317025Y-95976551D01*
X126319820Y-95980294D01*
X126319822Y-95980297D01*
X126466171Y-96176282D01*
X126466176Y-96176288D01*
X126468963Y-96180020D01*
X126472272Y-96183300D01*
X126472277Y-96183306D01*
X126597774Y-96307712D01*
X126649307Y-96358797D01*
X126653069Y-96361555D01*
X126653072Y-96361558D01*
X126693724Y-96391365D01*
X126854094Y-96508953D01*
X126858229Y-96511129D01*
X126858233Y-96511131D01*
X126925835Y-96546698D01*
X127078827Y-96627191D01*
X127250781Y-96687240D01*
X127308497Y-96728581D01*
X127334701Y-96794565D01*
X127321072Y-96864241D01*
X127271936Y-96915487D01*
X127244497Y-96927160D01*
X127161993Y-96951208D01*
X126931380Y-97057522D01*
X126927471Y-97060085D01*
X126722928Y-97194189D01*
X126722923Y-97194193D01*
X126719015Y-97196755D01*
X126529562Y-97365848D01*
X126367183Y-97561087D01*
X126235447Y-97778182D01*
X126233638Y-97782496D01*
X126233637Y-97782498D01*
X126182599Y-97904211D01*
X126137246Y-98012365D01*
X126074738Y-98258490D01*
X126049296Y-98511151D01*
X126061480Y-98764798D01*
X126111021Y-99013857D01*
X126112600Y-99018255D01*
X126112602Y-99018262D01*
X126172067Y-99183884D01*
X126196831Y-99252858D01*
X126199048Y-99256984D01*
X126307250Y-99458358D01*
X126317025Y-99476551D01*
X126319820Y-99480294D01*
X126319822Y-99480297D01*
X126466171Y-99676282D01*
X126466176Y-99676288D01*
X126468963Y-99680020D01*
X126472272Y-99683300D01*
X126472277Y-99683306D01*
X126597774Y-99807712D01*
X126649307Y-99858797D01*
X126653069Y-99861555D01*
X126653072Y-99861558D01*
X126693724Y-99891365D01*
X126854094Y-100008953D01*
X126858229Y-100011129D01*
X126858233Y-100011131D01*
X126919489Y-100043359D01*
X127078827Y-100127191D01*
X127250781Y-100187240D01*
X127308497Y-100228581D01*
X127334701Y-100294565D01*
X127321072Y-100364241D01*
X127271936Y-100415487D01*
X127244497Y-100427160D01*
X127161993Y-100451208D01*
X126931380Y-100557522D01*
X126927471Y-100560085D01*
X126722928Y-100694189D01*
X126722923Y-100694193D01*
X126719015Y-100696755D01*
X126635274Y-100771497D01*
X126561456Y-100837382D01*
X126529562Y-100865848D01*
X126518376Y-100879298D01*
X126483634Y-100921070D01*
X126424696Y-100960653D01*
X126386760Y-100966500D01*
X126308793Y-100966500D01*
X126285184Y-100964268D01*
X126284881Y-100964210D01*
X126284877Y-100964210D01*
X126277094Y-100962725D01*
X126221049Y-100966251D01*
X126213138Y-100966500D01*
X126197144Y-100966500D01*
X126181270Y-100968506D01*
X126173410Y-100969248D01*
X126145951Y-100970976D01*
X126125263Y-100972277D01*
X126125262Y-100972277D01*
X126117350Y-100972775D01*
X126109809Y-100975225D01*
X126109513Y-100975321D01*
X126086369Y-100980494D01*
X126086065Y-100980532D01*
X126086060Y-100980533D01*
X126078203Y-100981526D01*
X126070838Y-100984442D01*
X126070834Y-100984443D01*
X126025989Y-101002199D01*
X126018570Y-101004871D01*
X125965125Y-101022236D01*
X125958429Y-101026486D01*
X125958428Y-101026486D01*
X125958169Y-101026650D01*
X125937042Y-101037415D01*
X125936754Y-101037529D01*
X125936749Y-101037532D01*
X125929383Y-101040448D01*
X125922975Y-101045104D01*
X125922969Y-101045107D01*
X125883948Y-101073458D01*
X125877411Y-101077901D01*
X125829982Y-101108000D01*
X125824556Y-101113778D01*
X125824555Y-101113779D01*
X125824341Y-101114007D01*
X125806554Y-101129688D01*
X125806309Y-101129866D01*
X125806307Y-101129868D01*
X125799893Y-101134528D01*
X125794839Y-101140637D01*
X125794838Y-101140638D01*
X125764097Y-101177796D01*
X125758866Y-101183730D01*
X125725842Y-101218898D01*
X125725840Y-101218901D01*
X125720414Y-101224679D01*
X125716445Y-101231899D01*
X125703119Y-101251506D01*
X125702920Y-101251746D01*
X125702916Y-101251753D01*
X125697867Y-101257856D01*
X125694493Y-101265027D01*
X125673953Y-101308676D01*
X125670371Y-101315708D01*
X125643305Y-101364940D01*
X125641335Y-101372615D01*
X125641332Y-101372621D01*
X125641256Y-101372919D01*
X125633224Y-101395228D01*
X125633094Y-101395503D01*
X125633091Y-101395511D01*
X125629717Y-101402682D01*
X125628231Y-101410474D01*
X125619195Y-101457843D01*
X125617471Y-101465558D01*
X125603500Y-101519970D01*
X125603500Y-101528207D01*
X125601268Y-101551816D01*
X125599725Y-101559906D01*
X125600223Y-101567817D01*
X125603251Y-101615951D01*
X125603500Y-101623862D01*
X125603500Y-119649072D01*
X125591509Y-119702719D01*
X125573269Y-119741482D01*
X125571783Y-119749270D01*
X125571783Y-119749271D01*
X125557205Y-119825693D01*
X125543277Y-119898706D01*
X118618500Y-119898706D01*
X118618500Y-66783885D01*
X126054000Y-66783885D01*
X126058475Y-66799124D01*
X126059865Y-66800329D01*
X126067548Y-66802000D01*
X127489885Y-66802000D01*
X127505124Y-66797525D01*
X127506329Y-66796135D01*
X127508000Y-66788452D01*
X127508000Y-66783885D01*
X128016000Y-66783885D01*
X128020475Y-66799124D01*
X128021865Y-66800329D01*
X128029548Y-66802000D01*
X129451884Y-66802000D01*
X129467123Y-66797525D01*
X129468328Y-66796135D01*
X129469999Y-66788452D01*
X129469999Y-65811331D01*
X129469629Y-65804510D01*
X129464105Y-65753648D01*
X129460479Y-65738396D01*
X129415324Y-65617946D01*
X129406786Y-65602351D01*
X129330285Y-65500276D01*
X129317724Y-65487715D01*
X129215649Y-65411214D01*
X129200054Y-65402676D01*
X129079606Y-65357522D01*
X129064351Y-65353895D01*
X129013486Y-65348369D01*
X129006672Y-65348000D01*
X128034115Y-65348000D01*
X128018876Y-65352475D01*
X128017671Y-65353865D01*
X128016000Y-65361548D01*
X128016000Y-66783885D01*
X127508000Y-66783885D01*
X127508000Y-65366116D01*
X127503525Y-65350877D01*
X127502135Y-65349672D01*
X127494452Y-65348001D01*
X126517331Y-65348001D01*
X126510510Y-65348371D01*
X126459648Y-65353895D01*
X126444396Y-65357521D01*
X126323946Y-65402676D01*
X126308351Y-65411214D01*
X126206276Y-65487715D01*
X126193715Y-65500276D01*
X126117214Y-65602351D01*
X126108676Y-65617946D01*
X126063522Y-65738394D01*
X126059895Y-65753649D01*
X126054369Y-65804514D01*
X126054000Y-65811328D01*
X126054000Y-66783885D01*
X118618500Y-66783885D01*
X118618500Y-55480169D01*
X152068001Y-55480169D01*
X152068371Y-55486990D01*
X152073895Y-55537852D01*
X152077521Y-55553104D01*
X152122676Y-55673554D01*
X152131214Y-55689149D01*
X152207715Y-55791224D01*
X152220276Y-55803785D01*
X152322351Y-55880286D01*
X152337946Y-55888824D01*
X152458394Y-55933978D01*
X152473649Y-55937605D01*
X152524514Y-55943131D01*
X152531328Y-55943500D01*
X153303885Y-55943500D01*
X153319124Y-55939025D01*
X153320329Y-55937635D01*
X153322000Y-55929952D01*
X153322000Y-55925384D01*
X153830000Y-55925384D01*
X153834475Y-55940623D01*
X153835865Y-55941828D01*
X153843548Y-55943499D01*
X154620669Y-55943499D01*
X154627490Y-55943129D01*
X154678352Y-55937605D01*
X154693604Y-55933979D01*
X154814054Y-55888824D01*
X154829649Y-55880286D01*
X154931724Y-55803785D01*
X154944285Y-55791224D01*
X155020786Y-55689149D01*
X155029324Y-55673554D01*
X155074478Y-55553106D01*
X155078105Y-55537851D01*
X155083631Y-55486986D01*
X155084000Y-55480172D01*
X155084000Y-54755115D01*
X155079525Y-54739876D01*
X155078135Y-54738671D01*
X155070452Y-54737000D01*
X153848115Y-54737000D01*
X153832876Y-54741475D01*
X153831671Y-54742865D01*
X153830000Y-54750548D01*
X153830000Y-55925384D01*
X153322000Y-55925384D01*
X153322000Y-54755115D01*
X153317525Y-54739876D01*
X153316135Y-54738671D01*
X153308452Y-54737000D01*
X152086116Y-54737000D01*
X152070877Y-54741475D01*
X152069672Y-54742865D01*
X152068001Y-54750548D01*
X152068001Y-55480169D01*
X118618500Y-55480169D01*
X118618500Y-51943000D01*
X135512654Y-51943000D01*
X135512924Y-51947119D01*
X135519357Y-52045263D01*
X135532017Y-52238426D01*
X135532819Y-52242459D01*
X135532820Y-52242465D01*
X135586256Y-52511101D01*
X135589776Y-52528797D01*
X135591103Y-52532706D01*
X135591104Y-52532710D01*
X135667692Y-52758330D01*
X135684941Y-52809145D01*
X135737794Y-52916320D01*
X135786743Y-53015578D01*
X135815885Y-53074673D01*
X135818179Y-53078106D01*
X135977374Y-53316358D01*
X135980367Y-53320838D01*
X135983081Y-53323932D01*
X135983085Y-53323938D01*
X136119084Y-53479014D01*
X136175573Y-53543427D01*
X136178662Y-53546136D01*
X136395062Y-53735915D01*
X136395068Y-53735919D01*
X136398162Y-53738633D01*
X136401588Y-53740922D01*
X136401593Y-53740926D01*
X136585405Y-53863744D01*
X136644327Y-53903115D01*
X136648026Y-53904939D01*
X136648031Y-53904942D01*
X136784313Y-53972148D01*
X136909855Y-54034059D01*
X136913760Y-54035384D01*
X136913761Y-54035385D01*
X137186290Y-54127896D01*
X137186294Y-54127897D01*
X137190203Y-54129224D01*
X137194247Y-54130028D01*
X137194253Y-54130030D01*
X137476535Y-54186180D01*
X137476541Y-54186181D01*
X137480574Y-54186983D01*
X137484679Y-54187252D01*
X137484686Y-54187253D01*
X137771881Y-54206076D01*
X137776000Y-54206346D01*
X137780119Y-54206076D01*
X138067314Y-54187253D01*
X138067321Y-54187252D01*
X138071426Y-54186983D01*
X138075459Y-54186181D01*
X138075465Y-54186180D01*
X138357747Y-54130030D01*
X138357753Y-54130028D01*
X138361797Y-54129224D01*
X138365706Y-54127897D01*
X138365710Y-54127896D01*
X138638239Y-54035385D01*
X138638240Y-54035384D01*
X138642145Y-54034059D01*
X138767687Y-53972148D01*
X138903969Y-53904942D01*
X138903974Y-53904939D01*
X138907673Y-53903115D01*
X138966595Y-53863744D01*
X139150407Y-53740926D01*
X139150412Y-53740922D01*
X139153838Y-53738633D01*
X139156932Y-53735919D01*
X139156938Y-53735915D01*
X139373338Y-53546136D01*
X139376427Y-53543427D01*
X139432916Y-53479014D01*
X139568915Y-53323938D01*
X139568919Y-53323932D01*
X139571633Y-53320838D01*
X139574627Y-53316358D01*
X139733821Y-53078106D01*
X139736115Y-53074673D01*
X139765258Y-53015578D01*
X139814206Y-52916320D01*
X139867059Y-52809145D01*
X139884308Y-52758330D01*
X139960896Y-52532710D01*
X139960897Y-52532706D01*
X139962224Y-52528797D01*
X139965744Y-52511101D01*
X140019180Y-52242465D01*
X140019181Y-52242459D01*
X140019983Y-52238426D01*
X140032644Y-52045263D01*
X152066064Y-52045263D01*
X152102404Y-52282744D01*
X152139094Y-52394997D01*
X152175434Y-52506183D01*
X152175437Y-52506189D01*
X152177042Y-52511101D01*
X152179429Y-52515687D01*
X152179431Y-52515691D01*
X152186254Y-52528797D01*
X152287975Y-52724200D01*
X152404728Y-52879700D01*
X152429633Y-52946182D01*
X152414641Y-53015578D01*
X152364511Y-53065852D01*
X152348197Y-53073333D01*
X152337946Y-53077176D01*
X152322351Y-53085714D01*
X152220276Y-53162215D01*
X152207715Y-53174776D01*
X152131214Y-53276851D01*
X152122676Y-53292446D01*
X152077522Y-53412894D01*
X152073895Y-53428149D01*
X152068369Y-53479014D01*
X152068000Y-53485828D01*
X152068000Y-54210885D01*
X152072475Y-54226124D01*
X152073865Y-54227329D01*
X152081548Y-54229000D01*
X155065884Y-54229000D01*
X155081123Y-54224525D01*
X155082328Y-54223135D01*
X155083999Y-54215452D01*
X155083999Y-53485831D01*
X155083629Y-53479010D01*
X155078105Y-53428148D01*
X155074479Y-53412896D01*
X155029324Y-53292446D01*
X155020786Y-53276851D01*
X154944285Y-53174776D01*
X154931724Y-53162215D01*
X154829649Y-53085714D01*
X154814055Y-53077176D01*
X154802487Y-53072840D01*
X154745721Y-53030199D01*
X154721020Y-52963638D01*
X154736226Y-52894289D01*
X154747832Y-52876765D01*
X154841367Y-52758330D01*
X154841370Y-52758325D01*
X154844568Y-52754276D01*
X154858885Y-52728342D01*
X154958177Y-52548474D01*
X154958179Y-52548470D01*
X154960674Y-52543950D01*
X154964655Y-52532710D01*
X155039144Y-52322360D01*
X155039145Y-52322356D01*
X155040870Y-52317485D01*
X155046183Y-52287659D01*
X155082095Y-52086052D01*
X155082096Y-52086046D01*
X155083001Y-52080963D01*
X155085936Y-51840737D01*
X155049596Y-51603256D01*
X155012906Y-51491003D01*
X154976566Y-51379817D01*
X154976563Y-51379811D01*
X154974958Y-51374899D01*
X154967855Y-51361253D01*
X154866416Y-51166393D01*
X154864025Y-51161800D01*
X154719777Y-50969680D01*
X154546088Y-50803699D01*
X154509097Y-50778465D01*
X154464096Y-50723556D01*
X154455925Y-50653032D01*
X154487179Y-50589284D01*
X154511660Y-50568589D01*
X154513635Y-50567311D01*
X154517977Y-50564502D01*
X154695670Y-50402814D01*
X154766361Y-50313303D01*
X154841367Y-50218330D01*
X154841370Y-50218325D01*
X154844568Y-50214276D01*
X154858885Y-50188342D01*
X154958177Y-50008474D01*
X154958179Y-50008470D01*
X154960674Y-50003950D01*
X154963097Y-49997110D01*
X155039144Y-49782360D01*
X155039145Y-49782356D01*
X155040870Y-49777485D01*
X155041778Y-49772389D01*
X155082095Y-49546052D01*
X155082096Y-49546046D01*
X155083001Y-49540963D01*
X155085536Y-49333509D01*
X155085873Y-49305907D01*
X155085873Y-49305905D01*
X155085936Y-49300737D01*
X155049596Y-49063256D01*
X155001514Y-48916148D01*
X154976566Y-48839817D01*
X154976563Y-48839811D01*
X154974958Y-48834899D01*
X154956431Y-48799308D01*
X154930062Y-48748655D01*
X170197858Y-48748655D01*
X170233104Y-49007638D01*
X170234412Y-49012124D01*
X170234412Y-49012126D01*
X170247883Y-49058341D01*
X170306243Y-49258567D01*
X170415668Y-49495928D01*
X170418231Y-49499837D01*
X170556410Y-49710596D01*
X170556414Y-49710601D01*
X170558976Y-49714509D01*
X170733018Y-49909506D01*
X170933970Y-50076637D01*
X170937973Y-50079066D01*
X171153422Y-50209804D01*
X171153426Y-50209806D01*
X171157419Y-50212229D01*
X171398455Y-50313303D01*
X171651783Y-50377641D01*
X171656434Y-50378109D01*
X171656438Y-50378110D01*
X171849308Y-50397531D01*
X171868867Y-50399500D01*
X172024354Y-50399500D01*
X172026679Y-50399327D01*
X172026685Y-50399327D01*
X172214000Y-50385407D01*
X172214004Y-50385406D01*
X172218652Y-50385061D01*
X172223200Y-50384032D01*
X172223206Y-50384031D01*
X172418393Y-50339864D01*
X172473577Y-50327377D01*
X172509769Y-50313303D01*
X172712824Y-50234340D01*
X172712827Y-50234339D01*
X172717177Y-50232647D01*
X172944098Y-50102951D01*
X173149357Y-49941138D01*
X173328443Y-49750763D01*
X173434116Y-49598437D01*
X173474759Y-49539851D01*
X173474761Y-49539848D01*
X173477424Y-49536009D01*
X173482845Y-49525016D01*
X173590960Y-49305781D01*
X173590961Y-49305778D01*
X173593025Y-49301593D01*
X173672707Y-49052665D01*
X173714721Y-48794693D01*
X173716924Y-48626393D01*
X173718081Y-48538022D01*
X173718081Y-48538019D01*
X173718142Y-48533345D01*
X173682896Y-48274362D01*
X173680830Y-48267272D01*
X173661902Y-48202336D01*
X173609757Y-48023433D01*
X173606915Y-48017267D01*
X173579564Y-47957939D01*
X173500332Y-47786072D01*
X173403369Y-47638179D01*
X173359590Y-47571404D01*
X173359586Y-47571399D01*
X173357024Y-47567491D01*
X173182982Y-47372494D01*
X172982030Y-47205363D01*
X172885569Y-47146829D01*
X172762578Y-47072196D01*
X172762574Y-47072194D01*
X172758581Y-47069771D01*
X172517545Y-46968697D01*
X172264217Y-46904359D01*
X172259566Y-46903891D01*
X172259562Y-46903890D01*
X172050271Y-46882816D01*
X172047133Y-46882500D01*
X171891646Y-46882500D01*
X171889321Y-46882673D01*
X171889315Y-46882673D01*
X171702000Y-46896593D01*
X171701996Y-46896594D01*
X171697348Y-46896939D01*
X171692800Y-46897968D01*
X171692794Y-46897969D01*
X171506399Y-46940147D01*
X171442423Y-46954623D01*
X171438071Y-46956315D01*
X171438069Y-46956316D01*
X171203176Y-47047660D01*
X171203173Y-47047661D01*
X171198823Y-47049353D01*
X170971902Y-47179049D01*
X170766643Y-47340862D01*
X170587557Y-47531237D01*
X170438576Y-47745991D01*
X170436510Y-47750181D01*
X170436508Y-47750184D01*
X170331850Y-47962411D01*
X170322975Y-47980407D01*
X170321553Y-47984850D01*
X170321552Y-47984852D01*
X170266440Y-48157022D01*
X170243293Y-48229335D01*
X170201279Y-48487307D01*
X170201218Y-48491980D01*
X170199519Y-48621800D01*
X170197858Y-48748655D01*
X154930062Y-48748655D01*
X154866416Y-48626393D01*
X154864025Y-48621800D01*
X154719777Y-48429680D01*
X154546088Y-48263699D01*
X154347622Y-48128314D01*
X154342939Y-48126140D01*
X154342935Y-48126138D01*
X154134405Y-48029342D01*
X154134401Y-48029341D01*
X154129710Y-48027163D01*
X153898202Y-47962960D01*
X153893065Y-47962411D01*
X153705407Y-47942356D01*
X153705399Y-47942356D01*
X153702072Y-47942000D01*
X153467598Y-47942000D01*
X153465025Y-47942212D01*
X153465014Y-47942212D01*
X153364054Y-47950513D01*
X153289063Y-47956678D01*
X153056056Y-48015206D01*
X152927229Y-48071221D01*
X152840474Y-48108943D01*
X152840471Y-48108945D01*
X152835737Y-48111003D01*
X152634023Y-48241498D01*
X152456330Y-48403186D01*
X152432141Y-48433815D01*
X152310633Y-48587670D01*
X152310630Y-48587675D01*
X152307432Y-48591724D01*
X152304939Y-48596240D01*
X152304937Y-48596243D01*
X152218243Y-48753289D01*
X152191326Y-48802050D01*
X152189602Y-48806919D01*
X152189600Y-48806923D01*
X152112856Y-49023640D01*
X152111130Y-49028515D01*
X152110223Y-49033608D01*
X152110222Y-49033611D01*
X152070953Y-49254068D01*
X152068999Y-49265037D01*
X152066064Y-49505263D01*
X152102404Y-49742744D01*
X152137241Y-49849329D01*
X152175434Y-49966183D01*
X152175437Y-49966189D01*
X152177042Y-49971101D01*
X152179429Y-49975687D01*
X152179431Y-49975691D01*
X152230423Y-50073645D01*
X152287975Y-50184200D01*
X152291085Y-50188342D01*
X152396250Y-50328408D01*
X152432223Y-50376320D01*
X152605912Y-50542301D01*
X152642903Y-50567535D01*
X152687904Y-50622444D01*
X152696075Y-50692968D01*
X152664821Y-50756716D01*
X152640340Y-50777411D01*
X152638707Y-50778468D01*
X152634023Y-50781498D01*
X152456330Y-50943186D01*
X152432141Y-50973815D01*
X152310633Y-51127670D01*
X152310630Y-51127675D01*
X152307432Y-51131724D01*
X152304939Y-51136240D01*
X152304937Y-51136243D01*
X152193823Y-51337526D01*
X152191326Y-51342050D01*
X152189602Y-51346919D01*
X152189600Y-51346923D01*
X152181319Y-51370309D01*
X152111130Y-51568515D01*
X152110223Y-51573608D01*
X152110222Y-51573611D01*
X152104942Y-51603256D01*
X152068999Y-51805037D01*
X152066064Y-52045263D01*
X140032644Y-52045263D01*
X140039076Y-51947119D01*
X140039346Y-51943000D01*
X140032982Y-51845907D01*
X140020253Y-51651686D01*
X140020252Y-51651679D01*
X140019983Y-51647574D01*
X140003288Y-51563640D01*
X139963030Y-51361253D01*
X139963028Y-51361247D01*
X139962224Y-51357203D01*
X139958735Y-51346923D01*
X139868385Y-51080761D01*
X139868384Y-51080760D01*
X139867059Y-51076855D01*
X139736115Y-50811327D01*
X139657030Y-50692968D01*
X139573926Y-50568593D01*
X139573922Y-50568588D01*
X139571633Y-50565162D01*
X139568919Y-50562068D01*
X139568915Y-50562062D01*
X139379136Y-50345662D01*
X139376427Y-50342573D01*
X139340991Y-50311496D01*
X139156938Y-50150085D01*
X139156932Y-50150081D01*
X139153838Y-50147367D01*
X139150412Y-50145078D01*
X139150407Y-50145074D01*
X138911106Y-49985179D01*
X138907673Y-49982885D01*
X138903974Y-49981061D01*
X138903969Y-49981058D01*
X138751798Y-49906016D01*
X138642145Y-49851941D01*
X138638239Y-49850615D01*
X138365710Y-49758104D01*
X138365706Y-49758103D01*
X138361797Y-49756776D01*
X138357753Y-49755972D01*
X138357747Y-49755970D01*
X138075465Y-49699820D01*
X138075459Y-49699819D01*
X138071426Y-49699017D01*
X138067321Y-49698748D01*
X138067314Y-49698747D01*
X137780119Y-49679924D01*
X137776000Y-49679654D01*
X137771881Y-49679924D01*
X137484686Y-49698747D01*
X137484679Y-49698748D01*
X137480574Y-49699017D01*
X137476541Y-49699819D01*
X137476535Y-49699820D01*
X137194253Y-49755970D01*
X137194247Y-49755972D01*
X137190203Y-49756776D01*
X137186294Y-49758103D01*
X137186290Y-49758104D01*
X136913761Y-49850615D01*
X136909855Y-49851941D01*
X136800202Y-49906016D01*
X136648031Y-49981058D01*
X136648026Y-49981061D01*
X136644327Y-49982885D01*
X136640894Y-49985179D01*
X136401593Y-50145074D01*
X136401588Y-50145078D01*
X136398162Y-50147367D01*
X136395068Y-50150081D01*
X136395062Y-50150085D01*
X136211009Y-50311496D01*
X136175573Y-50342573D01*
X136172864Y-50345662D01*
X135983085Y-50562062D01*
X135983081Y-50562068D01*
X135980367Y-50565162D01*
X135978078Y-50568588D01*
X135978074Y-50568593D01*
X135894970Y-50692968D01*
X135815885Y-50811327D01*
X135684941Y-51076855D01*
X135683616Y-51080760D01*
X135683615Y-51080761D01*
X135593266Y-51346923D01*
X135589776Y-51357203D01*
X135588972Y-51361247D01*
X135588970Y-51361253D01*
X135548713Y-51563640D01*
X135532017Y-51647574D01*
X135531748Y-51651679D01*
X135531747Y-51651686D01*
X135519018Y-51845907D01*
X135512654Y-51943000D01*
X118618500Y-51943000D01*
X118618500Y-48367655D01*
X120159858Y-48367655D01*
X120195104Y-48626638D01*
X120196412Y-48631124D01*
X120196412Y-48631126D01*
X120216098Y-48698664D01*
X120268243Y-48877567D01*
X120377668Y-49114928D01*
X120380231Y-49118837D01*
X120518410Y-49329596D01*
X120518414Y-49329601D01*
X120520976Y-49333509D01*
X120695018Y-49528506D01*
X120895970Y-49695637D01*
X120899973Y-49698066D01*
X121115422Y-49828804D01*
X121115426Y-49828806D01*
X121119419Y-49831229D01*
X121360455Y-49932303D01*
X121613783Y-49996641D01*
X121618434Y-49997109D01*
X121618438Y-49997110D01*
X121811308Y-50016531D01*
X121830867Y-50018500D01*
X121986354Y-50018500D01*
X121988679Y-50018327D01*
X121988685Y-50018327D01*
X122176000Y-50004407D01*
X122176004Y-50004406D01*
X122180652Y-50004061D01*
X122185200Y-50003032D01*
X122185206Y-50003031D01*
X122371601Y-49960853D01*
X122435577Y-49946377D01*
X122441615Y-49944029D01*
X122674824Y-49853340D01*
X122674827Y-49853339D01*
X122679177Y-49851647D01*
X122906098Y-49721951D01*
X123111357Y-49560138D01*
X123290443Y-49369763D01*
X123439424Y-49155009D01*
X123484672Y-49063256D01*
X123552960Y-48924781D01*
X123552961Y-48924778D01*
X123555025Y-48920593D01*
X123580882Y-48839817D01*
X123633280Y-48676123D01*
X123634707Y-48671665D01*
X123676721Y-48413693D01*
X123680142Y-48152345D01*
X123644896Y-47893362D01*
X123630473Y-47843877D01*
X123613624Y-47786072D01*
X123571757Y-47642433D01*
X123462332Y-47405072D01*
X123333359Y-47208355D01*
X123321590Y-47190404D01*
X123321586Y-47190399D01*
X123319024Y-47186491D01*
X123144982Y-46991494D01*
X122944030Y-46824363D01*
X122896844Y-46795730D01*
X122724578Y-46691196D01*
X122724574Y-46691194D01*
X122720581Y-46688771D01*
X122479545Y-46587697D01*
X122226217Y-46523359D01*
X122221566Y-46522891D01*
X122221562Y-46522890D01*
X122012271Y-46501816D01*
X122009133Y-46501500D01*
X121853646Y-46501500D01*
X121851321Y-46501673D01*
X121851315Y-46501673D01*
X121664000Y-46515593D01*
X121663996Y-46515594D01*
X121659348Y-46515939D01*
X121654800Y-46516968D01*
X121654794Y-46516969D01*
X121468399Y-46559147D01*
X121404423Y-46573623D01*
X121400071Y-46575315D01*
X121400069Y-46575316D01*
X121165176Y-46666660D01*
X121165173Y-46666661D01*
X121160823Y-46668353D01*
X120933902Y-46798049D01*
X120728643Y-46959862D01*
X120549557Y-47150237D01*
X120513000Y-47202934D01*
X120419321Y-47337971D01*
X120400576Y-47364991D01*
X120398510Y-47369181D01*
X120398508Y-47369184D01*
X120298785Y-47571404D01*
X120284975Y-47599407D01*
X120205293Y-47848335D01*
X120163279Y-48106307D01*
X120162991Y-48128314D01*
X120161019Y-48278993D01*
X120159858Y-48367655D01*
X118618500Y-48367655D01*
X118618500Y-45084500D01*
X118638502Y-45016379D01*
X118692158Y-44969886D01*
X118744500Y-44958500D01*
X174752500Y-44958500D01*
X174820621Y-44978502D01*
G37*
%TD.AperFunction*%
%TD*%
M02*
